<?xml version="1.0" encoding="UTF-8"?>
<svg xmlns="http://www.w3.org/2000/svg" width="40" height="41" viewBox="0 0 40 41" fill="none">
  <g clip-path="url(#clip0_243_3507)">
    <path d="M7.31582 4.35632C5.85848 4.35632 4.67285 5.54156 4.67285 6.99828C4.67285 8.455 5.85848 9.64023 7.31582 9.64023C8.77434 9.64023 9.96098 8.455 9.96098 6.99828C9.96098 5.54156 8.77434 4.35632 7.31582 4.35632ZM7.31582 8.0646C6.7273 8.0646 6.24855 7.58624 6.24855 6.99828C6.24855 6.41031 6.7273 5.93203 7.31582 5.93203C7.90551 5.93203 8.38535 6.41039 8.38535 6.99835C8.38535 7.58632 7.90551 8.0646 7.31582 8.0646Z" fill="#D96122"></path>
    <path d="M30.4245 4.35632H23.4379C21.9805 4.35632 20.7949 5.54156 20.7949 6.99828C20.7949 8.455 21.9805 9.64023 23.4379 9.64023H30.4245C31.8819 9.64023 33.0675 8.455 33.0675 6.99828C33.0675 5.54156 31.8819 4.35632 30.4245 4.35632ZM30.4245 8.0646H23.4379C22.8494 8.0646 22.3706 7.58624 22.3706 6.99828C22.3706 6.41031 22.8495 5.93195 23.4379 5.93195H30.4245C31.013 5.93195 31.4918 6.41031 31.4918 6.99828C31.4918 7.58624 31.013 8.0646 30.4245 8.0646Z" fill="#D96122"></path>
    <path d="M14.1645 4.35632C12.7071 4.35632 11.5215 5.54156 11.5215 6.99828C11.5215 8.455 12.7071 9.64023 14.1645 9.64023C15.623 9.64023 16.8096 8.455 16.8096 6.99828C16.8096 5.54156 15.623 4.35632 14.1645 4.35632ZM14.1645 8.0646C13.5759 8.0646 13.0972 7.58624 13.0972 6.99828C13.0972 6.41031 13.576 5.93195 14.1645 5.93195C14.7541 5.93195 15.234 6.41031 15.234 6.99828C15.234 7.58624 14.7541 8.0646 14.1645 8.0646Z" fill="#D96122"></path>
    <path d="M12.8798 17.4167C12.4567 17.3154 12.0315 17.5766 11.9304 17.9998L10.3674 24.5403C10.2664 24.9635 10.5274 25.3886 10.9506 25.4897C11.0121 25.5044 11.0738 25.5115 11.1344 25.5115C11.4906 25.5115 11.8135 25.2682 11.8999 24.9066L13.4629 18.3661C13.5641 17.9429 13.303 17.5179 12.8798 17.4167Z" fill="#D96122"></path>
    <path d="M15.7727 24.7211C15.9228 24.8549 16.11 24.9206 16.2964 24.9206C16.5134 24.9206 16.7294 24.8316 16.8851 24.6568L19.0943 22.1768C19.4588 21.771 19.4588 21.1356 19.0966 20.7324L16.885 18.2498C16.5955 17.9248 16.0974 17.8962 15.7727 18.1855C15.4477 18.4749 15.4189 18.973 15.7084 19.2978L17.6285 21.4532L15.7084 23.6087C15.419 23.9337 15.4478 24.4317 15.7727 24.7211Z" fill="#D96122"></path>
    <path d="M8.05828 18.1855C7.73328 17.896 7.23539 17.925 6.94594 18.2498L4.73695 20.7295C4.37195 21.1354 4.37195 21.7712 4.73445 22.1742L6.94602 24.6568C7.10172 24.8316 7.31766 24.9206 7.53469 24.9206C7.72109 24.9206 7.90836 24.8548 8.05844 24.7211C8.38344 24.4316 8.41219 23.9336 8.12274 23.6088L6.20266 21.4534L8.12274 19.2979C8.41203 18.9729 8.38328 18.4748 8.05828 18.1855Z" fill="#D96122"></path>
    <path d="M38.2395 26.5642H37.947C37.7938 26.068 37.5953 25.5889 37.3531 25.1311L37.5619 24.9216C37.8952 24.5903 38.0792 24.1479 38.0799 23.6759C38.0806 23.2027 37.8973 22.7585 37.5635 22.4248L37.1568 22.0184V5.2371C37.1568 2.88718 35.4985 0.975464 33.4601 0.975464H3.70258C1.66414 0.975464 0.00585938 2.88718 0.00585938 5.2371V27.2569C0.00585938 29.6068 1.66414 31.5185 3.70258 31.5185H8.32492C8.76 31.5185 9.11273 31.1658 9.11273 30.7307C9.11273 30.2956 8.76 29.9429 8.32492 29.9429H3.70258C2.55289 29.9429 1.58156 28.7128 1.58156 27.257V12.9637H35.581V20.925C35.4912 20.9112 35.4003 20.9021 35.3077 20.9021C35.3068 20.9021 35.3059 20.9021 35.305 20.9021C34.833 20.9029 34.3905 21.0866 34.0618 21.4172L33.8488 21.6292C33.3814 21.3823 32.8946 21.1814 32.3927 21.028V20.7474C32.3927 19.7737 31.6003 18.9816 30.6263 18.9816H29.2006C28.2279 18.9816 27.4366 19.7737 27.4366 20.7474V21.0473C26.9441 21.202 26.4685 21.4012 26.014 21.643L25.8099 21.4396C25.4785 21.1066 25.036 20.9227 24.564 20.9219C24.5631 20.9219 24.5623 20.9219 24.5613 20.9219C24.0892 20.9219 23.6459 21.1052 23.3129 21.438L22.3056 22.4448C21.9719 22.7784 21.7885 23.2227 21.7892 23.6957C21.7899 24.1677 21.9738 24.6102 22.3047 24.9389L22.5223 25.1571C22.2861 25.6079 22.0921 26.0781 21.942 26.5641H21.6428C20.67 26.5641 19.8787 27.3552 19.8787 28.3277V29.7548C19.8787 29.8182 19.8822 29.8809 19.8888 29.9426H15.3048C14.8697 29.9426 14.517 30.2953 14.517 30.7304C14.517 31.1655 14.8697 31.5182 15.3048 31.5182H21.6427H21.945C22.0973 32.0087 22.2943 32.4827 22.5345 32.9365L22.3216 33.1484C21.6362 33.8375 21.6369 34.9562 22.3233 35.642L23.3311 36.6495C23.6625 36.9825 24.105 37.1664 24.577 37.1671H24.5796C25.0518 37.1671 25.4951 36.9839 25.8281 36.651L26.0391 36.4402C26.497 36.6815 26.973 36.8787 27.463 37.0302V37.3351C27.463 38.3088 28.2543 39.1009 29.2271 39.1009H30.655C31.6277 39.1009 32.4191 38.3088 32.4191 37.3351V37.032C32.9137 36.8795 33.3916 36.6815 33.8489 36.4401L34.059 36.6494C34.3903 36.9825 34.8327 37.1663 35.3048 37.1671H35.3075C35.7796 37.1671 36.2229 36.9839 36.5566 36.6505L37.5616 35.6437C37.895 35.3123 38.079 34.8699 38.0797 34.3979C38.0804 33.9248 37.897 33.4805 37.5632 33.1469L37.353 32.9367C37.5927 32.4826 37.7895 32.0083 37.9416 31.5183H38.2394C39.2134 31.5183 40.0057 30.7272 40.0057 29.7548V28.3277C40.0059 27.3553 39.2135 26.5642 38.2395 26.5642ZM1.58156 11.388V5.2371C1.58156 3.78124 2.55289 2.55117 3.70258 2.55117H33.4601C34.6098 2.55117 35.5811 3.78124 35.5811 5.2371V11.388L1.58156 11.388ZM38.4302 29.7549C38.4302 29.855 38.3411 29.9427 38.2395 29.9427H37.3385C36.9712 29.9427 36.6526 30.1966 36.5705 30.5546C36.4004 31.2972 36.1081 32.0014 35.7018 32.6479C35.5061 32.9592 35.5518 33.3645 35.812 33.6245L36.4495 34.2616C36.4971 34.3092 36.5041 34.3661 36.5041 34.3958C36.5041 34.4312 36.4948 34.4827 36.4488 34.5284L35.4423 35.5367C35.3945 35.5844 35.3376 35.5916 35.3076 35.5916C35.3075 35.5916 35.3074 35.5916 35.3074 35.5916C35.2716 35.5916 35.22 35.5823 35.1738 35.5358L34.534 34.8986C34.2738 34.6395 33.8692 34.5945 33.5585 34.7898C32.9111 35.1971 32.2039 35.4898 31.4565 35.6599C31.098 35.7416 30.8435 36.0604 30.8435 36.4282V37.3353C30.8435 37.4366 30.7555 37.5255 30.6552 37.5255H29.2273C29.1269 37.5255 29.0388 37.4366 29.0388 37.3353V36.4259C29.0388 36.0578 28.7838 35.7387 28.4248 35.6575C27.6869 35.4906 26.9809 35.1984 26.3267 34.789C26.1978 34.7083 26.053 34.6689 25.909 34.6689C25.7055 34.6689 25.5037 34.7476 25.3518 34.8996L24.7144 35.5367C24.6666 35.5844 24.6097 35.5916 24.5797 35.5916C24.5796 35.5916 24.5795 35.5916 24.5795 35.5916C24.5437 35.5916 24.492 35.5823 24.4468 35.5368L23.4373 34.5278C23.3666 34.4572 23.3674 34.332 23.4364 34.2627L24.0762 33.6255C24.3376 33.3652 24.3833 32.9584 24.1863 32.6466C23.7794 32.0022 23.4867 31.2984 23.3164 30.5548C23.2344 30.1968 22.9158 29.9429 22.5484 29.9429H21.6429C21.5408 29.9429 21.4545 29.8569 21.4545 29.7551V28.328C21.4545 28.2262 21.5408 28.1401 21.6429 28.1401H22.5461C22.9138 28.1401 23.2327 27.8856 23.3144 27.5271C23.4825 26.7883 23.7714 26.0874 24.173 25.4438C24.367 25.1331 24.3212 24.7298 24.0625 24.4704L23.418 23.824C23.3742 23.7805 23.365 23.7291 23.3649 23.6936C23.3649 23.6639 23.372 23.607 23.4196 23.5595L24.4268 22.5527C24.4745 22.5051 24.5315 22.4979 24.5615 22.4979H24.5617C24.5974 22.498 24.6491 22.5072 24.6953 22.5537L25.3306 23.1865C25.5916 23.4464 25.9977 23.4909 26.3084 23.2937C26.9522 22.8856 27.6573 22.59 28.404 22.4152C28.7602 22.3319 29.0122 22.0141 29.0122 21.6481V20.7477C29.0122 20.6446 29.0984 20.5575 29.2005 20.5575H30.6263C30.7296 20.5575 30.817 20.6446 30.817 20.7477V21.6348C30.817 22.004 31.0732 22.3236 31.4336 22.4038C32.1832 22.5708 32.8984 22.8656 33.5592 23.2802C33.8698 23.4749 34.2739 23.4299 34.5339 23.171L35.1763 22.5312C35.2199 22.4873 35.2716 22.4781 35.3073 22.478H35.3075C35.3375 22.478 35.3945 22.4852 35.4421 22.5329L36.4494 23.5395C36.497 23.5872 36.5041 23.6441 36.5041 23.6737C36.504 23.7092 36.4948 23.7607 36.4484 23.8067L35.8109 24.4462C35.5513 24.7066 35.5062 25.1119 35.7024 25.4228C36.1103 26.0695 36.4038 26.7776 36.5747 27.5274C36.6564 27.8859 36.9752 28.1402 37.3429 28.1402H38.2395C38.341 28.1402 38.4302 28.228 38.4302 28.328V29.7549Z" fill="#D96122"></path>
    <path d="M29.9426 24.2299C27.2878 24.2299 25.1279 26.3888 25.1279 29.0424C25.1279 31.6949 27.2878 33.8528 29.9426 33.8528C32.5963 33.8528 34.7551 31.6949 34.7551 29.0424C34.7551 26.3888 32.5963 24.2299 29.9426 24.2299ZM29.9426 32.2771C28.1567 32.2771 26.7036 30.826 26.7036 29.0424C26.7036 27.2576 28.1567 25.8056 29.9426 25.8056C31.7274 25.8056 33.1794 27.2576 33.1794 29.0424C33.1794 30.826 31.7273 32.2771 29.9426 32.2771Z" fill="#D96122"></path>
    <path d="M11.8384 29.9429H11.823C11.3879 29.9429 11.0352 30.2956 11.0352 30.7307C11.0352 31.1658 11.3879 31.5185 11.823 31.5185H11.8384C12.2735 31.5185 12.6262 31.1658 12.6262 30.7307C12.6262 30.2956 12.2735 29.9429 11.8384 29.9429Z" fill="#D96122"></path>
  </g>
  <defs>
    <clipPath id="clip0_243_3507">
      <rect width="40" height="40" fill="white" transform="translate(0.00585938 0.0383301)"></rect>
    </clipPath>
  </defs>
</svg>
