<svg width="508" height="508" viewBox="0 0 508 508" fill="none" xmlns="http://www.w3.org/2000/svg">
<mask id="mask0_608_505" style="mask-type:alpha" maskUnits="userSpaceOnUse" x="57" y="57" width="394" height="394">
<ellipse cx="253.565" cy="253.565" rx="196.481" ry="196.481" transform="rotate(-110.859 253.565 253.565)" fill="#C4C4C4"/>
</mask>
<g mask="url(#mask0_608_505)">
<path d="M531.121 1134.63C447.03 681.458 114.538 288.804 -291.062 207.659" stroke="#D80041" stroke-opacity="0.08"/>
<path d="M549.843 1128.31C465.752 675.136 231.547 344.186 -272.34 201.337" stroke="#D80041" stroke-opacity="0.08"/>
<path d="M570.592 1118.78C486.501 665.605 246.752 328.639 -251.591 191.806" stroke="#D80041" stroke-opacity="0.08"/>
<path d="M592.425 1112.08C483.995 595.037 175.843 266.257 -229.758 185.112" stroke="#D80041" stroke-opacity="0.08"/>
<path d="M619.395 1101.81C535.304 648.634 202.812 255.98 -202.788 174.835" stroke="#D80041" stroke-opacity="0.08"/>
<path d="M636.428 1095.32C549.194 653.094 270.409 296.867 -185.755 168.344" stroke="#D80041" stroke-opacity="0.08"/>
<path d="M657.718 1087.2C573.627 634.03 328.61 342.961 -164.465 160.231" stroke="#D80041" stroke-opacity="0.08"/>
<path d="M677.049 1078.21C616.548 631.493 293.863 294.433 -145.134 151.24" stroke="#D80041" stroke-opacity="0.08"/>
<path d="M696.717 1065.84C577.339 579.787 339.621 273.745 -125.466 138.869" stroke="#D80041" stroke-opacity="0.08"/>
<path d="M718.01 1057.73C633.918 604.554 330.597 247.924 -104.173 130.755" stroke="#D80041" stroke-opacity="0.08"/>
<path d="M869.886 999.853C730.835 474.97 509.275 198.533 47.7033 72.8827" stroke="#D80041" stroke-opacity="0.08"/>
<path d="M737.881 1050.15C653.789 596.982 321.298 204.328 -84.3021 123.183" stroke="#D80041" stroke-opacity="0.08"/>
<path d="M889.757 992.281C757.503 508.697 534.011 169.601 67.5744 65.3105" stroke="#D80041" stroke-opacity="0.08"/>
<path d="M762.01 1040.96C677.919 587.788 345.428 195.133 -60.1727 113.989" stroke="#D80041" stroke-opacity="0.08"/>
<path d="M913.887 983.087C757.972 463.004 567.742 194.134 91.7043 56.116" stroke="#D80041" stroke-opacity="0.08"/>
<path d="M783.302 1032.85C699.21 579.675 480.892 277.62 -38.8812 105.876" stroke="#D80041" stroke-opacity="0.08"/>
<path d="M935.178 974.974C761.758 472.94 640.675 202.104 112.995 48.0031" stroke="#D80041" stroke-opacity="0.08"/>
<path d="M804.592 1024.73C720.501 571.562 503.872 269.676 -17.5906 97.7632" stroke="#D80041" stroke-opacity="0.08"/>
<path d="M956.471 966.861C800.559 480.912 638.851 193.047 134.288 39.8898" stroke="#D80041" stroke-opacity="0.08"/>
<path d="M831.562 1014.46C691.564 478.556 478.421 230.609 9.37909 87.4864" stroke="#D80041" stroke-opacity="0.08"/>
<path d="M983.438 956.584C821.545 482.667 589.333 142.017 161.256 29.6128" stroke="#D80041" stroke-opacity="0.08"/>
<path d="M848.595 1007.97C751.69 501.972 444.723 195.496 26.4123 80.9957" stroke="#D80041" stroke-opacity="0.08"/>
<path d="M1000.47 950.094C744.478 348.671 564.358 142.595 178.289 23.1232" stroke="#D80041" stroke-opacity="0.08"/>
</g>
</svg>
