<?xml version="1.0" encoding="UTF-8"?>
<svg xmlns="http://www.w3.org/2000/svg" width="70" height="70" viewBox="0 0 70 70" fill="none">
  <path d="M27.3438 62.3438C27.3398 59.7395 26.5622 57.1952 25.1097 55.0336C23.6571 52.8721 21.5952 51.1908 19.1855 50.2031C21.3742 49.0876 23.1237 47.2676 24.152 45.0365C25.1803 42.8054 25.4275 40.2931 24.8539 37.9044C24.2802 35.5156 22.9191 33.3896 20.9898 31.8687C19.0605 30.3479 16.6754 29.5209 14.2188 29.5209C11.7621 29.5209 9.37697 30.3479 7.44767 31.8687C5.51837 33.3896 4.15725 35.5156 3.58361 37.9044C3.00997 40.2931 3.25722 42.8054 4.28551 45.0365C5.31381 47.2676 7.06327 49.0876 9.25203 50.2031C6.84233 51.1908 4.78037 52.8721 3.32785 55.0336C1.87533 57.1952 1.09773 59.7395 1.09375 62.3438V67.8125C1.09375 68.1026 1.20898 68.3808 1.4141 68.5859C1.61922 68.791 1.89742 68.9062 2.1875 68.9062H26.25C26.5401 68.9062 26.8183 68.791 27.0234 68.5859C27.2285 68.3808 27.3438 68.1026 27.3438 67.8125V62.3438ZM14.2188 31.7188C15.7528 31.7207 17.2594 32.1259 18.5874 32.8938C19.9155 33.6617 21.0183 34.7652 21.7853 36.0938H15.8594C15.1342 36.0938 14.4387 36.3818 13.9259 36.8946C13.4131 37.4074 13.125 38.1029 13.125 38.8281C13.125 38.9732 13.0674 39.1123 12.9648 39.2148C12.8623 39.3174 12.7232 39.375 12.5781 39.375H5.54422C5.81227 37.2624 6.84078 35.3199 8.43737 33.9107C10.034 32.5015 12.0892 31.7223 14.2188 31.7188ZM5.54422 41.5625H12.5781C13.3033 41.5625 13.9988 41.2744 14.5116 40.7616C15.0244 40.2488 15.3125 39.5533 15.3125 38.8281C15.3125 38.6831 15.3701 38.544 15.4727 38.4414C15.5752 38.3389 15.7143 38.2812 15.8594 38.2812H22.6811C22.9813 39.4386 23.0409 40.6452 22.8563 41.8264C22.6717 43.0077 22.2467 44.1386 21.6077 45.1491C20.9686 46.1596 20.1291 47.0283 19.141 47.7015C18.1529 48.3746 17.0372 48.8379 15.8629 49.0628C14.6886 49.2876 13.4807 49.2692 12.3138 49.0087C11.1469 48.7481 10.0459 48.251 9.07872 47.548C8.11159 46.8451 7.29894 45.9512 6.691 44.9217C6.08305 43.8921 5.69275 42.7489 5.54422 41.5625ZM19.1406 52.5908L14.2188 57.5127L9.29688 52.5908C10.8218 51.8119 12.5097 51.4058 14.222 51.4058C15.9343 51.4058 17.6223 51.8119 19.1472 52.5908H19.1406ZM25.1562 66.7188H3.28125V62.3438C3.28203 60.7007 3.65362 59.0791 4.36833 57.5997C5.08305 56.1202 6.12245 54.8212 7.40906 53.7994L13.4455 59.8358C13.6506 60.0408 13.9287 60.156 14.2188 60.156C14.5088 60.156 14.7869 60.0408 14.992 59.8358L21.0284 53.7994C22.3151 54.8212 23.3545 56.1202 24.0692 57.5997C24.7839 59.0791 25.1555 60.7007 25.1562 62.3438V66.7188ZM60.748 50.2031C62.9367 49.0876 64.6862 47.2676 65.7145 45.0365C66.7428 42.8054 66.99 40.2931 66.4164 37.9044C65.8427 35.5156 64.4816 33.3896 62.5523 31.8687C60.623 30.3479 58.2379 29.5209 55.7812 29.5209C53.3246 29.5209 50.9395 30.3479 49.0102 31.8687C47.0809 33.3896 45.7198 35.5156 45.1461 37.9044C44.5725 40.2931 44.8197 42.8054 45.848 45.0365C46.8763 47.2676 48.6258 49.0876 50.8145 50.2031C48.4048 51.1908 46.3429 52.8721 44.8903 55.0336C43.4378 57.1952 42.6602 59.7395 42.6562 62.3438V67.8125C42.6562 68.1026 42.7715 68.3808 42.9766 68.5859C43.1817 68.791 43.4599 68.9062 43.75 68.9062H67.8125C68.1026 68.9062 68.3808 68.791 68.5859 68.5859C68.791 68.3808 68.9062 68.1026 68.9062 67.8125V62.3438C68.9023 59.7395 68.1247 57.1952 66.6722 55.0336C65.2196 52.8721 63.1577 51.1908 60.748 50.2031ZM55.7812 31.7188C57.3153 31.7207 58.8219 32.1259 60.1499 32.8938C61.478 33.6617 62.5808 34.7652 63.3478 36.0938H57.4219C56.6967 36.0938 56.0012 36.3818 55.4884 36.8946C54.9756 37.4074 54.6875 38.1029 54.6875 38.8281C54.6875 38.9732 54.6299 39.1123 54.5273 39.2148C54.4248 39.3174 54.2857 39.375 54.1406 39.375H47.1067C47.3748 37.2624 48.4033 35.3199 49.9999 33.9107C51.5965 32.5015 53.6517 31.7223 55.7812 31.7188ZM47.1067 41.5625H54.1406C54.8658 41.5625 55.5613 41.2744 56.0741 40.7616C56.5869 40.2488 56.875 39.5533 56.875 38.8281C56.875 38.6831 56.9326 38.544 57.0352 38.4414C57.1377 38.3389 57.2768 38.2812 57.4219 38.2812H64.2436C64.5438 39.4386 64.6034 40.6452 64.4188 41.8264C64.2342 43.0077 63.8092 44.1386 63.1702 45.1491C62.5311 46.1596 61.6916 47.0283 60.7035 47.7015C59.7154 48.3746 58.5997 48.8379 57.4254 49.0628C56.2511 49.2876 55.0432 49.2692 53.8763 49.0087C52.7094 48.7481 51.6084 48.251 50.6412 47.548C49.6741 46.8451 48.8614 45.9512 48.2535 44.9217C47.6456 43.8921 47.2553 42.7489 47.1067 41.5625ZM60.7031 52.5908L55.7812 57.5127L50.8594 52.5908C52.3843 51.8119 54.0722 51.4058 55.7845 51.4058C57.4968 51.4058 59.1848 51.8119 60.7097 52.5908H60.7031ZM66.7188 66.7188H44.8438V62.3438C44.8445 60.7007 45.2161 59.0791 45.9308 57.5997C46.6455 56.1202 47.6849 54.8212 48.9716 53.7994L55.008 59.8358C55.2131 60.0408 55.4912 60.156 55.7812 60.156C56.0713 60.156 56.3494 60.0408 56.5545 59.8358L62.5909 53.7994C63.8776 54.8212 64.917 56.1202 65.6317 57.5997C66.3464 59.0791 66.718 60.7007 66.7188 62.3438V66.7188ZM49.4375 19.6656C49.6845 19.6152 49.9066 19.481 50.066 19.2856C50.2255 19.0903 50.3126 18.8459 50.3125 18.5938V14.2188C50.3126 13.9666 50.2255 13.7222 50.066 13.5269C49.9066 13.3315 49.6845 13.1973 49.4375 13.1469L47.6109 12.7816C47.337 11.835 46.9561 10.9228 46.4756 10.0625L47.5103 8.50938C47.6503 8.29907 47.7132 8.04677 47.6883 7.79535C47.6634 7.54392 47.5522 7.30888 47.3736 7.13016L44.2805 4.03266C44.1017 3.85408 43.8667 3.74288 43.6153 3.71795C43.3639 3.69303 43.1116 3.75592 42.9012 3.89594L41.3481 4.93062C40.4862 4.45144 39.5725 4.07202 38.6247 3.79969L38.2594 1.96875C38.2089 1.7217 38.0747 1.49966 37.8794 1.34021C37.6841 1.18077 37.4396 1.0937 37.1875 1.09375H32.8125C32.5604 1.0937 32.3159 1.18077 32.1206 1.34021C31.9253 1.49966 31.7911 1.7217 31.7406 1.96875L31.3753 3.79531C30.4288 4.06935 29.5166 4.45024 28.6563 4.93062L27.1031 3.89594C26.8928 3.75592 26.6405 3.69303 26.3891 3.71795C26.1377 3.74288 25.9026 3.85408 25.7239 4.03266L22.6264 7.12578C22.4478 7.30451 22.3366 7.53955 22.3117 7.79097C22.2868 8.04239 22.3497 8.29469 22.4897 8.505L23.5244 10.0581C23.0451 10.92 22.6657 11.8337 22.3934 12.7816L20.5669 13.1469C20.319 13.1964 20.096 13.3303 19.9357 13.5257C19.7753 13.7211 19.6877 13.966 19.6875 14.2188V18.5938C19.6874 18.8459 19.7745 19.0903 19.934 19.2856C20.0934 19.481 20.3155 19.6152 20.5625 19.6656L22.3891 20.0309C22.6613 20.9788 23.0407 21.8925 23.52 22.7544L22.4853 24.3075C22.3453 24.5178 22.2824 24.7701 22.3073 25.0215C22.3323 25.273 22.4435 25.508 22.622 25.6867L25.7152 28.7798C25.8939 28.9584 26.1289 29.0696 26.3803 29.0945C26.6318 29.1195 26.8841 29.0566 27.0944 28.9166L28.6475 27.8819C29.5095 28.3608 30.4232 28.7402 31.3709 29.0128L31.7363 30.8394C31.7859 31.088 31.9204 31.3116 32.1167 31.472C32.3131 31.6324 32.559 31.7196 32.8125 31.7188H37.1875C37.4396 31.7188 37.6841 31.6317 37.8794 31.4723C38.0747 31.3128 38.2089 31.0908 38.2594 30.8438L38.6247 29.0172C39.5724 28.7446 40.4861 28.3652 41.3481 27.8863L42.9012 28.9209C43.1116 29.061 43.3639 29.1238 43.6153 29.0989C43.8667 29.074 44.1017 28.9628 44.2805 28.7842L47.3736 25.6911C47.5522 25.5124 47.6634 25.2773 47.6883 25.0259C47.7132 24.7745 47.6503 24.5222 47.5103 24.3119L46.4756 22.7588C46.9549 21.8969 47.3344 20.9832 47.6066 20.0353L49.4375 19.6656ZM45.6575 18.8497C45.3848 20.0394 44.9134 21.1746 44.263 22.2075C44.1508 22.3861 44.0926 22.5934 44.0955 22.8044C44.0984 23.0153 44.1623 23.2209 44.2794 23.3964L45.1981 24.7734L43.3727 26.5989L41.9945 25.6802C41.8189 25.5632 41.6133 25.4996 41.4023 25.4968C41.1914 25.4941 40.9842 25.5525 40.8056 25.6648C39.7726 26.3149 38.6374 26.7863 37.4478 27.0594C37.2424 27.1065 37.0549 27.212 36.9081 27.3632C36.7612 27.5143 36.6611 27.7047 36.6198 27.9114L36.2906 29.5312H33.7094L33.3813 27.9114C33.34 27.7047 33.2399 27.5143 33.093 27.3632C32.9461 27.212 32.7587 27.1065 32.5533 27.0594C31.3637 26.7863 30.2285 26.3149 29.1955 25.6648C29.0169 25.5525 28.8097 25.4941 28.5988 25.4968C28.3878 25.4996 28.1822 25.5632 28.0066 25.6802L26.6284 26.5989L24.8063 24.7734L25.725 23.3964C25.8421 23.2209 25.906 23.0153 25.9089 22.8044C25.9118 22.5934 25.8536 22.3861 25.7414 22.2075C25.091 21.1746 24.6196 20.0394 24.3469 18.8497C24.2997 18.6443 24.1942 18.4568 24.0431 18.3099C23.8919 18.163 23.7015 18.063 23.4948 18.0217L21.875 17.698V15.1145L23.4948 14.7864C23.7015 14.7452 23.8919 14.6451 24.0431 14.4982C24.1942 14.3513 24.2997 14.1639 24.3469 13.9584C24.6205 12.7717 25.0919 11.6396 25.7414 10.6094C25.8536 10.4307 25.9118 10.2234 25.9089 10.0125C25.906 9.80155 25.8421 9.59595 25.725 9.42047L24.8063 8.03906L26.6317 6.21359L28.0098 7.13125C28.1853 7.24796 28.3908 7.3115 28.6015 7.31422C28.8122 7.31693 29.0192 7.25871 29.1977 7.14656C30.2313 6.49724 31.3668 6.02621 32.5566 5.75313C32.762 5.70598 32.9494 5.60049 33.0963 5.44933C33.2432 5.29817 33.3433 5.10779 33.3845 4.90109L33.7094 3.28125H36.2906L36.6187 4.90109C36.66 5.10779 36.7601 5.29817 36.907 5.44933C37.0539 5.60049 37.2413 5.70598 37.4467 5.75313C38.6365 6.02621 39.7719 6.49724 40.8056 7.14656C40.984 7.25871 41.1911 7.31693 41.4018 7.31422C41.6125 7.3115 41.818 7.24796 41.9934 7.13125L43.3716 6.21359L45.1937 8.03906L44.275 9.41609C44.157 9.59204 44.0926 9.79847 44.0897 10.0103C44.0868 10.2221 44.1455 10.4303 44.2586 10.6094C44.909 11.6422 45.3804 12.7775 45.6531 13.9672C45.7003 14.1726 45.8058 14.3601 45.9569 14.5069C46.1081 14.6538 46.2985 14.7539 46.5052 14.7952L48.125 15.1233V17.7067L46.5052 18.0348C46.3001 18.0751 46.1109 18.1732 45.96 18.3176C45.809 18.462 45.7025 18.6467 45.6531 18.8497H45.6575Z" fill="#D96122"></path>
  <path d="M35 8.75C33.4857 8.75 32.0055 9.19903 30.7464 10.0403C29.4874 10.8816 28.506 12.0773 27.9266 13.4763C27.3471 14.8753 27.1954 16.4147 27.4909 17.8999C27.7863 19.3851 28.5155 20.7493 29.5862 21.82C30.657 22.8908 32.0212 23.62 33.5063 23.9154C34.9915 24.2108 36.5309 24.0592 37.9299 23.4797C39.3289 22.9002 40.5247 21.9189 41.3659 20.6598C42.2072 19.4008 42.6563 17.9205 42.6563 16.4062C42.6539 14.3764 41.8466 12.4303 40.4112 10.995C38.9759 9.5597 37.0299 8.75232 35 8.75ZM35 21.875C33.9184 21.875 32.8611 21.5543 31.9617 20.9534C31.0624 20.3524 30.3615 19.4983 29.9475 18.4991C29.5336 17.4998 29.4253 16.4002 29.6363 15.3393C29.8473 14.2785 30.3682 13.3041 31.133 12.5393C31.8978 11.7744 32.8723 11.2536 33.9331 11.0426C34.9939 10.8316 36.0935 10.9399 37.0928 11.3538C38.0921 11.7677 38.9462 12.4686 39.5471 13.368C40.148 14.2673 40.4688 15.3246 40.4688 16.4062C40.467 17.8561 39.8903 19.2461 38.8651 20.2713C37.8399 21.2965 36.4499 21.8733 35 21.875ZM43.4295 39.6955L37.9608 34.2267C37.8078 34.0738 37.613 33.9697 37.4008 33.9275C37.1887 33.8853 36.9688 33.907 36.769 33.9897C36.5691 34.0725 36.3983 34.2126 36.2782 34.3925C36.158 34.5723 36.0938 34.7837 36.0938 35V37.1875H29.5313C29.2412 37.1875 28.963 37.3027 28.7579 37.5079C28.5527 37.713 28.4375 37.9912 28.4375 38.2812V42.6562C28.4375 42.9463 28.5527 43.2245 28.7579 43.4296C28.963 43.6348 29.2412 43.75 29.5313 43.75H36.0938V45.9375C36.0937 46.1538 36.1578 46.3653 36.2779 46.5452C36.398 46.725 36.5688 46.8653 36.7686 46.9481C36.9013 47.0035 37.0437 47.0317 37.1875 47.0312C37.4776 47.0312 37.7557 46.9159 37.9608 46.7108L43.4295 41.242C43.6346 41.0369 43.7498 40.7588 43.7498 40.4688C43.7498 40.1787 43.6346 39.9006 43.4295 39.6955ZM38.2813 43.2972V42.6562C38.2813 42.3662 38.166 42.088 37.9609 41.8829C37.7558 41.6777 37.4776 41.5625 37.1875 41.5625H30.625V39.375H37.1875C37.4776 39.375 37.7558 39.2598 37.9609 39.0546C38.166 38.8495 38.2813 38.5713 38.2813 38.2812V37.6403L41.1097 40.4688L38.2813 43.2972ZM34.3252 47.1144C34.1253 47.0316 33.9053 47.0099 33.6931 47.0522C33.4808 47.0944 33.2859 47.1987 33.133 47.3517L27.6642 52.8205C27.4592 53.0256 27.344 53.3037 27.344 53.5938C27.344 53.8838 27.4592 54.1619 27.6642 54.367L33.133 59.8358C33.338 60.0409 33.6162 60.1562 33.9063 60.1562C34.05 60.1567 34.1925 60.1285 34.3252 60.0731C34.525 59.9903 34.6957 59.85 34.8159 59.6702C34.936 59.4903 35.0001 59.2788 35 59.0625V56.875H41.5625C41.8526 56.875 42.1308 56.7598 42.3359 56.5546C42.541 56.3495 42.6563 56.0713 42.6563 55.7812V51.4062C42.6563 51.1162 42.541 50.838 42.3359 50.6329C42.1308 50.4277 41.8526 50.3125 41.5625 50.3125H35V48.125C35.0001 47.9087 34.936 47.6972 34.8159 47.5173C34.6957 47.3375 34.525 47.1972 34.3252 47.1144ZM40.4688 52.5V54.6875H33.9063C33.6162 54.6875 33.338 54.8027 33.1329 55.0079C32.9277 55.213 32.8125 55.4912 32.8125 55.7812V56.4222L29.9841 53.5938L32.8125 50.7653V51.4062C32.8125 51.6963 32.9277 51.9745 33.1329 52.1796C33.338 52.3848 33.6162 52.5 33.9063 52.5H40.4688Z" fill="#D96122"></path>
</svg>
