<svg width="108" height="78" viewBox="0 0 108 78" fill="none" xmlns="http://www.w3.org/2000/svg">
<path fill-rule="evenodd" clip-rule="evenodd" d="M3.20914 12.5C1.85197 14.2046 1.65531 15.0666 2.50354 15.5906C2.92463 15.8507 3.0306 15.8355 3.69753 15.4205C4.56172 14.8827 4.95571 14.4054 4.80347 14.0808C4.74303 13.9519 4.86071 13.4473 5.06492 12.9594C5.36919 12.2327 5.38577 11.9871 5.15704 11.6017C4.76737 10.9449 4.26141 11.1781 3.20914 12.5ZM33.1221 2.56258C32.2255 3.25791 29.8664 5.46229 29.5071 5.94015C29.3919 6.09353 29.3515 6.33357 29.4172 6.47377C29.5524 6.76199 29.8683 6.58245 31.7195 5.16657C32.3095 4.71515 33.63 3.84222 34.654 3.22664C35.6778 2.61112 36.5557 1.99607 36.6047 1.86012C36.6537 1.72393 36.5901 1.45398 36.4634 1.25998C36.248 0.930473 36.1591 0.939829 35.105 1.40337C34.4847 1.67616 33.5923 2.1977 33.1221 2.56258ZM42.5998 0.845848C42.6722 1.21611 42.9367 1.40313 44.1201 1.91977C44.9079 2.26389 46.3626 2.95985 47.3529 3.46633C48.343 3.97289 49.4025 4.40327 49.7073 4.4228C50.2207 4.45551 50.2677 4.42684 50.3475 4.03176C50.4485 3.53305 50.0759 2.97633 49.1547 2.24988C48.8139 1.98114 47.3925 1.35482 45.9961 0.857858C43.9167 0.118018 43.3716 -0.00541498 42.9846 0.176063C42.6129 0.350367 42.5308 0.493262 42.5998 0.845848ZM1.64552 23.9942C0.548246 27.1933 0.500761 29.4816 1.5306 29.5371C2.08548 29.5669 2.23766 29.0294 2.26054 26.96C2.27004 26.1 2.46456 24.7411 2.69274 23.94C2.92108 23.1388 3.04854 22.3571 2.97613 22.2027C2.70512 21.6248 2.24631 22.2425 1.64552 23.9942ZM25.2526 12.6798C24.9336 13.1057 24.3891 13.9912 24.0425 14.6474C23.2493 16.1488 21.7926 20.0544 21.9225 20.3313C22.1648 20.8481 22.6194 20.4295 23.2682 19.0917C23.6435 18.3181 24.5514 16.6647 25.2857 15.4176C26.7649 12.9055 26.9928 12.3527 26.7099 11.9621C26.4199 11.5613 25.8973 11.8186 25.2526 12.6798ZM52.179 7.53383C52.1672 7.63636 52.4098 8.63275 52.7178 9.74788C53.026 10.8629 53.405 12.6 53.5605 13.6079C53.9827 16.3478 54.3395 17.0581 55.1115 16.696C55.6202 16.4575 55.6539 15.4137 55.2248 13.1893C54.8257 11.1207 53.4327 7.53338 52.9382 7.30014C52.5846 7.13344 52.2117 7.24809 52.179 7.53383ZM2.16315 32.8072C2.0529 33.2427 3.5795 36.9231 4.15063 37.5985C4.74618 38.3032 5.59059 38.7506 5.9798 38.5681C6.44643 38.3493 6.30514 38.0211 4.96106 36.2014C4.26168 35.2546 3.49828 34.0765 3.26437 33.5831C2.81311 32.6308 2.29936 32.2688 2.16315 32.8072ZM20.8551 26.774C19.5851 28.6753 17.5946 33.0675 17.8023 33.5104C18.0082 33.9496 18.2908 33.7586 18.754 32.8672C19.2528 31.9072 20.8605 29.2105 21.5335 28.205C21.7535 27.8762 22.0418 27.2842 22.1744 26.8893C22.3638 26.3244 22.3532 26.1315 22.125 25.985C21.6656 25.6901 21.5179 25.782 20.8551 26.774ZM8.37626 40.3487C8.48708 40.585 10.3807 40.7641 11.545 40.6484C12.4135 40.5621 12.8876 40.4059 13.8036 39.9032C14.9827 39.2566 15.9639 38.2934 15.8 37.9439C15.5744 37.4628 15.1174 37.5778 13.6889 38.4746C12.0014 39.5342 10.6044 40.0651 9.28727 40.1471C8.74991 40.1807 8.34001 40.2714 8.37626 40.3487ZM53.4457 25.6954C52.5037 30.465 52.4774 31.7326 53.3153 31.9513C53.8365 32.0873 54.3466 31.5286 54.4867 30.6686C54.7335 29.1513 54.9395 23.961 54.7625 23.7166C54.6641 23.5806 54.4164 23.5203 54.2121 23.5828C53.9154 23.6732 53.761 24.0986 53.4457 25.6954ZM51.2571 38.0798C50.2891 40.5097 49.758 44.5055 50.1855 46.1427C50.4623 47.2021 51.0328 47.8285 51.5152 47.6023C52.0684 47.3429 52.1422 46.56 51.8368 44.1933C51.5219 41.7523 51.5393 40.34 51.9067 38.4841C52.2599 36.6997 51.8969 36.4739 51.2571 38.0798ZM49.6917 55.4215C48.2646 59.858 48.7991 66.2131 50.5312 65.4008C51.059 65.1533 51.0785 64.4406 50.6238 61.9952C50.1941 59.6844 50.1794 58.4732 50.5511 56.0133C50.8123 54.2842 50.7518 53.8043 50.2997 54.0163C50.1987 54.0637 49.9251 54.6959 49.6917 55.4215ZM95.3054 36.9995C94.9319 37.402 94.8174 38.1788 95.0564 38.6886C95.2983 39.2045 98.9499 42.4194 101.361 44.2387C103.432 45.8019 103.483 45.4828 100.914 47.0351C100.04 47.5635 99.072 48.2046 98.764 48.4595C97.7468 49.3014 97.5833 50.4707 98.476 50.5188C99.1146 50.5532 106.874 46.6053 107.033 46.1654C107.331 45.3377 107.058 45.0013 104.331 42.8335C102.875 41.6767 100.683 39.8582 99.459 38.7924C96.6261 36.3257 96.1295 36.1113 95.3054 36.9995ZM89.0046 43.7536C89.0378 44.209 89.5114 44.3934 90.0271 44.1516C90.9218 43.732 92.3513 43.6776 93.8798 44.0049C95.4757 44.3466 95.8826 44.3112 96.0613 43.8152C96.3469 43.0223 95.058 42.4418 92.979 42.4269C91.8751 42.4191 91.2946 42.5248 90.2767 42.9195C89.142 43.3595 88.9834 43.4635 89.0046 43.7536ZM85.5887 47.6191C85.2343 48.1199 83.8518 52.9202 83.5983 54.5297C83.3446 56.1406 83.4695 56.6344 84.0833 56.4471C84.3631 56.3619 84.7396 55.5481 85.6385 53.088C86.8974 49.6423 87.2005 48.3092 86.8461 47.7752C86.5475 47.3254 85.857 47.2398 85.5887 47.6191ZM53.0408 71.2803C52.9047 71.6581 53.8375 73.5858 54.7248 74.7605C55.6533 75.9899 56.4514 76.6026 57.5702 76.9456C58.9222 77.3598 60.474 76.8212 60.3619 75.9767C60.2972 75.4875 60.134 75.4111 58.7862 75.2396C58.1402 75.1575 57.3277 74.9974 56.9808 74.8838C56.1533 74.6133 54.9999 73.4663 54.2578 72.1762C53.6385 71.0992 53.2176 70.7895 53.0408 71.2803ZM82.7384 60.419C81.7316 62.2641 81.2487 62.8509 79.8178 63.9689C78.8951 64.6895 78.6879 65.2132 79.2252 65.4666C79.6497 65.6669 80.636 65.2047 82.0608 64.138C83.4641 63.0871 84.5006 61.7597 84.9603 60.4241C85.3582 59.2681 85.3205 58.5879 84.8461 58.3641C84.2578 58.0865 83.7309 58.6003 82.7384 60.419ZM65.8601 76.5451C65.8456 76.6709 65.9185 76.7906 66.0219 76.811C68.688 77.3373 71.5053 77.3832 73.3264 76.9303C75.4656 76.3981 77.9108 74.6787 77.6954 73.8581C77.6534 73.697 77.3925 73.4831 77.1159 73.3828C76.6288 73.2061 76.5349 73.2413 74.0894 74.5179C70.8851 76.1904 69.208 76.6084 66.7989 76.3344C65.9169 76.234 65.8951 76.239 65.8601 76.5451Z" fill="url(#paint0_linear_6_276)"/>
<defs>
<linearGradient id="paint0_linear_6_276" x1="104.912" y1="62.2863" x2="57.4371" y2="82.9439" gradientUnits="userSpaceOnUse">
<stop stop-color="#D80041"/>
<stop offset="1" stop-color="#D96122"/>
</linearGradient>
</defs>
</svg>
