<?xml version="1.0" encoding="UTF-8"?>
<svg xmlns="http://www.w3.org/2000/svg" width="34" height="34" viewBox="0 0 34 34" fill="none">
  <path d="M29.7628 33.12C29.3057 33.12 28.9316 32.7459 28.9316 32.2888V16.6207H27.6848C26.4796 16.6207 25.5237 15.6648 25.5237 14.4595V11.2594C25.5237 10.0542 26.4796 9.09829 27.6848 9.09829H28.9316V0.869408C28.9316 0.412248 29.3057 0.038208 29.7628 0.038208C30.22 0.038208 30.594 0.412248 30.594 0.869408V9.09829H31.8408C33.0461 9.09829 34.002 10.0542 34.002 11.2594V14.4595C34.002 15.6648 33.0461 16.6207 31.8408 16.6207H30.594V32.2888C30.594 32.7459 30.22 33.12 29.7628 33.12ZM27.6433 10.7607C27.3524 10.7607 27.1446 10.9685 27.1446 11.2594V14.4595C27.1446 14.7505 27.3524 14.9583 27.6433 14.9583H31.8408C32.1318 14.9583 32.3396 14.7505 32.3396 14.4595V11.2594C32.3396 10.9685 32.1318 10.7607 31.8408 10.7607H27.6433ZM17.0039 33.12C16.5467 33.12 16.1727 32.7459 16.1727 32.2888V23.8937H14.9259C13.7207 23.8937 12.7648 22.9378 12.7648 21.7325V18.5324C12.7648 17.3272 13.7207 16.3713 14.9259 16.3713H16.1727V0.869408C16.1727 0.412248 16.5467 0.038208 17.0039 0.038208C17.4611 0.038208 17.8351 0.412248 17.8351 0.869408V16.3713H19.0819C20.2871 16.3713 21.243 17.3272 21.243 18.5324V21.7325C21.243 22.9378 20.2871 23.8937 19.0819 23.8937H17.8351V32.3303C17.8351 32.7459 17.4611 33.12 17.0039 33.12ZM14.9259 18.0337C14.635 18.0337 14.4272 18.2415 14.4272 18.5324V21.7325C14.4272 22.0235 14.635 22.2313 14.9259 22.2313H19.0819C19.3728 22.2313 19.5806 22.0235 19.5806 21.7325V18.5324C19.5806 18.2415 19.3728 18.0337 19.0819 18.0337H14.9259ZM4.24498 33.12C3.78782 33.12 3.41378 32.7459 3.41378 32.2888V13.7115H2.16698C0.96174 13.7115 0.00585938 12.7556 0.00585938 11.5503V8.35021C0.00585938 7.14497 0.96174 6.18909 2.16698 6.18909H3.41378V0.869408C3.41378 0.412248 3.78782 0.038208 4.24498 0.038208C4.70214 0.038208 5.07618 0.412248 5.07618 0.869408V6.18909H6.32298C7.52822 6.18909 8.4841 7.14497 8.4841 8.35021V11.5503C8.4841 12.7556 7.52822 13.7115 6.32298 13.7115H5.07618V32.3303C5.07618 32.7459 4.70214 33.12 4.24498 33.12ZM2.16698 7.85149C1.87606 7.85149 1.66826 8.05929 1.66826 8.35021V11.5503C1.66826 11.8413 1.87606 12.0491 2.16698 12.0491H6.36454C6.65546 12.0491 6.86326 11.8413 6.86326 11.5503V8.35021C6.86326 8.05929 6.65546 7.85149 6.36454 7.85149H2.16698Z" fill="#D96122"></path>
</svg>
