<?xml version="1.0" encoding="UTF-8"?>
<svg xmlns="http://www.w3.org/2000/svg" width="52" height="51" viewBox="0 0 52 51" fill="none">
  <path d="M40.986 41.1043C40.8091 41.2802 40.5697 41.3789 40.3203 41.3789C40.0708 41.3789 39.8315 41.2802 39.6546 41.1043L26.9264 28.7632C26.7461 28.5879 26.6428 28.3482 26.6393 28.0967C26.6357 27.8453 26.7322 27.6027 26.9075 27.4224C27.0828 27.2421 27.3225 27.1388 27.574 27.1353C27.8254 27.1318 28.068 27.2283 28.2483 27.4036L40.9671 39.773C41.1455 39.9474 41.2476 40.1853 41.2511 40.4348C41.2547 40.6842 41.1594 40.9249 40.986 41.1043Z" fill="#D96122"></path>
  <path d="M47.8978 31.4733H46.4153C46.1626 31.4724 45.9161 31.5513 45.7109 31.6989C45.5057 31.8464 45.3524 32.055 45.2728 32.2948C44.8389 33.5852 44.2758 34.8284 43.5921 36.0056L49.4085 41.756C50.2555 42.604 50.7313 43.7536 50.7313 44.9522C50.7313 46.1508 50.2555 47.3004 49.4085 48.1484L47.9166 49.5931C47.07 50.4312 45.9259 50.8997 44.7346 50.8961C44.1423 50.8968 43.5559 50.7794 43.0095 50.5508C42.4632 50.3222 41.9679 49.987 41.5525 49.5648L35.6983 43.7861C34.6183 44.3741 33.4907 44.87 32.3274 45.2685C32.0885 45.3485 31.8812 45.5022 31.7353 45.7075C31.5893 45.9128 31.5123 46.1592 31.5154 46.411V47.9029C31.5129 48.7252 31.1845 49.5129 30.6022 50.0935C30.0198 50.674 29.2311 51 28.4088 51H23.1117C22.2894 51 21.5007 50.674 20.9184 50.0935C20.3361 49.5129 20.0077 48.7252 20.0052 47.9029V46.4205C20.0061 46.1678 19.9272 45.9212 19.7797 45.7161C19.6321 45.5109 19.4236 45.3576 19.1837 45.278C18.2893 44.9731 17.4156 44.6104 16.5682 44.1921C16.3432 44.0825 16.0898 44.0454 15.8428 44.086C15.5959 44.1266 15.3677 44.2429 15.1896 44.4187L14.151 45.4668C13.5657 46.0469 12.775 46.3723 11.9509 46.3723C11.1269 46.3723 10.3362 46.0469 9.75086 45.4668L6.03059 41.7465C5.7411 41.458 5.51141 41.1151 5.35468 40.7375C5.19796 40.36 5.11729 39.9553 5.11729 39.5465C5.11729 39.1377 5.19796 38.733 5.35468 38.3554C5.51141 37.9779 5.7411 37.635 6.03059 37.3464L7.06924 36.2983C7.24866 36.1206 7.36791 35.8912 7.41025 35.6422C7.45259 35.3933 7.41589 35.1373 7.3053 34.9103C6.88449 34.0653 6.52476 33.1912 6.22888 32.2948C6.1463 32.055 5.99091 31.8469 5.7844 31.6997C5.57789 31.5524 5.33056 31.4733 5.07692 31.4733H3.58503C2.76113 31.4733 1.97098 31.146 1.38839 30.5634C0.805809 29.9809 0.478516 29.1907 0.478516 28.3668V23.1074C0.478516 22.2835 0.805809 21.4934 1.38839 20.9108C1.97098 20.3282 2.76113 20.0009 3.58503 20.0009H5.06747C5.32018 20.0018 5.56672 19.9229 5.7719 19.7754C5.97707 19.6279 6.1304 19.4193 6.20999 19.1794C6.51488 18.285 6.8776 17.4113 7.29586 16.5639C7.40645 16.3369 7.44315 16.0809 7.40081 15.832C7.35847 15.583 7.23922 15.3536 7.0598 15.1759L6.02115 14.1278C5.72393 13.8434 5.48712 13.502 5.32488 13.124C5.16264 12.746 5.07831 12.3391 5.07692 11.9278C5.08096 11.5168 5.1665 11.1108 5.32858 10.7331C5.49066 10.3555 5.72606 10.0137 6.02115 9.7277L9.74141 6.00743C10.3267 5.42736 11.1174 5.10192 11.9415 5.10192C12.7655 5.10192 13.5562 5.42736 14.1415 6.00743L15.1896 7.05553C15.3655 7.23449 15.5927 7.35427 15.8397 7.39826C16.0868 7.44225 16.3414 7.40827 16.5682 7.30103C17.414 6.88185 18.2879 6.52217 19.1837 6.22461C19.4235 6.14202 19.6316 5.98664 19.7789 5.78013C19.9261 5.57362 20.0053 5.32629 20.0052 5.07264V3.5902C20.0052 2.7663 20.3325 1.97615 20.9151 1.39356C21.4977 0.810978 22.2878 0.483685 23.1117 0.483685H28.4088C28.8176 0.482441 29.2226 0.561878 29.6006 0.717442C29.9785 0.873001 30.3221 1.10163 30.6116 1.39022C30.9011 1.67881 31.1307 2.02169 31.2874 2.39921C31.4441 2.77672 31.5248 3.18145 31.5248 3.5902V5.0632C31.5212 5.31635 31.5979 5.56414 31.7437 5.77107C31.8896 5.978 32.0972 6.13345 32.3368 6.21516C33.2237 6.51575 34.0883 6.8786 34.924 7.30103C35.1496 7.41085 35.404 7.44714 35.6513 7.4048C35.8986 7.36245 36.1264 7.2436 36.3026 7.06497L37.3507 6.01687C37.936 5.4368 38.7267 5.11136 39.5508 5.11136C40.3748 5.11136 41.1655 5.4368 41.7508 6.01687L45.4711 9.73714C46.0512 10.3224 46.3766 11.1131 46.3766 11.9372C46.3766 12.7612 46.0512 13.552 45.4711 14.1373L44.4608 15.1759C44.2813 15.3536 44.1621 15.583 44.1197 15.832C44.0774 16.0809 44.1141 16.3369 44.2247 16.5639C44.6485 17.4088 45.0114 18.2828 45.3106 19.1794C45.3902 19.4193 45.5435 19.6279 45.7487 19.7754C45.9538 19.9229 46.2004 20.0018 46.4531 20.0009H47.9355C48.7594 20.0009 49.5496 20.3282 50.1322 20.9108C50.7147 21.4934 51.042 22.2835 51.042 23.1074V28.3668C51.0421 28.778 50.9605 29.185 50.802 29.5644C50.6435 29.9438 50.4113 30.2879 50.1189 30.5769C49.8264 30.8659 49.4794 31.0939 49.0982 31.2478C48.7169 31.4017 48.3089 31.4783 47.8978 31.4733ZM39.3997 30.1892C40.3415 27.2933 40.3418 24.1736 39.4003 21.2776C38.4588 18.3817 36.6241 15.8585 34.1594 14.0701C31.6947 12.2818 28.7268 11.3202 25.6816 11.3235C22.6365 11.3268 19.6707 12.2948 17.2099 14.0885C14.7491 15.8822 12.9198 18.4094 11.9846 21.3074C11.0495 24.2054 11.0564 27.3251 12.0046 30.2189C12.9527 33.1127 14.7933 35.6317 17.2621 37.4143C19.7309 39.197 22.701 40.1517 25.7461 40.1414C27.5366 40.1429 29.3114 39.8066 30.9772 39.1499L19.6464 27.9136C19.5222 27.7919 19.434 27.6384 19.3914 27.4698L17.2292 18.8584C17.1802 18.6936 17.1772 18.5185 17.2205 18.3521C17.2638 18.1857 17.3517 18.0343 17.4747 17.9142C17.5621 17.825 17.6664 17.754 17.7815 17.7054C17.8965 17.6567 18.0201 17.6314 18.1451 17.6309C18.2203 17.6218 18.2964 17.6218 18.3717 17.6309L27.0775 19.7743C27.244 19.8097 27.3956 19.8954 27.5118 20.0198L38.9937 31.3506C39.1638 30.9711 39.315 30.5835 39.4469 30.1892H39.3997ZM20.7889 25.4114L24.9624 21.2851L19.4198 19.9159L20.7889 25.4114ZM26.8225 22.0971L21.6198 27.2432L40.3534 45.7501L45.5561 40.604L26.8225 22.0971ZM44.7629 49.0077C45.4674 49.0147 46.1461 48.7432 46.6514 48.2523L48.1055 46.8076C48.5979 46.3138 48.8744 45.6449 48.8744 44.9475C48.8744 44.2501 48.5979 43.5812 48.1055 43.0873L46.9346 41.9354L41.6942 47.0814L42.8556 48.2334C43.099 48.479 43.3888 48.6739 43.7081 48.8068C44.0274 48.9397 44.3699 49.008 44.7157 49.0077H44.7629ZM49.163 23.1074C49.163 22.7844 49.0347 22.4746 48.8063 22.2461C48.5778 22.0177 48.268 21.8894 47.945 21.8894H46.4153C45.7724 21.8814 45.1478 21.6734 44.6284 21.2944C44.109 20.9154 43.7204 20.3842 43.5165 19.7743C43.2528 18.9649 42.9374 18.1733 42.5723 17.4043C42.2872 16.8238 42.1904 16.1689 42.2953 15.5307C42.4003 14.8926 42.7018 14.3031 43.1577 13.8445L44.2058 12.7964C44.3197 12.6832 44.4101 12.5486 44.4718 12.4004C44.5335 12.2521 44.5653 12.0931 44.5653 11.9325C44.5653 11.7719 44.5335 11.6129 44.4718 11.4646C44.4101 11.3163 44.3197 11.1817 44.2058 11.0685L40.41 7.30103C40.2968 7.18712 40.1622 7.09672 40.0139 7.03503C39.8656 6.97334 39.7066 6.94159 39.546 6.94159C39.3854 6.94159 39.2264 6.97334 39.0782 7.03503C38.9299 7.09672 38.7953 7.18712 38.6821 7.30103L37.634 8.34912C37.1832 8.81659 36.5961 9.12951 35.9568 9.24314C35.3174 9.35677 34.6585 9.26528 34.0742 8.98175C33.3027 8.61495 32.5078 8.29952 31.6948 8.03753C31.0783 7.83376 30.5423 7.4397 30.1639 6.91203C29.7855 6.38435 29.5843 5.75026 29.5891 5.10097V3.61853C29.5968 3.29612 29.4773 2.98365 29.2564 2.74865C29.0356 2.51366 28.7311 2.37502 28.4088 2.36271H23.1117C22.7887 2.36271 22.4788 2.49103 22.2504 2.71946C22.022 2.94789 21.8937 3.25771 21.8937 3.58076V5.0632C21.897 5.71215 21.6952 6.34557 21.3171 6.87296C20.9389 7.40035 20.4037 7.79473 19.788 7.99976C18.9749 8.26176 18.1801 8.57719 17.4086 8.94399C16.8291 9.23334 16.1731 9.33252 15.5339 9.22741C14.8948 9.1223 14.3051 8.81826 13.8488 8.35856L12.8007 7.30103C12.6875 7.18712 12.5529 7.09672 12.4046 7.03503C12.2564 6.97334 12.0973 6.94159 11.9367 6.94159C11.7762 6.94159 11.6171 6.97334 11.4689 7.03503C11.3206 7.09672 11.186 7.18712 11.0728 7.30103L7.35251 11.0779C7.23756 11.1894 7.14647 11.323 7.08479 11.4707C7.02311 11.6184 6.99212 11.7771 6.9937 11.9372C6.99247 12.0986 7.02358 12.2587 7.08521 12.4079C7.14683 12.557 7.23772 12.6924 7.35251 12.8059L8.40061 13.854C8.86156 14.3095 9.16648 14.8993 9.27164 15.5387C9.37681 16.1782 9.27683 16.8346 8.98603 17.4137C8.61923 18.1852 8.3038 18.9801 8.0418 19.7932C7.83427 20.4073 7.43926 20.9409 6.91243 21.3187C6.3856 21.6964 5.75351 21.8993 5.10524 21.8988H3.58503C3.26198 21.8988 2.95217 22.0272 2.72374 22.2556C2.49531 22.484 2.36698 22.7938 2.36698 23.1169V28.3668C2.36698 28.6898 2.49531 28.9997 2.72374 29.2281C2.95217 29.4565 3.26198 29.5849 3.58503 29.5849H5.06747C5.71642 29.5815 6.34984 29.7833 6.87723 30.1614C7.40462 30.5396 7.799 31.0748 8.00403 31.6905C8.266 32.5067 8.58142 33.3047 8.94826 34.0794C9.23829 34.6571 9.33787 35.3119 9.23269 35.9497C9.12752 36.5875 8.823 37.1757 8.36284 37.6297L7.35251 38.6778C7.12475 38.9077 6.99697 39.2182 6.99697 39.5418C6.99697 39.8654 7.12475 40.1759 7.35251 40.4057L11.0728 44.126C11.186 44.2399 11.3206 44.3303 11.4689 44.392C11.6171 44.4537 11.7762 44.4854 11.9367 44.4854C12.0973 44.4854 12.2564 44.4537 12.4046 44.392C12.5529 44.3303 12.6875 44.2399 12.8007 44.126L13.8488 43.0779C14.3059 42.6195 14.8955 42.3163 15.5343 42.2112C16.1731 42.1062 16.8287 42.2046 17.4086 42.4925C18.1801 42.8593 18.9749 43.1747 19.788 43.4367C20.403 43.643 20.9373 44.0377 21.3153 44.5648C21.6932 45.0919 21.8956 45.7247 21.8937 46.3733V47.9029C21.8937 48.226 22.022 48.5358 22.2504 48.7642C22.4788 48.9927 22.7887 49.121 23.1117 49.121H28.4088C28.7262 49.1112 29.0274 48.9789 29.2492 48.7518C29.4711 48.5246 29.5963 48.2204 29.5986 47.9029V46.4205C29.5952 45.7715 29.797 45.1381 30.1752 44.6107C30.5533 44.0833 31.0885 43.689 31.7042 43.4839C32.5789 43.1797 33.4308 42.8136 34.2536 42.3886L32.4407 40.604C30.3384 41.5583 28.0549 42.0479 25.7461 42.0393C22.3179 42.0319 18.9799 40.9406 16.2095 38.9214C13.439 36.9023 11.3781 34.0586 10.3216 30.7973C9.26505 27.536 9.26697 24.0241 10.3271 20.764C11.3872 17.5038 13.4512 14.6624 16.2238 12.6463C18.9965 10.6301 22.3357 9.54247 25.7639 9.5389C29.1921 9.53533 32.5336 10.616 35.3104 12.6264C38.0872 14.6368 40.1571 17.4739 41.224 20.7318C42.2909 23.9898 42.3001 27.5016 41.2504 30.7651C41.0113 31.4762 40.7242 32.1703 40.3911 32.8425L42.1852 34.6176C42.7153 33.6835 43.1608 32.7039 43.5165 31.6905C43.7241 31.0763 44.1191 30.5428 44.6459 30.165C45.1727 29.7873 45.8048 29.5843 46.4531 29.5849H47.9355C48.2586 29.5849 48.5684 29.4565 48.7968 29.2281C49.0252 28.9997 49.1536 28.6898 49.1536 28.3668L49.163 23.1074Z" fill="#D96122"></path>
</svg>
