<?xml version="1.0" encoding="UTF-8"?>
<svg xmlns="http://www.w3.org/2000/svg" width="70" height="70" viewBox="0 0 70 70" fill="none">
  <path d="M65.3853 31.4448H62.5747C61.2118 20.6468 53.7441 11.6115 43.0988 8.37555C42.8391 8.30066 42.5603 8.331 42.3228 8.46C42.0852 8.58901 41.908 8.80631 41.8294 9.06494C41.7508 9.32357 41.7772 9.60274 41.9028 9.84209C42.0284 10.0814 42.2431 10.2618 42.5006 10.344C52.2709 13.3137 59.1468 21.5621 60.497 31.4448H58.2082C57.2656 31.4459 56.362 31.8208 55.6956 32.4873C55.0291 33.1538 54.6542 34.0574 54.653 34.9999C54.6544 35.9423 55.0295 36.8456 55.6959 37.5119C56.3624 38.1781 57.2658 38.5529 58.2082 38.554H60.498C58.9209 49.9152 49.9206 58.9113 38.5552 60.4916V58.2081C38.5543 57.2654 38.1795 56.3615 37.513 55.6948C36.8465 55.0281 35.9427 54.653 35 54.6519C34.0575 54.6533 33.154 55.0285 32.4877 55.6952C31.8214 56.3619 31.4468 57.2656 31.4459 58.2081V60.4969C20.0815 58.9198 11.0802 49.9184 9.50303 38.553H11.7908C12.7333 38.5524 13.6371 38.178 14.304 37.512C14.9709 36.8459 15.3463 35.9425 15.348 34.9999C15.3469 34.0572 14.9718 33.1534 14.3051 32.4869C13.6384 31.8204 12.7345 31.4456 11.7918 31.4448H9.50939C11.0897 20.0815 20.0858 11.0833 31.4459 9.50615V11.7918C31.447 12.7341 31.8218 13.6376 32.4881 14.304C33.1543 14.9705 34.0576 15.3455 35 15.3469C35.9425 15.3458 36.8462 14.9709 37.5126 14.3044C38.1791 13.6379 38.554 12.7343 38.5552 11.7918V4.61464C38.5537 3.67228 38.1787 2.76894 37.5123 2.10269C36.8458 1.43644 35.9424 1.06167 35 1.06055C34.0578 1.06195 33.1546 1.43685 32.4884 2.10307C31.8222 2.76928 31.4473 3.67246 31.4459 4.61464V7.43585C18.952 9.04161 9.04697 18.9477 7.44015 31.4459H4.61576C3.6734 31.447 2.76994 31.8217 2.1035 32.488C1.43705 33.1542 1.06201 34.0576 1.0606 34.9999C1.06201 35.9423 1.43705 36.8456 2.1035 37.5119C2.76994 38.1781 3.6734 38.5529 4.61576 38.554H7.42742C9.03 51.0543 18.9456 60.9646 31.4459 62.5683V65.3842C31.447 66.3265 31.8218 67.23 32.4881 67.8964C33.1543 68.5629 34.0576 68.9379 35 68.9393C35.9425 68.9382 36.8462 68.5633 37.5126 67.8968C38.1791 67.2303 38.554 66.3267 38.5552 65.3842V62.5619C51.0533 60.9551 60.9636 51.0501 62.5673 38.554H65.3853C66.3275 38.5526 67.2307 38.1777 67.8969 37.5115C68.5631 36.8453 68.938 35.9421 68.9394 34.9999C68.9383 34.0576 68.5635 33.1541 67.8973 32.4877C67.231 31.8212 66.3277 31.4462 65.3853 31.4448ZM33.5035 4.61358C33.5035 3.78843 34.1748 3.116 35 3.116C35.8273 3.116 36.4986 3.78843 36.4986 4.61358V11.7907C36.4809 12.1761 36.3153 12.5398 36.0363 12.8062C35.7573 13.0727 35.3863 13.2213 35.0005 13.2213C34.6147 13.2213 34.2438 13.0727 33.9648 12.8062C33.6858 12.5398 33.5202 12.1761 33.5024 11.7907L33.5035 4.61358ZM3.11606 34.9999C3.11606 34.1727 3.78848 33.5013 4.6147 33.5013H11.7908C12.618 33.5013 13.2894 34.1737 13.2894 34.9999C13.2894 35.8251 12.618 36.4975 11.7908 36.4975H4.61576C3.78848 36.4975 3.11606 35.8251 3.11606 34.9999ZM36.4976 65.3842C36.4976 66.2115 35.8252 66.8828 34.9989 66.8828C34.6017 66.8823 34.221 66.7242 33.9402 66.4432C33.6595 66.1622 33.5016 65.7814 33.5014 65.3842V58.2081C33.5014 57.3809 34.1738 56.7095 34.9989 56.7095C35.8262 56.7095 36.4976 57.3809 36.4976 58.2081V65.3842ZM65.3842 36.4975H58.2071C57.8103 36.4967 57.43 36.3386 57.1495 36.0579C56.869 35.7772 56.7112 35.3968 56.7106 34.9999C56.7106 34.1727 57.382 33.5013 58.2082 33.5013H65.3853C65.7707 33.5191 66.1344 33.6847 66.4008 33.9637C66.6673 34.2427 66.8159 34.6136 66.8159 34.9994C66.8159 35.3852 66.6673 35.7561 66.4008 36.0352C66.1344 36.3142 65.7696 36.4798 65.3842 36.4975Z" fill="#D96122"></path>
  <path d="M40.863 29.9324C40.99 29.9785 41.1249 29.9991 41.2599 29.9929C41.3948 29.9867 41.5272 29.9539 41.6495 29.8963C41.7717 29.8388 41.8814 29.7576 41.9721 29.6575C42.0628 29.5574 42.1329 29.4403 42.1782 29.313C42.4775 28.4816 42.6301 27.6045 42.6289 26.7209C42.6289 22.5103 39.2042 19.0856 34.9947 19.0856C30.7915 19.0856 27.3721 22.5113 27.3721 26.7219C27.373 27.9422 27.6667 29.1445 28.2285 30.2278C28.7902 31.3112 29.6037 32.2439 30.6006 32.9477C28.2411 33.6485 26.0837 34.9042 24.309 36.6098C22.5342 38.3153 21.1938 40.4211 20.3997 42.7509C20.1752 43.4017 20.1113 44.097 20.2132 44.7779C20.3151 45.4587 20.5799 46.1048 20.9852 46.6613C21.3933 47.2312 21.9311 47.6958 22.5543 48.0167C23.1774 48.3376 23.868 48.5056 24.5689 48.5068H45.4321C46.8502 48.5068 48.1897 47.8163 49.017 46.6613C49.4219 46.1047 49.6864 45.4584 49.788 44.7776C49.8895 44.0968 49.8251 43.4015 49.6003 42.7509C48.7901 40.3748 47.4118 38.2325 45.5852 36.5104C43.7586 34.7882 41.539 33.5383 39.1194 32.8692C39.1711 32.7333 39.1931 32.5879 39.1838 32.4428C39.1744 32.2977 39.134 32.1563 39.0653 32.0281C38.934 31.789 38.7133 31.6116 38.4515 31.5348C38.1897 31.4581 37.9081 31.4883 37.6685 31.6188C36.8539 32.0642 35.9301 32.2975 34.9958 32.2975C31.9264 32.2975 29.4286 29.7966 29.4286 26.7209C29.4286 23.6451 31.9264 21.1421 34.9947 21.1421C35.8902 21.1428 36.7725 21.3589 37.5669 21.7722C38.3614 22.1854 39.0449 22.7837 39.5596 23.5165C40.0744 24.2493 40.4053 25.0952 40.5246 25.9827C40.6438 26.8703 40.5478 27.7735 40.2447 28.6162C40.1988 28.7431 40.1784 28.8779 40.1847 29.0127C40.1909 29.1475 40.2237 29.2798 40.2811 29.402C40.3386 29.5241 40.4195 29.6338 40.5194 29.7246C40.6192 29.8154 40.736 29.8867 40.863 29.9324ZM47.6541 43.4127C47.8906 44.1095 47.7771 44.8572 47.3433 45.4639C46.8958 46.0897 46.1979 46.4492 45.4321 46.4492H24.5689C24.1945 46.4506 23.8253 46.3617 23.4926 46.19C23.1599 46.0183 22.8735 45.7688 22.6577 45.4628C22.4449 45.1715 22.3054 44.8332 22.2511 44.4765C22.1968 44.1197 22.2293 43.7552 22.3459 43.4138C23.2451 40.7714 24.949 38.4769 27.2184 36.852C29.4878 35.2271 32.2089 34.3534 35 34.3534C37.7911 34.3534 40.5122 35.2271 42.7816 36.852C45.051 38.4769 46.7549 40.7704 47.6541 43.4127Z" fill="#D96122"></path>
</svg>
