<?xml version="1.0" encoding="UTF-8"?>
<svg xmlns="http://www.w3.org/2000/svg" width="51" height="51" viewBox="0 0 51 51" fill="none">
  <path fill-rule="evenodd" clip-rule="evenodd" d="M26.2891 11.282C26.2891 10.2459 25.8779 9.25239 25.1445 8.51987C24.4121 7.78726 23.4189 7.37573 22.3828 7.37573H9.10156C8.06543 7.37573 7.07227 7.78726 6.33984 8.51987C5.60645 9.25239 5.19531 10.2459 5.19531 11.282V42.5613C5.19531 43.5973 5.60645 44.5909 6.33984 45.3234C7.07227 46.056 8.06543 46.4675 9.10156 46.4675H22.3828C23.4189 46.4675 24.4121 46.056 25.1445 45.3234C25.8779 44.5909 26.2891 43.5973 26.2891 42.5613V11.282Z" fill="#B3E5FC"></path>
  <path fill-rule="evenodd" clip-rule="evenodd" d="M45.8174 22.2117C45.8174 20.0542 44.0684 18.3054 41.9111 18.3054H33.3203C31.1631 18.3054 29.4141 20.0542 29.4141 22.2117V44.9072C29.4141 47.0645 31.1631 48.8134 33.3203 48.8134H41.9111C44.0684 48.8134 45.8174 47.0645 45.8174 44.9072V22.2117Z" fill="#FFCDD2"></path>
  <path fill-rule="evenodd" clip-rule="evenodd" d="M26.2891 41.7529V42.5611C26.2891 43.5972 25.8779 44.5907 25.1445 45.3233C24.4121 46.0559 23.4189 46.4675 22.3828 46.4675H9.10156C8.06543 46.4675 7.07227 46.0559 6.33984 45.3233C5.60645 44.5907 5.19531 43.5972 5.19531 42.5611V41.7529H26.2891Z" fill="#4FC3F7"></path>
  <path fill-rule="evenodd" clip-rule="evenodd" d="M29.4141 23.0579V22.2117C29.4141 20.0542 31.1631 18.3054 33.3203 18.3054H41.9111C44.0684 18.3054 45.8174 20.0542 45.8174 22.2117V23.0579H29.4141Z" fill="#EF5350"></path>
  <path fill-rule="evenodd" clip-rule="evenodd" d="M45.8174 44.126V44.9072C45.8174 47.0646 44.0684 48.8135 41.9111 48.8135H33.3203C31.1631 48.8135 29.4141 47.0646 29.4141 44.9072V44.126H45.8174Z" fill="#EF5350"></path>
  <path fill-rule="evenodd" clip-rule="evenodd" d="M5.19531 12.0653V11.2817C5.19531 10.2458 5.60645 9.25225 6.33984 8.51963C7.07227 7.78711 8.06543 7.37549 9.10156 7.37549H22.3828C23.4189 7.37549 24.4121 7.78711 25.1445 8.51963C25.8779 9.25225 26.2891 10.2458 26.2891 11.2817V12.0653H5.19531Z" fill="#4FC3F7"></path>
  <path fill-rule="evenodd" clip-rule="evenodd" d="M33.0956 39.8967C32.3885 40.1068 31.6405 40.2197 30.8661 40.2197C30.3836 40.2197 29.8963 40.2197 29.4139 40.2197C25.0995 40.2197 21.6014 36.722 21.6014 32.4072C21.6014 28.0925 25.0995 24.5947 29.4139 24.5947H30.8661C35.1805 24.5947 38.6786 28.0925 38.6786 32.4072C38.6786 33.918 37.6815 36.2648 37.2958 37.1174L38.7333 40.7062C38.8485 40.9958 38.7811 41.3266 38.5614 41.5477C38.3417 41.7688 38.0106 41.8378 37.7206 41.7232L33.0956 39.8967ZM19.9696 14.4654C19.5838 13.613 18.5868 11.2661 18.5868 9.75537C18.5868 5.44063 22.0848 1.94287 26.3993 1.94287H27.8514C32.1659 1.94287 35.6639 5.44063 35.6639 9.75537C35.6639 14.0701 32.1659 17.5679 27.8514 17.5679C27.369 17.5679 26.8817 17.5679 26.3993 17.5679C25.6249 17.5679 24.8768 17.455 24.1698 17.2448L19.5448 19.0714C19.2547 19.1859 18.9237 19.1169 18.704 18.8958C18.4842 18.6747 18.4169 18.3438 18.5321 18.0543L19.9696 14.4654Z" fill="#FFE0B2"></path>
  <path fill-rule="evenodd" clip-rule="evenodd" d="M30.1975 29.7399L30.8176 29.1205C31.2747 28.6632 31.8948 28.4063 32.5413 28.4063C33.1887 28.4063 33.8088 28.6632 34.2659 29.1205V29.1206C35.218 30.0729 35.218 31.6168 34.2659 32.569C32.8772 33.9575 30.7502 36.0848 30.7502 36.0848C30.4456 36.3898 29.9504 36.3898 29.6458 36.0848C29.6458 36.0848 27.5188 33.9575 26.1301 32.569C25.178 31.6168 25.178 30.0729 26.1301 29.1206V29.1205C26.5872 28.6632 27.2073 28.4063 27.8538 28.4063C28.5012 28.4063 29.1213 28.6632 29.5784 29.1205L30.1975 29.7399ZM27.0666 7.08809L27.6858 6.46865C28.1428 6.01133 28.7629 5.75439 29.4104 5.75439C30.0569 5.75439 30.677 6.01133 31.134 6.46865C32.0862 7.421 32.0862 8.96494 31.134 9.91719C29.7454 11.3057 27.6184 13.4329 27.6184 13.4329C27.3137 13.738 26.8186 13.738 26.5139 13.4329C26.5139 13.4329 24.387 11.3057 22.9983 9.91719C22.0461 8.96494 22.0461 7.421 22.9983 6.46865C23.4553 6.01133 24.0754 5.75439 24.7229 5.75439C25.3694 5.75439 25.9895 6.01133 26.4465 6.46865L27.0666 7.08809Z" fill="#EF5350"></path>
</svg>
