<?xml version="1.0" encoding="UTF-8"?>
<svg xmlns="http://www.w3.org/2000/svg" width="51" height="51" viewBox="0 0 51 51" fill="none">
  <path d="M36.7345 50.8759H32.431C32.2027 50.8759 31.9838 50.7853 31.8224 50.6238C31.661 50.4624 31.5703 50.2435 31.5703 50.0152C31.5703 49.787 31.661 49.568 31.8224 49.4066C31.9838 49.2452 32.2027 49.1545 32.431 49.1545H36.7345C36.9628 49.1545 37.1817 49.2452 37.3431 49.4066C37.5045 49.568 37.5952 49.787 37.5952 50.0152C37.5952 50.2435 37.5045 50.4624 37.3431 50.6238C37.1817 50.7853 36.9628 50.8759 36.7345 50.8759Z" fill="#EA9D2D"></path>
  <path d="M35.8744 42.269H33.2923C33.0641 42.269 32.8451 42.1783 32.6837 42.0169C32.5223 41.8555 32.4316 41.6366 32.4316 41.4083C32.4316 41.18 32.5223 40.9611 32.6837 40.7997C32.8451 40.6383 33.0641 40.5476 33.2923 40.5476H35.8744C36.1027 40.5476 36.3216 40.6383 36.483 40.7997C36.6445 40.9611 36.7351 41.18 36.7351 41.4083C36.7351 41.6366 36.6445 41.8555 36.483 42.0169C36.3216 42.1783 36.1027 42.269 35.8744 42.269Z" fill="#EA9D2D"></path>
  <path d="M28.1279 25.0549H38.6999C39.1032 25.0549 39.4983 25.1683 39.8403 25.382L46.2026 29.3584L45.3419 32.8012L39.2047 29.3208L37.1653 27.987L28.1279 25.0549Z" fill="#55300B"></path>
  <path d="M35.5342 16.0976L37.5958 13.0051L40.1779 17.3086L35.5342 16.0976Z" fill="#027E2A"></path>
  <path d="M33.2914 14.7266L40.177 17.3087L36.7342 25.055L29.8486 22.4729L33.2914 14.7266Z" fill="#02A437"></path>
  <path d="M20.381 19.03L15.2168 30.2191H18.6596L21.2417 25.0549L20.381 19.03Z" fill="#FDC9A6"></path>
  <path d="M18.7588 22.5467L22.1033 25.055L23.8246 22.4729L21.2426 18.1694L20.3819 19.0301L18.7588 22.5467Z" fill="#2CBFF4"></path>
  <path d="M10.0527 30.2192H32.4309C33.8005 30.2192 35.1141 30.7633 36.0826 31.7318C37.051 32.7003 37.5951 34.0138 37.5951 35.3834C37.5951 36.7531 37.051 38.0666 36.0826 39.0351C35.1141 40.0035 33.8005 40.5476 32.4309 40.5476H10.0527V30.2192Z" fill="#D32B39"></path>
  <path d="M27.2674 11.2839C27.2674 9.38246 25.726 7.84106 23.8246 7.84106C21.9232 7.84106 20.3818 9.38246 20.3818 11.2839V13.0053C20.3818 14.9067 21.9232 16.4481 23.8246 16.4481C25.726 16.4481 27.2674 14.9067 27.2674 13.0053V11.2839Z" fill="#FDC9A6"></path>
  <path d="M27.2671 10.423H22.1029L20.3815 12.1444L19.1301 9.01594C18.9852 8.65359 18.9305 8.26141 18.9709 7.87323C19.0114 7.48505 19.1456 7.11253 19.3621 6.78781C19.6548 6.34871 20.0838 6.01804 20.5829 5.84672C21.0821 5.67541 21.6237 5.67296 22.1244 5.83975L22.9636 6.11947L23.6386 4.76936C23.9238 4.19886 24.413 3.75641 25.0092 3.52974C25.6054 3.30308 26.2651 3.30876 26.8573 3.54566C27.4417 3.77944 27.9187 4.22169 28.1959 4.78684C28.4731 5.35199 28.5308 5.99987 28.3579 6.60512L27.2671 10.423Z" fill="#683B0D"></path>
  <path d="M22.1032 16.448L20.3818 19.0301V22.6224C20.3818 23.0901 20.4907 23.5514 20.6999 23.9696L23.8246 30.2192L28.1281 25.055L26.4067 22.4729L25.546 16.448H22.1032Z" fill="#0296E5"></path>
  <path d="M22.9639 22.4728L32.6817 24.7154C33.1011 24.8122 33.5408 24.7651 33.9302 24.5816C34.3195 24.3982 34.6358 24.0891 34.8282 23.7041C34.9551 23.4503 35.024 23.1715 35.0302 22.8878C35.0363 22.6042 34.9794 22.3227 34.8636 22.0637C34.7478 21.8047 34.5759 21.5746 34.3605 21.39C34.145 21.2054 33.8912 21.071 33.6175 20.9963L26.4067 19.03L22.9639 22.4728Z" fill="#FDC9A6"></path>
  <path d="M26.4063 19.0302L25.9409 17.1689C25.8281 16.7172 25.5675 16.3162 25.2005 16.0296C24.8336 15.743 24.3814 15.5874 23.9158 15.5874C23.5985 15.5873 23.2854 15.6596 23.0003 15.7987C22.7151 15.9378 22.4654 16.14 22.2702 16.3901C22.0749 16.6402 21.9393 16.9314 21.8735 17.2418C21.8077 17.5522 21.8135 17.8735 21.8905 18.1812L22.9635 22.473L26.4063 19.0302Z" fill="#2CBFF4"></path>
  <path d="M28.1277 25.0549L37.4379 27.3825C37.755 27.4618 38.0499 27.6122 38.3002 27.8225C38.5505 28.0328 38.7496 28.2973 38.8824 28.5961L41.8989 35.3833L39.3168 37.9654L35.874 30.2191H23.8242L28.1277 25.0549Z" fill="#683B0D"></path>
  <path d="M46.2025 29.3585L47.9239 28.4978L50.506 29.3585L48.7846 33.662L45.3418 32.8013L46.2025 29.3585Z" fill="#CBCBCB"></path>
  <path d="M41.8985 35.3833L45.3413 37.1047V39.6868L40.1771 40.5475L39.3164 37.9654L41.8985 35.3833Z" fill="#CBCBCB"></path>
  <path d="M9.94573 31.9406H7.36363C7.13536 31.9406 6.91644 31.85 6.75502 31.6885C6.59361 31.5271 6.50293 31.3082 6.50293 31.0799C6.50293 30.8517 6.59361 30.6327 6.75502 30.4713C6.91644 30.3099 7.13536 30.2192 7.36363 30.2192H9.94573C10.174 30.2192 10.3929 30.3099 10.5543 30.4713C10.7157 30.6327 10.8064 30.8517 10.8064 31.0799C10.8064 31.3082 10.7157 31.5271 10.5543 31.6885C10.3929 31.85 10.174 31.9406 9.94573 31.9406Z" fill="#D32B39"></path>
  <path d="M11.7745 41.4082H7.47105C7.24278 41.4082 7.02386 41.3175 6.86244 41.1561C6.70103 40.9947 6.61035 40.7757 6.61035 40.5475C6.61035 40.3192 6.70103 40.1003 6.86244 39.9389C7.02386 39.7774 7.24278 39.6868 7.47105 39.6868H11.7745C12.0028 39.6868 12.2217 39.7774 12.3832 39.9389C12.5446 40.1003 12.6352 40.3192 12.6352 40.5475C12.6352 40.7757 12.5446 40.9947 12.3832 41.1561C12.2217 41.3175 12.0028 41.4082 11.7745 41.4082Z" fill="#D32B39"></path>
  <path d="M10.0527 33.6621H32.4309C32.8875 33.6621 33.3253 33.8435 33.6481 34.1663C33.971 34.4891 34.1523 34.927 34.1523 35.3835C34.1523 35.8401 33.971 36.2779 33.6481 36.6007C33.3253 36.9235 32.8875 37.1049 32.4309 37.1049H10.0527V33.6621Z" fill="#CBCBCB"></path>
  <path d="M34.1523 50.876H11.7742C10.4045 50.876 9.091 50.3319 8.12253 49.3634C7.15405 48.3949 6.60997 47.0814 6.60997 45.7118C6.60997 44.3422 7.15405 43.0286 8.12253 42.0601C9.091 41.0917 10.4045 40.5476 11.7742 40.5476H34.1523V50.876Z" fill="#EA9D2D"></path>
  <path d="M34.1523 43.9905H11.7741C11.3176 43.9905 10.8797 44.1718 10.5569 44.4947C10.2341 44.8175 10.0527 45.2553 10.0527 45.7119C10.0527 46.1684 10.2341 46.6063 10.5569 46.9291C10.8797 47.2519 11.3176 47.4333 11.7741 47.4333H34.1523V43.9905Z" fill="#CBCBCB"></path>
  <path d="M12.7827 17.161L12.635 17.3087H7.47077L7.32305 17.161C6.55125 16.3892 5.93903 15.4729 5.52134 14.4645C5.10365 13.4561 4.88867 12.3753 4.88867 11.2838C4.88867 9.91419 5.43276 8.60066 6.40123 7.63219C7.3697 6.66371 8.68324 6.11963 10.0529 6.11963C11.4225 6.11963 12.736 6.66371 13.7045 7.63219C14.673 8.60066 15.2171 9.91419 15.2171 11.2838C15.2171 12.3753 15.0021 13.4561 14.5844 14.4645C14.1667 15.4729 13.5545 16.3892 12.7827 17.161Z" fill="#EA9D2D"></path>
  <path d="M12.3828 10.6752C12.3029 10.5953 12.208 10.5319 12.1036 10.4886C11.9992 10.4454 11.8873 10.4231 11.7742 10.4231C11.6612 10.4231 11.5493 10.4454 11.4448 10.4886C11.3404 10.5319 11.2455 10.5953 11.1656 10.6752L10.0528 11.7881L8.94005 10.6752C8.77863 10.5138 8.5597 10.4231 8.33142 10.4231C8.10315 10.4231 7.88422 10.5138 7.7228 10.6752C7.56139 10.8366 7.4707 11.0555 7.4707 11.2838C7.4707 11.5121 7.56139 11.731 7.7228 11.8924L9.19212 13.3618V17.3087C9.19212 17.537 9.2828 17.7559 9.44422 17.9173C9.60563 18.0787 9.82455 18.1694 10.0528 18.1694C10.2811 18.1694 10.5 18.0787 10.6614 17.9173C10.8228 17.7559 10.9135 17.537 10.9135 17.3087V13.3618L12.3828 11.8924C12.4628 11.8125 12.5262 11.7176 12.5694 11.6132C12.6127 11.5088 12.635 11.3969 12.635 11.2838C12.635 11.1708 12.6127 11.0589 12.5694 10.9544C12.5262 10.85 12.4628 10.7551 12.3828 10.6752Z" fill="#C38325"></path>
  <path d="M10.0531 3.53752C9.82481 3.53752 9.60589 3.44684 9.44448 3.28543C9.28306 3.12402 9.19238 2.9051 9.19238 2.67682V0.955426C9.19238 0.727154 9.28306 0.508232 9.44448 0.346819C9.60589 0.185407 9.82481 0.0947266 10.0531 0.0947266C10.2814 0.0947266 10.5003 0.185407 10.6617 0.346819C10.8231 0.508232 10.9138 0.727154 10.9138 0.955426V2.67682C10.9138 2.9051 10.8231 3.12402 10.6617 3.28543C10.5003 3.44684 10.2814 3.53752 10.0531 3.53752Z" fill="#FBB540"></path>
  <path d="M6.18117 4.57547C6.02994 4.57562 5.88135 4.53592 5.75034 4.46037C5.61934 4.38482 5.51056 4.27609 5.43494 4.14512L4.57424 2.65439C4.51684 2.55647 4.47937 2.44816 4.46399 2.3357C4.44861 2.22323 4.45563 2.10884 4.48465 1.9991C4.51366 1.88936 4.56409 1.78645 4.63304 1.69628C4.70199 1.60611 4.78809 1.53047 4.88639 1.47372C4.9847 1.41696 5.09325 1.38021 5.20581 1.36558C5.31838 1.35095 5.43272 1.35873 5.54227 1.38847C5.65181 1.41821 5.75439 1.46932 5.8441 1.53887C5.9338 1.60841 6.00887 1.69502 6.06497 1.79369L6.92567 3.28442C7.00118 3.4152 7.04095 3.56354 7.04099 3.71455C7.04102 3.86556 7.00133 4.01392 6.92589 4.14474C6.85046 4.27556 6.74193 4.38422 6.61121 4.45983C6.48049 4.53543 6.33218 4.57532 6.18117 4.57547Z" fill="#FBB540"></path>
  <path d="M3.34378 7.41065C3.19291 7.4107 3.04471 7.37087 2.91419 7.29521L1.42345 6.43451C1.22738 6.31956 1.08473 6.13173 1.02664 5.912C0.968546 5.69226 0.999723 5.45847 1.11337 5.26164C1.22701 5.06481 1.41389 4.92092 1.63324 4.86137C1.85258 4.80182 2.08657 4.83144 2.28415 4.94378L3.77488 5.80448C3.93907 5.89923 4.06738 6.04553 4.1399 6.22067C4.21243 6.39581 4.2251 6.58999 4.17596 6.77307C4.12682 6.95615 4.01862 7.11789 3.86814 7.23318C3.71767 7.34846 3.53334 7.41085 3.34378 7.41065Z" fill="#FBB540"></path>
  <path d="M2.30671 11.2839H0.585309C0.357037 11.2839 0.138115 11.1932 -0.0232977 11.0318C-0.18471 10.8704 -0.275391 10.6515 -0.275391 10.4232C-0.275391 10.1949 -0.18471 9.97601 -0.0232977 9.81459C0.138115 9.65318 0.357037 9.5625 0.585309 9.5625H2.30671C2.53498 9.5625 2.7539 9.65318 2.91531 9.81459C3.07673 9.97601 3.16741 10.1949 3.16741 10.4232C3.16741 10.6515 3.07673 10.8704 2.91531 11.0318C2.7539 11.1932 2.53498 11.2839 2.30671 11.2839Z" fill="#FBB540"></path>
  <path d="M1.85487 16.0176C1.6653 16.0178 1.48096 15.9554 1.33047 15.8402C1.17998 15.7249 1.07175 15.5631 1.0226 15.3801C0.973447 15.197 0.986114 15.0028 1.05863 14.8276C1.13115 14.6525 1.25947 14.5062 1.42366 14.4114L2.91439 13.5507C3.11197 13.4384 3.34597 13.4088 3.56531 13.4683C3.78465 13.5279 3.97154 13.6717 4.08518 13.8686C4.19883 14.0654 4.23 14.2992 4.17191 14.5189C4.11381 14.7387 3.97117 14.9265 3.77509 15.0414L2.28436 15.9021C2.15385 15.9777 2.0057 16.0176 1.85487 16.0176Z" fill="#FBB540"></path>
  <path d="M13.9252 4.57547C13.7742 4.57532 13.6259 4.53543 13.4952 4.45983C13.3645 4.38422 13.256 4.27556 13.1805 4.14474C13.1051 4.01392 13.0654 3.86556 13.0654 3.71455C13.0655 3.56354 13.1052 3.4152 13.1807 3.28442L14.0414 1.79369C14.0975 1.69502 14.1726 1.60841 14.2623 1.53887C14.352 1.46932 14.4546 1.41821 14.5642 1.38847C14.6737 1.35873 14.788 1.35095 14.9006 1.36558C15.0132 1.38021 15.1217 1.41696 15.22 1.47372C15.3183 1.53047 15.4044 1.60611 15.4734 1.69628C15.5423 1.78645 15.5928 1.88936 15.6218 1.9991C15.6508 2.10884 15.6578 2.22323 15.6424 2.3357C15.627 2.44816 15.5896 2.55647 15.5322 2.65439L14.6715 4.14512C14.5959 4.27609 14.4871 4.38482 14.3561 4.46037C14.2251 4.53592 14.0765 4.57562 13.9252 4.57547Z" fill="#FBB540"></path>
  <path d="M12.6349 20.7514L10.9135 22.4728H9.1921L7.4707 20.7514V17.3086H12.6349V20.7514Z" fill="#CBCBCB"></path>
  <path d="M7.4707 20.7515H12.6349L10.9135 22.4729H9.1921L7.4707 20.7515Z" fill="#EAEAE8"></path>
</svg>
