<?xml version="1.0" encoding="UTF-8"?>
<svg version="1.1" xmlns="http://www.w3.org/2000/svg" width="348" height="324">
<path d="M0 0 C2.16427447 0.00172809 4.32907349 0.06313671 6.49047852 0.17456055 C7.63476822 0.19012497 8.77905792 0.20568939 9.95802307 0.22172546 C13.59842097 0.28311096 17.23125558 0.42104595 20.86938477 0.5612793 C23.34258416 0.61647669 25.81590081 0.6666632 28.28930664 0.71166992 C34.33939538 0.83268257 40.3851 1.01651083 46.43188477 1.2487793 C42.25830503 7.56796671 42.25830503 7.56796671 39.95141602 10.5534668 C12.09758426 47.1632663 0.12080886 91.95791982 6.05639648 137.6394043 C11.38723582 174.68492501 28.09644246 206.02852035 53.43188477 233.2487793 C54.09446289 233.97709961 54.75704102 234.70541992 55.43969727 235.45581055 C84.40275272 266.01568845 128.06056342 281.76514749 169.43188477 283.2487793 C216.96094329 283.97063701 260.2009601 265.43858658 294.20361328 232.76098633 C299.44200934 227.6197052 303.8614283 222.30857884 308.00610352 216.2331543 C308.47661133 215.57831055 308.94711914 214.9234668 309.43188477 214.2487793 C309.76188477 214.2487793 310.09188477 214.2487793 310.43188477 214.2487793 C310.73453284 222.15922803 310.96476086 230.06722075 311.105443 237.98204613 C311.17300693 241.65850073 311.2644196 245.33096824 311.41259766 249.00512695 C312.42393899 274.74942778 312.42393899 274.74942778 307.72192383 280.28540039 C304.60590602 283.02365011 301.22264049 284.61480862 297.43188477 286.2487793 C296.15710989 287.12425382 294.90201968 288.03087254 293.68969727 288.9909668 C261.92178226 310.61849996 223.46385019 325.09344101 184.71704102 325.48706055 C183.91216248 325.4968544 183.10728394 325.50664825 182.27801514 325.51673889 C155.9371574 325.77100833 131.60223576 323.60548354 106.43188477 315.2487793 C105.7082373 315.00901367 104.98458984 314.76924805 104.23901367 314.5222168 C87.85094117 308.97442941 66.63038885 300.734307 54.43188477 288.2487793 C54.43188477 287.2587793 54.43188477 286.2687793 54.43188477 285.2487793 C53.44188477 284.9187793 52.45188477 284.5887793 51.43188477 284.2487793 C48.43188477 280.80433485 48.43188477 280.80433485 48.43188477 278.2487793 C47.77188477 278.2487793 47.11188477 278.2487793 46.43188477 278.2487793 C44.7652181 276.2487793 43.09855143 274.2487793 41.43188477 272.2487793 C40.77188477 272.2487793 40.11188477 272.2487793 39.43188477 272.2487793 C39.43188477 270.9287793 39.43188477 269.6087793 39.43188477 268.2487793 C38.44188477 268.2487793 37.45188477 268.2487793 36.43188477 268.2487793 C36.43188477 267.2587793 36.43188477 266.2687793 36.43188477 265.2487793 C35.11188477 264.9187793 33.79188477 264.5887793 32.43188477 264.2487793 C32.43188477 262.9287793 32.43188477 261.6087793 32.43188477 260.2487793 C31.44188477 260.2487793 30.45188477 260.2487793 29.43188477 260.2487793 C28.77188477 258.5987793 28.11188477 256.9487793 27.43188477 255.2487793 C26.77188477 255.2487793 26.11188477 255.2487793 25.43188477 255.2487793 C25.43188477 254.5887793 25.43188477 253.9287793 25.43188477 253.2487793 C24.77188477 253.2487793 24.11188477 253.2487793 23.43188477 253.2487793 C21.81079102 251.60424805 21.81079102 251.60424805 19.99438477 249.4362793 C17.47588591 246.43691465 17.47588591 246.43691465 14.70922852 243.67456055 C13.43188477 242.2487793 13.43188477 242.2487793 13.43188477 239.2487793 C12.11188477 238.5887793 10.79188477 237.9287793 9.43188477 237.2487793 C9.43188477 236.2587793 9.43188477 235.2687793 9.43188477 234.2487793 C8.11188477 233.9187793 6.79188477 233.5887793 5.43188477 233.2487793 C5.10188477 231.9287793 4.77188477 230.6087793 4.43188477 229.2487793 C3.77188477 229.2487793 3.11188477 229.2487793 2.43188477 229.2487793 C1.09985352 227.89331055 1.09985352 227.89331055 -0.38061523 226.0612793 C-3.62197582 222.14956433 -7.12484243 218.61187027 -10.81811523 215.1237793 C-12.56811523 213.2487793 -12.56811523 213.2487793 -13.56811523 210.2487793 C-14.01799805 209.81952148 -14.46788086 209.39026367 -14.93139648 208.94799805 C-32.48693111 190.72208501 -37.56043923 149.74528153 -37.80639648 125.53393555 C-37.81619034 124.72905701 -37.82598419 123.92417847 -37.83607483 123.09490967 C-38.09034592 96.75388086 -35.92471495 72.41938821 -27.56811523 47.2487793 C-27.33366699 46.54108398 -27.09921875 45.83338867 -26.85766602 45.10424805 C-24.11160913 36.99591917 -20.7404584 29.19472535 -17.13061523 21.4362793 C-16.78345459 20.6839502 -16.43629395 19.93162109 -16.07861328 19.15649414 C-14.96402718 16.82143754 -13.76759648 14.54141369 -12.56811523 12.2487793 C-12.12402313 11.31674683 -11.67993103 10.38471436 -11.22238159 9.42443848 C-8.3256744 4.01543043 -6.3961137 0.61874048 0 0 Z " fill="#FEFEFE" transform="translate(37.568115234375,-1.248779296875)"/>
<path d="M0 0 C3.3 0 6.6 0 10 0 C10 4.29 10 8.58 10 13 C7.26246234 10.26246234 5.01885052 7.86628113 2.75 4.8125 C1.96882813 3.77029297 1.96882813 3.77029297 1.171875 2.70703125 C0 1 0 1 0 0 Z " fill="#FEFEFE" transform="translate(338,0)"/>
<path d="" fill="#FFFFFF" transform="translate(0,0)"/>
</svg>
