<?xml version="1.0" encoding="UTF-8"?>
<svg xmlns="http://www.w3.org/2000/svg" width="50" height="56" viewBox="0 0 50 56" fill="none">
  <path d="M43.1631 39.0178C43.2266 38.779 43.3658 38.5671 43.5597 38.4139C43.7536 38.2606 43.9918 38.1742 44.2389 38.1676H45.6027C45.8057 38.1676 46.0023 38.097 46.159 37.9679C46.3157 37.8388 46.4226 37.6593 46.4614 37.4601C46.7339 36.0732 46.8724 34.6634 46.875 33.25C46.875 33.1351 46.8524 33.0213 46.8085 32.9151C46.7645 32.8089 46.7 32.7125 46.6188 32.6312C46.5375 32.55 46.4411 32.4855 46.3349 32.4415C46.2287 32.3976 46.1149 32.375 46 32.375H37.25V21C37.25 20.8098 37.188 20.6248 37.0735 20.473C36.9589 20.3212 36.798 20.2109 36.6151 20.1587L31.125 18.5902V14C31.125 13.8851 31.1024 13.7713 31.0585 13.6651C31.0145 13.5589 30.95 13.4625 30.8688 13.3812C30.7875 13.3 30.6911 13.2355 30.5849 13.1915C30.4787 13.1476 30.3649 13.125 30.25 13.125H19.75C19.6351 13.125 19.5213 13.1476 19.4151 13.1915C19.3089 13.2355 19.2125 13.3 19.1312 13.3812C19.05 13.4625 18.9855 13.5589 18.9415 13.6651C18.8976 13.7713 18.875 13.8851 18.875 14V18.5902L13.3849 20.1587C13.202 20.2109 13.0411 20.3212 12.9265 20.473C12.812 20.6248 12.75 20.8098 12.75 21V32.375H4C3.88508 32.375 3.77129 32.3976 3.66512 32.4415C3.55894 32.4855 3.46247 32.55 3.38122 32.6312C3.29996 32.7125 3.23551 32.8089 3.19154 32.9151C3.14758 33.0213 3.12497 33.1351 3.125 33.25C3.12759 34.6634 3.26609 36.0732 3.53858 37.4601C3.57743 37.6593 3.68434 37.8388 3.84101 37.9679C3.99768 38.097 4.19435 38.1676 4.39734 38.1676H5.76111C6.00817 38.1742 6.24644 38.2606 6.44034 38.4139C6.63424 38.5671 6.77336 38.779 6.83692 39.0178C7.16532 40.0488 7.58126 41.0497 8.0802 42.0098C8.20452 42.2241 8.25614 42.4729 8.22734 42.7189C8.19854 42.965 8.09086 43.1951 7.92041 43.3749L6.95056 44.3447C6.80708 44.4883 6.71797 44.6772 6.69849 44.8793C6.679 45.0813 6.73035 45.2838 6.84375 45.4521C8.42412 47.8038 10.4463 49.8261 12.7979 51.4067C12.9662 51.52 13.1688 51.5712 13.3708 51.5517C13.5728 51.5321 13.7617 51.4429 13.9053 51.2994L14.8751 50.3296C15.0557 50.161 15.2854 50.0545 15.5307 50.0257C15.7761 49.9969 16.0242 50.0472 16.2389 50.1694C17.1996 50.6686 18.2013 51.0847 19.233 51.4131C19.4717 51.4767 19.6833 51.6158 19.8364 51.8096C19.9895 52.0034 20.0758 52.2416 20.0824 52.4885V53.8522C20.0824 54.0552 20.153 54.2519 20.2821 54.4086C20.4111 54.5652 20.5907 54.6721 20.7899 54.711C23.5695 55.263 26.4305 55.263 29.21 54.711C29.4093 54.6721 29.5888 54.5652 29.7179 54.4086C29.847 54.2519 29.9176 54.0552 29.9176 53.8522V52.4885C29.9242 52.2416 30.0105 52.0035 30.1636 51.8096C30.3166 51.6158 30.5283 51.4767 30.7669 51.4131C31.7984 51.0849 32.7999 50.6688 33.7602 50.1694C33.975 50.0471 34.2233 49.9967 34.4688 50.0255C34.7143 50.0544 34.9442 50.1609 35.1248 50.3296L36.0947 51.2994C36.2382 51.4429 36.4272 51.532 36.6292 51.5516C36.8312 51.5712 37.0337 51.5199 37.2021 51.4067C39.5537 49.8261 41.5759 47.8038 43.1562 45.4521C43.2696 45.2838 43.321 45.0813 43.3015 44.8793C43.282 44.6772 43.1929 44.4883 43.0494 44.3447L42.0796 43.3749C41.9092 43.1952 41.8015 42.9651 41.7727 42.7191C41.7439 42.4732 41.7955 42.2245 41.9198 42.0103C42.4187 41.05 42.8346 40.0489 43.1631 39.0178ZM31.125 20.4099L35.5 21.6601V32.375H31.125V20.4099ZM20.625 14.875H29.375V32.375H27.625V28.875C27.625 28.7601 27.6024 28.6463 27.5585 28.5401C27.5145 28.4339 27.45 28.3375 27.3688 28.2562C27.2875 28.175 27.1911 28.1105 27.0849 28.0665C26.9787 28.0226 26.8649 28 26.75 28H23.25C23.1351 28 23.0213 28.0226 22.9151 28.0665C22.8089 28.1105 22.7125 28.175 22.6312 28.2562C22.55 28.3375 22.4855 28.4339 22.4415 28.5401C22.3976 28.6463 22.375 28.7601 22.375 28.875V32.375H20.625V14.875ZM25.875 29.75V32.375H24.125V29.75H25.875ZM14.5 21.6601L18.875 20.4099V32.375H14.5V21.6601ZM37.051 34.125C36.8333 37.1725 35.4691 40.0243 33.2331 42.1063C30.997 44.1883 28.0552 45.3458 25 45.3458C21.9448 45.3458 19.003 44.1883 16.7669 42.1063C14.5309 40.0243 13.1667 37.1725 12.949 34.125H37.051ZM41.4951 38.4872C41.197 39.4233 40.8194 40.3323 40.3664 41.2041C40.072 41.7487 39.9595 42.3731 40.0451 42.9862C40.1307 43.5993 40.41 44.169 40.8423 44.6122L41.2935 45.0634C40.0462 46.784 38.5341 48.2962 36.8134 49.5434L36.3622 49.0923C35.9193 48.6591 35.3493 48.3792 34.7357 48.2936C34.1221 48.208 33.4973 48.3213 32.9528 48.6168C32.0816 49.07 31.1731 49.4475 30.2372 49.7451C29.6449 49.9222 29.1247 50.2838 28.7524 50.7773C28.3802 51.2708 28.1753 51.8703 28.1676 52.4885V53.1191C26.0696 53.4592 23.9305 53.4592 21.8324 53.1191V52.4885C21.8248 51.8703 21.6199 51.2708 21.2476 50.7773C20.8753 50.2838 20.3551 49.9222 19.7628 49.7451C18.8267 49.4474 17.9179 49.0699 17.0464 48.6167C16.5019 48.3216 15.8773 48.2085 15.2639 48.2941C14.6505 48.3796 14.0807 48.6594 13.6378 49.0923L13.1866 49.5434C11.466 48.2962 9.95384 46.784 8.70655 45.0634L9.15771 44.6122C9.59004 44.169 9.8694 43.5992 9.95503 42.986C10.0407 42.3728 9.92808 41.7483 9.63371 41.2036C9.18065 40.332 8.80302 39.4232 8.50496 38.4872C8.32755 37.8951 7.96575 37.375 7.47225 37.0028C6.97874 36.6305 6.37929 36.4255 5.76119 36.4176H5.1305C5.00915 35.6584 4.93041 34.893 4.89465 34.125H11.199C11.4171 37.6372 12.966 40.9341 15.5302 43.3441C18.0945 45.7541 21.4811 47.0957 25 47.0957C28.519 47.0957 31.9056 45.7541 34.4698 43.3441C37.034 40.9341 38.583 37.6372 38.801 34.125H45.1054C45.0697 34.893 44.9909 35.6584 44.8696 36.4176H44.2389C43.6208 36.4255 43.0213 36.6305 42.5278 37.0027C42.0343 37.375 41.6725 37.895 41.4951 38.4872Z" fill="#D96122"></path>
  <path d="M25.875 12.2496V5.96338C26.4589 5.75699 26.951 5.35084 27.2643 4.81672C27.5777 4.2826 27.6921 3.6549 27.5874 3.04456C27.4827 2.43423 27.1656 1.88055 26.6922 1.48139C26.2187 1.08224 25.6194 0.8633 25.0002 0.863281C24.3809 0.863263 23.7816 1.08216 23.3081 1.48129C22.8347 1.88042 22.5176 2.43408 22.4128 3.04441C22.3081 3.65474 22.4225 4.28245 22.7358 4.81658C23.0491 5.35072 23.5412 5.7569 24.125 5.96333V12.2496H25.875ZM25 2.62462C25.1731 2.62462 25.3423 2.67593 25.4862 2.77208C25.63 2.86823 25.7422 3.00488 25.8084 3.16477C25.8746 3.32465 25.892 3.50059 25.8582 3.67032C25.8245 3.84005 25.7411 3.99596 25.6187 4.11833C25.4964 4.24071 25.3405 4.32404 25.1707 4.3578C25.001 4.39157 24.8251 4.37424 24.6652 4.30801C24.5053 4.24178 24.3686 4.12963 24.2725 3.98574C24.1763 3.84185 24.125 3.67267 24.125 3.49962C24.1253 3.26762 24.2175 3.0452 24.3816 2.88115C24.5456 2.71711 24.768 2.62485 25 2.62462Z" fill="#D96122"></path>
  <path d="M33.75 12.25V18.375H35.5V12.6123L37.0003 11.112C37.3507 11.283 37.7351 11.3729 38.125 11.375C38.6442 11.375 39.1517 11.221 39.5834 10.9326C40.0151 10.6442 40.3515 10.2342 40.5502 9.75454C40.7489 9.27489 40.8008 8.74709 40.6996 8.23789C40.5983 7.72869 40.3483 7.26096 39.9812 6.89385C39.614 6.52673 39.1463 6.27673 38.6371 6.17544C38.1279 6.07415 37.6001 6.12614 37.1205 6.32482C36.6408 6.5235 36.2308 6.85995 35.9424 7.29163C35.654 7.72331 35.5 8.23082 35.5 8.75C35.5021 9.13989 35.592 9.52431 35.763 9.87467L34.0064 11.6314C33.8423 11.7954 33.7501 12.018 33.75 12.25ZM38.125 7.875C38.2981 7.875 38.4672 7.92632 38.6111 8.02247C38.755 8.11861 38.8672 8.25527 38.9334 8.41515C38.9996 8.57504 39.0169 8.75097 38.9832 8.92071C38.9494 9.09044 38.8661 9.24635 38.7437 9.36872C38.6213 9.49109 38.4654 9.57443 38.2957 9.60819C38.126 9.64195 37.95 9.62462 37.7902 9.5584C37.6303 9.49217 37.4936 9.38002 37.3975 9.23613C37.3013 9.09223 37.25 8.92306 37.25 8.75C37.2502 8.51801 37.3425 8.29558 37.5065 8.13154C37.6706 7.96749 37.893 7.87523 38.125 7.875Z" fill="#D96122"></path>
  <path d="M11.875 6.125C11.1788 6.125 10.5111 6.40156 10.0188 6.89384C9.52656 7.38613 9.25 8.05381 9.25 8.75C9.25 9.44619 9.52656 10.1139 10.0188 10.6062C10.5111 11.0984 11.1788 11.375 11.875 11.375C12.2649 11.3729 12.6493 11.283 12.9997 11.112L14.5 12.6123V18.375H16.25V12.25C16.2499 12.018 16.1577 11.7954 15.9936 11.6314L14.237 9.87467C14.408 9.5243 14.4979 9.13989 14.5 8.75C14.4992 8.05404 14.2224 7.3868 13.7303 6.89468C13.2382 6.40257 12.571 6.12576 11.875 6.125ZM11.875 9.625C11.7019 9.625 11.5328 9.57368 11.3889 9.47754C11.245 9.38139 11.1328 9.24473 11.0666 9.08485C11.0004 8.92496 10.9831 8.74903 11.0168 8.5793C11.0506 8.40956 11.1339 8.25365 11.2563 8.13128C11.3787 8.00891 11.5346 7.92557 11.7043 7.89181C11.874 7.85805 12.05 7.87538 12.2098 7.94161C12.3697 8.00783 12.5064 8.11998 12.6025 8.26388C12.6987 8.40777 12.75 8.57694 12.75 8.75C12.7498 8.98199 12.6575 9.20442 12.4935 9.36846C12.3294 9.53251 12.107 9.62477 11.875 9.625Z" fill="#D96122"></path>
  <path d="M3.12461 15.75C2.69433 15.7488 2.27035 15.8534 1.88999 16.0545C1.50963 16.2557 1.18455 16.5472 0.943362 16.9036C0.702173 17.2599 0.552272 17.67 0.506853 18.0979C0.461435 18.5258 0.521892 18.9583 0.682902 19.3573C0.843913 19.7563 1.10054 20.1096 1.4302 20.3861C1.75985 20.6627 2.15243 20.8539 2.57337 20.9431C2.99431 21.0322 3.43071 21.0165 3.84416 20.8973C4.25761 20.7782 4.63542 20.5592 4.94435 20.2597L7.49961 21.5401V28H9.24961V21C9.24957 20.8377 9.2044 20.6786 9.11914 20.5404C9.03388 20.4023 8.9119 20.2906 8.76682 20.2178L5.71777 18.6897C5.73481 18.5855 5.74544 18.4805 5.74961 18.375C5.74885 17.6791 5.47204 17.0118 4.97992 16.5197C4.48781 16.0276 3.82057 15.7508 3.12461 15.75ZM3.12461 19.25C2.95155 19.25 2.78238 19.1987 2.63848 19.1025C2.49459 19.0064 2.38244 18.8697 2.31621 18.7099C2.24999 18.55 2.23266 18.374 2.26642 18.2043C2.30018 18.0346 2.38352 17.8787 2.50589 17.7563C2.62826 17.6339 2.78417 17.5506 2.9539 17.5168C3.12364 17.4831 3.29957 17.5004 3.45946 17.5666C3.61934 17.6328 3.756 17.745 3.85214 17.8889C3.94829 18.0328 3.99961 18.202 3.99961 18.375C3.99938 18.607 3.90711 18.8294 3.74307 18.9935C3.57903 19.1575 3.3566 19.2498 3.12461 19.25Z" fill="#D96122"></path>
  <path d="M7.5 29.75H9.25V31.5H7.5V29.75Z" fill="#D96122"></path>
  <path d="M49.5 18.375C49.5 17.6788 49.2234 17.0111 48.7312 16.5188C48.2389 16.0266 47.5712 15.75 46.875 15.75C46.1788 15.75 45.5111 16.0266 45.0188 16.5188C44.5266 17.0111 44.25 17.6788 44.25 18.375C44.2542 18.4804 44.2648 18.5855 44.2818 18.6897L41.2328 20.2178C41.0877 20.2906 40.9657 20.4023 40.8805 20.5404C40.7952 20.6785 40.75 20.8377 40.75 21V28H42.5V21.54L45.0553 20.2597C45.4249 20.6187 45.8923 20.8606 46.3988 20.9553C46.9053 21.05 47.4285 20.9932 47.903 20.7921C48.3774 20.5909 48.7819 20.2543 49.066 19.8244C49.3501 19.3945 49.501 18.8903 49.5 18.375ZM46 18.375C46 18.2019 46.0513 18.0328 46.1475 17.8889C46.2436 17.745 46.3803 17.6328 46.5402 17.5666C46.7 17.5004 46.876 17.4831 47.0457 17.5168C47.2154 17.5506 47.3713 17.6339 47.4937 17.7563C47.6161 17.8787 47.6994 18.0346 47.7332 18.2043C47.7669 18.374 47.7496 18.55 47.6834 18.7098C47.6172 18.8697 47.505 19.0064 47.3611 19.1025C47.2172 19.1987 47.0481 19.25 46.875 19.25C46.643 19.2498 46.4206 19.1575 46.2565 18.9935C46.0925 18.8294 46.0002 18.607 46 18.375Z" fill="#D96122"></path>
  <path d="M40.75 29.75H42.5V31.5H40.75V29.75Z" fill="#D96122"></path>
  <path d="M22.375 17.5H27.625V19.25H22.375V17.5Z" fill="#D96122"></path>
  <path d="M22.375 21H27.625V22.75H22.375V21Z" fill="#D96122"></path>
  <path d="M22.375 24.5H27.625V26.25H22.375V24.5Z" fill="#D96122"></path>
  <path d="M32 22.75H34.625V24.5H32V22.75Z" fill="#D96122"></path>
  <path d="M32 26.25H34.625V28H32V26.25Z" fill="#D96122"></path>
  <path d="M15.375 22.75H18V24.5H15.375V22.75Z" fill="#D96122"></path>
  <path d="M15.375 26.25H18V28H15.375V26.25Z" fill="#D96122"></path>
</svg>
