<?xml version="1.0" encoding="UTF-8"?>
<svg xmlns="http://www.w3.org/2000/svg" width="51" height="51" viewBox="0 0 51 51" fill="none">
  <path d="M39.5684 5.56348V8.68848H11.4434V5.56348C11.4434 3.83691 12.8418 2.43848 14.5684 2.43848H36.4434C38.1699 2.43848 39.5684 3.83691 39.5684 5.56348Z" fill="#969FAA"></path>
  <path d="M39.5684 41.501V46.1885C39.5684 47.915 38.1699 49.3135 36.4434 49.3135H14.5684C12.8418 49.3135 11.4434 47.915 11.4434 46.1885V41.501C11.4434 43.2275 12.8418 44.626 14.5684 44.626H36.4434C38.1699 44.626 39.5684 43.2275 39.5684 41.501Z" fill="#969FAA"></path>
  <path d="M39.5684 8.68848V13.376L33.3184 16.501V13.376C33.3184 12.5166 32.6152 11.8135 31.7559 11.8135H27.0684H16.1309C15.2715 11.8135 14.5684 12.5166 14.5684 13.376V18.0635V22.751C13.6621 22.0713 12.5996 21.5791 11.4434 21.3447V8.68848H39.5684Z" fill="#69D6F4"></path>
  <path d="M39.5684 24.3135V41.501C39.5684 43.2275 38.1699 44.626 36.4434 44.626H14.5684C12.8418 44.626 11.4434 43.2275 11.4434 41.501V36.6572C15.0059 35.9307 17.6934 32.7744 17.6934 29.001C17.6934 27.8916 17.459 26.8291 17.0371 25.876H17.0449H27.0684H31.7559C32.6152 25.876 33.3184 25.1729 33.3184 24.3135V21.1885L39.5684 24.3135Z" fill="#69D6F4"></path>
  <path d="M19.2559 39.9385L17.9199 41.2744C17.7793 41.415 17.5762 41.501 17.373 41.501H16.9121C16.4824 41.501 16.1309 41.1494 16.1309 40.7197V39.1572C16.1309 38.7275 16.4824 38.376 16.9121 38.376H17.373C17.5762 38.376 17.7793 38.4619 17.9199 38.6025L19.2559 39.9385Z" fill="#FFA721"></path>
  <path d="M27.0684 39.1572V40.7197C27.0684 41.1494 26.7168 41.501 26.2871 41.501H24.7246C24.2949 41.501 23.9434 41.1494 23.9434 40.7197V39.1572C23.9434 38.7275 24.2949 38.376 24.7246 38.376H26.2871C26.7168 38.376 27.0684 38.7275 27.0684 39.1572Z" fill="#FFA721"></path>
  <path d="M34.8809 40.7197C34.8809 41.1494 34.5293 41.501 34.0996 41.501H33.6387C33.4355 41.501 33.2324 41.415 33.0918 41.2744L31.7559 39.9385L33.0918 38.6025C33.2324 38.4619 33.4355 38.376 33.6387 38.376H34.0996C34.5293 38.376 34.8809 38.7275 34.8809 39.1572V40.7197Z" fill="#FFA721"></path>
  <path d="M33.3184 16.501V19.626H30.1934C28.4668 19.626 27.0684 21.0244 27.0684 22.751V25.876H17.0449H17.0371C16.498 24.6338 15.6387 23.5557 14.5684 22.751V18.0635H25.5059C26.3652 18.0635 27.0684 17.3604 27.0684 16.501V11.8135H31.7559C32.6152 11.8135 33.3184 12.5166 33.3184 13.376V16.501Z" fill="#AAB2BD"></path>
  <path d="M33.3184 21.1885V24.3135C33.3184 25.1729 32.6152 25.876 31.7559 25.876H27.0684V22.751C27.0684 21.0244 28.4668 19.626 30.1934 19.626H33.3184V21.1885Z" fill="#E6E9ED"></path>
  <path d="M14.5684 18.0635V13.376C14.5684 12.5166 15.2715 11.8135 16.1309 11.8135H27.0684V16.501C27.0684 17.3604 26.3652 18.0635 25.5059 18.0635H14.5684Z" fill="#FFA721"></path>
  <path d="M42.6934 11.8135V25.876L39.5684 24.3135L33.3184 21.1885V19.626V16.501L39.5684 13.376L42.6934 11.8135Z" fill="#E6E9ED"></path>
  <path d="M45.8184 21.9697V25.876H42.6934V11.8135H45.8184V15.7197V21.9697Z" fill="#CCD1D9"></path>
  <path d="M45.8184 15.7197C47.5449 15.7197 48.9434 17.1182 48.9434 18.8447C48.9434 20.5713 47.5449 21.9697 45.8184 21.9697V15.7197Z" fill="#EF5350"></path>
  <path d="M17.0371 25.876C17.459 26.8291 17.6934 27.8916 17.6934 29.001C17.6934 32.7744 15.0059 35.9307 11.4434 36.6572C10.9434 36.7588 10.4199 36.8135 9.88086 36.8135C5.56836 36.8135 2.06836 33.3135 2.06836 29.001C2.06836 24.6885 5.56836 21.1885 9.88086 21.1885C10.4199 21.1885 10.9434 21.2432 11.4434 21.3447C12.5996 21.5791 13.6621 22.0713 14.5684 22.751C15.6387 23.5557 16.498 24.6338 17.0371 25.876Z" fill="#E6E9ED"></path>
  <path d="M13.7871 29.001L7.53711 32.9072V25.0947L13.7871 29.001Z" fill="#EF5350"></path>
</svg>
