<?xml version="1.0" encoding="UTF-8"?>
<svg xmlns="http://www.w3.org/2000/svg" width="51" height="51" viewBox="0 0 51 51" fill="none">
  <path fill-rule="evenodd" clip-rule="evenodd" d="M44.314 48.6595H5.67077C3.64968 48.6595 2.00586 47.0157 2.00586 44.9946V16.349C2.00586 15.9987 2.30229 15.7292 2.62566 15.7292H47.3591C47.7094 15.7292 48.0059 15.9987 48.0059 16.349V44.9946C48.0059 47.0157 46.3351 48.6595 44.314 48.6595Z" fill="#FFE4AF"></path>
  <path fill-rule="evenodd" clip-rule="evenodd" d="M48.0059 16.969H2.00586V10.5554C2.00586 8.50735 3.64968 6.86353 5.67077 6.86353H9.87463C10.225 6.86353 10.4944 7.15995 10.4944 7.51027V11.3099H13.6204V7.51027C13.6204 7.15995 13.8899 6.86353 14.2402 6.86353H22.8096C23.1599 6.86353 23.4294 7.15995 23.4294 7.51027V11.3099H26.5554V7.51027C26.5554 7.15995 26.8518 6.86353 27.2021 6.86353H35.7446C36.0949 6.86353 36.3913 7.15995 36.3913 7.51027V11.3099H39.5173V7.51027C39.5173 7.15995 39.7868 6.86353 40.1371 6.86353H44.314C46.3351 6.86353 48.0059 8.50735 48.0059 10.5554V16.969Z" fill="#FF3131"></path>
  <path fill-rule="evenodd" clip-rule="evenodd" d="M14.2398 12.5493H9.87429C9.52397 12.5493 9.22754 12.2798 9.22754 11.9295V6.27044C9.22754 4.70747 10.4941 3.44092 12.0571 3.44092C13.62 3.44092 14.8866 4.70747 14.8866 6.27044V11.9295C14.8866 12.2798 14.5902 12.5493 14.2398 12.5493Z" fill="#FFA721"></path>
  <path fill-rule="evenodd" clip-rule="evenodd" d="M27.2018 12.5493H22.8093C22.4589 12.5493 22.1895 12.2798 22.1895 11.9295V6.27044C22.1895 4.70747 23.456 3.44092 24.992 3.44092C26.555 3.44092 27.8216 4.70747 27.8216 6.27044V11.9295C27.8216 12.2798 27.5251 12.5493 27.2018 12.5493Z" fill="#FFA721"></path>
  <path fill-rule="evenodd" clip-rule="evenodd" d="M40.1363 12.5493H35.7438C35.4204 12.5493 35.124 12.2798 35.124 11.9295V6.27044C35.124 4.70747 36.3906 3.44092 37.9535 3.44092C39.4896 3.44092 40.7561 4.70747 40.7561 6.27044V11.9295C40.7561 12.2798 40.4866 12.5493 40.1363 12.5493Z" fill="#FFA721"></path>
  <path fill-rule="evenodd" clip-rule="evenodd" d="M31.0829 35.8864C31.029 35.8864 30.9481 35.8864 30.8673 35.8595C30.7056 35.8056 30.5709 35.6708 30.517 35.5091L29.4121 32.2485L32.0799 30.8472L32.2686 34.2695C32.2955 34.3234 32.2955 34.3773 32.2955 34.4312C32.3225 34.7277 32.3494 35.2127 31.9183 35.5091L31.4601 35.7786C31.3524 35.8595 31.2176 35.8864 31.0829 35.8864Z" fill="#1791E6"></path>
  <path fill-rule="evenodd" clip-rule="evenodd" d="M28.603 31.7634C28.4952 31.7634 28.3874 31.7095 28.3335 31.6286L26.7705 29.9309C26.6627 29.7962 26.6088 29.6345 26.6358 29.4728C26.6358 29.3111 26.7436 29.1494 26.9053 29.0416L27.2286 28.8261C27.3634 28.7452 27.4981 28.7183 27.6328 28.7183C27.8754 28.7183 28.064 28.8261 28.2526 28.9338L28.3065 28.9608L30.2737 30.0926C30.3815 30.1734 30.4624 30.2812 30.4624 30.416C30.4624 30.5507 30.4085 30.6585 30.3007 30.7394L28.7916 31.7095C28.7377 31.7364 28.6838 31.7634 28.603 31.7634Z" fill="#1791E6"></path>
  <path fill-rule="evenodd" clip-rule="evenodd" d="M27.1215 34.6465C26.3669 34.6465 25.6124 33.9728 25.316 33.5147L24.4806 32.2212C24.3998 32.0865 24.3728 31.8978 24.3998 31.7631C24.4267 31.6014 24.5345 31.4667 24.6692 31.3589L25.0465 31.1164C25.5316 30.8199 25.9897 31.1433 26.2053 31.305L27.0676 31.9248L31.7565 28.9066C32.3224 28.5294 32.9961 28.4216 33.6698 28.5563C34.3166 28.691 34.8825 29.0953 35.2597 29.6612C35.3136 29.742 35.3406 29.8498 35.3136 29.9576C35.2867 30.0384 35.2328 30.1462 35.125 30.2001C32.565 31.6823 30.2205 33.0297 27.6874 34.4848C27.4988 34.5926 27.3101 34.6465 27.1215 34.6465Z" fill="#1AA1FF"></path>
  <path fill-rule="evenodd" clip-rule="evenodd" d="M21.5159 35.3205H18.7672C17.7971 35.3205 17.0156 34.539 17.0156 33.5689V30.8202C17.0156 29.8501 17.7971 29.0686 18.7672 29.0686H21.5159C22.486 29.0686 23.2945 29.8501 23.2945 30.8202V33.5689C23.2945 34.539 22.486 35.3205 21.5159 35.3205Z" fill="#FFA721"></path>
  <path fill-rule="evenodd" clip-rule="evenodd" d="M21.5159 43.7014H18.7672C17.7971 43.7014 17.0156 42.9199 17.0156 41.9498V39.2011C17.0156 38.231 17.7971 37.4495 18.7672 37.4495H21.5159C22.486 37.4495 23.2945 38.231 23.2945 39.2011V41.9498C23.2945 42.9199 22.486 43.7014 21.5159 43.7014Z" fill="#FFA721"></path>
  <path fill-rule="evenodd" clip-rule="evenodd" d="M31.245 43.7014H28.4694C27.4993 43.7014 26.7178 42.9199 26.7178 41.9498V39.2011C26.7178 38.231 27.4993 37.4495 28.4694 37.4495H31.245C32.2151 37.4495 32.9966 38.231 32.9966 39.2011V41.9498C32.9966 42.9199 32.2151 43.7014 31.245 43.7014Z" fill="#FFA721"></path>
  <path fill-rule="evenodd" clip-rule="evenodd" d="M40.9462 43.7014H38.1706C37.2274 43.7014 36.4189 42.9199 36.4189 41.9498V39.2011C36.4189 38.231 37.2274 37.4495 38.1706 37.4495H40.9462C41.9163 37.4495 42.6978 38.231 42.6978 39.2011V41.9498C42.6978 42.9199 41.9163 43.7014 40.9462 43.7014Z" fill="#FFA721"></path>
  <path fill-rule="evenodd" clip-rule="evenodd" d="M40.9462 35.3205H38.1706C37.2274 35.3205 36.4189 34.539 36.4189 33.5689V30.8202C36.4189 29.8501 37.2274 29.0686 38.1706 29.0686H40.9462C41.9163 29.0686 42.6978 29.8501 42.6978 30.8202V33.5689C42.6978 34.539 41.9163 35.3205 40.9462 35.3205Z" fill="#FFA721"></path>
  <path fill-rule="evenodd" clip-rule="evenodd" d="M40.9462 26.9666H38.1706C37.2274 26.9666 36.4189 26.1582 36.4189 25.215V22.4394C36.4189 21.4692 37.2274 20.6877 38.1706 20.6877H40.9462C41.9163 20.6877 42.6978 21.4692 42.6978 22.4394V25.215C42.6978 26.1582 41.9163 26.9666 40.9462 26.9666Z" fill="#FFA721"></path>
  <path fill-rule="evenodd" clip-rule="evenodd" d="M31.245 26.9666H28.4694C27.4993 26.9666 26.7178 26.1582 26.7178 25.215V22.4394C26.7178 21.4692 27.4993 20.6877 28.4694 20.6877H31.245C32.2151 20.6877 32.9966 21.4692 32.9966 22.4394V25.215C32.9966 26.1582 32.2151 26.9666 31.245 26.9666Z" fill="#FFA721"></path>
  <path fill-rule="evenodd" clip-rule="evenodd" d="M21.5159 26.9666H18.7672C17.7971 26.9666 17.0156 26.1582 17.0156 25.215V22.4394C17.0156 21.4692 17.7971 20.6877 18.7672 20.6877H21.5159C22.486 20.6877 23.2945 21.4692 23.2945 22.4394V25.215C23.2945 26.1582 22.486 26.9666 21.5159 26.9666Z" fill="#FFA721"></path>
  <path fill-rule="evenodd" clip-rule="evenodd" d="M11.8147 35.3205H9.06606C8.09594 35.3205 7.31445 34.539 7.31445 33.5689V30.8202C7.31445 29.8501 8.09594 29.0686 9.06606 29.0686H11.8147C12.7849 29.0686 13.5664 29.8501 13.5664 30.8202V33.5689C13.5664 34.539 12.7849 35.3205 11.8147 35.3205Z" fill="#FFA721"></path>
  <path fill-rule="evenodd" clip-rule="evenodd" d="M11.8147 43.7014H9.06606C8.09594 43.7014 7.31445 42.9199 7.31445 41.9498V39.2011C7.31445 38.231 8.09594 37.4495 9.06606 37.4495H11.8147C12.7849 37.4495 13.5664 38.231 13.5664 39.2011V41.9498C13.5664 42.9199 12.7849 43.7014 11.8147 43.7014Z" fill="#FFA721"></path>
  <path fill-rule="evenodd" clip-rule="evenodd" d="M11.8147 27.1822H9.06606C8.09594 27.1822 7.31445 26.4007 7.31445 25.4306V22.6549C7.31445 21.6848 8.09594 20.9033 9.06606 20.9033H11.8147C12.7849 20.9033 13.5664 21.6848 13.5664 22.6549V25.4306C13.5664 26.4007 12.7849 27.1822 11.8147 27.1822Z" fill="#FFA721"></path>
  <path fill-rule="evenodd" clip-rule="evenodd" d="M42.8048 12.5494H7.20671C6.85639 12.5494 6.58691 12.2799 6.58691 11.9296C6.58691 11.5793 6.85639 11.3098 7.20671 11.3098H42.8048C43.1552 11.3098 43.4246 11.5793 43.4246 11.9296C43.4246 12.2799 43.1552 12.5494 42.8048 12.5494Z" fill="#333333"></path>
</svg>
