<?xml version="1.0" encoding="UTF-8"?>
<svg xmlns="http://www.w3.org/2000/svg" width="51" height="51" viewBox="0 0 51 51" fill="none">
  <path d="M36.7725 14.0093C36.4947 14.0093 36.2614 13.8204 36.217 13.5426C35.9392 12.0759 35.3725 10.7093 34.5281 9.46481C34.3725 9.24259 34.4059 8.93148 34.5947 8.74259L36.1725 7.17592L33.9281 4.93148L32.3503 6.50926C32.1614 6.69814 31.8503 6.73148 31.6281 6.57592C30.3948 5.73148 29.017 5.16481 27.5503 4.88703C27.2836 4.83148 27.0836 4.59814 27.0836 4.33148V2.09814H23.9059V4.33148C23.9059 4.60926 23.7059 4.84259 23.4392 4.88703C21.9725 5.16481 20.6059 5.73148 19.3614 6.57592C19.1392 6.73148 18.8281 6.69814 18.6392 6.50926L17.0614 4.93148L14.8392 7.17592L16.417 8.7537C16.6059 8.94259 16.6392 9.2537 16.4836 9.47592C15.6392 10.7093 15.0725 12.087 14.7947 13.5537C14.7392 13.8204 14.5059 14.0204 14.2392 14.0204H12.0059V17.1981H14.2392C14.517 17.1981 14.7503 17.3981 14.7947 17.6648C15.0725 19.1315 15.6392 20.4981 16.4836 21.7426C16.6392 21.9648 16.6059 22.2759 16.417 22.4648L14.8392 24.0315L17.0836 26.2759L18.6614 24.6981C18.8503 24.5093 19.1614 24.4759 19.3836 24.6315C20.617 25.4759 21.9948 26.0426 23.4614 26.3204C23.7281 26.3759 23.9281 26.6093 23.9281 26.8759V29.1093H27.1059V26.8759C27.1059 26.5981 27.3059 26.3648 27.5725 26.3204C29.0392 26.0426 30.4059 25.4759 31.6503 24.6315C31.8725 24.4759 32.1836 24.5093 32.3725 24.6981L33.9503 26.2759L36.1948 24.0315L34.617 22.4537C34.4281 22.2648 34.3947 21.9537 34.5503 21.7315C35.3947 20.4981 35.9614 19.1204 36.2392 17.6537C36.2948 17.387 36.5281 17.187 36.7948 17.187H39.0281V14.0093H36.7725ZM32.9281 19.8315C32.9281 19.8426 32.9281 19.8426 32.917 19.8426C32.917 19.8537 32.9059 19.8537 32.9059 19.8648C32.9059 19.8759 32.8947 19.887 32.8836 19.8981C32.1392 21.1648 31.0836 22.2204 29.817 22.9648C29.8059 22.9759 29.7836 22.987 29.7725 22.9981C29.7614 22.9981 29.7614 23.0093 29.7503 23.0093L29.7392 23.0204C28.4948 23.7315 27.0503 24.1426 25.5059 24.1426C23.9614 24.1426 22.517 23.7315 21.2725 23.0204L21.2614 23.0093C21.2503 23.0093 21.2503 22.9981 21.2392 22.9981C21.2281 22.987 21.2059 22.9759 21.1947 22.9648C19.9281 22.2204 18.8725 21.1648 18.1281 19.8981C18.117 19.887 18.117 19.8759 18.1059 19.8648C18.1059 19.8537 18.0947 19.8537 18.0947 19.8426L18.0836 19.8315C17.3725 18.587 16.9614 17.1426 16.9614 15.5981C16.9614 14.0537 17.3725 12.6093 18.0836 11.3648C18.0836 11.3648 18.0836 11.3537 18.0947 11.3537C18.0947 11.3426 18.1059 11.3426 18.1059 11.3315C18.117 11.3204 18.117 11.3093 18.1281 11.2981C18.1281 11.2981 18.1281 11.2981 18.1281 11.287C18.8725 10.0204 19.9281 8.96481 21.1947 8.22037C21.2059 8.20926 21.217 8.20926 21.2281 8.19814C21.2392 8.19814 21.2392 8.18703 21.2392 8.18703C21.2503 8.18703 21.2503 8.17592 21.2503 8.17592C22.4947 7.4537 23.9503 7.0537 25.4836 7.0537C27.0281 7.0537 28.4725 7.46481 29.717 8.17592L29.7281 8.18703L29.7392 8.19814C29.7503 8.20926 29.7614 8.20926 29.7725 8.22037C31.0392 8.96481 32.0947 10.0204 32.8392 11.287V11.2981C32.8503 11.3093 32.8503 11.3204 32.8614 11.3315C32.8614 11.3426 32.8725 11.3426 32.8725 11.3537C32.8725 11.3537 32.8725 11.3648 32.8836 11.3648C33.6059 12.6093 34.0059 14.0648 34.0059 15.5981C34.0503 17.1426 33.6392 18.587 32.9281 19.8315Z" fill="#03AADF"></path>
  <path d="M30.0061 15.5981C30.0061 15.287 30.2616 15.0315 30.5727 15.0315H32.8839C32.8172 14.0981 32.5616 13.2092 32.1727 12.3981L30.895 13.1315C30.8061 13.187 30.7061 13.2092 30.6061 13.2092C30.4061 13.2092 30.2172 13.1092 30.1172 12.9203C29.9616 12.6537 30.0505 12.2981 30.3283 12.1426L31.6061 11.4092C31.095 10.6537 30.4394 9.99812 29.6839 9.48701L28.9505 10.7648C28.8394 10.9426 28.6505 11.0537 28.4616 11.0537C28.3616 11.0537 28.2616 11.0315 28.1839 10.9759C27.9061 10.8203 27.8172 10.4759 27.9727 10.1981L28.7061 8.92034C27.895 8.53145 27.0172 8.28701 26.0727 8.20923V10.5203C26.0727 10.8315 25.8172 11.087 25.5061 11.087C25.195 11.087 24.9394 10.8315 24.9394 10.5203V8.22034C24.0061 8.28701 23.1172 8.54256 22.3061 8.93145L23.0394 10.2092C23.195 10.4759 23.1061 10.8315 22.8283 10.987C22.7394 11.0426 22.6394 11.0648 22.5394 11.0648C22.3394 11.0648 22.1505 10.9648 22.0505 10.7759L21.3172 9.49812C20.5616 10.0203 19.9061 10.6648 19.395 11.4203L20.6727 12.1537C20.9394 12.3092 21.0394 12.6537 20.8839 12.9315C20.7839 13.1092 20.5839 13.2203 20.395 13.2203C20.295 13.2203 20.195 13.1981 20.1061 13.1426L18.8283 12.4092C18.4394 13.2203 18.195 14.0981 18.1172 15.0426H20.4283C20.7394 15.0426 20.995 15.2981 20.995 15.6092C20.995 15.9203 20.7394 16.1759 20.4283 16.1759H18.1172C18.1839 17.1092 18.4394 17.9981 18.8283 18.8092L20.1061 18.0759C20.3727 17.9203 20.7283 18.0092 20.8839 18.287C21.0394 18.5648 20.9505 18.9092 20.6727 19.0648L19.395 19.7981C19.9061 20.5537 20.5616 21.2092 21.3172 21.7203L22.0616 20.4315C22.2172 20.1537 22.5616 20.0648 22.8394 20.2203C23.1172 20.3759 23.2061 20.7203 23.0505 20.9981L22.3172 22.2759C23.1283 22.6648 24.0061 22.9092 24.9505 22.987V20.6759C24.9505 20.3648 25.2061 20.1092 25.5172 20.1092C25.8283 20.1092 26.0839 20.3648 26.0839 20.6759V22.987C27.0172 22.9203 27.9061 22.6648 28.7172 22.2759L27.9839 20.9981C27.8283 20.7315 27.9172 20.3759 28.195 20.2203C28.4727 20.0648 28.8172 20.1537 28.9727 20.4315L29.7061 21.7092C30.4616 21.187 31.1172 20.5426 31.6283 19.787L30.3505 19.0537C30.0727 18.8981 29.9839 18.5537 30.1394 18.2759C30.295 18.0092 30.6394 17.9092 30.9172 18.0648L32.195 18.7981C32.5839 17.987 32.8283 17.1092 32.9061 16.1648H30.595C30.2616 16.1648 30.0061 15.9203 30.0061 15.5981ZM27.895 12.5981L26.0727 15.7537V17.3203C26.0727 17.6315 25.8172 17.887 25.5061 17.887C25.195 17.887 24.9394 17.6315 24.9394 17.3203V15.5981C24.9394 15.4981 24.9616 15.3981 25.0172 15.3092L26.9172 12.0203C27.0727 11.7537 27.4172 11.6537 27.695 11.8092C27.9616 11.9759 28.0505 12.3203 27.895 12.5981Z" fill="#193E80"></path>
  <path d="M49.3946 39.376V42.1538C49.3946 42.4871 49.1168 42.7649 48.7835 42.7649H46.0391V38.7649H48.7835C49.1168 38.7649 49.3946 39.0316 49.3946 39.376Z" fill="#03AADF"></path>
  <path d="M44.9062 36.2649V45.2649C44.9062 47.6871 42.9395 49.6538 40.5173 49.6538H35.6729V31.876H40.5062C42.9284 31.876 44.9062 33.8426 44.9062 36.2649Z" fill="#193E80"></path>
  <path d="M16.4834 37.9426H34.5278V43.576H16.4834V37.9426Z" fill="#03AADF"></path>
  <path d="M4.97274 38.7649V42.7649H2.2283C1.89497 42.7649 1.61719 42.4871 1.61719 42.1538V39.376C1.61719 39.0427 1.89497 38.7649 2.2283 38.7649H4.97274Z" fill="#03AADF"></path>
  <path d="M15.3505 31.876V49.6538H10.5061C8.08385 49.6538 6.11719 47.6871 6.11719 45.2649V36.2649C6.11719 33.8426 8.08385 31.876 10.5061 31.876H15.3505Z" fill="#193E80"></path>
</svg>
