<?xml version="1.0" encoding="UTF-8"?>
<svg xmlns="http://www.w3.org/2000/svg" width="51" height="51" viewBox="0 0 51 51" fill="none">
  <path d="M27.8769 30.4013C27.4492 29.7814 27.2656 29.0253 27.3613 28.2782C27.378 28.1487 27.3865 28.0182 27.3867 27.8876C27.3866 27.269 27.1982 26.6651 26.8466 26.1562L13.9648 7.48919C13.7295 7.1471 13.4292 6.85469 13.0809 6.62868C12.7326 6.40266 12.3433 6.24745 11.935 6.17191C11.5268 6.09637 11.1076 6.10198 10.7015 6.18843C10.2955 6.27487 9.91038 6.44045 9.56829 6.67571C9.2262 6.91098 8.9338 7.21132 8.70778 7.55958C8.48176 7.90785 8.32655 8.29723 8.25101 8.70548C8.17547 9.11373 8.18108 9.53286 8.26753 9.93894C8.35397 10.345 8.51955 10.7301 8.75481 11.0722L17.164 23.2577L25.3847 33.2031C25.6767 32.0673 26.9609 31.2851 28.4745 31.2675L27.8769 30.4013Z" fill="#C79A83"></path>
  <path d="M20.0941 23.2579L11.6849 11.0724C11.4492 10.731 11.2831 10.3465 11.1962 9.9408C11.1094 9.53513 11.1034 9.11631 11.1787 8.70833C11.254 8.30036 11.4091 7.91125 11.635 7.56332C11.861 7.21539 12.1534 6.91548 12.4955 6.68076C12.6015 6.60822 12.7118 6.54212 12.8258 6.48282C12.2005 6.15392 11.483 6.04412 10.788 6.17097C10.093 6.29782 9.46057 6.65399 8.99181 7.18256C8.52304 7.71113 8.245 8.38159 8.20212 9.08678C8.15923 9.79197 8.35399 10.4912 8.75525 11.0727L17.1644 23.2582L25.3851 33.2035C25.5718 32.4776 26.1639 31.8967 26.962 31.5669L20.0941 23.2579Z" fill="#A07C6B"></path>
  <path d="M26.7861 48.4414C28.8858 48.4414 30.5879 46.7393 30.5879 44.6397C30.5879 42.54 28.8858 40.8379 26.7861 40.8379C24.6865 40.8379 22.9844 42.54 22.9844 44.6397C22.9844 46.7393 24.6865 48.4414 26.7861 48.4414Z" fill="#F2CD6D"></path>
  <path d="M31.3428 41.1377L36.6299 44.001L34.3848 45.5449L31.3428 41.1377Z" fill="#AF826E"></path>
  <path d="M36.6299 44.001L39.0088 45.2891C38.8726 45.7697 38.5723 46.1874 38.1602 46.4697L36.6191 47.5293C36.1498 47.852 35.5715 47.9754 35.0113 47.8723C34.4511 47.7692 33.9547 47.4481 33.6309 46.9795C33.5436 46.8543 33.4969 46.7053 33.4971 46.5527C33.4969 46.4303 33.5266 46.3096 33.5836 46.2012C33.6406 46.0928 33.7232 45.9999 33.8242 45.9307L34.3848 45.5449L36.6299 44.001Z" fill="#C79A83"></path>
  <path d="M35.5273 26.8213V26.8223L33.2266 31.8047L31.9268 31.8887L30.209 31.5215L32.9316 25.627C33.7124 26.1876 34.5936 26.593 35.5273 26.8213Z" fill="#799091"></path>
  <path d="M29.541 31.3788L27.7031 39.9472L27.6611 39.9384C27.3125 39.8641 25.6152 39.9481 24.7959 38.5643C25.3983 36.8455 25.5998 35.0116 25.3848 33.203C25.6768 32.0673 26.9609 31.285 28.4746 31.2675C28.8188 31.263 29.1625 31.2974 29.499 31.37L29.541 31.3788Z" fill="#4689D3"></path>
  <path d="M31.9268 31.8887L31.2275 35.1514L30.7617 37.3213L30.0889 40.458L27.7031 39.9473L29.541 31.3789L30.209 31.5215L31.9268 31.8887Z" fill="#5FA8ED"></path>
  <path d="M44.7334 44.8525C44.7704 44.9047 44.7941 44.965 44.8027 45.0283C44.8112 45.0917 44.8043 45.1561 44.7825 45.2162C44.7607 45.2763 44.7247 45.3302 44.6776 45.3733C44.6304 45.4165 44.5735 45.4475 44.5117 45.4639L41.9658 46.1494C41.3795 46.3076 40.7547 46.2345 40.2207 45.9453L39.0088 45.2891L36.6299 44.001L31.3428 41.1377V41.1367L30.0889 40.458L30.7617 37.3213L41.8438 41.3389C42.2028 41.4707 42.5136 41.7079 42.7354 42.0195L44.7334 44.8525Z" fill="#C1D1E5"></path>
  <path d="M46.7705 39.0488C46.8197 39.093 46.8571 39.1487 46.8793 39.2109C46.9015 39.2732 46.9078 39.34 46.8976 39.4053C46.8874 39.4706 46.861 39.5323 46.8209 39.5848C46.7808 39.6373 46.7283 39.679 46.668 39.7061L42.2734 41.5625C42.1406 41.4695 41.9961 41.3943 41.8437 41.3389L30.7617 37.3213L31.2275 35.1514L42.9521 36.0127C43.1688 36.0283 43.3866 36.0061 43.5957 35.9473L46.7705 39.0488Z" fill="#D4E1F4"></path>
  <path d="M47.1338 33.1484C47.1855 33.1867 47.2272 33.2371 47.2551 33.2952C47.2831 33.3533 47.2965 33.4173 47.2942 33.4817C47.2918 33.5461 47.2739 33.6089 47.2419 33.6649C47.2099 33.7208 47.1647 33.7681 47.1104 33.8027L44.0967 35.7235C43.9417 35.8225 43.7728 35.8979 43.5957 35.9472C43.3866 36.006 43.1688 36.0282 42.9521 36.0126L31.2275 35.1513L31.9268 31.8886L33.2266 31.8046L43.457 31.1445C44.0245 31.1015 44.5884 31.2641 45.0459 31.6025L47.1338 33.1484Z" fill="#C1D1E5"></path>
  <path d="M9.85645 38.2763L5.07812 43.0458C3.17716 41.1553 1.973 38.6764 1.66211 36.0136C3.10709 35.6509 4.62135 35.6688 6.05739 36.0653C7.49343 36.4618 8.80228 37.2236 9.85645 38.2763Z" fill="#EA8E60"></path>
  <path d="M9.85645 38.2764C10.9103 39.3265 11.6733 40.6324 12.0706 42.0662C12.468 43.4999 12.486 45.0123 12.123 46.4551C9.4574 46.1459 6.97463 44.9445 5.07812 43.0459L9.85645 38.2764Z" fill="#D8825B"></path>
  <path d="M13.5244 34.6152L21.9697 43.0459C20.693 44.3216 19.1436 45.2912 17.438 45.8817C15.7325 46.4722 13.9153 46.6682 12.123 46.4551C12.486 45.0123 12.468 43.4999 12.0706 42.0662C11.6733 40.6324 10.9103 39.3265 9.85645 38.2764L13.5244 34.6152Z" fill="#CE7B51"></path>
  <path d="M13.5246 34.6152L9.85662 38.2764C8.80246 37.2237 7.49361 36.4619 6.05757 36.0654C4.62153 35.6689 3.10726 35.651 1.66229 36.0137C1.44944 34.2236 1.64635 32.4085 2.23815 30.7057C2.82995 29.0028 3.80114 27.4568 5.0783 26.1846L13.5246 34.6152Z" fill="#DF8A59"></path>
  <path d="M25.3848 33.2031C25.5996 34.9953 25.4037 36.8129 24.812 38.5182C24.2204 40.2236 23.2484 41.7719 21.9697 43.0459L13.5244 34.6152L17.208 30.9385C18.26 31.9887 19.5655 32.7492 20.998 33.1463C22.4304 33.5435 23.9412 33.5637 25.3838 33.2051C25.3838 33.2041 25.3838 33.2041 25.3848 33.2031Z" fill="#BA6847"></path>
  <path d="M17.208 30.9384L13.5244 34.6151L5.07812 26.1845C6.35607 24.907 7.90742 23.9364 9.61515 23.3458C11.3229 22.7553 13.1424 22.5602 14.9365 22.7753V22.7763C14.5773 24.2171 14.5977 25.7264 14.9958 27.1569C15.394 28.5874 16.1561 29.8903 17.208 30.9384Z" fill="#CC764C"></path>
  <path d="M21.97 26.1846L17.2083 30.9385C16.1564 29.8904 15.3942 28.5875 14.9961 27.157C14.598 25.7265 14.5775 24.2172 14.9368 22.7764V22.7754C17.5975 23.0898 20.0749 24.2906 21.97 26.1846Z" fill="#BF6743"></path>
  <path d="M25.3848 33.2031C25.3838 33.2041 25.3838 33.2041 25.3838 33.2051C23.9412 33.5637 22.4304 33.5435 20.998 33.1463C19.5655 32.7492 18.26 31.9887 17.208 30.9385L21.9697 26.1846C23.8667 28.0722 25.0701 30.5455 25.3848 33.2031Z" fill="#AD5A3D"></path>
  <path d="M4.5748 35.795C3.59853 35.7028 2.61368 35.7768 1.66211 36.0137C1.973 38.6766 3.17716 41.1555 5.07812 43.0459L6.67178 41.4552C5.53872 39.842 4.82584 37.9718 4.59766 36.0137C4.58887 35.9409 4.58203 35.8679 4.5748 35.795Z" fill="#C17A5B"></path>
  <path d="M14.9448 22.7911C14.946 22.7862 14.9595 22.7813 14.9595 22.7765V22.7755C13.1636 22.5598 11.3422 22.7545 9.6326 23.3451C7.92296 23.9356 6.36968 24.9065 5.08984 26.1847L6.68232 27.7798C7.0839 27.2102 7.53412 26.6765 8.02793 26.1847C9.89405 24.3186 12.327 23.1249 14.9448 22.7911Z" fill="#AA6549"></path>
  <path d="M6.67178 41.4552L5.07812 43.0459C6.97463 44.9445 9.4574 46.1459 12.123 46.4551C12.1789 46.232 12.2246 46.007 12.2623 45.7812C10.006 44.9344 8.05767 43.4267 6.67178 41.4551V41.4552Z" fill="#B26B4F"></path>
  <path d="M6.67635 27.7797L5.0783 26.1846C3.80114 27.4568 2.82995 29.0028 2.23815 30.7057C1.64635 32.4085 1.44944 34.2236 1.66229 36.0137C2.61386 35.7767 3.5987 35.7028 4.57498 35.795C4.29234 32.9578 5.03805 30.1133 6.67635 27.7797Z" fill="#B27252"></path>
  <path d="M46.8479 15.4766L47.3487 14.3883L45.1111 13.3588L46.0362 11.3554L46.689 11.6557L47.1897 10.5674L46.5384 10.2678L46.8468 9.59985L46.0623 8.39556L45.4501 9.76704L42.9994 8.6397L43.9093 6.66909L42.8217 6.16685L41.911 8.13872L39.4607 7.01118L39.9819 5.84106H38.6811L38.372 6.51079L37.7225 6.21196L37.2217 7.30024L37.8698 7.59839L36.9447 9.60161L34.7084 8.57261L34.2077 9.66099L36.4427 10.6892L35.5175 12.6924L32.7887 11.437L32.2879 12.5253L35.0152 13.7801L34.0901 15.7835L31.7361 14.7004L31.2354 15.7888L33.5889 16.8714L32.6638 18.8749L31.6394 18.4035L31.1387 19.4918L32.1615 19.9625L31.6156 21.1449L32.7032 21.647L33.2501 20.4632L35.7013 21.5908L34.5538 24.0758L35.6414 24.578L36.7895 22.0915L39.2402 23.219L38.6934 24.4037L39.7811 24.9058L40.3287 23.7198L41.3558 24.1922L41.8564 23.104L40.8311 22.6321L41.7562 20.6287L44.139 21.7251L44.6397 20.6369L42.258 19.541L43.1814 17.5375L45.9102 18.793L46.4109 17.7047L43.6836 16.45L44.6088 14.4464L46.8479 15.4766ZM44.9479 10.8546L44.0228 12.8584L41.5716 11.7309L42.4967 9.72749L44.9479 10.8546ZM38.9581 8.09888L41.4093 9.22642L40.4842 11.2298L38.0331 10.1023L38.9581 8.09888ZM37.5309 11.19L39.982 12.3175L39.057 14.3209L36.6059 13.1934L37.5309 11.19ZM36.1035 14.281L38.5547 15.4085L37.6296 17.412L35.1785 16.2845L36.1035 14.281ZM33.7512 19.3755L34.6763 17.3721L37.1268 18.4997L36.2018 20.5031L33.7512 19.3755ZM39.7409 22.1314L37.2897 21.0039L38.2148 19.0003L40.666 20.1279L39.7409 22.1314ZM41.1683 19.0401L38.7171 17.9125L39.6422 15.9091L42.0934 17.0367L41.1683 19.0401ZM42.5955 15.9492L40.1443 14.8216L41.0694 12.8182L43.5206 13.9458L42.5955 15.9492Z" fill="#D4E1F4"></path>
  <path d="M10.5876 10.1159C10.4909 10.116 10.3957 10.0923 10.3105 10.0467C10.2253 10.0011 10.1528 9.93506 10.0993 9.85458L9.98775 9.687C9.94377 9.62298 9.91296 9.55086 9.8971 9.47483C9.88125 9.3988 9.88067 9.32038 9.8954 9.24412C9.91012 9.16786 9.93986 9.0953 9.98289 9.03064C10.0259 8.96598 10.0814 8.91052 10.146 8.86748C10.2107 8.82444 10.2832 8.79468 10.3595 8.77994C10.4357 8.7652 10.5142 8.76576 10.5902 8.7816C10.6662 8.79744 10.7383 8.82823 10.8024 8.8722C10.8664 8.91616 10.921 8.97241 10.9631 9.03768L11.0748 9.20526C11.1335 9.29348 11.1672 9.39597 11.1723 9.50183C11.1774 9.60768 11.1537 9.71293 11.1037 9.80638C11.0537 9.89982 10.9793 9.97796 10.8884 10.0325C10.7975 10.087 10.6935 10.1158 10.5876 10.1159Z" fill="#F4F8FC"></path>
  <path d="M15.7535 17.877C15.6568 17.8771 15.5617 17.8533 15.4765 17.8077C15.3913 17.7621 15.3187 17.6961 15.2652 17.6156L11.0888 11.3418C11.0047 11.2125 10.9751 11.0552 11.0062 10.9041C11.0374 10.753 11.1269 10.6202 11.2554 10.5347C11.3838 10.4492 11.5407 10.4178 11.6922 10.4473C11.8436 10.4769 11.9773 10.5649 12.0642 10.6924L16.2406 16.9663C16.2993 17.0545 16.333 17.157 16.3381 17.2629C16.3432 17.3687 16.3195 17.474 16.2695 17.5674C16.2195 17.6608 16.1451 17.739 16.0543 17.7935C15.9634 17.848 15.8594 17.8769 15.7535 17.877Z" fill="#F4F8FC"></path>
  <path d="M47.0236 14.7471C47.2027 13.5021 47.1504 12.2347 46.8693 11.0088C46.7287 10.4121 46.5203 9.83346 46.2482 9.28417C45.6125 8.01268 44.6427 7.00194 43.3752 6.41796C43.3742 6.41796 43.3742 6.41698 43.3732 6.41698C42.1047 5.83397 40.7043 5.75487 39.3234 6.0996C38.7293 6.24975 38.1543 6.46731 37.6095 6.74803H37.6086C36.4928 7.33055 35.4937 8.11345 34.6613 9.0576C33.9097 9.90124 33.2784 10.8447 32.7853 11.8613C32.7443 11.9433 32.7052 12.0273 32.6662 12.1113C32.2323 13.047 31.9167 14.0331 31.7267 15.0469C31.4962 16.2433 31.4731 17.4705 31.6584 18.6748C31.7867 19.5065 32.0406 20.3139 32.4113 21.0693C33.047 22.3408 34.0168 23.3515 35.2843 23.9355C35.2853 23.9355 35.2853 23.9365 35.2863 23.9365C36.5529 24.5195 37.9523 24.5996 39.3341 24.2568V24.2558C40.1515 24.0476 40.9322 23.716 41.6496 23.2724H41.6506C42.6894 22.6293 43.6103 21.8128 44.3732 20.8584C45.02 20.0573 45.5645 19.1788 45.9943 18.2432C46.0334 18.1592 46.0705 18.0752 46.1066 17.9912C46.5607 16.9574 46.8693 15.8656 47.0236 14.7471ZM44.4884 4.00682C49.2843 6.21288 50.8625 13.0029 48.0138 19.1728C45.4269 24.7744 40.0793 27.9385 35.5275 26.8223V26.8213C34.5938 26.593 33.7126 26.1876 32.9318 25.6269C29.1232 22.8984 28.0597 16.7842 30.6467 11.1826C33.4953 5.01268 39.6925 1.80077 44.4884 4.00682Z" fill="#A4BFC1"></path>
</svg>
