<?xml version="1.0" encoding="UTF-8"?>
<svg xmlns="http://www.w3.org/2000/svg" width="51" height="51" viewBox="0 0 51 51" fill="none">
  <path d="M13.7871 49.3135C20.2592 49.3135 25.5059 44.0668 25.5059 37.5947C25.5059 31.1226 20.2592 25.876 13.7871 25.876C7.31502 25.876 2.06836 31.1226 2.06836 37.5947C2.06836 44.0668 7.31502 49.3135 13.7871 49.3135Z" fill="#AAB2BD"></path>
  <path d="M20.8652 35.5635C20.6309 36.7666 21.3262 37.8525 22.3574 38.2354C22.0293 42.6807 18.3184 46.1885 13.7871 46.1885C9.03711 46.1885 5.19336 42.3447 5.19336 37.5947C5.19336 32.8447 9.03711 29.001 13.7871 29.001C17.334 29.001 20.3887 31.1572 21.6934 34.2275C21.2793 34.5557 20.9746 35.0166 20.8652 35.5635Z" fill="#4FC3F7"></path>
  <path d="M20.8184 4.00098V14.9385C20.8184 15.7979 20.1152 16.501 19.2559 16.501H16.1309V18.0635C16.1309 18.501 15.9512 18.9072 15.6621 19.1885C15.3809 19.4775 14.9746 19.6572 14.5371 19.6572C14.0605 19.6572 13.6152 19.4463 13.3105 19.0869L9.88086 16.501H3.63086C2.77148 16.501 2.06836 15.7979 2.06836 14.9385V4.00098C2.06836 3.1416 2.77148 2.43848 3.63086 2.43848H19.2559C20.1152 2.43848 20.8184 3.1416 20.8184 4.00098Z" fill="#E6E9ED"></path>
  <path d="M15.3496 6.34473C15.834 6.82129 16.1309 7.48535 16.1309 8.22754C16.1309 9.0166 15.7793 9.75879 15.1699 10.2666L11.4434 13.376L7.7168 10.2666C7.10742 9.75879 6.75586 9.0166 6.75586 8.22754C6.75586 6.75098 7.94336 5.56348 9.41992 5.56348H9.56055C10.2637 5.56348 10.9434 5.84473 11.4434 6.34473C11.9434 5.84473 12.623 5.56348 13.3262 5.56348H13.4668C14.209 5.56348 14.873 5.86035 15.3496 6.34473Z" fill="#EF5350"></path>
  <path d="M43.3262 39.8994C43.7793 41.1104 43.1621 42.4619 41.959 42.915C41.6152 43.04 41.2793 43.0869 40.9277 43.0557C39.998 42.9775 39.2168 42.2979 38.8887 41.4229L34.7949 30.4932C34.7168 30.5088 34.6387 30.5244 34.5527 30.5322C34.0371 30.5947 33.498 30.5635 32.9355 30.3838C31.3262 29.876 30.2715 28.3291 30.2012 26.6572H38.0059L38.0996 26.5713C38.334 26.8057 38.5215 27.0869 38.6387 27.3994L43.3262 39.8994Z" fill="#CF9E76"></path>
  <path d="M30.2009 26.6572C30.2712 28.3291 31.3259 29.876 32.9352 30.3838C33.4977 30.5635 34.0368 30.5947 34.5524 30.5322L34.1227 35.5166C33.9821 37.1338 32.6305 38.376 31.0134 38.376H25.4821H23.1618C22.8805 38.376 22.6071 38.3213 22.3571 38.2354C21.3259 37.8525 20.6305 36.7666 20.8649 35.5635C20.9743 35.0166 21.279 34.5557 21.693 34.2275C22.1227 33.8838 22.6774 33.6885 23.2555 33.6885H24.8415H28.9118C29.318 33.6885 29.6618 33.376 29.693 32.9697L30.193 26.501C30.193 26.5557 30.193 26.6025 30.2009 26.6572Z" fill="#CF9E76"></path>
  <path d="M46.5996 18.0635H42.084C41.8105 18.0635 41.5605 17.9229 41.4199 17.6963L40.9199 17.1104C38.9043 14.7432 35.9512 13.376 32.834 13.376C31.4277 13.376 30.0527 13.6572 28.7793 14.1807C27.5059 14.7119 26.334 15.4854 25.334 16.4854L23.9824 17.8369C22.959 18.8604 22.3809 20.251 22.3809 21.7041V22.751V25.001C22.3809 26.1338 23.1465 27.1807 24.2559 27.3916C25.7559 27.6807 27.0684 26.54 27.0684 25.0947V22.751V21.5088C27.0684 21.3057 27.1543 21.1025 27.2949 20.9619L29.4121 18.8447H30.1934V26.4619V26.501C30.1934 26.5557 30.1934 26.6025 30.2012 26.6572H38.0059L38.0996 26.5713C38.0684 26.54 38.0371 26.5088 38.0059 26.4775V20.915C39.0371 22.0713 40.498 22.751 42.084 22.751H46.5059C47.6387 22.751 48.6855 21.9854 48.8965 20.876C49.1855 19.376 48.0449 18.0635 46.5996 18.0635Z" fill="#99C85D"></path>
  <path d="M34.0996 13.376C37.1199 13.376 39.5684 10.9275 39.5684 7.90723C39.5684 4.88692 37.1199 2.43848 34.0996 2.43848C31.0793 2.43848 28.6309 4.88692 28.6309 7.90723C28.6309 10.9275 31.0793 13.376 34.0996 13.376Z" fill="#F0D0B4"></path>
</svg>
