<?xml version="1.0" encoding="UTF-8"?>
<svg xmlns="http://www.w3.org/2000/svg" width="51" height="51" viewBox="0 0 51 51" fill="none">
  <path d="M25.5059 49.3135C38.45 49.3135 48.9434 38.8202 48.9434 25.876C48.9434 12.9318 38.45 2.43848 25.5059 2.43848C12.5617 2.43848 2.06836 12.9318 2.06836 25.876C2.06836 38.8202 12.5617 49.3135 25.5059 49.3135Z" fill="#3A474E"></path>
  <path d="M25.5059 46.1885C36.7241 46.1885 45.8184 37.0943 45.8184 25.876C45.8184 14.6577 36.7241 5.56348 25.5059 5.56348C14.2876 5.56348 5.19336 14.6577 5.19336 25.876C5.19336 37.0943 14.2876 46.1885 25.5059 46.1885Z" fill="#616C71"></path>
  <path d="M16.1948 21.2361L9.92415 47.3585C9.87442 47.5582 9.86471 47.7656 9.89556 47.969C9.92641 48.1724 9.99722 48.3677 10.1039 48.5435C10.2106 48.7194 10.351 48.8724 10.5172 48.9938C10.6833 49.1151 10.8718 49.2024 11.0718 49.2505C11.2718 49.2986 11.4793 49.3067 11.6824 49.2742C11.8856 49.2418 12.0803 49.1694 12.2553 49.0613C12.4303 48.9532 12.5822 48.8116 12.7022 48.6445C12.8222 48.4774 12.908 48.2882 12.9545 48.0878L19.2448 21.8745L16.1948 21.2361Z" fill="#E78438"></path>
  <path d="M14.5303 14.7227L14.164 16.2532C13.8801 17.4565 14.0844 18.7233 14.7322 19.7764C15.38 20.8294 16.4186 21.583 17.6206 21.8723C18.8227 22.1615 20.0903 21.9628 21.1463 21.3197C22.2022 20.6766 22.9604 19.6415 23.255 18.4407L23.6211 16.911L14.5303 14.7227Z" fill="#EEAB46"></path>
  <path d="M24.78 8.54275C24.5784 8.4951 24.3662 8.52919 24.1897 8.63756C24.0133 8.74593 23.8869 8.91977 23.8382 9.12107L22.0635 16.5356L23.5827 16.9012L25.3579 9.48415C25.4061 9.28268 25.3722 9.07033 25.2639 8.89379C25.1555 8.71725 24.9814 8.59098 24.78 8.54275Z" fill="#E3E8F6"></path>
  <path d="M21.2009 16.3281L23.0466 8.94409C23.0947 8.7438 23.0617 8.53263 22.9549 8.35652C22.848 8.18041 22.676 8.05362 22.4761 8.00373C22.2763 7.95384 22.0648 7.9849 21.8878 8.09014C21.7107 8.19538 21.5824 8.36628 21.5307 8.56567L19.6816 15.9625L21.2009 16.3281Z" fill="#E3E8F6"></path>
  <path d="M18.5934 15.7003C18.5942 15.6973 18.5963 15.695 18.5971 15.692L20.4544 8.26172C20.5025 8.06143 20.4695 7.85026 20.3627 7.67415C20.2559 7.49804 20.0838 7.37125 19.8839 7.32136C19.6841 7.27147 19.4726 7.30252 19.2956 7.40776C19.1185 7.513 18.9902 7.68391 18.9385 7.8833L17.0811 15.3136C17.0792 15.3212 17.0817 15.3285 17.0801 15.3361L18.5934 15.7003Z" fill="#E3E8F6"></path>
  <path d="M16.0886 15.0978L17.8312 7.81555C17.8552 7.7157 17.8593 7.61209 17.8432 7.51066C17.8272 7.40922 17.7913 7.31195 17.7376 7.2244C17.6839 7.13685 17.6135 7.06075 17.5303 7.00044C17.4472 6.94014 17.353 6.89681 17.2531 6.87295C17.1532 6.84908 17.0496 6.84515 16.9482 6.86136C16.8468 6.87758 16.7496 6.91363 16.6621 6.96746C16.5747 7.02128 16.4987 7.09182 16.4385 7.17505C16.3783 7.25827 16.3351 7.35254 16.3114 7.45246L14.5693 14.7322L16.0886 15.0978Z" fill="#E3E8F6"></path>
  <path d="M17.6469 21.54L11.0527 49.2345C11.0606 49.2365 11.0676 49.2405 11.0756 49.2425C11.2748 49.2902 11.4814 49.2982 11.6837 49.266C11.886 49.2338 12.0799 49.162 12.2544 49.0547C12.4289 48.9475 12.5806 48.8069 12.7007 48.641C12.8208 48.475 12.907 48.2871 12.9544 48.0878L19.2446 21.8743L17.6469 21.54Z" fill="#EEAB46"></path>
  <path d="M40.5031 47.4251L36.6874 29.9365L33.6426 30.5994L37.4586 48.0881C37.5465 48.4919 37.7912 48.8442 38.1389 49.0675C38.4866 49.2909 38.9088 49.367 39.3125 49.2791C39.7163 49.1911 40.0686 48.9464 40.292 48.5987C40.5153 48.251 40.5914 47.8289 40.5035 47.4251H40.5031Z" fill="#E78438"></path>
  <path d="M32.0511 8.68848C30.4211 9.99981 29.1887 11.7395 28.4924 13.7122C27.796 15.685 27.6633 17.8128 28.109 19.8568L30.5978 31.2625L36.6879 29.9366L32.0511 8.68848Z" fill="#E3E8F6"></path>
  <path d="M36.6875 29.9365L32.277 9.72559C31.3491 11.0077 30.7022 12.4712 30.3785 14.0204C30.0548 15.5696 30.0616 17.1696 30.3984 18.716L33.1904 30.6979L36.6875 29.9365Z" fill="#F8F7FE"></path>
  <path d="M36.6873 29.9365L35.1064 30.2802L39.2789 49.2812C39.2901 49.279 39.3012 49.2798 39.3124 49.2773C39.5122 49.234 39.7016 49.1516 39.8696 49.0351C40.0376 48.9185 40.1809 48.7699 40.2915 48.5979C40.4021 48.4259 40.4777 48.2338 40.514 48.0326C40.5503 47.8313 40.5465 47.6249 40.503 47.4251L36.6873 29.9365Z" fill="#EEAB46"></path>
</svg>
