<svg width="26" height="26" viewBox="0 0 26 26" fill="none" xmlns="http://www.w3.org/2000/svg">
<path d="M9.19141 22.9023V24.4766H6.90625C6.48522 24.4766 6.14453 24.8173 6.14453 25.2383C6.14453 25.6593 6.48522 26 6.90625 26H19.0938C19.5148 26 19.8555 25.6593 19.8555 25.2383C19.8555 24.8173 19.5148 24.4766 19.0938 24.4766H16.8086V22.9023H9.19141Z" fill="#D96122"/>
<path d="M0.761719 21.3789H25.2383C25.6593 21.3789 26 21.0382 26 20.6172V3.85938C26 3.43835 25.6593 3.09766 25.2383 3.09766H23.6641V16.0469C23.6641 17.307 22.639 18.332 21.3789 18.332H4.62109C3.36101 18.332 2.33594 17.307 2.33594 16.0469V3.09766H0.761719C0.340691 3.09766 0 3.43835 0 3.85938V20.6172C0 21.0382 0.340691 21.3789 0.761719 21.3789Z" fill="#D96122"/>
<path d="M17.6834 11.8096L15.7285 11.1572L16.3801 13.1129L17.6834 11.8096Z" fill="#D96122"/>
<path d="M22.1406 0.761719C22.1406 0.340691 21.7999 0 21.3789 0H4.62109C4.20007 0 3.85938 0.340691 3.85938 0.761719V6.14453H22.1406V0.761719ZM6.90625 3.85938C6.48558 3.85938 6.14453 3.51833 6.14453 3.09766C6.14453 2.67688 6.48558 2.33594 6.90625 2.33594C7.32692 2.33594 7.66797 2.67688 7.66797 3.09766C7.66797 3.51833 7.32692 3.85938 6.90625 3.85938ZM9.95312 3.85938C9.53245 3.85938 9.19141 3.51833 9.19141 3.09766C9.19141 2.67688 9.53245 2.33594 9.95312 2.33594C10.3738 2.33594 10.7148 2.67688 10.7148 3.09766C10.7148 3.51833 10.3738 3.85938 9.95312 3.85938ZM13 3.85938C12.5793 3.85938 12.2383 3.51833 12.2383 3.09766C12.2383 2.67688 12.5793 2.33594 13 2.33594C13.4207 2.33594 13.7617 2.67688 13.7617 3.09766C13.7617 3.51833 13.4207 3.85938 13 3.85938Z" fill="#D96122"/>
<path d="M3.85938 16.0469C3.85938 16.4679 4.20007 16.8086 4.62109 16.8086H21.3789C21.7999 16.8086 22.1406 16.4679 22.1406 16.0469V7.66797H3.85938V16.0469ZM13.9849 9.41459C14.1902 9.21228 14.4922 9.13859 14.7645 9.23086L19.3348 10.7543C19.5848 10.8376 19.7752 11.0444 19.8347 11.3018C19.8957 11.5584 19.8198 11.8284 19.6324 12.0151L18.6474 13L19.6323 13.9849C19.9299 14.2824 19.9299 14.7645 19.6323 15.062C19.3348 15.3595 18.8527 15.3595 18.5552 15.062L17.5703 14.0771L16.5854 15.062C16.4018 15.2456 16.1343 15.3257 15.8713 15.2651C15.6154 15.2041 15.4071 15.0152 15.3239 14.7645L13.8004 10.1942C13.7097 9.92037 13.7811 9.61838 13.9849 9.41459ZM6.90625 9.19141H11.4766C11.8976 9.19141 12.2383 9.5321 12.2383 9.95312C12.2383 10.3742 11.8976 10.7148 11.4766 10.7148H6.90625C6.48522 10.7148 6.14453 10.3742 6.14453 9.95312C6.14453 9.5321 6.48522 9.19141 6.90625 9.19141ZM6.90625 12.2383H11.4766C11.8976 12.2383 12.2383 12.579 12.2383 13C12.2383 13.421 11.8976 13.7617 11.4766 13.7617H6.90625C6.48522 13.7617 6.14453 13.421 6.14453 13C6.14453 12.579 6.48522 12.2383 6.90625 12.2383Z" fill="#D96122"/>
</svg>
