<?xml version="1.0" encoding="UTF-8"?>
<svg xmlns="http://www.w3.org/2000/svg" width="70" height="70" viewBox="0 0 70 70" fill="none">
  <g clip-path="url(#clip0_81_12)">
    <path d="M53.6666 14H45.5C44.9905 14.0012 44.4874 14.1133 44.0256 14.3286C43.5639 14.5439 43.1546 14.8572 42.8261 15.2467C42.4977 15.6362 42.2581 16.0925 42.1238 16.584C41.9896 17.0755 41.9641 17.5903 42.049 18.0927C42.1991 18.854 42.5914 19.5465 43.1673 20.0666C43.7432 20.5868 44.4718 20.9068 45.2445 20.979L37.3333 28.8843L35.1435 26.7015C34.4801 26.06 33.5935 25.7015 32.6707 25.7015C31.748 25.7015 30.8613 26.06 30.198 26.7015L20.8565 36.0407C20.2603 36.7073 19.9419 37.5769 19.9667 38.471C19.9915 39.365 20.3576 40.2156 20.9899 40.8482C21.6221 41.4807 22.4726 41.8472 23.3666 41.8725C24.2606 41.8977 25.1304 41.5797 25.7973 40.9838L32.6666 34.1157L34.8565 36.2985C35.5198 36.94 36.4065 37.2985 37.3292 37.2985C38.252 37.2985 39.1386 36.94 39.802 36.2985L50.176 25.9257C50.2137 26.4116 50.3523 26.8843 50.5828 27.3136C50.8133 27.743 51.1308 28.1196 51.515 28.4195C51.8992 28.7194 52.3416 28.9359 52.8141 29.0553C53.2866 29.1747 53.7788 29.1944 54.2593 29.113C55.0863 28.9476 55.8295 28.4985 56.3604 27.8432C56.8913 27.1879 57.1765 26.3676 57.1666 25.5243V17.5C57.1666 16.5717 56.7979 15.6815 56.1415 15.0251C55.4851 14.3687 54.5949 14 53.6666 14ZM54.8333 25.5243C54.8445 25.817 54.7552 26.1047 54.5804 26.3396C54.4055 26.5745 54.1555 26.7426 53.872 26.8158C53.7036 26.8468 53.5303 26.8398 53.365 26.7952C53.1997 26.7506 53.0464 26.6695 52.9165 26.558C52.7867 26.4484 52.6822 26.312 52.6103 26.1581C52.5384 26.0042 52.5008 25.8365 52.5 25.6667V23.1233C52.4999 22.8926 52.4315 22.6671 52.3033 22.4753C52.1751 22.2835 51.9929 22.134 51.7797 22.0457C51.5666 21.9574 51.332 21.9343 51.1058 21.9793C50.8795 22.0243 50.6716 22.1354 50.5085 22.2985L38.15 34.6582C37.9329 34.8739 37.6393 34.995 37.3333 34.995C37.0273 34.995 36.7337 34.8739 36.5166 34.6582L33.495 31.6482C33.2762 31.4298 32.9798 31.3072 32.6707 31.3072C32.3616 31.3072 32.0652 31.4298 31.8465 31.6482L24.15 39.3272C23.932 39.5452 23.6363 39.6676 23.3281 39.6676C23.0198 39.6676 22.7241 39.5452 22.5061 39.3272C22.2881 39.1092 22.1657 38.8135 22.1657 38.5053C22.1657 38.197 22.2881 37.9013 22.5061 37.6833L31.85 28.3418C31.9558 28.232 32.0826 28.1447 32.2229 28.085C32.3632 28.0254 32.5142 27.9946 32.6666 27.9946C32.8191 27.9946 32.97 28.0254 33.1103 28.085C33.2507 28.1447 33.3775 28.232 33.4833 28.3418L36.505 31.3518C36.7237 31.5702 37.0201 31.6928 37.3292 31.6928C37.6383 31.6928 37.9347 31.5702 38.1535 31.3518L48.8635 20.6535C49.0247 20.4904 49.1343 20.2834 49.1786 20.0583C49.2228 19.8332 49.1997 19.6001 49.1122 19.3881C49.0247 19.1761 48.8766 18.9946 48.6865 18.8663C48.4964 18.738 48.2727 18.6685 48.0433 18.6667H45.6411C45.3487 18.6776 45.0613 18.5882 44.8266 18.4133C44.5919 18.2385 44.424 17.9887 44.3508 17.7053C44.3205 17.5369 44.3279 17.3639 44.3724 17.1986C44.417 17.0334 44.4977 16.8801 44.6086 16.7498C44.7182 16.62 44.8547 16.5156 45.0086 16.4437C45.1624 16.3718 45.3301 16.3341 45.5 16.3333H53.6666C53.9761 16.3333 54.2728 16.4562 54.4916 16.675C54.7104 16.8938 54.8333 17.1906 54.8333 17.5V25.5243Z" fill="#D96122"></path>
    <path d="M58.0242 7.50518C54.479 4.30022 50.2009 2.01511 45.5658 0.850695C40.9307 -0.313721 36.0806 -0.321797 31.4416 0.827177C25.087 2.3532 19.4389 5.99188 15.4223 11.1472C11.4058 16.3026 9.25891 22.6691 9.33332 29.204V29.5995C9.34105 32.1492 8.63066 34.6495 7.28348 36.8142C6.04392 38.8431 4.67329 40.7889 3.18032 42.6393C2.79193 43.1112 2.52561 43.6714 2.40483 44.2705C2.28405 44.8696 2.31253 45.4892 2.48775 46.0747C2.66297 46.6602 2.97956 47.1936 3.40959 47.6279C3.83962 48.0621 4.36989 48.3839 4.95365 48.5648C5.99781 48.7734 7.05707 48.8974 8.12115 48.9358C8.07849 49.7709 7.87819 50.5903 7.53082 51.3508C7.31291 51.7827 7.23917 52.2731 7.32043 52.7499C7.40169 53.2268 7.63367 53.665 7.98232 54.0003C8.22788 54.2423 8.48691 54.4701 8.75815 54.6828C8.60628 54.9817 8.48285 55.2942 8.38948 55.6162C8.22558 56.186 8.28579 56.797 8.5578 57.3238C8.8298 57.8507 9.293 58.2536 9.85248 58.45C10.0676 58.5195 10.251 58.6633 10.3696 58.8558C10.4883 59.0482 10.5345 59.2766 10.5 59.5V63C10.5 64.2377 10.9916 65.4247 11.8668 66.2998C12.742 67.175 13.929 67.6667 15.1666 67.6667C16.8678 67.6637 18.5545 67.3543 20.146 66.7532L26.4145 64.029C26.6528 64.8768 26.7825 65.7514 26.8006 66.6318C26.8371 67.5363 27.2215 68.3917 27.8737 69.0193C28.526 69.647 29.3955 69.9983 30.3006 70H57.8176C58.3355 70 58.8468 69.8852 59.3149 69.6637C59.783 69.4422 60.196 69.1196 60.5244 68.7192C60.8527 68.3188 61.0881 67.8505 61.2136 67.3481C61.339 66.8458 61.3515 66.3218 61.25 65.814L58.3426 51.2622C58.3072 51.0616 58.3229 50.8552 58.3884 50.6623C58.4539 50.4694 58.5669 50.2961 58.7171 50.1585C63.4833 45.6008 66.553 39.5542 67.4193 33.0167C68.0297 28.3217 67.4939 23.5488 65.8578 19.106C64.2216 14.6632 61.5338 10.6828 58.0242 7.50518ZM65.1 32.718C64.3032 38.7275 61.4804 44.2855 57.0978 48.4738C56.6631 48.8823 56.3388 49.3941 56.1552 49.9616C55.9716 50.5291 55.9347 51.1339 56.0478 51.7195L58.954 66.2725C58.9886 66.442 58.9851 66.6171 58.9436 66.7851C58.9022 66.9531 58.824 67.1098 58.7145 67.2438C58.6051 67.3778 58.4672 67.4858 58.3109 67.56C58.1545 67.6341 57.9837 67.6725 57.8106 67.6725H30.2971C29.9929 67.6694 29.7017 67.5488 29.4843 67.3359C29.2668 67.1231 29.1401 66.8344 29.1305 66.5303C29.102 65.388 28.9147 64.2552 28.574 63.1645L33.1625 61.4483C34.8894 60.7829 36.2842 59.4632 37.044 57.7757L38.6575 54.1462C38.7197 54.0061 38.7537 53.8552 38.7576 53.7021C38.7615 53.5489 38.7351 53.3964 38.6801 53.2534C38.6251 53.1104 38.5424 52.9797 38.4368 52.8686C38.3313 52.7576 38.2048 52.6684 38.0648 52.6062C37.9248 52.544 37.7739 52.51 37.6207 52.5061C37.4675 52.5022 37.3151 52.5285 37.1721 52.5836C37.0291 52.6386 36.8983 52.7213 36.7873 52.8268C36.6762 52.9324 36.587 53.0588 36.5248 53.1988L34.9137 56.8167C34.4099 57.937 33.4847 58.8136 32.3388 59.2562L26.6 61.4063C26.5895 61.4063 26.5825 61.4192 26.5731 61.4227C26.5638 61.4262 26.5533 61.4227 26.544 61.4227L19.2745 64.5832C17.9608 65.0759 16.5697 65.33 15.1666 65.3333C14.5478 65.3333 13.9543 65.0875 13.5167 64.6499C13.0791 64.2123 12.8333 63.6189 12.8333 63V59.5C12.8731 58.795 12.6786 58.0966 12.2799 57.5137C11.8813 56.9308 11.301 56.4962 10.6295 56.2777C10.7448 55.865 10.9473 55.4819 11.2233 55.1542C11.3636 55.0168 11.4669 54.8463 11.5237 54.6585C11.5806 54.4706 11.5891 54.2714 11.5485 54.0793C11.5079 53.8873 11.4195 53.7086 11.2915 53.5598C11.1635 53.4109 11 53.2968 10.8161 53.228C10.3729 53.0203 9.96716 52.7404 9.61565 52.3997C10.264 50.9678 10.5669 49.4037 10.5 47.8333C10.5003 47.533 10.3848 47.2441 10.1775 47.0268C9.97015 46.8095 9.68701 46.6805 9.38698 46.6667C8.13267 46.6312 6.88166 46.5198 5.64082 46.333C5.42373 46.2677 5.22633 46.1493 5.06644 45.9886C4.90654 45.8279 4.78919 45.6299 4.72498 45.4125C4.65796 45.1922 4.64632 44.9588 4.69109 44.7329C4.73586 44.507 4.83566 44.2956 4.98165 44.1175C6.54006 42.1917 7.96961 40.1651 9.26098 38.0508C10.8405 35.5155 11.6742 32.5866 11.6666 29.5995V29.2028C11.594 23.1945 13.5639 17.3395 17.2536 12.597C20.9433 7.8545 26.1342 4.50554 31.976 3.09868C36.2271 2.04612 40.6709 2.04773 44.9212 3.10336C49.1715 4.159 53.0997 6.23672 56.3643 9.15594C59.629 12.0752 62.1312 15.7475 63.6537 19.8538C65.1761 23.9601 65.6726 28.3762 65.1 32.718Z" fill="#D96122"></path>
  </g>
  <defs>
    <clipPath id="clip0_81_12">
      <rect width="70" height="70" fill="white"></rect>
    </clipPath>
  </defs>
</svg>
