<svg width="26" height="26" viewBox="0 0 26 26" fill="none" xmlns="http://www.w3.org/2000/svg">
<path d="M13 0C5.83177 0 0 5.83177 0 13C0 20.1682 5.83177 26 13 26C20.1682 26 26 20.1682 26 13C26 5.83177 20.1682 0 13 0ZM6.48527 10.5637C6.37716 10.8802 6.08126 11.0794 5.76448 11.0794C5.68283 11.0794 5.5998 11.0661 5.5182 11.0383C5.12007 10.9023 4.9076 10.4693 5.04359 10.0712C5.50352 8.72488 6.76843 7.82031 8.19122 7.82031C9.61299 7.82031 10.8776 8.72407 11.3381 10.0691C11.4743 10.4671 11.2621 10.9002 10.8641 11.0365C10.4661 11.1727 10.033 10.9606 9.89676 10.5626C9.64717 9.83359 8.96177 9.34375 8.19122 9.34375C7.42011 9.34375 6.73451 9.83399 6.48527 10.5637ZM18.2349 17.2239C17.1417 19.0587 15.1358 20.1985 13 20.1985C10.8702 20.1985 8.86727 19.0635 7.77268 17.2366C7.55645 16.8758 7.67371 16.408 8.03461 16.1918C8.39561 15.9756 8.86336 16.0929 9.07953 16.4537C9.90052 17.8239 11.4027 18.6751 13.0001 18.6751C14.6019 18.6751 16.1063 17.8202 16.9263 16.4441C17.1416 16.0827 17.6091 15.9642 17.9705 16.1796C18.3319 16.3949 18.4503 16.8625 18.2349 17.2239ZM20.4864 11.0365C20.0883 11.1727 19.6552 10.9606 19.519 10.5626C19.2694 9.83359 18.584 9.34375 17.8135 9.34375C17.0423 9.34375 16.3567 9.83399 16.1075 10.5637C15.9994 10.8802 15.7035 11.0794 15.3867 11.0794C15.3051 11.0794 15.222 11.0661 15.1404 11.0383C14.7423 10.9023 14.5298 10.4693 14.6658 10.0712C15.1258 8.72488 16.3907 7.82031 17.8135 7.82031C19.2352 7.82031 20.4998 8.72407 20.9603 10.0691C21.0966 10.4671 20.8843 10.9002 20.4864 11.0365Z" fill="#D96122"/>
</svg>
