<svg width="26" height="26" viewBox="0 0 26 26" fill="none" xmlns="http://www.w3.org/2000/svg">
<g clip-path="url(#clip0_11_1099)">
<path d="M9.30981 3.79062V1.52344H16.6902V3.79062H18.2136V0.761719C18.2136 0.341047 17.8725 0 17.4519 0H8.5481C8.12742 0 7.78638 0.341047 7.78638 0.761719V3.79062H9.30981Z" fill="#D96122"/>
<path d="M24.7976 13.0764C24.3767 13.7451 23.6537 14.1444 22.8635 14.1444H18.846C18.6709 14.6206 18.3744 14.9825 18.1697 15.2322C18.1212 15.2913 18.0531 15.3744 18.0142 15.4276C18.0022 15.497 17.9898 15.6152 17.981 15.6987C17.9383 16.1053 17.8777 16.6789 17.5378 17.2058V22.6231H25.2383C25.6589 22.6231 26 22.2821 26 21.8614V11.1658L24.7976 13.0764Z" fill="#D96122"/>
<path d="M8.46214 17.2058C8.12226 16.6788 8.06168 16.1051 8.01892 15.6985C8.01013 15.6149 7.99769 15.4968 7.98576 15.4274C7.94686 15.3743 7.87881 15.2912 7.83032 15.2322C7.62562 14.9825 7.32911 14.6205 7.15396 14.1443H3.11929C2.32624 14.1443 1.60184 13.7429 1.18153 13.0703L0 11.1799V21.8614C0 22.2821 0.341047 22.6231 0.761719 22.6231H8.46214V17.2058Z" fill="#D96122"/>
<path d="M25.2383 5.31409H0.761719C0.341047 5.31409 0 5.65513 0 6.07581V8.30556L2.47335 12.2629C2.61254 12.4856 2.85665 12.6209 3.11929 12.6209H7.12639C7.2964 12.1054 7.61445 11.7171 7.83042 11.4537C7.87886 11.3946 7.94696 11.3117 7.98581 11.2584C7.99779 11.189 8.01028 11.0709 8.01902 10.9873C8.07219 10.4818 8.15252 9.71779 8.76357 9.10668C9.37483 8.49548 10.1389 8.41509 10.6444 8.36198C10.7279 8.35319 10.8461 8.34075 10.9155 8.32877C10.9688 8.28992 11.0518 8.22182 11.1108 8.17338C11.4856 7.86615 12.1127 7.35189 13.0001 7.35189C13.8874 7.35189 14.5146 7.8661 14.8892 8.17338C14.9483 8.22182 15.0314 8.28992 15.0846 8.32877C15.154 8.34075 15.2722 8.35319 15.3557 8.36198C15.8613 8.41515 16.6253 8.49548 17.2364 9.10663C17.8476 9.71784 17.928 10.4819 17.9811 10.9875C17.9899 11.0711 18.0024 11.1892 18.0143 11.2585C18.0532 11.3118 18.1212 11.3947 18.1697 11.4538C18.3857 11.7172 18.7036 12.1055 18.8737 12.621H22.8636C23.1254 12.621 23.3689 12.4865 23.5083 12.2649L26 8.30551V6.07575C26 5.65508 25.659 5.31409 25.2383 5.31409Z" fill="#D96122"/>
<path d="M15.3556 18.324C15.2721 18.3328 15.1539 18.3452 15.0845 18.3572C15.0314 18.396 14.9483 18.4641 14.8892 18.5126C14.6326 18.723 14.2576 19.0304 13.7617 19.2033V25.3255L15.0975 25.94C15.526 26.1371 16.0144 25.8242 16.0144 25.3526V18.2255C15.7729 18.2801 15.5459 18.304 15.3556 18.324Z" fill="#D96122"/>
<path d="M12.2384 19.2033C11.7425 19.0304 11.3675 18.723 11.1109 18.5126C11.0518 18.4641 10.9687 18.396 10.9156 18.3571C10.8461 18.3452 10.728 18.3328 10.6444 18.3239C10.4541 18.3039 10.2272 18.28 9.9856 18.2255V25.3525C9.9856 25.8241 10.4741 26.1371 10.9025 25.94L12.2384 25.3255V19.2033Z" fill="#D96122"/>
<path d="M17.4678 13.3429C17.4678 13.9102 16.8085 14.3423 16.604 14.8355C16.3919 15.3469 16.5446 16.1167 16.1593 16.502C15.7739 16.8874 15.0041 16.7348 14.4928 16.9468C13.9995 17.1513 13.5674 17.8106 13.0002 17.8106C12.4329 17.8106 12.0008 17.1513 11.5075 16.9468C10.9962 16.7347 10.2264 16.8874 9.841 16.502C9.45567 16.1166 9.60832 15.3469 9.39626 14.8355C9.19171 14.3423 8.53247 13.9102 8.53247 13.3429C8.53247 12.7757 9.19171 12.3436 9.39626 11.8503C9.60832 11.3389 9.45567 10.5692 9.841 10.1838C10.2264 9.7984 10.9962 9.95105 11.5075 9.73903C12.0008 9.53449 12.4329 8.87524 13.0001 8.87524C13.5673 8.87524 13.9995 9.53449 14.4927 9.73903C15.0041 9.9511 15.7739 9.79845 16.1593 10.1838C16.5446 10.5692 16.3919 11.3389 16.604 11.8503C16.8085 12.3436 17.4678 12.7757 17.4678 13.3429Z" fill="#D96122"/>
</g>
<defs>
<clipPath id="clip0_11_1099">
<rect width="26" height="26" fill="white"/>
</clipPath>
</defs>
</svg>
