<?xml version="1.0" encoding="UTF-8"?>
<svg xmlns="http://www.w3.org/2000/svg" width="70" height="70" viewBox="0 0 70 70" fill="none">
  <path d="M34.0547 11.8539V33.445C34.0589 33.6931 34.1605 33.9296 34.3374 34.1035C34.5144 34.2775 34.7526 34.375 35.0007 34.375C35.2488 34.375 35.487 34.2775 35.664 34.1035C35.8409 33.9296 35.9424 33.6931 35.9466 33.445V11.8541C38.7883 11.3987 40.9689 8.93648 40.9689 5.96818C40.9689 2.67736 38.2918 0 35.0012 0C31.7101 0 29.0331 2.67736 29.0331 5.96818C29.0331 8.93621 31.213 11.3981 34.0547 11.8539ZM35.0012 1.89191C37.2485 1.89191 39.077 3.72039 39.077 5.96818C39.077 8.21598 37.2485 10.0445 35.0012 10.0445C32.7534 10.0445 30.925 8.21598 30.925 5.96818C30.925 3.72039 32.7534 1.89191 35.0012 1.89191ZM41.8593 64.5064C41.7801 64.6619 41.6594 64.7924 41.5106 64.8835C41.3618 64.9747 41.1907 65.0229 41.0162 65.0228C40.8669 65.0226 40.7198 64.9871 40.5869 64.919C40.0555 64.648 39.2659 64.3377 38.4918 64.0423C38.3757 63.9981 38.2695 63.9315 38.1792 63.8462C38.0889 63.7609 38.0163 63.6587 37.9655 63.5453C37.9147 63.432 37.8867 63.3097 37.8832 63.1856C37.8797 63.0614 37.9007 62.9378 37.9449 62.8217C38.1303 62.3334 38.6777 62.0877 39.1656 62.2748C39.9896 62.5886 40.8357 62.9221 41.4467 63.2341C41.5574 63.2904 41.6559 63.3681 41.7366 63.4626C41.8172 63.5571 41.8784 63.6665 41.9168 63.7847C41.9551 63.9028 41.9697 64.0274 41.9599 64.1512C41.95 64.2751 41.9159 64.3958 41.8593 64.5064ZM28.7547 36.3003C21.2875 33.8551 17.1139 30.9708 16.6846 27.959C16.4746 26.4843 17.1705 25.1171 18.6442 24.1099C21.2758 22.311 26.3897 21.7993 30.3915 24.0554C30.4997 24.1164 30.5949 24.1981 30.6716 24.2959C30.7482 24.3936 30.8049 24.5056 30.8383 24.6252C30.8717 24.7449 30.8812 24.87 30.8663 24.9933C30.8513 25.1167 30.8122 25.2359 30.7512 25.3441C30.4944 25.7998 29.9161 25.9603 29.4629 25.7034C26.1472 23.8343 21.8189 24.2315 19.7121 25.6717C19.1123 26.0816 18.425 26.7647 18.5574 27.6922C18.6725 28.4987 19.7898 31.3741 29.3434 34.5026C29.4614 34.5413 29.5707 34.6028 29.665 34.6837C29.7592 34.7646 29.8366 34.8632 29.8928 34.974C29.9489 35.0848 29.9827 35.2056 29.9921 35.3294C30.0016 35.4533 29.9866 35.5778 29.9479 35.6958C29.9093 35.8139 29.8477 35.9231 29.7668 36.0174C29.686 36.1117 29.5873 36.1891 29.4765 36.2452C29.3657 36.3013 29.2449 36.3351 29.1211 36.3446C28.9972 36.354 28.8727 36.339 28.7547 36.3003ZM44.4749 42.8431C44.335 45.2982 41.9198 47.6689 37.8472 49.3471C37.3382 49.557 36.6933 49.7722 35.9466 50.0207V57.1834C35.9424 57.4315 35.8409 57.668 35.664 57.842C35.487 58.016 35.2488 58.1134 35.0007 58.1134C34.7526 58.1134 34.5144 58.016 34.3374 57.842C34.1605 57.668 34.0589 57.4315 34.0547 57.1834V50.6815C31.0218 51.8148 28.5586 53.21 28.8255 55.3507C28.9831 56.6156 30.0528 57.8689 32.0057 59.0763C32.1114 59.1417 32.2031 59.2272 32.2757 59.328C32.3483 59.4288 32.4004 59.543 32.4288 59.6639C32.4573 59.7848 32.4617 59.9102 32.4417 60.0328C32.4217 60.1554 32.3778 60.2729 32.3124 60.3786C32.2277 60.5158 32.1092 60.629 31.9683 60.7075C31.8274 60.786 31.6688 60.8271 31.5075 60.8269C31.3376 60.8269 31.1657 60.7813 31.0106 60.6855C28.512 59.1403 27.1837 57.4721 26.9484 55.5847C26.4059 51.2352 31.933 49.3745 34.9027 48.3749L35.3473 48.2264C36.0604 47.9884 36.6769 47.7831 37.1265 47.5979C40.4004 46.2487 42.4925 44.3853 42.586 42.7355C42.6612 41.4204 41.387 40.4317 40.3043 39.8337C39.8474 39.5809 39.681 39.0053 39.9342 38.5481C40.1867 38.09 40.7619 37.9255 41.2195 38.1778C44.0414 39.7368 44.5475 41.5755 44.4749 42.8431ZM43.0516 55.5842C42.6668 58.6815 39.3906 60.7329 35.9466 62.2653V69.054C35.9424 69.3021 35.8409 69.5387 35.664 69.7126C35.487 69.8866 35.2488 69.9841 35.0007 69.9841C34.7526 69.9841 34.5144 69.8866 34.3374 69.7126C34.1605 69.5387 34.0589 69.3021 34.0547 69.054V63.0595C33.4161 63.3124 32.7756 63.5606 32.1333 63.8039C31.0051 64.2335 30.0308 64.6045 29.4124 64.9195C29.2797 64.9873 29.1329 65.0227 28.9838 65.0228C28.8092 65.0228 28.6379 64.9745 28.4889 64.8832C28.34 64.7919 28.2193 64.6611 28.1401 64.5054C28.0838 64.3947 28.0498 64.274 28.0401 64.1502C28.0304 64.0263 28.0452 63.9018 28.0836 63.7837C28.122 63.6656 28.1834 63.5562 28.2641 63.4617C28.3448 63.3673 28.4433 63.2897 28.554 63.2334C29.2629 62.8728 30.2809 62.4848 31.4595 62.0359C35.1731 60.6215 40.7847 58.4839 41.1746 55.3511C41.328 54.1155 40.5847 53.0275 38.9021 52.0256C38.7953 51.9621 38.7022 51.8781 38.6279 51.7786C38.5536 51.679 38.4996 51.5658 38.4691 51.4454C38.4385 51.325 38.432 51.1997 38.4499 51.0768C38.4678 50.9539 38.5097 50.8357 38.5733 50.7289C38.8418 50.2794 39.4231 50.1331 39.8702 50.4004C42.2338 51.8078 43.3042 53.5519 43.0516 55.5842ZM53.2797 28.1714C52.549 31.7975 46.567 35.1207 35.9466 37.8253V45.2985C35.9424 45.5466 35.8409 45.7831 35.664 45.957C35.487 46.131 35.2488 46.2285 35.0007 46.2285C34.7526 46.2285 34.5144 46.131 34.3374 45.957C34.1605 45.7831 34.0589 45.5466 34.0547 45.2985V38.289C34.0099 38.2996 33.9685 38.3106 33.9236 38.3212C30.0185 39.2388 27.6512 40.7118 27.4282 42.3624C27.2398 43.7557 28.6144 45.3995 31.1061 46.7593C31.2908 46.8599 31.4367 47.0192 31.5207 47.212C31.6047 47.4048 31.622 47.6201 31.5699 47.8239C31.5178 48.0277 31.3993 48.2082 31.2331 48.3371C31.0669 48.466 30.8625 48.5358 30.6522 48.5354C30.494 48.5355 30.3383 48.4957 30.1995 48.4196C26.9448 46.6435 25.2511 44.3434 25.553 42.109C25.7932 40.3356 27.3648 37.9194 33.4913 36.4794C49.254 32.7804 51.2032 28.8989 51.4248 27.7975C51.577 27.0434 51.2296 26.3527 50.3926 25.7445C48.2975 24.2234 43.8375 23.8435 40.5371 25.7033C40.0832 25.9588 39.5049 25.7994 39.2488 25.3436C39.1878 25.2354 39.1487 25.1162 39.1337 24.9929C39.1188 24.8696 39.1283 24.7445 39.1617 24.6249C39.1951 24.5052 39.2518 24.3933 39.3284 24.2956C39.4051 24.1979 39.5003 24.1162 39.6085 24.0553C43.6707 21.7659 48.9455 22.3552 51.5043 24.2141C52.9514 25.2656 53.582 26.6707 53.2797 28.1714ZM23.5847 20.828H14.9935C13.4471 20.828 12.1896 19.4301 12.1896 17.7118V16.2396H11.6273C10.0808 16.2396 8.8226 14.8419 8.8226 13.1236V11.8996H8.14338C6.59764 11.8996 5.33997 10.5019 5.33997 8.78363V6.61363C5.34 6.36276 5.43968 6.12217 5.61707 5.94478C5.79446 5.76739 6.03505 5.66771 6.28592 5.66768H17.628C21.3821 5.66768 24.6535 7.50777 26.604 10.7167L31.3109 18.4641C31.441 18.6786 31.4806 18.9359 31.4212 19.1795C31.3617 19.4232 31.208 19.6332 30.9937 19.7637C30.5467 20.0344 29.9652 19.8939 29.6937 19.4465L24.9869 11.699C23.3647 9.02959 20.751 7.55959 17.6281 7.55959H7.23188V8.78391C7.23188 9.44754 7.64942 10.0079 8.14338 10.0079H16.6637C16.9118 10.0122 17.1483 10.1137 17.3223 10.2906C17.4962 10.4676 17.5937 10.7058 17.5937 10.9539C17.5937 11.202 17.4962 11.4402 17.3223 11.6172C17.1483 11.7941 16.9118 11.8956 16.6637 11.8999H10.7145V13.1239C10.7145 13.7875 11.1327 14.3479 11.6273 14.3479H20.2184C20.4665 14.3522 20.703 14.4537 20.877 14.6306C21.0509 14.8076 21.1484 15.0458 21.1484 15.2939C21.1484 15.542 21.0509 15.7802 20.877 15.9572C20.703 16.1341 20.4665 16.2356 20.2184 16.2399H14.0815V17.7121C14.0815 18.3757 14.499 18.9364 14.9935 18.9364H23.5847C23.8355 18.9364 24.0761 19.0361 24.2535 19.2135C24.4309 19.3909 24.5306 19.6315 24.5306 19.8823C24.5305 20.1331 24.4308 20.3737 24.2534 20.551C24.076 20.7283 23.8355 20.828 23.5847 20.828ZM64.6599 6.61363V8.78391C64.6599 10.5022 63.4024 11.8999 61.8566 11.8999H61.1767V13.1239C61.1767 14.8422 59.9192 16.2399 58.3728 16.2399H57.8104V17.7121C57.8104 19.4303 56.5529 20.8283 55.0065 20.8283H46.4153C46.1672 20.8241 45.9307 20.7225 45.7568 20.5456C45.5828 20.3687 45.4853 20.1305 45.4853 19.8823C45.4853 19.6342 45.5828 19.396 45.7568 19.219C45.9307 19.0421 46.1672 18.9406 46.4153 18.9364H55.0065C55.501 18.9364 55.9185 18.3757 55.9185 17.7121V16.2399H49.7816C49.5335 16.2356 49.297 16.1341 49.1231 15.9572C48.9491 15.7802 48.8516 15.542 48.8516 15.2939C48.8516 15.0458 48.9491 14.8076 49.1231 14.6306C49.297 14.4537 49.5335 14.3522 49.7816 14.3479H58.3728C58.8673 14.3479 59.2848 13.7875 59.2848 13.1239V11.8999H53.3363C53.0882 11.8956 52.8517 11.7941 52.6777 11.6172C52.5038 11.4402 52.4063 11.202 52.4063 10.9539C52.4063 10.7058 52.5038 10.4676 52.6777 10.2906C52.8517 10.1137 53.0882 10.0122 53.3363 10.0079H61.8566C62.3506 10.0079 62.7681 9.44754 62.7681 8.78391V7.55959H52.3719C49.249 7.55959 46.6353 9.02959 45.0132 11.699L40.3062 19.4465C40.0352 19.8939 39.4532 20.0344 39.0061 19.7637C38.7919 19.6332 38.6382 19.4232 38.5787 19.1795C38.5192 18.9359 38.5589 18.6786 38.6889 18.4641L43.3959 10.7167C45.3463 7.50777 48.6177 5.66768 52.3719 5.66768H63.7139C63.9648 5.66771 64.2054 5.76739 64.3828 5.94478C64.5602 6.12217 64.6599 6.36276 64.6599 6.61363Z" fill="#D96122"></path>
</svg>
