<?xml version="1.0" encoding="UTF-8"?>
<svg xmlns="http://www.w3.org/2000/svg" width="70" height="70" viewBox="0 0 70 70" fill="none">
  <g clip-path="url(#clip0_81_59)">
    <path d="M48.4907 24.7207H45.3853C45.196 24.1195 44.9544 23.5361 44.6634 22.9771L46.8591 20.7812C46.9944 20.6466 47.1017 20.4865 47.1747 20.3101C47.2478 20.1338 47.2851 19.9447 47.2845 19.7538C47.2845 19.3655 47.1335 19.0006 46.8591 18.7262L44.275 16.142C43.7084 15.5758 42.7866 15.5755 42.2199 16.1421L40.0241 18.3379C39.4651 18.0469 38.8817 17.8053 38.2805 17.6161V14.5105C38.2804 13.7093 37.6285 13.0573 36.8272 13.0573H33.1726C32.3714 13.0573 31.7195 13.7092 31.7195 14.5105V17.6161C31.1184 17.8054 30.5349 18.0469 29.9758 18.3379L27.7798 16.142C27.2133 15.5757 26.2915 15.5758 25.725 16.1421L23.141 18.7261C23.0056 18.8607 22.8982 19.0208 22.8251 19.1972C22.7521 19.3736 22.7147 19.5627 22.7152 19.7537C22.7152 20.1418 22.8664 20.5067 23.1408 20.7811L25.3367 22.9769C25.0456 23.5359 24.8041 24.1194 24.6148 24.7205H21.5092C20.7081 24.7205 20.0562 25.3724 20.0562 26.1737V29.8283C20.0562 30.6295 20.7081 31.2814 21.5092 31.2814H24.6148C24.8041 31.8825 25.0457 32.4659 25.3367 33.025L23.1408 35.2208C22.5743 35.7873 22.5743 36.7092 23.1408 37.2758L25.725 39.8599C26.2915 40.4266 27.2136 40.4265 27.78 39.8599L29.9758 37.6641C30.5349 37.9551 31.1183 38.1967 31.7195 38.386V41.4915C31.7195 42.2927 32.3714 42.9446 33.1726 42.9446H36.8272C37.6284 42.9446 38.2804 42.2927 38.2804 41.4915V38.386C38.8815 38.1967 39.4649 37.9551 40.024 37.6641L42.2198 39.8599C42.7865 40.4266 43.7084 40.4265 44.275 39.8599L46.8589 37.2758C46.9943 37.1412 47.1016 36.9811 47.1746 36.8047C47.2476 36.6283 47.2849 36.4393 47.2844 36.2484C47.2844 35.8602 47.1333 35.4953 46.8589 35.2208L44.6631 33.025C44.9542 32.4659 45.1957 31.8825 45.385 31.2814H48.4905C49.2917 31.2814 49.9437 30.6295 49.9437 29.8283V26.1737C49.9439 25.3725 49.2919 24.7207 48.4907 24.7207ZM47.8932 29.2306H44.6039C44.3725 29.2306 44.148 29.3088 43.9667 29.4526C43.7855 29.5964 43.6581 29.7972 43.6054 30.0225C43.388 30.9542 43.0196 31.844 42.5147 32.6566C42.3926 32.8532 42.3406 33.0853 42.3671 33.3151C42.3936 33.545 42.497 33.7591 42.6606 33.9228L44.9863 36.2485L43.2475 37.9873L40.9218 35.6616C40.7582 35.4979 40.544 35.3944 40.3141 35.3679C40.0842 35.3414 39.8521 35.3934 39.6555 35.5156C38.8428 36.0203 37.9531 36.3888 37.0215 36.6064C36.7962 36.6591 36.5953 36.7864 36.4516 36.9677C36.3078 37.149 36.2296 37.3735 36.2296 37.6049V40.8943H33.7707V37.6049C33.7707 37.3735 33.6925 37.149 33.5487 36.9677C33.405 36.7864 33.2041 36.6591 32.9788 36.6064C32.0471 36.389 31.1573 36.0205 30.3447 35.5156C30.1481 35.3936 29.916 35.3416 29.6862 35.3681C29.4563 35.3946 29.2422 35.498 29.0785 35.6616L26.7528 37.9873L25.014 36.2485L27.3397 33.9228C27.5034 33.7592 27.6068 33.545 27.6333 33.3151C27.6598 33.0853 27.6078 32.8532 27.4858 32.6566C26.9809 31.8439 26.6125 30.9541 26.395 30.0225C26.3423 29.7972 26.215 29.5964 26.0337 29.4526C25.8525 29.3088 25.6279 29.2306 25.3966 29.2306H22.1072V26.7717H25.3966C25.6279 26.7717 25.8525 26.6935 26.0337 26.5497C26.215 26.4059 26.3423 26.2051 26.395 25.9798C26.6125 25.0482 26.9809 24.1584 27.4858 23.3457C27.6078 23.1491 27.6598 22.917 27.6333 22.6872C27.6068 22.4573 27.5033 22.2432 27.3397 22.0795L25.014 19.7538L26.7528 18.015L29.0785 20.3407C29.2421 20.5044 29.4563 20.6078 29.6862 20.6344C29.916 20.6609 30.1481 20.6088 30.3447 20.4867C31.1573 19.9819 32.0472 19.6134 32.9788 19.396C33.2041 19.3433 33.405 19.216 33.5488 19.0348C33.6925 18.8535 33.7707 18.6289 33.7707 18.3975V15.1081H36.2296V18.3975C36.2296 18.6289 36.3078 18.8535 36.4516 19.0347C36.5954 19.216 36.7962 19.3433 37.0215 19.396C37.9531 19.6135 38.8429 19.982 39.6556 20.4867C39.8523 20.6087 40.0843 20.6606 40.3141 20.6341C40.544 20.6076 40.7581 20.5042 40.9218 20.3407L43.2475 18.015L44.9863 19.7538L42.6606 22.0795C42.497 22.2431 42.3935 22.4573 42.367 22.6872C42.3405 22.917 42.3926 23.1491 42.5147 23.3457C43.0195 24.1584 43.3879 25.0482 43.6054 25.9798C43.6581 26.2051 43.7855 26.4059 43.9667 26.5497C44.148 26.6935 44.3725 26.7717 44.6039 26.7717H47.8932V29.2306Z" fill="#D96122"></path>
    <path d="M35 22.5077C31.9709 22.5077 29.5066 24.9721 29.5066 28.0011C29.5066 31.0301 31.971 33.4945 35 33.4945C38.029 33.4945 40.4934 31.0301 40.4934 28.0011C40.4934 24.9721 38.0291 22.5077 35 22.5077ZM35 31.4437C33.1018 31.4437 31.5574 29.8993 31.5574 28.0011C31.5574 26.1029 33.1018 24.5585 35 24.5585C36.8982 24.5585 38.4426 26.1029 38.4426 28.0011C38.4426 29.8993 36.8982 31.4437 35 31.4437ZM11.4261 26.9757H8.0243C7.75235 26.9757 7.49153 27.0837 7.29923 27.276C7.10694 27.4683 6.99891 27.7291 6.99891 28.0011C6.99891 28.273 7.10694 28.5339 7.29923 28.7262C7.49153 28.9185 7.75235 29.0265 8.0243 29.0265H11.4261C11.6981 29.0265 11.9589 28.9185 12.1512 28.7262C12.3435 28.5339 12.4515 28.273 12.4515 28.0011C12.4515 27.7291 12.3435 27.4683 12.1512 27.276C11.9589 27.0837 11.6981 26.9757 11.4261 26.9757ZM61.9758 26.9757H58.574C58.0076 26.9757 57.5486 27.4348 57.5486 28.0011C57.5486 28.5674 58.0076 29.0265 58.574 29.0265H61.9758C62.2478 29.0265 62.5086 28.9185 62.7009 28.7262C62.8932 28.5339 63.0012 28.273 63.0012 28.0011C63.0012 27.7291 62.8932 27.4683 62.7009 27.276C62.5086 27.0837 62.2478 26.9757 61.9758 26.9757ZM19.0557 43.9454C18.9605 43.8501 18.8475 43.7746 18.7231 43.7231C18.5986 43.6715 18.4653 43.645 18.3306 43.645C18.196 43.645 18.0626 43.6715 17.9382 43.7231C17.8138 43.7746 17.7008 43.8501 17.6055 43.9454L15.2001 46.3508C15.0078 46.5431 14.8998 46.8039 14.8998 47.0759C14.8998 47.3479 15.0078 47.6087 15.2001 47.801C15.3924 47.9933 15.6532 48.1013 15.9252 48.1013C16.1972 48.1013 16.458 47.9933 16.6503 47.801L19.0557 45.3955C19.1509 45.3003 19.2265 45.1873 19.278 45.0629C19.3296 44.9385 19.3561 44.8051 19.3561 44.6705C19.3561 44.5358 19.3296 44.4025 19.278 44.278C19.2265 44.1536 19.1509 44.0406 19.0557 43.9454ZM54.7999 8.20148C54.6075 8.00919 54.3467 7.90117 54.0747 7.90117C53.8027 7.90117 53.5419 8.00919 53.3496 8.20148L50.9441 10.6069C50.7518 10.7992 50.6438 11.0601 50.6438 11.3321C50.6438 11.604 50.7519 11.8649 50.9442 12.0572C51.1365 12.2495 51.3974 12.3575 51.6693 12.3575C51.9413 12.3575 52.2021 12.2494 52.3945 12.0571L54.7999 9.65166C54.8951 9.55644 54.9706 9.4434 55.0222 9.31899C55.0737 9.19458 55.1002 9.06123 55.1002 8.92657C55.1002 8.79191 55.0737 8.65857 55.0222 8.53415C54.9706 8.40974 54.8951 8.2967 54.7999 8.20148ZM35.0001 0C34.7282 0 34.4674 0.108032 34.2751 0.30033C34.0828 0.492628 33.9747 0.75344 33.9747 1.02539V4.42723C33.9747 4.99352 34.4337 5.45262 35.0001 5.45262C35.5666 5.45262 36.0255 4.99352 36.0255 4.42723V1.02539C36.0255 0.75344 35.9175 0.492628 35.7252 0.30033C35.5329 0.108032 35.2721 0 35.0001 0ZM54.7999 46.3508L52.3945 43.9454C52.2009 43.7591 51.942 43.6561 51.6734 43.6587C51.4048 43.6612 51.1479 43.7691 50.9579 43.959C50.7679 44.1489 50.6601 44.4058 50.6575 44.6745C50.6549 44.9431 50.7578 45.202 50.9441 45.3955L53.3496 47.801C53.5431 47.9873 53.802 48.0902 54.0706 48.0877C54.3392 48.0851 54.5962 47.9773 54.7861 47.7873C54.9761 47.5974 55.0839 47.3405 55.0865 47.0719C55.0891 46.8033 54.9862 46.5444 54.7999 46.3508ZM19.0557 10.6069L16.6503 8.20148C16.458 8.00918 16.1972 7.90114 15.9252 7.90114C15.6532 7.90114 15.3924 8.00918 15.2001 8.20148C15.0078 8.39379 14.8998 8.65461 14.8998 8.92657C14.8998 9.19853 15.0078 9.45936 15.2001 9.65166L17.6055 12.0571C17.7979 12.2494 18.0587 12.3574 18.3306 12.3574C18.6026 12.3574 18.8634 12.2494 19.0557 12.0571C19.248 11.8648 19.3561 11.604 19.3561 11.332C19.3561 11.06 19.248 10.7992 19.0557 10.6069ZM55.4571 25.4892C54.3536 16.0727 46.8892 8.60754 37.5169 7.46512C36.9556 7.39607 36.4433 7.7968 36.3747 8.35885C36.3418 8.62883 36.4175 8.90083 36.5851 9.11502C36.7528 9.3292 36.9986 9.46804 37.2686 9.501C45.7803 10.5384 52.4221 17.2113 53.42 25.7279C53.4516 25.998 53.5893 26.2444 53.8027 26.413C54.016 26.5816 54.2877 26.6586 54.5578 26.6269C54.6915 26.6113 54.8209 26.5695 54.9385 26.5038C55.0561 26.4382 55.1596 26.35 55.2431 26.2444C55.3267 26.1387 55.3885 26.0176 55.4252 25.8881C55.462 25.7585 55.4728 25.6229 55.4571 25.4892Z" fill="#D96122"></path>
    <path d="M54.5457 29.3765C54.4121 29.3594 54.2764 29.3689 54.1465 29.4044C54.0166 29.4398 53.8949 29.5005 53.7884 29.5831C53.682 29.6656 53.5928 29.7683 53.5261 29.8853C53.4594 30.0023 53.4164 30.1313 53.3996 30.265C52.7006 35.7868 49.5839 40.659 44.8488 43.632C42.8075 44.9137 41.5889 47.1072 41.5889 49.4995V53.7196H28.4115V49.4062C28.4115 47.0896 27.2009 44.901 25.2522 43.6947C19.7416 40.2836 16.4516 34.3832 16.4515 27.9111C16.4515 18.5661 23.4512 10.652 32.7335 9.5022C32.8671 9.48564 32.9962 9.44292 33.1133 9.37648C33.2305 9.31004 33.3334 9.22118 33.4162 9.11496C33.4989 9.00875 33.56 8.88727 33.5958 8.75746C33.6317 8.62765 33.6416 8.49205 33.625 8.35841C33.5554 7.79649 33.0436 7.39632 32.4812 7.46687C22.2253 8.73739 14.4002 17.5571 14.4003 27.9111C14.4003 31.484 15.3296 35.0042 17.0879 38.0913C18.7924 41.0841 21.2423 43.6246 24.1724 45.4385C25.522 46.2738 26.3602 47.7941 26.3602 49.406V53.8689C25.3176 54.2312 24.5658 55.2214 24.5658 56.3858V57.8476C24.5658 58.4665 24.7796 59.0354 25.1346 59.4884C24.7795 59.9413 24.5658 60.5101 24.5658 61.1291V62.5908C24.5658 64.0609 25.7619 65.2569 27.2319 65.2569H30.4557V67.575C30.4557 68.9122 31.5436 70.0001 32.8807 70.0001H37.1186C38.4558 70.0001 39.5436 68.9122 39.5436 67.575V65.2569H42.7674C44.2375 65.2569 45.4336 64.0608 45.4336 62.5908V61.1291C45.4336 60.5102 45.2197 59.9413 44.8645 59.4884C45.2197 59.0354 45.4336 58.4667 45.4336 57.8476V56.3858C45.4336 55.2212 44.6819 54.2312 43.6391 53.8689V49.4994C43.6391 47.8171 44.4987 46.273 45.9387 45.3689C51.1961 42.0679 54.657 36.6566 55.4334 30.5226C55.4505 30.389 55.441 30.2534 55.4057 30.1235C55.3703 29.9936 55.3096 29.8719 55.2272 29.7655C55.1447 29.659 55.0421 29.5699 54.9252 29.5031C54.8082 29.4364 54.6793 29.3933 54.5457 29.3765ZM37.4931 67.5749C37.4931 67.7776 37.3218 67.9491 37.119 67.9491H32.8811C32.6784 67.9491 32.5071 67.7777 32.5071 67.5749V65.2568H37.4931V67.5749ZM43.3832 62.5906C43.3832 62.9241 43.1014 63.2059 42.7679 63.2059H27.2323C26.8989 63.2059 26.6171 62.9241 26.6171 62.5906V61.129C26.6171 60.7955 26.8989 60.5137 27.2323 60.5137H42.7679C43.1014 60.5137 43.3832 60.7955 43.3832 61.129V62.5906ZM43.3832 57.8475C43.3832 58.1809 43.1014 58.4627 42.7679 58.4627H27.2323C26.8989 58.4627 26.6171 58.1809 26.6171 57.8475V56.3857C26.6171 56.0522 26.8989 55.7704 27.2323 55.7704H42.7679C43.1014 55.7704 43.3832 56.0522 43.3832 56.3857V57.8475Z" fill="#D96122"></path>
  </g>
  <defs>
    <clipPath id="clip0_81_59">
      <rect width="70" height="70" fill="white"></rect>
    </clipPath>
  </defs>
</svg>
