<?xml version="1.0" encoding="UTF-8"?>
<svg version="1.1" xmlns="http://www.w3.org/2000/svg" width="65" height="65">
<path d="M0 0 C2.93594026 2.02478638 4.03178817 4.61125859 5 8 C4.76867482 12.51084094 2.59413515 15.4016835 0 19 C8.07322177 19.14246862 16.06812053 18.82969409 24.11865234 18.26782227 C26.07703932 18.14112791 28.03862033 18.06573272 30 18 C30.33 18.33 30.66 18.66 31 19 C30.6 39.4 30.6 39.4 27 43 C24.58515044 43.45670466 22.18279122 43.8595466 19.75390625 44.2265625 C18.66443947 44.39446793 18.66443947 44.39446793 17.55296326 44.56576538 C16.01406747 44.80150488 14.47483489 45.03505439 12.93530273 45.26660156 C10.57475514 45.62314893 8.2161255 45.99085065 5.85742188 46.359375 C4.3646871 46.58662019 2.87185158 46.81320479 1.37890625 47.0390625 C0.67053116 47.15045563 -0.03784393 47.26184875 -0.76768494 47.37661743 C-5.77084795 48.11457602 -5.77084795 48.11457602 -8 47 C-8 45.35 -8 43.7 -8 42 C-8.71027344 42.01160156 -9.42054687 42.02320313 -10.15234375 42.03515625 C-11.07144531 42.04417969 -11.99054687 42.05320313 -12.9375 42.0625 C-13.85402344 42.07410156 -14.77054688 42.08570313 -15.71484375 42.09765625 C-18 42 -18 42 -19 41 C-19.63372984 34.63832739 -19.21931615 29.55054508 -16 24 C-11.79487179 20 -11.79487179 20 -9 20 C-9.804375 19.113125 -10.60875 18.22625 -11.4375 17.3125 C-13.70729328 14.53038196 -15.08851626 12.71768308 -15 9 C-13.70868755 5.29106369 -12.44921504 1.94257889 -9.078125 -0.25 C-5.82285386 -1.4248347 -3.31141809 -0.78269882 0 0 Z " fill="#4397AF" transform="translate(27,12)"/>
<path d="M0 0 C2.93594026 2.02478638 4.03178817 4.61125859 5 8 C4.76867482 12.51084094 2.59413515 15.4016835 0 19 C1.98 19.33 3.96 19.66 6 20 C3.06279492 21.52299523 0.0831351 22.80100302 -3 24 C-3 23.34 -3 22.68 -3 22 C-5.37403971 24.37403971 -5.42111236 25.77476889 -6 29 C-7 30 -7 30 -9.50390625 30.09765625 C-10.51324219 30.08605469 -11.52257812 30.07445313 -12.5625 30.0625 C-13.57441406 30.05347656 -14.58632812 30.04445313 -15.62890625 30.03515625 C-16.41136719 30.02355469 -17.19382812 30.01195313 -18 30 C-16.76697292 25.06789169 -15.28039122 22.78225429 -11 20 C-10.34 20 -9.68 20 -9 20 C-9.804375 19.113125 -10.60875 18.22625 -11.4375 17.3125 C-13.70729328 14.53038196 -15.08851626 12.71768308 -15 9 C-13.70868755 5.29106369 -12.44921504 1.94257889 -9.078125 -0.25 C-5.82285386 -1.4248347 -3.31141809 -0.78269882 0 0 Z " fill="#619DC2" transform="translate(27,12)"/>
<path d="M0 0 C2.90627825 2.06668676 4.68257437 3.5982484 5.48828125 7.15625 C5.73306803 11.35259472 5.33352102 13.48929593 3 17.0625 C-1.18104138 19.76275589 -3.08116672 19.78076719 -8 19 C-10.84184469 16.52249437 -11.79819194 14.63233192 -12.9375 11.0625 C-13.01704675 7.16470921 -12.15489416 5.23234123 -10 2 C-6.4846272 -0.86780412 -4.27825413 -1.71130165 0 0 Z " fill="#82B9C3" transform="translate(51,10)"/>
<path d="M0 0 C2.93594026 2.02478638 4.03178817 4.61125859 5 8 C4.68564441 11.37932259 4.42520546 12.57479454 2 15 C2 13.02 2 11.04 2 9 C1.37351562 9.01160156 0.74703125 9.02320313 0.1015625 9.03515625 C-0.71570312 9.04417969 -1.53296875 9.05320312 -2.375 9.0625 C-3.18710937 9.07410156 -3.99921875 9.08570313 -4.8359375 9.09765625 C-7 9 -7 9 -9 8 C-9 9.65 -9 11.3 -9 13 C-9.99 13.33 -10.98 13.66 -12 14 C-12.99 13.01 -13.98 12.02 -15 11 C-12.89792148 2.84803695 -12.89792148 2.84803695 -9.75 -0.125 C-6.09873901 -1.28676486 -3.68874305 -0.95634079 0 0 Z " fill="#6D6E76" transform="translate(27,12)"/>
<path d="M0 0 C0 3.63 0 7.26 0 11 C-3.63 11 -7.26 11 -11 11 C-11.125 4.375 -11.125 4.375 -10 1 C-9.05125 1.020625 -8.1025 1.04125 -7.125 1.0625 C-4.31337204 1.00626744 -2.6726858 0 0 0 Z " fill="#1F74A9" transform="translate(20,43)"/>
<path d="M0 0 C2 1 2 1 2.6328125 2.84765625 C2.79523437 3.57855469 2.95765625 4.30945313 3.125 5.0625 C3.29257812 5.79597656 3.46015625 6.52945312 3.6328125 7.28515625 C3.75398438 7.85105469 3.87515625 8.41695312 4 9 C5.32 9.33 6.64 9.66 8 10 C8 9.34 8 8.68 8 8 C6.68 7.67 5.36 7.34 4 7 C4.33 6.01 4.66 5.02 5 4 C5.99 4.33 6.98 4.66 8 5 C8.33 4.34 8.66 3.68 9 3 C10.65 3.33 12.3 3.66 14 4 C14 4.99 14 5.98 14 7 C14.66 6.01 15.32 5.02 16 4 C16 8 16 8 14.5 10.25 C11.45810727 12.37932491 9.55529403 12.64649167 5.90234375 12.44921875 C4 12 4 12 1.5625 9.875 C-0.10245358 6.81148541 -0.76349817 4.46869347 -1 1 C-0.67 0.67 -0.34 0.34 0 0 Z " fill="#67B1BA" transform="translate(39,17)"/>
<path d="M0 0 C3.63 0.33 7.26 0.66 11 1 C11.04254356 2.99954746 11.04080783 5.00041636 11 7 C9.41727399 8.58272601 7.61965997 8.34735747 5.4375 8.5625 C4.61121094 8.64628906 3.78492188 8.73007812 2.93359375 8.81640625 C2.29550781 8.87699219 1.65742188 8.93757813 1 9 C1 8.34 1 7.68 1 7 C-0.65 7 -2.3 7 -4 7 C-4 6.01 -4 5.02 -4 4 C-2.02 4.495 -2.02 4.495 0 5 C0 3.35 0 1.7 0 0 Z " fill="#BCAAB9" transform="translate(18,20)"/>
<path d="M0 0 C3.125 -0.1875 3.125 -0.1875 6 0 C4.515 1.485 4.515 1.485 3 3 C4.32 3.33 5.64 3.66 7 4 C6.67 5.98 6.34 7.96 6 10 C5.01 10 4.02 10 3 10 C2.67 10.66 2.34 11.32 2 12 C3.32 12.33 4.64 12.66 6 13 C6 13.66 6 14.32 6 15 C4.35 14.67 2.7 14.34 1 14 C0.4423576 12.23413239 -0.09562787 10.46204744 -0.625 8.6875 C-0.92664062 7.70136719 -1.22828125 6.71523438 -1.5390625 5.69921875 C-2 3 -2 3 0 0 Z " fill="#8EC7D4" transform="translate(41,12)"/>
<path d="M0 0 C-0.639375 0.28875 -1.27875 0.5775 -1.9375 0.875 C-4.15206079 1.82823451 -4.15206079 1.82823451 -5 4 C-4.01 4 -3.02 4 -2 4 C-2 4.99 -2 5.98 -2 7 C-3.65 7.33 -5.3 7.66 -7 8 C-7 9.65 -7 11.3 -7 13 C-7.99 13 -8.98 13 -10 13 C-11.1015625 11.2578125 -11.1015625 11.2578125 -12 9 C-11.4609375 6.9296875 -11.4609375 6.9296875 -10.375 4.875 C-10.03210938 4.19179688 -9.68921875 3.50859375 -9.3359375 2.8046875 C-6.70784754 -0.74553929 -4.08605787 -1.45930638 0 0 Z " fill="#5A7E95" transform="translate(24,12)"/>
<path d="M0 0 C0.9590625 0.2784375 0.9590625 0.2784375 1.9375 0.5625 C6.07334611 1.15333516 9.8851173 0.58271759 14 0 C13.649375 0.61875 13.29875 1.2375 12.9375 1.875 C12.628125 2.57625 12.31875 3.2775 12 4 C12.33 4.66 12.66 5.32 13 6 C8.545 6.495 8.545 6.495 4 7 C2.02 3.535 2.02 3.535 0 0 Z " fill="#4F4B5D" transform="translate(15,27)"/>
<path d="M0 0 C3.65316671 1.24976756 4.78065836 1.67098753 7 5 C7.56037358 11.27618412 7.56037358 11.27618412 5.5 13.9375 C5.005 14.288125 4.51 14.63875 4 15 C3.34 14.67 2.68 14.34 2 14 C2 13.34 2 12.68 2 12 C1.01 11.34 0.02 10.68 -1 10 C0.32 8.35 1.64 6.7 3 5 C2.01 3.35 1.02 1.7 0 0 Z " fill="#9ACEDB" transform="translate(49,10)"/>
<path d="M0 0 C1.9375 0.8125 1.9375 0.8125 4 2 C4.33 2.99 4.66 3.98 5 5 C4.67 5.66 4.34 6.32 4 7 C-1.75 7.125 -1.75 7.125 -4 6 C-3.6875 4.125 -3.6875 4.125 -3 2 C-2.01 1.34 -1.02 0.68 0 0 Z " fill="#8DB8D5" transform="translate(15,33)"/>
<path d="M0 0 C0.598125 0.20625 1.19625 0.4125 1.8125 0.625 C1.4825 2.605 1.1525 4.585 0.8125 6.625 C-0.8375 6.625 -2.4875 6.625 -4.1875 6.625 C-4.5175 4.975 -4.8475 3.325 -5.1875 1.625 C-2.1875 -0.375 -2.1875 -0.375 0 0 Z " fill="#B2CACE" transform="translate(41.1875,40.375)"/>
<path d="M0 0 C2 1 2 1 2.6328125 2.84765625 C3.08854167 4.8984375 3.54427083 6.94921875 4 9 C6.64 9.66 9.28 10.32 12 11 C12 11.33 12 11.66 12 12 C9.14276272 12.23810311 6.8012164 12.42312829 4 12 C1.00722898 9.39091758 0.14753662 7.5901465 -0.8125 3.75 C-0.874375 2.8425 -0.93625 1.935 -1 1 C-0.67 0.67 -0.34 0.34 0 0 Z " fill="#6AA8B5" transform="translate(39,17)"/>
<path d="M0 0 C0.66 0.33 1.32 0.66 2 1 C-0.68841859 3.25245881 -2.64641875 4.88213958 -6 6 C-6.33 5.67 -6.66 5.34 -7 5 C-7.66 6.32 -8.32 7.64 -9 9 C-8.67 6.36 -8.34 3.72 -8 1 C-7.05125 1.020625 -6.1025 1.04125 -5.125 1.0625 C-2.09333717 1.22551826 -2.09333717 1.22551826 0 0 Z " fill="#297FB3" transform="translate(18,43)"/>
<path d="M0 0 C0.680625 0.165 1.36125 0.33 2.0625 0.5 C2.0625 0.83 2.0625 1.16 2.0625 1.5 C-0.06004855 1.88863565 -2.18566828 2.26053209 -4.3125 2.625 C-6.08753906 2.93824219 -6.08753906 2.93824219 -7.8984375 3.2578125 C-8.90132812 3.33773437 -9.90421875 3.41765625 -10.9375 3.5 C-11.5975 2.84 -12.2575 2.18 -12.9375 1.5 C-8.65215609 -1.35689594 -4.97351927 -0.84655647 0 0 Z " fill="#327A93" transform="translate(31.9375,56.5)"/>
<path d="M0 0 C2.64 0.66 5.28 1.32 8 2 C8 2.33 8 2.66 8 3 C-5.6332574 5.29612756 -5.6332574 5.29612756 -12 5 C-12 4.67 -12 4.34 -12 4 C-10.7625 3.67 -9.525 3.34 -8.25 3 C-7.20585938 2.7215625 -7.20585938 2.7215625 -6.140625 2.4375 C-4 2 -4 2 0 2 C0 1.34 0 0.68 0 0 Z " fill="#2D798E" transform="translate(46,52)"/>
<path d="M0 0 C0.99 0 1.98 0 3 0 C3 0.66 3 1.32 3 2 C3.88751953 1.7834375 3.88751953 1.7834375 4.79296875 1.5625 C8.92529941 0.59177306 12.7229762 -0.27593702 17 0 C14.06279492 1.52299523 11.0831351 2.80100302 8 4 C8 3.34 8 2.68 8 2 C7.01 2.495 7.01 2.495 6 3 C4.00039988 3.039992 1.99952758 3.04346799 0 3 C0 2.01 0 1.02 0 0 Z " fill="#6BA7BC" transform="translate(16,32)"/>
<path d="M0 0 C1.98 0 3.96 0 6 0 C5.319375 0.556875 5.319375 0.556875 4.625 1.125 C2.52970606 3.54264685 1.87986715 5.95430602 1 9 C-0.625 7.3125 -0.625 7.3125 -2 5 C-1.1875 2.25 -1.1875 2.25 0 0 Z " fill="#9BD2DF" transform="translate(41,12)"/>
<path d="M0 0 C1.32 0 2.64 0 4 0 C3.67 1.65 3.34 3.3 3 5 C0.69 5 -1.62 5 -4 5 C-4 4.34 -4 3.68 -4 3 C-3.01 3 -2.02 3 -1 3 C-0.67 2.01 -0.34 1.02 0 0 Z " fill="#D7ADB2" transform="translate(24,21)"/>
<path d="M0 0 C0.33 0 0.66 0 1 0 C1 1.65 1 3.3 1 5 C3.31 5.33 5.62 5.66 8 6 C8 6.33 8 6.66 8 7 C4.7 7 1.4 7 -2 7 C-1.34 4.69 -0.68 2.38 0 0 Z " fill="#20689A" transform="translate(11,47)"/>
<path d="M0 0 C2.0625 1.6875 2.0625 1.6875 4 4 C3.83849795 7.39154295 3.41703243 8.58296757 1 11 C1 9.02 1 7.04 1 5 C0.34 4.67 -0.32 4.34 -1 4 C-0.67 2.68 -0.34 1.36 0 0 Z " fill="#3A4760" transform="translate(28,16)"/>
<path d="M0 0 C2 2 2 2 2 5 C-1.01031744 5.93423645 -1.86650268 6.04449911 -5 5 C-4.1875 3.0625 -4.1875 3.0625 -3 1 C-2.01 0.67 -1.02 0.34 0 0 Z " fill="#475361" transform="translate(24,11)"/>
<path d="M0 0 C1.32 0.33 2.64 0.66 4 1 C2.75775988 3.48448024 1.55296823 5.67054766 0 8 C0 7.01 0 6.02 0 5 C-1.32 4.67 -2.64 4.34 -4 4 C-3.67 3.01 -3.34 2.02 -3 1 C-2.01 1.33 -1.02 1.66 0 2 C0 1.34 0 0.68 0 0 Z " fill="#73ABB9" transform="translate(47,20)"/>
<path d="M0 0 C0.33 0 0.66 0 1 0 C1.04254356 1.99954746 1.04080783 4.00041636 1 6 C-0.58272601 7.58272601 -2.38034003 7.34735747 -4.5625 7.5625 C-5.80193359 7.68818359 -5.80193359 7.68818359 -7.06640625 7.81640625 C-8.02353516 7.90728516 -8.02353516 7.90728516 -9 8 C-9 7.34 -9 6.68 -9 6 C-6.36 5.67 -3.72 5.34 -1 5 C-0.67 3.35 -0.34 1.7 0 0 Z " fill="#9B7F8F" transform="translate(28,21)"/>
<path d="M0 0 C5.445 1.485 5.445 1.485 11 3 C11 3.33 11 3.66 11 4 C5.04296875 4.390625 5.04296875 4.390625 3 4 C2.01 2.68 1.02 1.36 0 0 Z " fill="#35768A" transform="translate(40,25)"/>
<path d="M0 0 C2.0625 0.4375 2.0625 0.4375 4 1 C4 1.99 4 2.98 4 4 C2.02 4.33 0.04 4.66 -2 5 C-1.125 1.125 -1.125 1.125 0 0 Z " fill="#8F8C90" transform="translate(18,15)"/>
<path d="M0 0 C0.99 0.33 1.98 0.66 3 1 C2.67 2.65 2.34 4.3 2 6 C1.01 6.33 0.02 6.66 -1 7 C-0.67 4.69 -0.34 2.38 0 0 Z " fill="#56A0C7" transform="translate(19,35)"/>
<path d="M0 0 C6.15234375 0.5859375 6.15234375 0.5859375 8 1 C8.33 1.66 8.66 2.32 9 3 C5.625 3.1875 5.625 3.1875 2 3 C1.34 2.01 0.68 1.02 0 0 Z " fill="#6F5A6F" transform="translate(15,27)"/>
</svg>
