<?xml version="1.0" encoding="UTF-8"?>
<svg xmlns="http://www.w3.org/2000/svg" width="46" height="50" viewBox="0 0 46 50" fill="none">
  <path d="M45.4433 11.6142C45.4327 10.6786 45.0438 9.78504 44.35 9.15436C43.6668 8.50262 42.7628 8.1452 41.8167 8.15573H40.9127V3.87743C40.9232 3.28878 40.387 3.24675 40.282 3.24675L19.1845 3.32038L16.8612 1.04968C16.7667 0.986579 16.651 0.955078 16.5353 0.955078L8.08376 0.986579L4.54127 1.00764H4.46764C4.15226 1.04968 3.9105 1.3125 3.9105 1.63832V8.29245H3.59511C1.60839 8.30299 -0.0104806 9.86929 5.10965e-05 11.7929L0.10518 36.8534V38.9873C0.115711 39.9228 0.504631 40.8164 1.1984 41.4471C1.88165 42.0988 2.78568 42.4562 3.73174 42.4457L17.8808 42.3931L17.166 45.7885H14.7798C14.4329 45.7885 14.1596 46.0618 14.1596 46.4087V46.4193V48.4691C14.1701 48.6373 14.2332 48.795 14.3488 48.9211C14.4644 49.0368 14.6221 49.0998 14.7903 49.0998H14.8008L30.9366 49.0367C31.1049 49.0367 31.273 48.9736 31.3887 48.8475C31.5043 48.7318 31.5673 48.5741 31.5673 48.406V46.3667C31.5673 46.0198 31.2835 45.736 30.9366 45.736H28.5505L27.8041 42.3407L41.9322 42.2881C43.94 42.2776 45.5588 40.7113 45.5483 38.7982L45.4433 11.6142ZM39.7142 31.0718L5.25601 31.2084L5.19301 9.62744H39.6617L39.7142 31.0718ZM16.2726 2.22706L18.5852 4.49767C18.6798 4.5713 18.806 4.6028 18.9216 4.59226L39.6407 4.51864V8.36599H5.19301V2.25856L16.2726 2.22706ZM3.61617 9.56434H3.93156L3.99466 31.8497C3.99466 32.018 4.05775 32.1861 4.18385 32.3017C4.29951 32.4174 4.4572 32.4804 4.62533 32.4804L40.3555 32.3438C40.7024 32.3438 40.9758 32.0704 40.9758 31.7235V31.713L40.9232 9.41718H41.8167C42.4369 9.41718 43.0361 9.64841 43.4881 10.0689C43.9191 10.4684 44.1714 11.036 44.1819 11.6247L44.2765 36.065L1.35619 36.2332L1.26159 11.7825C1.2615 10.563 2.31269 9.56434 3.61617 9.56434ZM30.3061 47.008V47.7858L15.4211 47.8489V47.0711L30.3061 47.008ZM27.2576 45.7465L18.4591 45.7886L19.1739 42.3827L26.5113 42.3512L27.2576 45.7465ZM41.9323 41.0372L3.73183 41.1844C3.11159 41.1844 2.51242 40.9531 2.0604 40.5326C1.62945 40.1332 1.37716 39.576 1.36663 38.9874V37.4842L44.2764 37.3159V38.8086C44.2975 40.028 43.2357 41.0267 41.9323 41.0372Z" fill="#D96122"></path>
  <path d="M6.06389 6.48425C6.17955 6.61035 6.33724 6.67344 6.50537 6.67344H8.63926C8.98615 6.67344 9.2595 6.40009 9.2595 6.0532V6.04267V3.89826C9.2595 3.73003 9.18587 3.57234 9.0703 3.45677C8.95464 3.33067 8.78651 3.26758 8.61829 3.26758H6.49494C6.14805 3.26758 5.86426 3.55137 5.86426 3.89826V6.04267C5.86416 6.2109 5.93779 6.36859 6.06389 6.48425ZM7.99814 4.53956V5.40156H7.13614V4.53956H7.99814Z" fill="#D96122"></path>
  <path d="M11.0884 6.46365C11.2041 6.58975 11.3618 6.65284 11.5299 6.65284H13.6638C13.832 6.65284 14.0001 6.58975 14.1158 6.46365C14.2314 6.34799 14.2944 6.19029 14.2944 6.02216V3.87775C14.2944 3.53086 14.0107 3.24707 13.6638 3.24707H11.5193C11.1725 3.24707 10.8887 3.53086 10.8887 3.87775V6.02216C10.8887 6.19039 10.9623 6.34799 11.0884 6.46365ZM13.0226 4.51896V5.38096H12.15V4.51896H13.0226Z" fill="#D96122"></path>
  <path d="M33.6263 7.47327H34.8772C35.2241 7.47327 35.5079 7.18948 35.5079 6.84259C35.5079 6.4957 35.2241 6.21191 34.8772 6.21191H33.6263C33.2794 6.21191 32.9956 6.4957 32.9956 6.84259V6.85312C32.9956 7.20001 33.269 7.47336 33.6158 7.47336L33.6263 7.47327Z" fill="#D96122"></path>
  <path d="M29.7791 7.4928H31.03C31.3769 7.4928 31.6607 7.20901 31.6607 6.86212C31.6607 6.51524 31.3769 6.23145 31.03 6.23145H29.7791C29.4322 6.23145 29.1484 6.51524 29.1484 6.86212C29.1484 7.20892 29.4322 7.4928 29.7791 7.4928Z" fill="#D96122"></path>
  <path d="M25.8371 7.50452H27.088C27.4349 7.50452 27.7187 7.22073 27.7187 6.87384C27.7082 6.52695 27.4349 6.2536 27.088 6.24316H25.8266C25.4797 6.24316 25.1959 6.52695 25.2063 6.88437C25.2169 7.24179 25.4902 7.50452 25.8371 7.50452Z" fill="#D96122"></path>
  <path d="M26.8883 23.4718C27.004 23.6926 27.2247 23.8292 27.4664 23.8292C27.561 23.8292 27.6451 23.8081 27.7292 23.7661L35.4976 20.0764C35.813 19.9187 35.9391 19.5298 35.7814 19.2144C35.7183 19.0883 35.6237 18.9937 35.4976 18.9307L27.7292 15.241C27.4244 15.0833 27.046 15.2095 26.8988 15.5144C26.8988 15.5249 26.8883 15.5249 26.8883 15.5354C26.7412 15.8508 26.8778 16.2292 27.1932 16.3763L33.7526 19.4984L27.1932 22.631C26.8778 22.778 26.7412 23.1564 26.8883 23.4718Z" fill="#D96122"></path>
  <path d="M6.70521 20.0764L14.4735 23.7661C14.5576 23.8081 14.6418 23.8292 14.7364 23.8292C14.9781 23.8292 15.1989 23.6925 15.3145 23.4718C15.4616 23.1564 15.325 22.778 15.0096 22.6308L8.45017 19.4982L15.0096 16.3761C15.325 16.229 15.4616 15.8505 15.3145 15.5352C15.1673 15.2198 14.7888 15.0937 14.4735 15.2409L6.70521 18.9305C6.38982 19.0882 6.26372 19.4771 6.42142 19.7925C6.48451 19.9187 6.57911 20.0133 6.70521 20.0764Z" fill="#D96122"></path>
  <path d="M18.9516 18.573C19.225 18.3628 19.2775 17.9633 19.0673 17.6901C19.0673 17.6901 19.0673 17.6795 19.0568 17.6795C18.7834 17.3116 18.6363 16.8701 18.6363 16.4181V16.3655C18.6363 15.2197 19.6138 14.2947 20.8123 14.2947H20.8648C22.0947 14.2947 23.0934 15.2197 23.1038 16.3655C23.1144 17.5113 22.0632 18.3208 21.4429 18.6151C20.9804 18.8253 20.6861 19.2774 20.6861 19.7819V21.7582C20.6861 22.1051 20.9699 22.3889 21.3168 22.3889C21.6636 22.3889 21.9474 22.1051 21.9474 21.7582V19.7819L21.9685 19.7609C22.6939 19.4245 24.3863 18.4154 24.3652 16.355C24.3547 14.5259 22.7779 13.0332 20.8647 13.0332H20.8122C18.92 13.0332 17.3852 14.5153 17.3748 16.3445C17.3537 17.1013 17.5956 17.8477 18.058 18.4574C18.2789 18.7307 18.6678 18.7833 18.9516 18.573Z" fill="#D96122"></path>
  <path d="M21.3485 23.7139C21.0016 23.7139 20.7178 23.9977 20.7178 24.3445V25.3432C20.7178 25.6901 21.0016 25.9738 21.3485 25.9738C21.6953 25.9738 21.9791 25.6901 21.9791 25.3432V24.3445C21.9791 23.9978 21.6953 23.7139 21.3485 23.7139Z" fill="#D96122"></path>
</svg>
