<?xml version="1.0" encoding="UTF-8"?>
<svg xmlns="http://www.w3.org/2000/svg" width="44" height="39" viewBox="0 0 44 39" fill="none">
  <path d="M37.0991 24.89L29.6191 28.05C29.6324 27.9566 29.6458 27.8633 29.6458 27.7633C29.6458 26.31 28.4658 25.13 27.0124 25.13H21.6258C21.4058 25.13 21.1924 25.0833 20.9924 24.99L16.4258 22.9233C15.7064 22.6009 14.9274 22.4329 14.1391 22.43H10.4191V23.7633H14.1391C14.7324 23.7633 15.3324 23.89 15.8791 24.1366L20.4458 26.2033C20.8191 26.37 21.2191 26.4566 21.6324 26.4566H27.0191C27.7391 26.4566 28.3191 27.0433 28.3191 27.7566C28.3191 28.47 27.7324 29.0566 27.0191 29.0566H20.0391V30.39H27.0124C27.4724 30.39 27.8991 30.2633 28.2724 30.0566V30.0633L37.6124 26.11C37.99 25.9488 38.3966 25.8668 38.8072 25.8691C39.2177 25.8714 39.6234 25.9579 39.9991 26.1233C40.5858 26.3833 41.0658 26.8033 41.3858 27.35L24.8991 36.0966C23.6391 36.7633 22.1391 36.8966 20.7791 36.4633L12.7124 33.87L10.4124 33.8366V35.17H12.4058L20.3724 37.73C21.0324 37.9433 21.7124 38.0433 22.3991 38.0433C23.4791 38.0433 24.5591 37.7833 25.5191 37.27L43.0858 27.9633L42.8924 27.4166C42.6932 26.8589 42.3815 26.3481 41.9766 25.9157C41.5718 25.4834 41.0826 25.1388 40.5391 24.9033C39.4324 24.43 38.2124 24.4166 37.0991 24.89ZM8.97245 36.2166V22.0633C8.97245 21.33 8.37245 20.73 7.63911 20.73H0.925781V22.0633H7.63911V36.2233H0.925781V37.5566H7.63911C8.37245 37.55 8.97245 36.95 8.97245 36.2166Z" fill="#D96122"></path>
  <path d="M5.88568 34.1433C5.88533 34.2662 5.86077 34.3879 5.81341 34.5013C5.76604 34.6147 5.69681 34.7177 5.60964 34.8044C5.52248 34.891 5.4191 34.9597 5.3054 35.0064C5.19171 35.0531 5.06993 35.077 4.94701 35.0766C4.82409 35.0763 4.70245 35.0517 4.58902 35.0044C4.47559 34.957 4.37261 34.8878 4.28594 34.8006C4.19927 34.7134 4.13062 34.6101 4.0839 34.4964C4.03719 34.3827 4.01333 34.2609 4.01368 34.138C4.01438 33.8897 4.11368 33.6519 4.28971 33.4769C4.46574 33.3019 4.7041 33.2039 4.95234 33.2046C5.20059 33.2053 5.43838 33.3046 5.61341 33.4807C5.78845 33.6567 5.88638 33.8951 5.88568 34.1433ZM16.699 16.0766L17.419 16.61L22.379 13.8633L26.8657 16.5633L27.2523 16.79L27.9723 16.27L26.8923 10.71L30.859 7.26996L31.179 6.96329L30.899 6.13663L25.2857 5.44329L23.2457 0.616627L23.059 0.216627L22.6323 0.209961H22.179L19.7857 5.34996L14.559 5.78996L14.1123 5.84329L13.8457 6.67663L17.9857 10.5366L16.699 16.0766ZM16.1323 6.99663L20.279 6.63663L20.6723 6.58996L22.5857 2.48329L24.2057 6.30329L24.3723 6.66996L28.879 7.22329L25.759 9.92996L25.4457 10.1966L26.3123 14.6633L22.739 12.51L22.399 12.33L18.4457 14.5233L19.3723 10.5233L19.4857 10.11L16.1323 6.99663Z" fill="#D96122"></path>
  <path d="M7.93198 13.6167L6.96531 17.77L6.83198 18.25L7.58531 18.8034L11.7386 16.5034L15.4053 18.7034L15.8186 18.9634L16.5586 18.4234L15.652 13.7634L16.6186 12.93L15.7453 11.9234L14.4586 13.0367L14.2653 13.2634V13.53L14.892 16.8434L12.1853 15.21L12.0453 15.0767L11.4786 15.0634L11.3453 15.1967L8.57865 16.73L9.32531 13.49V13.0967L6.73198 10.6834L9.90531 10.4034L10.212 10.3967L10.492 10.1167L11.912 7.06335L13.192 10.0834L13.3986 10.4767H13.772L15.3786 10.6767L15.5453 9.35002L14.2586 9.19669L12.5653 5.19669L12.3386 4.77002L11.4186 4.84335L11.292 5.23669L9.49198 9.11002L5.25198 9.47669L4.72531 9.50335L4.44531 10.4767L4.81198 10.7167L7.93198 13.6167ZM29.8453 9.19669L29.9653 10.5234L31.252 10.4034L31.552 10.39L31.832 10.11L33.252 7.05669L34.472 9.93002L34.4853 10.47H35.112L38.292 10.8634L35.8186 13.01L35.5986 13.2434V13.53L36.232 16.8367L33.5186 15.21L33.3786 15.07L32.792 15.0767L32.672 15.2034L29.9186 16.73L30.672 13.49L30.6653 13.0967L28.9586 11.5034L28.0453 12.4767L29.2653 13.6167L28.3053 17.77L28.172 18.2167L28.8986 18.8167L33.0786 16.5034L36.752 18.71L37.1653 18.9634L37.892 18.4167L36.9853 13.7634L40.192 10.9834C40.412 10.81 40.5053 10.5167 40.432 10.25L40.2786 9.77669L35.5986 9.20335L33.892 5.19002L33.692 4.82335L32.8986 4.79669L32.692 5.12335L30.8253 9.11002L29.8453 9.19669Z" fill="#D96122"></path>
</svg>
