<?xml version="1.0" encoding="UTF-8"?>
<svg version="1.1" xmlns="http://www.w3.org/2000/svg" width="65" height="65">
<path d="M0 0 C2.04370117 -0.28051758 2.04370117 -0.28051758 4.54296875 -0.14453125 C5.90711914 -0.07588867 5.90711914 -0.07588867 7.29882812 -0.00585938 C8.7287207 0.08985352 8.7287207 0.08985352 10.1875 0.1875 C11.58838867 0.25420898 11.58838867 0.25420898 13.01757812 0.32226562 C15.69165247 0.47469351 18.33813418 0.70472767 21 1 C21.70334473 1.07677979 22.40668945 1.15355957 23.13134766 1.23266602 C24.98828125 1.578125 24.98828125 1.578125 28 3 C29.4426589 5.6824439 30.22590303 7.68108705 31 10.5625 C31.34720093 11.72591919 31.34720093 11.72591919 31.70141602 12.9128418 C32.21054559 14.63911188 32.70527778 16.36967253 33.18798828 18.10351562 C34.07665245 21.27342293 35.01895083 24.42484323 35.96484375 27.578125 C36.62476704 29.82222072 37.28234034 32.06700892 37.9375 34.3125 C38.25654297 35.39152588 38.57558594 36.47055176 38.90429688 37.58227539 C39.19240234 38.60313232 39.48050781 39.62398926 39.77734375 40.67578125 C40.03765381 41.58239502 40.29796387 42.48900879 40.56616211 43.4230957 C41.18176932 47.07967092 40.8767152 49.6720663 38.81835938 52.78979492 C36.16427826 54.55621276 34.07272514 54.37189086 30.90625 54.36328125 C29.71128906 54.36263672 28.51632813 54.36199219 27.28515625 54.36132812 C26.03605469 54.34521484 24.78695312 54.32910156 23.5 54.3125 C22.25089844 54.31572266 21.00179687 54.31894531 19.71484375 54.32226562 C10.40050383 54.26700255 10.40050383 54.26700255 7 52 C6.15625 49.60839844 6.15625 49.60839844 5.5 46.609375 C5.2539502 45.51359131 5.00790039 44.41780762 4.75439453 43.28881836 C4.38096924 41.53710327 4.38096924 41.53710327 4 39.75 C3.73944824 38.56736572 3.47889648 37.38473145 3.21044922 36.16625977 C2.69624073 33.82627348 2.18683875 31.48522498 1.68261719 29.14306641 C1.12649508 26.58243836 0.54859144 24.03025548 -0.0546875 21.48046875 C-1.51404216 15.17744649 -2.5306964 9.47449612 -2 3 C-1.34 2.01 -0.68 1.02 0 0 Z " fill="#E0DCDA" transform="translate(14,5)"/>
<path d="M0 0 C2.04370117 -0.28051758 2.04370117 -0.28051758 4.54296875 -0.14453125 C5.90711914 -0.07588867 5.90711914 -0.07588867 7.29882812 -0.00585938 C8.7287207 0.08985352 8.7287207 0.08985352 10.1875 0.1875 C11.58838867 0.25420898 11.58838867 0.25420898 13.01757812 0.32226562 C15.69165247 0.47469351 18.33813418 0.70472767 21 1 C21.70334473 1.07677979 22.40668945 1.15355957 23.13134766 1.23266602 C24.98828125 1.578125 24.98828125 1.578125 28 3 C29.4426589 5.6824439 30.22590303 7.68108705 31 10.5625 C31.34720093 11.72591919 31.34720093 11.72591919 31.70141602 12.9128418 C32.21054559 14.63911188 32.70527778 16.36967253 33.18798828 18.10351562 C34.07665245 21.27342293 35.01895083 24.42484323 35.96484375 27.578125 C36.62476704 29.82222072 37.28234034 32.06700892 37.9375 34.3125 C38.25654297 35.39152588 38.57558594 36.47055176 38.90429688 37.58227539 C39.19240234 38.60313232 39.48050781 39.62398926 39.77734375 40.67578125 C40.03765381 41.58239502 40.29796387 42.48900879 40.56616211 43.4230957 C41.18176932 47.07967092 40.8767152 49.6720663 38.81835938 52.78979492 C36.16427826 54.55621276 34.07272514 54.37189086 30.90625 54.36328125 C29.71128906 54.36263672 28.51632813 54.36199219 27.28515625 54.36132812 C26.03605469 54.34521484 24.78695312 54.32910156 23.5 54.3125 C22.25089844 54.31572266 21.00179687 54.31894531 19.71484375 54.32226562 C10.40050383 54.26700255 10.40050383 54.26700255 7 52 C6.15625 49.60839844 6.15625 49.60839844 5.5 46.609375 C5.2539502 45.51359131 5.00790039 44.41780762 4.75439453 43.28881836 C4.38096924 41.53710327 4.38096924 41.53710327 4 39.75 C3.73944824 38.56736572 3.47889648 37.38473145 3.21044922 36.16625977 C2.69624073 33.82627348 2.18683875 31.48522498 1.68261719 29.14306641 C1.12649508 26.58243836 0.54859144 24.03025548 -0.0546875 21.48046875 C-1.51404216 15.17744649 -2.5306964 9.47449612 -2 3 C-1.34 2.01 -0.68 1.02 0 0 Z M2 2 C2.59272607 7.99718907 3.45727673 13.79856691 4.7421875 19.68359375 C4.91122589 20.46517349 5.08026428 21.24675323 5.25442505 22.05201721 C5.60992757 23.68522126 5.96801529 25.3178646 6.32861328 26.94995117 C6.87842399 29.45308848 7.41001845 31.9596926 7.94140625 34.46679688 C8.29055773 36.06013924 8.64077946 37.65324754 8.9921875 39.24609375 C9.14855682 39.99499374 9.30492615 40.74389374 9.46603394 41.51548767 C10.4442955 46.06022374 10.4442955 46.06022374 14 49 C16.61601555 49.27599951 16.61601555 49.27599951 19.54296875 49.1953125 C20.61611328 49.18886719 21.68925781 49.18242188 22.79492188 49.17578125 C23.91447266 49.15902344 25.03402344 49.14226563 26.1875 49.125 C27.31865234 49.11597656 28.44980469 49.10695312 29.61523438 49.09765625 C32.41036828 49.07406862 35.20507845 49.041153 38 49 C39.08537244 45.2318863 38.72703505 43.22103089 37.5625 39.4375 C37.19640625 38.22578125 36.8303125 37.0140625 36.453125 35.765625 C36.23205078 35.04568359 36.01097656 34.32574219 35.78320312 33.58398438 C34.82788903 30.43216255 33.90607208 27.27118928 32.984375 24.109375 C32.26066342 21.63534447 31.53670271 19.16138681 30.8125 16.6875 C30.45551025 15.46409912 30.09852051 14.24069824 29.73071289 12.98022461 C29.39289795 11.83561768 29.05508301 10.69101074 28.70703125 9.51171875 C28.4025708 8.47490967 28.09811035 7.43810059 27.78442383 6.36987305 C27.22012908 4.07043121 27.22012908 4.07043121 26 3 C24.33382885 2.95936168 22.66611905 2.957279 21 3 C21 3.66 21 4.32 21 5 C19.02006459 4.69240822 17.04106401 4.3787932 15.0625 4.0625 C13.96035156 3.88847656 12.85820312 3.71445313 11.72265625 3.53515625 C9 3 9 3 8 2 C6.00041636 1.95919217 3.99954746 1.95745644 2 2 Z " fill="#8B323C" transform="translate(14,5)"/>
<path d="M0 0 C1.81156197 3.21140531 2.55646342 6.17950693 3.21875 9.796875 C3.53392578 11.48296875 3.53392578 11.48296875 3.85546875 13.203125 C4.06816406 14.37359375 4.28085937 15.5440625 4.5 16.75 C6.05397283 25.49064819 6.05397283 25.49064819 8.03125 34.140625 C9.26096666 39.03965749 10.0964475 44.03046126 11 49 C20.9 49 30.8 49 41 49 C38 53 38 53 35.22851562 53.48583984 C33.58399414 53.47351318 33.58399414 53.47351318 31.90625 53.4609375 C30.11380859 53.45513672 30.11380859 53.45513672 28.28515625 53.44921875 C26.41150391 53.41248047 26.41150391 53.41248047 24.5 53.375 C22.62634766 53.37306641 22.62634766 53.37306641 20.71484375 53.37109375 C11.42129772 53.28086515 11.42129772 53.28086515 8 51 C7.15625 48.60839844 7.15625 48.60839844 6.5 45.609375 C6.2539502 44.51359131 6.00790039 43.41780762 5.75439453 42.28881836 C5.38096924 40.53710327 5.38096924 40.53710327 5 38.75 C4.73944824 37.56736572 4.47889648 36.38473145 4.21044922 35.16625977 C3.69624073 32.82627348 3.18683875 30.48522498 2.68261719 28.14306641 C2.12649508 25.58243836 1.54859144 23.03025548 0.9453125 20.48046875 C-2.59495102 5.18990203 -2.59495102 5.18990203 0 0 Z " fill="#730D1A" transform="translate(13,6)"/>
<path d="M0 0 C3.39612414 0.1395053 6.79181458 0.28772322 10.1875 0.4375 C11.14720703 0.47681641 12.10691406 0.51613281 13.09570312 0.55664062 C14.02705078 0.59853516 14.95839844 0.64042969 15.91796875 0.68359375 C16.77156982 0.72025146 17.6251709 0.75690918 18.50463867 0.79467773 C21.06454594 1.00531094 23.49333243 1.44841536 26 2 C26 2.33 26 2.66 26 3 C24.35 3 22.7 3 21 3 C21 3.66 21 4.32 21 5 C19.58376784 5.05447047 18.16691809 5.09300508 16.75 5.125 C15.96109375 5.14820313 15.1721875 5.17140625 14.359375 5.1953125 C11.74282693 4.97871084 10.32239381 4.17865851 8 3 C5.03 2.505 5.03 2.505 2 2 C2.99 6.95 3.98 11.9 5 17 C4.34 17 3.68 17 3 17 C2.49255577 15.10614563 1.99435426 13.20981334 1.5 11.3125 C1.2215625 10.25675781 0.943125 9.20101563 0.65625 8.11328125 C0.05766551 5.27356794 -0.05127345 2.88199527 0 0 Z " fill="#B58088" transform="translate(14,5)"/>
<path d="M0 0 C-1.82646778 2.40739929 -2.72617042 2.96164649 -5.77148438 3.38818359 C-7.41600586 3.39325928 -7.41600586 3.39325928 -9.09375 3.3984375 C-10.28871094 3.40230469 -11.48367187 3.40617187 -12.71484375 3.41015625 C-13.96394531 3.39855469 -15.21304688 3.38695312 -16.5 3.375 C-17.74910156 3.38660156 -18.99820313 3.39820313 -20.28515625 3.41015625 C-22.07759766 3.40435547 -22.07759766 3.40435547 -23.90625 3.3984375 C-25.00259766 3.39505371 -26.09894531 3.39166992 -27.22851562 3.38818359 C-30.27382958 2.96164649 -31.17353222 2.40739929 -33 0 C-28.62196815 -0.16750929 -24.24375401 -0.32807935 -19.86523438 -0.48217773 C-18.37525558 -0.53560003 -16.88534391 -0.59092962 -15.39550781 -0.64819336 C-13.25600663 -0.73009836 -11.11635907 -0.80517709 -8.9765625 -0.87890625 C-7.04417725 -0.94960327 -7.04417725 -0.94960327 -5.07275391 -1.02172852 C-2 -1 -2 -1 0 0 Z " fill="#52060C" transform="translate(54,56)"/>
<path d="M0 0 C0.66 0 1.32 0 2 0 C2.96023825 2.85353821 3.91824013 5.70779555 4.875 8.5625 C5.14441406 9.36236328 5.41382813 10.16222656 5.69140625 10.98632812 C8.20550785 18.49797314 10.27954254 25.03303765 10 33 C9.67 33 9.34 33 9 33 C8.68546875 31.79085937 8.3709375 30.58171875 8.046875 29.3359375 C5.48411853 19.52024844 2.84375834 9.73868079 0 0 Z " fill="#A85E53" transform="translate(40,8)"/>
<path d="M0 0 C0.66 0 1.32 0 2 0 C2.69918305 2.58067563 3.38461049 5.16372847 4.0625 7.75 C4.26166016 8.47960938 4.46082031 9.20921875 4.66601562 9.9609375 C5.63744407 13.71031044 6.15449387 16.30274238 5 20 C1.37440409 13.73760706 0 7.1849609 0 0 Z " fill="#984351" transform="translate(17,22)"/>
<path d="M0 0 C1.96276436 2.94414653 2.71733962 5.05898636 3.625 8.4375 C4.01558594 9.85869141 4.01558594 9.85869141 4.4140625 11.30859375 C5 14 5 14 5 18 C4.34 18 3.68 18 3 18 C2.49095343 16.12743583 1.99317545 14.25180659 1.5 12.375 C1.08234375 10.80878906 1.08234375 10.80878906 0.65625 9.2109375 C0.00881404 6.04312582 -0.1161292 3.22258533 0 0 Z " fill="#8F2838" transform="translate(50,37)"/>
<path d="M0 0 C1.79275866 3.11910856 2.34290718 5.67682428 2.625 9.25 C2.69976562 10.14203125 2.77453125 11.0340625 2.8515625 11.953125 C2.92503906 12.96632813 2.92503906 12.96632813 3 14 C1.01953125 12.78515625 1.01953125 12.78515625 -1 11 C-1.42578125 8.80859375 -1.42578125 8.80859375 -1.3125 6.4375 C-1.28800781 5.65246094 -1.26351563 4.86742187 -1.23828125 4.05859375 C-1 2 -1 2 0 0 Z " fill="#711825" transform="translate(13,6)"/>
<path d="M0 0 C2.64 0.33 5.28 0.66 8 1 C8 1.33 8 1.66 8 2 C6.35 2 4.7 2 3 2 C3 2.66 3 3.32 3 4 C0.03 4 -2.94 4 -6 4 C-6.33 3.34 -6.66 2.68 -7 2 C-4.69 2 -2.38 2 0 2 C0 1.34 0 0.68 0 0 Z " fill="#B08E86" transform="translate(32,6)"/>
<path d="M0 0 C0.33 0 0.66 0 1 0 C3.27678571 8.03571429 3.27678571 8.03571429 2 12 C-0.32992644 8.50511034 -1.13620929 6.99238196 -0.5625 2.8125 C-0.376875 1.884375 -0.19125 0.95625 0 0 Z " fill="#840D20" transform="translate(18,30)"/>
<path d="M0 0 C2.875 -0.125 2.875 -0.125 6 0 C6.66 0.66 7.32 1.32 8 2 C5.36 2.66 2.72 3.32 0 4 C0 2.68 0 1.36 0 0 Z " fill="#C8A4AC" transform="translate(14,5)"/>
</svg>
