<?xml version="1.0" encoding="UTF-8"?>
<svg xmlns="http://www.w3.org/2000/svg" width="47" height="47" viewBox="0 0 47 47" fill="none">
  <g clip-path="url(#clip0_243_4010)">
    <path d="M42.6725 1.64258H4.33913C2.64545 1.64258 1.27246 3.01557 1.27246 4.70924V43.0426C1.27246 44.7363 2.64545 46.1092 4.33913 46.1092H42.6725C44.3661 46.1092 45.7391 44.7363 45.7391 43.0426V4.70924C45.7391 3.01557 44.3661 1.64258 42.6725 1.64258Z" fill="#B0D3F0"></path>
    <path d="M45.7391 4.70925V7.77591H1.27246V4.70925C1.27246 3.89591 1.59556 3.1159 2.17067 2.54078C2.74578 1.96567 3.5258 1.64258 4.33913 1.64258H42.6725C43.4858 1.64258 44.2658 1.96567 44.8409 2.54078C45.416 3.1159 45.7391 3.89591 45.7391 4.70925Z" fill="#3B97D3"></path>
    <path d="M10.4727 5.47596C10.8961 5.47596 11.2394 5.13271 11.2394 4.70929C11.2394 4.28588 10.8961 3.94263 10.4727 3.94263C10.0493 3.94263 9.70605 4.28588 9.70605 4.70929C9.70605 5.13271 10.0493 5.47596 10.4727 5.47596Z" fill="#7ED09E"></path>
    <path d="M7.40632 5.47596C7.82973 5.47596 8.17298 5.13271 8.17298 4.70929C8.17298 4.28588 7.82973 3.94263 7.40632 3.94263C6.9829 3.94263 6.63965 4.28588 6.63965 4.70929C6.63965 5.13271 6.9829 5.47596 7.40632 5.47596Z" fill="#F0C419"></path>
    <path d="M4.33893 5.47596C4.76235 5.47596 5.1056 5.13271 5.1056 4.70929C5.1056 4.28588 4.76235 3.94263 4.33893 3.94263C3.91551 3.94263 3.57227 4.28588 3.57227 4.70929C3.57227 5.13271 3.91551 5.47596 4.33893 5.47596Z" fill="#FF5364"></path>
    <path d="M27.3395 5.47596H21.2061C21.0028 5.47596 20.8078 5.39519 20.664 5.25141C20.5202 5.10763 20.4395 4.91263 20.4395 4.70929C20.4395 4.50596 20.5202 4.31096 20.664 4.16718C20.8078 4.0234 21.0028 3.94263 21.2061 3.94263H27.3395C27.5428 3.94263 27.7378 4.0234 27.8816 4.16718C28.0253 4.31096 28.1061 4.50596 28.1061 4.70929C28.1061 4.91263 28.0253 5.10763 27.8816 5.25141C27.7378 5.39519 27.5428 5.47596 27.3395 5.47596Z" fill="#B0D3F0"></path>
    <path d="M25.0388 39.2094V36.1428C25.0388 33.1344 24.5213 31.8548 23.8735 30.8934C23.3523 30.14 22.6545 29.5258 21.8412 29.1044C21.0278 28.683 20.1236 28.4673 19.2075 28.4761H10.9367C10.0207 28.4673 9.1165 28.683 8.30312 29.1044C7.48974 29.5258 6.79197 30.14 6.2708 30.8934C5.62297 31.8548 5.10547 33.1344 5.10547 36.1428V39.2094" fill="white"></path>
    <path d="M20.4396 20.8093H20.8229C21.3312 20.8093 21.8188 21.0113 22.1782 21.3707C22.5377 21.7301 22.7396 22.2177 22.7396 22.726C22.7396 23.2343 22.5377 23.7218 22.1782 24.0813C21.8188 24.4407 21.3312 24.6427 20.8229 24.6427H9.32292C8.81459 24.6427 8.32707 24.4407 7.96763 24.0813C7.60818 23.7218 7.40625 23.2343 7.40625 22.726C7.40625 22.2177 7.60818 21.7301 7.96763 21.3707C8.32707 21.0113 8.81459 20.8093 9.32292 20.8093H20.4396Z" fill="#F9C795"></path>
    <path d="M10.4727 32.3093C10.2694 32.3093 10.0744 32.2285 9.93061 32.0847C9.78683 31.9409 9.70605 31.7459 9.70605 31.5426V28.4913C9.70605 28.2879 9.78683 28.0929 9.93061 27.9492C10.0744 27.8054 10.2694 27.7246 10.4727 27.7246C10.6761 27.7246 10.8711 27.8054 11.0148 27.9492C11.1586 28.0929 11.2394 28.2879 11.2394 28.4913V31.5426C11.2394 31.7459 11.1586 31.9409 11.0148 32.0847C10.8711 32.2285 10.6761 32.3093 10.4727 32.3093Z" fill="#547580"></path>
    <path d="M19.6729 32.3093C19.4696 32.3093 19.2746 32.2285 19.1308 32.0847C18.987 31.9409 18.9062 31.7459 18.9062 31.5426V28.4913C18.9062 28.2879 18.987 28.0929 19.1308 27.9492C19.2746 27.8054 19.4696 27.7246 19.6729 27.7246C19.8762 27.7246 20.0713 27.8054 20.215 27.9492C20.3588 28.0929 20.4396 28.2879 20.4396 28.4913V31.5426C20.4396 31.7459 20.3588 31.9409 20.215 32.0847C20.0713 32.2285 19.8762 32.3093 19.6729 32.3093Z" fill="#547580"></path>
    <path d="M19.6721 36.1427C20.9423 36.1427 21.9721 35.113 21.9721 33.8427C21.9721 32.5725 20.9423 31.5427 19.6721 31.5427C18.4018 31.5427 17.3721 32.5725 17.3721 33.8427C17.3721 35.113 18.4018 36.1427 19.6721 36.1427Z" fill="#3F5C6C"></path>
    <path d="M1.27246 39.2092H28.1058C28.3091 39.2092 28.5041 39.29 28.6479 39.4338C28.7917 39.5776 28.8725 39.7726 28.8725 39.9759V41.5092C28.8725 41.7126 28.7917 41.9076 28.6479 42.0513C28.5041 42.1951 28.3091 42.2759 28.1058 42.2759H1.27246V39.2092Z" fill="#285680"></path>
    <path d="M42.6723 13.9093V26.176C42.6711 26.5823 42.5092 26.9716 42.2219 27.2589C41.9346 27.5462 41.5453 27.7081 41.139 27.7093H35.7723L31.088 31.351C30.955 31.4544 30.7957 31.5183 30.6281 31.5355C30.4605 31.5526 30.2915 31.5223 30.1404 31.4479C29.9892 31.3735 29.8621 31.2581 29.7734 31.1149C29.6848 30.9717 29.6382 30.8064 29.639 30.638V27.7093H27.339C26.9327 27.7081 26.5434 27.5462 26.2561 27.2589C25.9688 26.9716 25.8069 26.5823 25.8057 26.176V13.9093C25.8069 13.503 25.9688 13.1137 26.2561 12.8264C26.5434 12.5391 26.9327 12.3772 27.339 12.376H41.139C41.5453 12.3772 41.9346 12.5391 42.2219 12.8264C42.5092 13.1137 42.6711 13.503 42.6723 13.9093Z" fill="white"></path>
    <path d="M34.2393 19.276C34.036 19.276 33.841 19.1953 33.6972 19.0515C33.5534 18.9077 33.4727 18.7127 33.4727 18.5094V15.4427C33.4727 15.2394 33.5534 15.0444 33.6972 14.9006C33.841 14.7568 34.036 14.676 34.2393 14.676C34.4427 14.676 34.6377 14.7568 34.7814 14.9006C34.9252 15.0444 35.006 15.2394 35.006 15.4427V18.5094C35.006 18.7127 34.9252 18.9077 34.7814 19.0515C34.6377 19.1953 34.4427 19.276 34.2393 19.276Z" fill="#E64C3C"></path>
    <path d="M35.7728 17.7426H32.7061C32.5028 17.7426 32.3078 17.6618 32.164 17.518C32.0202 17.3742 31.9395 17.1792 31.9395 16.9759C31.9395 16.7726 32.0202 16.5776 32.164 16.4338C32.3078 16.29 32.5028 16.2092 32.7061 16.2092H35.7728C35.9761 16.2092 36.1711 16.29 36.3149 16.4338C36.4587 16.5776 36.5395 16.7726 36.5395 16.9759C36.5395 17.1792 36.4587 17.3742 36.3149 17.518C36.1711 17.6618 35.9761 17.7426 35.7728 17.7426Z" fill="#E64C3C"></path>
    <path d="M39.6055 22.3427H28.8721C28.6688 22.3427 28.4738 22.2619 28.33 22.1181C28.1862 21.9743 28.1055 21.7793 28.1055 21.576C28.1055 21.3727 28.1862 21.1777 28.33 21.0339C28.4738 20.8901 28.6688 20.8093 28.8721 20.8093H39.6055C39.8088 20.8093 40.0038 20.8901 40.1476 21.0339C40.2914 21.1777 40.3721 21.3727 40.3721 21.576C40.3721 21.7793 40.2914 21.9743 40.1476 22.1181C40.0038 22.2619 39.8088 22.3427 39.6055 22.3427Z" fill="#547580"></path>
    <path d="M38.0721 25.4093H28.8721C28.6688 25.4093 28.4738 25.3285 28.33 25.1848C28.1862 25.041 28.1055 24.846 28.1055 24.6426C28.1055 24.4393 28.1862 24.2443 28.33 24.1005C28.4738 23.9567 28.6688 23.876 28.8721 23.876H38.0721C38.2755 23.876 38.4705 23.9567 38.6143 24.1005C38.758 24.2443 38.8388 24.4393 38.8388 24.6426C38.8388 24.846 38.758 25.041 38.6143 25.1848C38.4705 25.3285 38.2755 25.4093 38.0721 25.4093Z" fill="#547580"></path>
    <path d="M27.3391 42.2759V46.1092H4.33913C3.5258 46.1092 2.74578 45.7861 2.17067 45.211C1.59556 44.6359 1.27246 43.8559 1.27246 43.0425V42.2759H27.3391Z" fill="#4482C3"></path>
    <path d="M20.4394 20.0427C20.4394 17.0788 18.0366 14.676 15.0727 14.676C12.1088 14.676 9.70605 17.0788 9.70605 20.0427V23.876C9.70605 26.84 12.1088 29.2427 15.0727 29.2427C18.0366 29.2427 20.4394 26.84 20.4394 23.876V20.0427Z" fill="#FDD7AD"></path>
    <path d="M20.4394 20.0427V21.576C17.3727 21.576 16.6061 18.5094 16.6061 18.5094C16.6061 21.576 9.70605 20.8094 9.70605 20.8094V20.0427C9.70605 19.3379 9.84487 18.6401 10.1146 17.989C10.3843 17.3378 10.7796 16.7462 11.2779 16.2479C11.7763 15.7495 12.3679 15.3542 13.019 15.0845C13.6701 14.8148 14.368 14.676 15.0727 14.676C15.7775 14.676 16.4753 14.8148 17.1265 15.0845C17.7776 15.3542 18.3692 15.7495 18.8675 16.2479C19.3659 16.7462 19.7612 17.3378 20.0309 17.989C20.3006 18.6401 20.4394 19.3379 20.4394 20.0427Z" fill="#A56A43"></path>
    <path d="M12.2869 36.9092H12.0063C11.8029 36.9092 11.6079 36.8284 11.4641 36.6847C11.3204 36.5409 11.2396 36.3459 11.2396 36.1425C11.2396 35.9392 11.3204 35.7442 11.4641 35.6004C11.6079 35.4567 11.8029 35.3759 12.0063 35.3759V33.8425C12.0063 33.4359 11.8447 33.0459 11.5571 32.7583C11.2696 32.4708 10.8796 32.3092 10.4729 32.3092C10.0663 32.3092 9.67624 32.4708 9.38869 32.7583C9.10113 33.0459 8.93958 33.4359 8.93958 33.8425V35.3759C9.14292 35.3759 9.33792 35.4567 9.4817 35.6004C9.62548 35.7442 9.70625 35.9392 9.70625 36.1425C9.70625 36.3459 9.62548 36.5409 9.4817 36.6847C9.33792 36.8284 9.14292 36.9092 8.93958 36.9092H8.65898C8.3268 36.909 8.00828 36.777 7.77339 36.5421C7.5385 36.3072 7.40645 35.9887 7.40625 35.6565V33.8425C7.40625 33.0292 7.72934 32.2492 8.30446 31.6741C8.87957 31.099 9.65959 30.7759 10.4729 30.7759C11.2862 30.7759 12.0663 31.099 12.6414 31.6741C13.2165 32.2492 13.5396 33.0292 13.5396 33.8425V35.6565C13.5394 35.9887 13.4073 36.3072 13.1724 36.5421C12.9376 36.777 12.619 36.909 12.2869 36.9092Z" fill="#4482C3"></path>
  </g>
  <defs>
    <clipPath id="clip0_243_4010">
      <rect width="46" height="46" fill="white" transform="translate(0.505859 0.875977)"></rect>
    </clipPath>
  </defs>
</svg>
