<?xml version="1.0" encoding="UTF-8"?>
<svg xmlns="http://www.w3.org/2000/svg" width="70" height="70" viewBox="0 0 70 70" fill="none">
  <path d="M41.8884 14.9264C33.7181 11.9492 19.8745 15.6133 15.9655 23.9772C14.0733 28.0241 14.2275 30.9761 14.3773 33.8308C14.4648 35.5195 14.5491 37.1153 14.2428 38.9933C14.1323 39.6725 13.0528 41.0091 12.1844 42.0831C10.5623 44.0902 9.16124 45.8238 9.85687 47.3638C10.5044 48.7889 12.2281 49.1356 13.3689 49.3653C13.662 49.4233 14.0634 49.5042 14.1783 49.56C15.598 50.307 15.6111 50.6319 15.5105 51.1853C15.2425 52.663 15.038 57.3289 17.547 59.3141C18.9405 60.4166 20.6522 60.3498 22.1637 60.293C22.9491 60.2656 23.6895 60.2339 24.2944 60.3673C28.4003 61.2719 27.1819 67.5292 27.1687 67.6036C27.1186 67.894 27.1858 68.1923 27.3557 68.4331C27.5255 68.6739 27.784 68.8374 28.0744 68.8877C28.2182 68.9136 28.3657 68.9107 28.5083 68.8792C28.651 68.8477 28.786 68.7882 28.9055 68.7042C29.0251 68.6202 29.1267 68.5133 29.2047 68.3897C29.2826 68.2661 29.3352 68.1283 29.3595 67.9842C29.4262 67.5959 30.9477 59.5558 24.7723 58.1963C23.8886 58.0027 22.9687 58.0377 22.0784 58.0716C20.8425 58.1153 19.6766 58.1656 18.9262 57.5706C17.6214 56.5381 17.372 53.375 17.698 51.5834C18.1431 49.1356 16.2378 48.1316 15.2152 47.5923C14.8334 47.3911 14.3587 47.297 13.8075 47.1855C13.1961 47.063 12.0575 46.8333 11.9022 46.5161C11.8836 45.9933 13.1534 44.4205 13.9147 43.4809C15.1058 42.0055 16.2312 40.6131 16.4369 39.352C16.7814 37.2367 16.6884 35.4462 16.5977 33.7137C16.4555 31.0133 16.3231 28.4638 17.9791 24.9189C21.3402 17.7286 33.8691 14.3708 41.1272 17.0144C50.96 20.5986 56.2767 28.4244 55.7156 38.4847C55.4116 43.9513 50.5892 50.8288 47.7072 54.938C46.2875 56.9614 45.5952 57.9666 45.3731 58.6644C44.2137 62.335 44.8962 67.6419 44.9258 67.9142C44.9416 68.0594 44.9858 68.2 45.056 68.328C45.1261 68.4561 45.2208 68.569 45.3346 68.6605C45.4484 68.752 45.5791 68.8201 45.7192 68.8611C45.8594 68.902 46.0062 68.9149 46.1513 68.8991C46.2965 68.8833 46.4371 68.8391 46.5651 68.769C46.6932 68.6988 46.8061 68.6042 46.8976 68.4904C46.9891 68.3766 47.0572 68.2458 47.0982 68.1057C47.1391 67.9656 47.152 67.8187 47.1362 67.6736C47.1297 67.6113 46.4745 62.5581 47.4928 59.3359C47.6208 58.9323 48.6336 57.4886 49.5272 56.2144C52.5459 51.9105 57.5958 44.7081 57.9359 38.6094C58.555 27.5002 52.7067 18.8683 41.8884 14.9264ZM35 10.0931C35.6136 10.0931 36.1112 9.59547 36.1112 8.98187V2.205C36.1112 1.91028 35.9942 1.62763 35.7858 1.41923C35.5774 1.21083 35.2947 1.09375 35 1.09375C34.7053 1.09375 34.4226 1.21083 34.2142 1.41923C34.0058 1.62763 33.8887 1.91028 33.8887 2.205V8.98187C33.8887 9.59547 34.3864 10.0931 35 10.0931ZM43.6756 11.8563C43.9373 11.9918 44.2421 12.0179 44.523 11.9289C44.804 11.8399 45.0381 11.643 45.1741 11.3816L48.3022 5.35719C48.4323 5.096 48.4545 4.79416 48.3641 4.51673C48.2737 4.2393 48.0779 4.0085 47.819 3.87406C47.56 3.73963 47.2586 3.71233 46.9797 3.79806C46.7008 3.88378 46.4667 4.07566 46.328 4.33234L43.2009 10.3578C43.1337 10.4874 43.0926 10.6289 43.0801 10.7743C43.0675 10.9197 43.0838 11.0662 43.1279 11.2054C43.1719 11.3445 43.243 11.4736 43.337 11.5853C43.431 11.697 43.546 11.789 43.6756 11.8563ZM51.9575 16.2958C52.2003 16.2958 52.4431 16.217 52.6477 16.0552L58.0814 11.7403C58.3042 11.5542 58.4454 11.2884 58.4749 10.9996C58.5044 10.7108 58.4198 10.4219 58.2392 10.1946C58.0586 9.96729 57.7963 9.81962 57.5083 9.78308C57.2203 9.74655 56.9294 9.82406 56.6978 9.99906L51.2652 14.3128C51.0845 14.4564 50.953 14.6527 50.8889 14.8744C50.8248 15.0961 50.8312 15.3322 50.9073 15.5501C50.9834 15.768 51.1253 15.9568 51.3135 16.0904C51.5017 16.224 51.7267 16.2958 51.9575 16.2958ZM64.3727 19.95C64.2854 19.6687 64.0903 19.4334 63.8299 19.2956C63.5696 19.1579 63.2653 19.1289 62.9836 19.215L56.2636 21.2811C55.9916 21.3757 55.7668 21.572 55.6366 21.8289C55.5064 22.0858 55.481 22.3832 55.5655 22.6585C55.6501 22.9338 55.8382 23.1655 56.0902 23.305C56.3421 23.4444 56.6384 23.4807 56.9166 23.4062L63.6366 21.3402C64.2239 21.1597 64.5531 20.5362 64.3727 19.95ZM24.8259 11.3816C24.9647 11.6382 25.1987 11.8301 25.4777 11.9158C25.7566 12.0016 26.058 11.9743 26.3169 11.8398C26.5759 11.7054 26.7717 11.4746 26.8621 11.1972C26.9525 10.9197 26.9302 10.6179 26.8002 10.3567L23.672 4.33234C23.5304 4.08101 23.2968 3.8945 23.0203 3.81219C22.7438 3.72988 22.4462 3.75819 22.1902 3.89116C21.9342 4.02412 21.7398 4.25134 21.6482 4.52486C21.5565 4.79839 21.5747 5.09682 21.6989 5.35719L24.8259 11.3816ZM17.3534 16.0541C17.4676 16.1453 17.5986 16.2131 17.7391 16.2535C17.8795 16.2938 18.0265 16.3061 18.1717 16.2894C18.3169 16.2727 18.4573 16.2275 18.5849 16.1563C18.7125 16.0851 18.8248 15.9894 18.9153 15.8747C19.0061 15.7604 19.0735 15.6293 19.1137 15.4889C19.1538 15.3485 19.1659 15.2016 19.1493 15.0566C19.1326 14.9115 19.0875 14.7712 19.0166 14.6436C18.9457 14.5159 18.8503 14.4036 18.7359 14.3128L13.3 9.99906C13.0691 9.81588 12.7749 9.73192 12.4821 9.76566C12.1893 9.7994 11.9219 9.94808 11.7387 10.179C11.5555 10.4099 11.4715 10.7041 11.5053 10.9969C11.539 11.2897 11.6877 11.5571 11.9186 11.7403L17.3534 16.0541ZM13.4116 23.4555C13.6762 23.4527 13.9312 23.3557 14.1309 23.1819C14.3305 23.0081 14.4617 22.7689 14.501 22.5072C14.5402 22.2454 14.4849 21.9782 14.345 21.7535C14.2051 21.5289 13.9897 21.3614 13.7375 21.2811L7.0164 19.2139C6.87679 19.171 6.7301 19.1561 6.58471 19.1699C6.43932 19.1837 6.29807 19.226 6.16903 19.2944C5.90843 19.4326 5.71338 19.6686 5.62679 19.9505C5.58392 20.0902 5.56896 20.2368 5.58278 20.3822C5.59659 20.5276 5.63891 20.6689 5.70731 20.7979C5.77572 20.927 5.86887 21.0413 5.98144 21.1343C6.09402 21.2273 6.22382 21.2973 6.36343 21.3402L13.0845 23.4062C13.1939 23.4391 13.3022 23.4555 13.4116 23.4555Z" fill="#D96122"></path>
  <path d="M49.5327 37.3789C50.4262 37.0256 51.1886 36.3835 51.7333 35.49C52.8019 33.7356 52.7297 31.4825 51.5583 30.0081C50.5805 28.7776 49.4266 28.5096 48.3678 28.5184C48.4586 27.2868 47.9795 26.134 46.9962 25.3607C46.2656 24.7834 45.3462 24.4987 44.4172 24.5623C44.2017 23.3417 43.4361 22.2096 42.1236 21.1935C40.8494 20.207 39.4242 20.3164 38.383 20.3951C38.0002 20.4235 37.6042 20.4531 37.4106 20.406C37.2859 20.3754 36.9513 20.1764 36.7063 20.0309C35.6847 19.4206 33.9719 18.4012 31.9342 19.3418C30.6764 19.9226 29.9359 20.8206 29.5203 21.7787C26.7422 21.2132 24.8555 22.7587 24.0373 24.4223C23.7159 25.0802 23.5288 25.7956 23.4872 26.5267C21.4353 26.6798 19.6919 28.1498 19.1877 30.2334C18.6878 32.2973 19.5923 34.2649 21.4955 35.2449C23.3548 36.2042 24.8555 35.537 26.0597 35.001C26.9773 34.5942 27.5702 34.3525 28.2209 34.5417C29.4492 34.895 29.8856 35.7951 30.3909 36.8375C30.8875 37.8634 31.5066 39.1409 33.0323 39.4712C34.6916 39.83 35.9723 39.0895 36.9075 38.5503C37.6119 38.1445 38.0614 37.8918 38.4519 37.987C39.3061 38.1806 39.8661 38.8937 40.5147 39.7184C41.3645 40.8001 42.4222 42.1443 44.3811 42.1509H44.4008C45.9506 42.1509 47.2522 41.6696 48.1633 40.7618C49.0055 39.9218 49.4758 38.7231 49.5327 37.3789ZM46.7884 37.5921C46.9591 37.6249 47.1231 37.625 47.2916 37.6425C47.2052 38.2735 46.97 38.8128 46.5937 39.1879C46.1016 39.6801 45.3633 39.9284 44.4019 39.9284H44.3877C43.5455 39.9262 43.0566 39.3542 42.2636 38.3446L42.0263 38.046C42.0519 37.9215 42.0556 37.7934 42.0372 37.6676C41.9781 37.3209 42.257 36.785 42.7164 36.366C43.2042 35.9198 43.6844 35.7842 43.8725 35.8367C44.1534 35.9001 44.4479 35.8521 44.6942 35.7029C44.9405 35.5536 45.1192 35.3146 45.1929 35.0362C45.2666 34.7578 45.2294 34.4617 45.0892 34.2102C44.949 33.9586 44.7168 33.7712 44.4413 33.6874C43.4263 33.4173 42.2209 33.8067 41.2158 34.7243C40.7374 35.1537 40.355 35.6792 40.0936 36.2665C39.7344 36.0616 39.3471 35.9105 38.9441 35.8181C38.6999 35.7648 38.45 35.7428 38.2003 35.7525C38.217 35.1683 38.1383 34.5853 37.9673 34.0265C38.0188 33.9937 38.0767 33.974 38.1227 33.9325C39.3345 32.842 40.4031 32.574 41.8152 33.006C41.9548 33.0496 42.1017 33.0652 42.2473 33.0518C42.393 33.0385 42.5346 32.9966 42.664 32.9284C42.7934 32.8602 42.9081 32.7672 43.0015 32.6546C43.0949 32.542 43.1651 32.412 43.2081 32.2723C43.2512 32.1325 43.2662 31.9855 43.2524 31.8399C43.2385 31.6943 43.196 31.5528 43.1274 31.4237C43.0587 31.2945 42.9652 31.1802 42.8523 31.0872C42.7394 30.9943 42.6092 30.9245 42.4692 30.882C41.627 30.6228 40.8352 30.5353 40.075 30.6129C39.6528 29.6942 39.6178 28.3631 40.0422 27.5089C40.1736 27.245 40.1948 26.9398 40.1012 26.6603C40.0075 26.3809 39.8067 26.15 39.5429 26.0186C39.2791 25.8872 38.9738 25.866 38.6944 25.9596C38.4149 26.0533 38.1841 26.2541 38.0527 26.5179C37.3658 27.8993 37.3691 29.8068 37.9673 31.3053C37.5563 31.5457 37.1689 31.8244 36.8102 32.1376C36.015 31.3829 34.9595 30.9892 33.7225 31.046C33.11 31.0756 32.6364 31.5973 32.667 32.2109C32.6966 32.8234 33.2183 33.2828 33.8319 33.2675C34.58 33.2281 35.163 33.4818 35.5348 34.0156C35.9997 34.6839 36.0839 35.7142 35.7995 36.6231L35.7963 36.6253C35.0055 37.0803 34.323 37.4762 33.5027 37.2979C33.0772 37.205 32.8486 36.8123 32.3914 35.8673C31.9288 34.9124 31.3163 33.6842 29.9852 32.9043C30.3963 32.3311 30.6627 31.6669 30.7617 30.9684C31.6531 30.6928 33.1844 30.0956 34.3908 28.9428C36.2917 27.1271 36.05 24.6881 36.038 24.5842C36.023 24.44 35.9796 24.3001 35.9104 24.1727C35.8412 24.0453 35.7475 23.9328 35.6347 23.8418C35.5219 23.7507 35.3921 23.6828 35.253 23.6421C35.1139 23.6013 34.968 23.5884 34.8239 23.6042C34.5319 23.6343 34.2636 23.7783 34.0771 24.005C33.8906 24.2316 33.8009 24.5226 33.8275 24.815C33.8319 24.8751 33.9478 26.2915 32.8552 27.335C32.1005 28.0557 31.127 28.491 30.438 28.7339C30.164 28.144 29.7865 27.6079 29.3234 27.1512C29.1138 26.9525 28.8351 26.8431 28.5462 26.8462C28.2574 26.8493 27.9811 26.9647 27.7758 27.1679C27.5705 27.3711 27.4523 27.6461 27.4461 27.9349C27.44 28.2237 27.5465 28.5036 27.743 28.7153C28.3227 29.3004 28.6103 29.8856 28.6005 30.4576C28.5884 31.2025 28.0755 31.7975 27.7692 32.0873C27.7156 32.1376 27.6883 32.2021 27.6467 32.2612C26.6963 32.2907 25.8639 32.655 25.1573 32.9689C24.0198 33.4764 23.3844 33.7181 22.5138 33.2696C21.0908 32.5357 21.2253 31.2681 21.3489 30.7562C21.5863 29.7762 22.4645 28.7218 23.8306 28.7196C23.8416 28.7196 23.8525 28.7142 23.8634 28.7131C24.1511 29.3442 24.5809 29.8834 25.165 30.241C25.4164 30.3951 25.7186 30.443 26.0053 30.3741C26.2919 30.3053 26.5395 30.1254 26.6935 29.8741C26.8476 29.6227 26.8954 29.3205 26.8266 29.0338C26.7578 28.7472 26.5779 28.4996 26.3266 28.3456C25.6003 27.9004 25.4647 26.554 26.0313 25.4056C26.3266 24.8051 27.1819 23.5878 29.0653 23.9585C29.0532 24.4613 29.1062 24.9635 29.2228 25.4526C29.3727 26.0454 29.9742 26.402 30.5659 26.2554C31.1598 26.1089 31.523 25.5073 31.3797 24.9134C31.3163 24.6487 30.8175 22.307 32.8672 21.3598C33.7706 20.9409 34.5231 21.3182 35.5688 21.9406C36.0139 22.2053 36.4328 22.4546 36.8813 22.5662C37.4205 22.6975 37.9947 22.6537 38.5525 22.611C39.3794 22.5487 40.1636 22.4885 40.763 22.9523C41.6959 23.6742 42.198 24.4048 42.2559 25.1223C42.3084 25.7709 41.9967 26.461 41.3306 27.1753C41.231 27.2818 41.1534 27.407 41.1021 27.5436C41.0509 27.6802 41.0271 27.8255 41.032 27.9713C41.0369 28.1171 41.0705 28.2605 41.1308 28.3933C41.1912 28.5261 41.2771 28.6457 41.3837 28.7453C41.4902 28.845 41.6154 28.9226 41.752 28.9738C41.8886 29.0251 42.0339 29.0489 42.1797 29.044C42.3255 29.0391 42.4689 29.0055 42.6017 28.9451C42.7345 28.8848 42.8541 28.7989 42.9538 28.6923C43.4527 28.1714 43.8542 27.5654 44.1394 26.9029C44.6655 26.6678 45.2473 26.8121 45.6214 27.1075C45.9244 27.3459 46.3838 27.8928 46.048 28.8717C45.8281 29.5214 45.1467 30.1546 44.9072 30.3417C44.7894 30.4296 44.6902 30.5399 44.6153 30.6664C44.5405 30.7929 44.4915 30.933 44.4711 31.0785C44.4508 31.2241 44.4595 31.3722 44.4968 31.5144C44.5341 31.6565 44.5992 31.7899 44.6884 31.9067C44.7776 32.0235 44.8891 32.1215 45.0164 32.1949C45.1437 32.2684 45.2843 32.3158 45.4301 32.3346C45.5758 32.3533 45.7239 32.3429 45.8656 32.304C46.0073 32.2652 46.14 32.1986 46.2558 32.1081C46.7245 31.733 47.1416 31.2975 47.4961 30.8131C48.627 30.6643 49.2363 30.66 49.8181 31.3917C50.4109 32.1376 50.4186 33.3746 49.8345 34.3328C49.5108 34.8643 48.7452 35.7109 47.2205 35.4101C46.9333 35.3581 46.6372 35.4211 46.396 35.5854C46.1548 35.7498 45.9878 36.0023 45.9311 36.2886C45.8744 36.5749 45.9326 36.872 46.0929 37.1159C46.2533 37.3597 46.5031 37.5308 46.7884 37.5921Z" fill="#D96122"></path>
</svg>
