<?xml version="1.0" encoding="UTF-8"?>
<svg xmlns="http://www.w3.org/2000/svg" width="33" height="41" viewBox="0 0 33 41" fill="none">
  <path d="M32.3584 29.8963L28.5464 26.5183V5.64018C28.5464 5.43299 28.4641 5.23424 28.3176 5.08775L23.5158 0.285957C23.3693 0.139473 23.1706 0.0571289 22.9634 0.0571289H4.44434C4.01285 0.0571289 3.66309 0.406895 3.66309 0.838379V3.33057H1.1709C0.739414 3.33057 0.389648 3.68033 0.389648 4.11182V33.6428C0.389648 34.0743 0.739414 34.4241 1.1709 34.4241H13.9228C13.6413 35.8108 13.5039 37.4186 13.5039 39.2759C13.5039 39.6513 13.771 39.9737 14.1399 40.0435C14.1886 40.0528 14.2374 40.0572 14.2855 40.0572C14.6016 40.0572 14.8933 39.8646 15.0123 39.5613C16.58 35.5666 19.1906 34.7735 24.6747 34.711V36.1385C24.6747 36.4459 24.855 36.7247 25.1353 36.8509C25.4157 36.9771 25.744 36.9271 25.9741 36.7231L32.3584 31.0656C32.5257 30.9174 32.6215 30.7045 32.6215 30.481C32.6215 30.2574 32.5257 30.0446 32.3584 29.8963ZM23.7446 2.72447L25.879 4.859H23.7446V2.72447ZM5.22559 1.61963H22.1821V5.64018C22.1821 6.07166 22.5318 6.42143 22.9633 6.42143H26.9839V25.1337L25.9741 24.2388C25.7439 24.0349 25.4157 23.9849 25.1353 24.1111C24.855 24.2373 24.6747 24.5161 24.6747 24.8235V26.7642C20.721 26.8565 18.1537 27.6704 16.4118 29.368C16.3385 29.4396 16.267 29.5132 16.1964 29.5881H5.22559V1.61963ZM14.3314 32.8616H1.95215V4.89307H3.66309V30.3693C3.66309 30.8008 4.01285 31.1506 4.44434 31.1506H15.0671C14.7819 31.6671 14.5369 32.2362 14.3314 32.8616ZM26.2372 34.4024V33.9256C26.2372 33.4941 25.8875 33.1443 25.456 33.1443C22.3818 33.1443 19.9355 33.3103 17.9889 34.1203C16.8998 34.5735 15.9924 35.2212 15.2357 36.0975C16.0108 29.6089 19.4412 28.3178 25.4559 28.3178C25.8874 28.3178 26.2371 27.9681 26.2371 27.5366V26.5597L30.6622 30.481L26.2372 34.4024ZM9.64777 19.0208C9.64777 18.5893 9.99754 18.2396 10.429 18.2396H21.2051C21.6366 18.2396 21.9864 18.5893 21.9864 19.0208C21.9864 19.4523 21.6366 19.8021 21.2051 19.8021H10.429C9.99754 19.8021 9.64777 19.4523 9.64777 19.0208ZM10.429 24.7674C9.99754 24.7674 9.64777 24.4177 9.64777 23.9862C9.64777 23.5547 9.99754 23.2049 10.429 23.2049H21.2051C21.6366 23.2049 21.9864 23.5547 21.9864 23.9862C21.9864 24.4177 21.6366 24.7674 21.2051 24.7674H10.429ZM9.64777 14.0553C9.64777 13.6238 9.99754 13.2741 10.429 13.2741H21.2051C21.6366 13.2741 21.9864 13.6238 21.9864 14.0553C21.9864 14.4868 21.6366 14.8366 21.2051 14.8366H10.429C9.99754 14.8366 9.64777 14.4868 9.64777 14.0553ZM9.64777 9.08986C9.64777 8.65838 9.99754 8.30861 10.429 8.30861H21.2051C21.6366 8.30861 21.9864 8.65838 21.9864 9.08986C21.9864 9.52135 21.6366 9.87111 21.2051 9.87111H10.429C9.99754 9.87111 9.64777 9.52135 9.64777 9.08986Z" fill="#D96122"></path>
</svg>
