<?xml version="1.0" encoding="UTF-8"?>
<svg xmlns="http://www.w3.org/2000/svg" width="44" height="41" viewBox="0 0 44 41" fill="none">
  <path d="M5.20271 4.454C5.20271 4.93237 4.81494 5.32014 4.33657 5.32014C3.8582 5.32014 3.47043 4.93237 3.47043 4.454C3.47043 3.97563 3.8582 3.58786 4.33657 3.58786C4.81494 3.58786 5.20271 3.97563 5.20271 4.454ZM9.10035 4.454C9.10035 4.93237 8.71258 5.32014 8.23421 5.32014C7.75584 5.32014 7.36806 4.93237 7.36806 4.454C7.36806 3.97563 7.75584 3.58786 8.23421 3.58786C8.71258 3.58786 9.10035 3.97563 9.10035 4.454ZM12.998 4.454C12.998 4.93237 12.6102 5.32014 12.1318 5.32014C11.6535 5.32014 11.2657 4.93237 11.2657 4.454C11.2657 3.97563 11.6535 3.58786 12.1318 3.58786C12.6102 3.58786 12.998 3.97563 12.998 4.454ZM18.6279 30.9579C18.1497 30.9579 17.7618 31.3468 17.7618 31.8241C17.7618 32.3013 18.1497 32.6902 18.6279 32.6902C19.1052 32.6902 19.494 32.3013 19.494 31.8241C19.494 31.3468 19.1052 30.9579 18.6279 30.9579ZM17.3287 11.3831V24.1154C17.3287 24.5937 16.9408 24.9816 16.4626 24.9816H4.33657C3.85828 24.9816 3.47043 24.5937 3.47043 24.1154V11.3831C3.47043 10.9049 3.85828 10.517 4.33657 10.517H16.4626C16.9408 10.517 17.3287 10.9049 17.3287 11.3831ZM15.5964 12.2493H5.20271V23.2493H15.5964V12.2493ZM19.9271 12.8556H28.8484C29.3267 12.8556 29.7145 12.4677 29.7145 11.9894C29.7145 11.5111 29.3267 11.1233 28.8484 11.1233H19.9271C19.4488 11.1233 19.061 11.5111 19.061 11.9894C19.061 12.4677 19.4488 12.8556 19.9271 12.8556ZM19.9271 16.3201H27.1161C27.5944 16.3201 27.9822 15.9323 27.9822 15.454C27.9822 14.9757 27.5944 14.5879 27.1161 14.5879H19.9271C19.4488 14.5879 19.061 14.9757 19.061 15.454C19.061 15.9323 19.4488 16.3201 19.9271 16.3201ZM4.33657 26.7138C3.85828 26.7138 3.47043 27.1017 3.47043 27.58C3.47043 28.0583 3.85828 28.4461 4.33657 28.4461H10.3996C10.8778 28.4461 11.2657 28.0583 11.2657 27.58C11.2657 27.1017 10.8778 26.7138 10.3996 26.7138H4.33657ZM39.314 25.0647C38.9008 26.2357 38.9026 27.5323 39.314 28.7094C39.4768 29.1754 39.9965 29.4379 40.524 29.2049L41.5062 28.7475C42.6677 28.2088 44.0059 28.9797 44.0059 30.3005V33.9894C44.0059 34.9462 43.2303 35.7217 42.2736 35.7217H37.379L37.8597 36.7498C38.5578 38.2335 37.7379 39.8369 36.3596 40.3062C34.7661 40.8488 33.1064 40.8543 31.5575 40.3059C30.1856 39.8201 29.3597 38.2335 30.0571 36.7502L30.538 35.7216L25.6437 35.7217C24.6885 35.7217 23.9114 34.9446 23.9114 33.9894V32.6902H22.5255C22.0473 32.6902 21.6594 32.3013 21.6594 31.8241C21.6594 31.3468 22.0473 30.9579 22.5255 30.9579H23.9114V30.3009C23.9114 28.9798 25.2497 28.2086 26.4107 28.7472L27.3932 29.2046C27.9208 29.438 28.4405 29.1753 28.6033 28.7096C29.0146 27.5327 29.0161 26.2361 28.6033 25.0644C28.4561 24.6467 27.9403 24.3222 27.417 24.5584L26.375 25.0437C25.2497 25.5488 23.9114 24.8 23.9114 23.4338V19.7847C23.9114 18.828 24.6869 18.0524 25.6437 18.0524H30.538L30.0571 17.024C29.2954 15.2165 30.4611 13.8681 31.5575 13.4682C33.3831 12.8025 35.0049 13.1151 35.5177 13.2279V8.78471H1.73814V30.9579H14.6993C15.16 30.9579 15.5632 31.3044 15.5944 31.764C15.6287 32.2682 15.2274 32.6902 14.7304 32.6902H0.872001C0.393631 32.6902 0.00585938 32.3024 0.00585938 31.8241V2.72172C0.00585938 1.28661 1.16917 0.123291 2.60428 0.123291H34.6515C36.0866 0.123291 37.25 1.28661 37.25 2.72172V14.0083C37.9576 14.65 38.4097 15.72 37.8597 17.0243L37.379 18.0524H42.2736C43.2303 18.0524 44.0059 18.828 44.0059 19.7847V23.4338C44.0059 24.7997 42.6677 25.5489 41.5426 25.0439L40.5006 24.558C39.9766 24.3224 39.4612 24.6464 39.314 25.0647ZM35.5177 7.05242V2.72172C35.5177 2.24413 35.1291 1.85557 34.6515 1.85557H2.60428C2.12669 1.85557 1.73814 2.24413 1.73814 2.72172V7.05242H35.5177ZM37.6804 24.487C38.259 22.85 40.0692 22.4134 41.2316 22.9877L42.2736 23.4736V19.7847H37.379C36.0261 19.7847 35.3011 18.372 35.8104 17.3188L36.2911 16.2898C36.5207 15.7364 36.2164 15.2618 35.7844 15.1023C34.6404 14.6801 33.2406 14.7052 32.1325 15.1023C31.6994 15.2575 31.3965 15.7363 31.6263 16.2902L32.1072 17.3186C32.6161 18.3724 31.891 19.7848 30.538 19.7848H25.6437V23.4733L26.6856 22.988C27.8481 22.4139 29.6587 22.8498 30.2364 24.4868C30.7828 26.0351 30.7916 27.7423 30.2364 29.2875C29.7927 30.5222 28.3231 31.5057 26.6856 30.7862L25.6437 30.301L25.6437 33.9894H30.538C31.8883 33.9894 32.6203 35.4004 32.1072 36.4555L31.6263 37.484C31.3798 38.0212 31.7153 38.5454 32.1325 38.6719C33.397 39.055 34.3973 39.1053 35.7844 38.6719C36.2009 38.5417 36.5371 38.0214 36.2911 37.4844L35.8104 36.4554C35.2968 35.4005 36.0287 33.9895 37.379 33.9895H42.2736V30.3006L41.2316 30.7865C39.5937 31.5054 38.1248 30.5224 37.6804 29.2872C37.1252 27.742 37.1348 26.0348 37.6804 24.487Z" fill="#D96122"></path>
</svg>
