<?xml version="1.0" encoding="UTF-8"?>
<svg xmlns="http://www.w3.org/2000/svg" width="53" height="51" viewBox="0 0 53 51" fill="none">
  <path d="M26.545 30.4786C29.1535 30.4786 31.2745 28.3576 31.2745 25.7491C31.2745 23.1405 29.1535 21.0195 26.545 21.0195C23.9364 21.0195 21.8154 23.1405 21.8154 25.7491C21.8154 28.3576 23.9364 30.4786 26.545 30.4786ZM26.545 22.1946C28.5073 22.1946 30.0994 23.7867 30.0994 25.7491C30.0994 27.7114 28.5073 29.3035 26.545 29.3035C24.5826 29.3035 22.9905 27.7114 22.9905 25.7491C22.9905 23.7867 24.5826 22.1946 26.545 22.1946Z" fill="#D96122"></path>
  <path d="M26.5443 11.4245C29.6111 11.4245 32.1022 8.93337 32.1022 5.86652C32.1022 2.79967 29.6111 0.308594 26.5443 0.308594C23.4774 0.308594 20.9863 2.79967 20.9863 5.86652C20.9863 8.93337 23.4774 11.4245 26.5443 11.4245ZM22.555 7.67021H23.3305C23.3893 8.1461 23.4715 8.61611 23.5832 9.08613C23.1543 8.69249 22.8018 8.21072 22.555 7.67021ZM30.9271 5.86652C30.9271 6.08391 30.9036 6.28954 30.8743 6.49517H29.8755C29.8931 6.06628 29.8931 5.63152 29.8755 5.19675H30.8743C30.9095 5.41413 30.933 5.63739 30.933 5.86065L30.9271 5.86652ZM28.7005 6.49517H27.1318V5.19675H28.6946C28.7181 5.63152 28.7181 6.06041 28.6946 6.49517H28.7005ZM25.0461 9.97916C24.7993 9.21538 24.6231 8.44573 24.5114 7.67021H25.9567V10.2024C25.6395 10.1613 25.3398 10.0849 25.0461 9.97916ZM27.1318 7.67021H28.5888C28.4772 8.44573 28.3009 9.21538 28.0424 9.97916C27.7487 10.0849 27.449 10.1613 27.1318 10.2024V7.67021ZM27.1318 4.02171V1.52476C27.449 1.56588 27.7487 1.64226 28.0424 1.74802C28.2892 2.50591 28.4654 3.26381 28.5771 4.02171H27.1318ZM25.9567 4.02171H24.5232C24.6348 3.26381 24.8052 2.50591 25.0461 1.74802C25.334 1.64226 25.6395 1.56588 25.9567 1.52476V4.02171ZM25.9567 5.19675V6.49517H24.4057C24.3881 6.06628 24.3881 5.63152 24.4057 5.19675H25.9509H25.9567ZM23.2307 6.49517H22.2142C22.1849 6.28954 22.1614 6.07803 22.1614 5.86652C22.1614 5.63739 22.1849 5.42001 22.2201 5.20263H23.2365C23.213 5.63739 23.213 6.06628 23.2365 6.50104L23.2307 6.49517ZM29.523 9.07438C29.6346 8.61024 29.7169 8.14022 29.7756 7.67021H30.5335C30.2926 8.20485 29.946 8.68074 29.5171 9.07438H29.523ZM30.5218 4.02171H29.7639C29.6992 3.56345 29.617 3.10518 29.5112 2.64104C29.9342 3.02881 30.275 3.49295 30.5218 4.02171ZM23.5949 2.63517C23.4892 3.09931 23.4069 3.56345 23.3482 4.02171H22.5785C22.8253 3.49295 23.1719 3.02293 23.5949 2.63517Z" fill="#D96122"></path>
  <path d="M10.9755 26.3359C12.4326 26.3359 13.6194 25.1491 13.6194 23.6862C13.6194 22.8813 13.2316 22.1234 12.5912 21.624C12.5912 20.1611 11.4044 18.9743 9.94739 18.9743C9.68888 18.9743 9.43624 19.0154 9.18949 19.1036C8.60784 17.7993 7.29768 16.9121 5.83475 16.9121C3.80781 16.9121 2.16276 18.563 2.16276 20.5959C2.16276 20.7604 2.17451 20.9307 2.19801 21.0952C1.00535 21.3479 0.106445 22.4172 0.106445 23.6862C0.106445 25.1491 1.29323 26.3359 2.75028 26.3359H10.9755ZM1.28148 23.6862C1.28148 22.8754 1.9395 22.2115 2.75028 22.2115H2.93829C3.12629 22.2115 3.30842 22.1175 3.42005 21.9648C3.53168 21.8061 3.55518 21.6064 3.49643 21.4301C3.39068 21.1364 3.34367 20.8602 3.34367 20.5959C3.34367 19.2152 4.46584 18.0871 5.84063 18.0871C7.00392 18.0871 8.0262 18.9155 8.27883 20.0553C8.31996 20.2433 8.44921 20.402 8.63134 20.4725C8.81348 20.543 9.01323 20.5254 9.17774 20.4196C9.45975 20.2375 9.7065 20.1493 9.95914 20.1493C10.7699 20.1493 11.4279 20.8132 11.4221 21.6299C11.4044 21.6886 11.3927 21.7533 11.3809 21.8179C11.3457 22.0588 11.4632 22.2997 11.6806 22.4172C12.1682 22.6874 12.462 23.1633 12.462 23.6862C12.462 24.497 11.8039 25.1609 10.9932 25.1609H2.75028C1.9395 25.1609 1.28148 24.497 1.28148 23.6862Z" fill="#D96122"></path>
  <path d="M52.3947 17.5H44.7569C44.4338 17.5 44.1694 17.7644 44.1694 18.0875V19.2626H42.4069C42.0837 19.2626 41.8193 19.5269 41.8193 19.8501V29.8379C41.8193 30.161 42.0837 30.4254 42.4069 30.4254H50.6321C50.9553 30.4254 51.2196 30.161 51.2196 29.8379V28.6629H52.3947C52.7178 28.6629 52.9822 28.3985 52.9822 28.0753V18.0875C52.9822 17.7644 52.7178 17.5 52.3947 17.5ZM50.0446 29.2504H42.9944V20.4376H48.3349L50.0446 22.0944V29.2504ZM51.8072 27.4878H51.2196V21.8476C51.2196 21.689 51.155 21.5363 51.0434 21.4246L48.9871 19.4271C48.8754 19.3213 48.7286 19.2626 48.5758 19.2626H45.3444V18.675H51.8072V27.4878Z" fill="#D96122"></path>
  <path d="M43.583 23.9615C43.583 24.2847 43.8474 24.5491 44.1705 24.5491H48.8707C49.1938 24.5491 49.4582 24.2847 49.4582 23.9615C49.4582 23.6384 49.1938 23.374 48.8707 23.374H44.1705C43.8474 23.374 43.583 23.6384 43.583 23.9615Z" fill="#D96122"></path>
  <path d="M48.8707 25.1367H44.1705C43.8474 25.1367 43.583 25.4011 43.583 25.7242C43.583 26.0474 43.8474 26.3118 44.1705 26.3118H48.8707C49.1938 26.3118 49.4582 26.0474 49.4582 25.7242C49.4582 25.4011 49.1938 25.1367 48.8707 25.1367Z" fill="#D96122"></path>
  <path d="M9.02555 16.3127C9.11955 16.3655 9.21943 16.389 9.31931 16.389C9.52494 16.389 9.71882 16.2833 9.83045 16.0953C10.0243 15.7663 10.2241 15.4431 10.4297 15.1259C10.606 14.8556 10.5355 14.4914 10.2652 14.3092C9.99496 14.1271 9.6307 14.2035 9.44856 14.4737C9.22531 14.8086 9.0138 15.1553 8.80817 15.5078C8.64366 15.7898 8.74354 16.1482 9.01968 16.3127H9.02555Z" fill="#D96122"></path>
  <path d="M11.1582 13.7382C11.3286 13.7382 11.499 13.6677 11.6106 13.5208C12.0277 13.0097 12.4801 12.5103 12.956 12.0461C13.1852 11.817 13.1852 11.4469 12.956 11.2177C12.7269 10.9886 12.3568 10.9886 12.1276 11.2177C11.6282 11.7171 11.1465 12.24 10.6999 12.7864C10.4943 13.0391 10.5296 13.4092 10.7822 13.6148C10.8938 13.703 11.0231 13.75 11.1523 13.75L11.1582 13.7382Z" fill="#D96122"></path>
  <path d="M14.0777 10.8425C14.207 10.8425 14.3362 10.8013 14.4479 10.7132C14.9649 10.2961 15.5113 9.90242 16.0636 9.54404C16.3338 9.36778 16.4161 9.00352 16.2339 8.73326C16.0518 8.463 15.6934 8.38075 15.4232 8.55701C14.8356 8.93889 14.2599 9.35603 13.7076 9.79667C13.455 10.0023 13.4138 10.3724 13.6195 10.6251C13.737 10.772 13.9074 10.8425 14.0777 10.8425Z" fill="#D96122"></path>
  <path d="M17.5257 8.60915C17.6139 8.60915 17.7079 8.58565 17.7901 8.54452C18.1309 8.37414 18.4716 8.20963 18.8183 8.05688C19.1179 7.92762 19.253 7.58099 19.1238 7.28135C18.9945 6.98759 18.6479 6.84659 18.3483 6.97584C17.9781 7.14035 17.6139 7.31073 17.2555 7.49286C16.9676 7.63974 16.8501 7.99225 16.997 8.28601C17.1027 8.49164 17.3084 8.60915 17.5199 8.60915H17.5257Z" fill="#D96122"></path>
  <path d="M43.2591 16.1011C43.3649 16.2892 43.5646 16.3949 43.7702 16.3949C43.8701 16.3949 43.97 16.3714 44.064 16.3185C44.346 16.154 44.44 15.7956 44.2755 15.5136C44.0758 15.1611 43.8584 14.8204 43.6351 14.4796C43.4589 14.2093 43.0887 14.133 42.8185 14.3151C42.5482 14.4913 42.4718 14.8556 42.654 15.1317C42.8655 15.449 43.0652 15.7721 43.2532 16.1011H43.2591Z" fill="#D96122"></path>
  <path d="M37.026 9.54355C37.5841 9.90194 38.1247 10.2956 38.6417 10.7127C38.7533 10.8008 38.8826 10.842 39.0118 10.842C39.1822 10.842 39.3526 10.7656 39.4701 10.6246C39.6757 10.372 39.6346 10.0018 39.382 9.79618C38.8297 9.35554 38.2539 8.93841 37.6664 8.55652C37.3961 8.38026 37.0319 8.45664 36.8556 8.73277C36.6794 9.00303 36.7557 9.36729 37.026 9.54355Z" fill="#D96122"></path>
  <path d="M41.4792 13.5218C41.5967 13.6628 41.7612 13.7392 41.9316 13.7392C42.0608 13.7392 42.196 13.6981 42.3017 13.6041C42.5544 13.3985 42.5896 13.0283 42.384 12.7757C41.9375 12.2352 41.4616 11.7064 40.9563 11.207C40.7272 10.9779 40.357 10.9779 40.1279 11.207C39.8988 11.4361 39.8988 11.8121 40.1279 12.0354C40.5979 12.5054 41.0503 12.9989 41.4733 13.5101L41.4792 13.5218Z" fill="#D96122"></path>
  <path d="M34.2645 8.05676C34.6112 8.20951 34.9578 8.37402 35.2927 8.5444C35.3808 8.58552 35.469 8.60902 35.5571 8.60902C35.7686 8.60902 35.9742 8.49152 36.08 8.28589C36.2269 7.998 36.1152 7.64549 35.8215 7.49274C35.4631 7.31061 35.0988 7.14023 34.7287 6.97572C34.429 6.84647 34.0824 6.9816 33.9532 7.28123C33.8239 7.58087 33.9532 7.9275 34.2587 8.05676H34.2645Z" fill="#D96122"></path>
  <path d="M38.1011 32.1346C36.2563 33.4565 29.6937 40.1719 29.4293 40.4421C28.454 41.3645 27.1791 41.8757 25.8395 41.8757H20.217C19.9056 41.8757 18.8833 41.7699 18.8833 40.4832C18.8833 39.1966 20.0172 39.1202 20.2464 39.1143H26.1215C27.0322 39.0732 28.7595 38.4681 28.7595 36.4764C28.7595 35.8125 28.5539 35.3131 28.2425 34.9429C29.441 34.7079 30.6102 34.2673 31.4151 33.8032L32.1789 34.5846C32.3963 34.8078 32.7958 34.8078 33.019 34.5846L35.0342 32.5224C35.2575 32.2932 35.2575 31.929 35.0342 31.6998L34.2704 30.9184C34.8345 30.0137 35.234 29.0266 35.4631 27.975H36.5324C36.8555 27.975 37.1199 27.7106 37.1199 27.3874V24.4734C37.1199 24.1502 36.8555 23.8858 36.5324 23.8858H35.4631C35.234 22.8342 34.8345 21.853 34.2704 20.9424L35.0342 20.161C35.2575 19.9318 35.2575 19.5676 35.0342 19.3384L33.019 17.2762C32.8016 17.053 32.4021 17.053 32.1789 17.2762L31.4268 18.0459C30.5456 17.476 29.582 17.0706 28.5598 16.8356V15.7311C28.5598 15.4079 28.2954 15.1436 27.9722 15.1436H25.1169C24.7938 15.1436 24.5294 15.4079 24.5294 15.7311V16.8356C23.5071 17.0706 22.5436 17.476 21.6623 18.0459L20.9103 17.2762C20.6929 17.053 20.2934 17.053 20.0701 17.2762L18.0549 19.3384C17.8317 19.5676 17.8317 19.9318 18.0549 20.161L18.8187 20.9424C18.2547 21.8471 17.8552 22.8342 17.626 23.8858H16.5567C16.2336 23.8858 15.9692 24.1502 15.9692 24.4734V27.3874C15.9692 27.7106 16.2336 27.975 16.5567 27.975H17.626C17.8552 29.0266 18.2547 30.0078 18.8187 30.9184L18.0549 31.6998C17.8317 31.929 17.8317 32.2932 18.0549 32.5224L19.2182 33.7092C18.8304 33.5505 18.4309 33.3273 18.0255 33.0276C17.062 32.3109 15.9222 31.9348 14.7237 31.9348H14.1832C12.8377 31.9348 11.5335 32.4284 10.5229 33.3214L1.48101 41.2999C1.35763 41.4057 1.28713 41.5584 1.28125 41.7229C1.28125 41.8815 1.33413 42.0402 1.45163 42.1577L9.98828 50.8236C10.0999 50.9352 10.2468 50.9998 10.4054 50.9998C10.564 50.9998 10.7168 50.9352 10.8226 50.8177L12.6967 48.8671C13.296 48.3207 14.0774 48.0152 14.8823 48.0152H28.3835C29.676 48.0152 30.904 47.4512 31.7382 46.4701L40.3571 36.8876C42.1902 34.7549 42.0316 33.1099 41.2737 32.2756C40.4981 31.4296 39.1645 31.3708 38.0952 32.1405L38.1011 32.1346ZM18.6953 27.2934C18.6483 27.0114 18.4016 26.7999 18.1137 26.7999H17.1443V25.0609H18.1137C18.4016 25.0609 18.6483 24.8552 18.6953 24.5674C18.8951 23.3453 19.3533 22.2114 20.0584 21.2068C20.2229 20.9776 20.1935 20.6604 19.9937 20.4606L19.3005 19.7497L20.4931 18.5277L21.1746 19.2209C21.3803 19.4324 21.7034 19.4559 21.9384 19.2856C22.9196 18.5688 24.0241 18.1047 25.2226 17.899C25.5047 17.852 25.7103 17.6053 25.7103 17.3174V16.3186H27.3906V17.3174C27.3906 17.6053 27.5962 17.8461 27.8782 17.899C29.0709 18.1047 30.1754 18.5688 31.1625 19.2856C31.3975 19.4559 31.7265 19.4324 31.9262 19.2209L32.6078 18.5277L33.8004 19.7497L33.1071 20.4606C32.9074 20.6604 32.8839 20.9776 33.0425 21.2068C33.7475 22.2114 34.2058 23.3453 34.4056 24.5674C34.4526 24.8494 34.6993 25.0609 34.9872 25.0609H35.9566V26.7999H34.9872C34.6993 26.7999 34.4526 27.0056 34.4056 27.2934C34.2058 28.5155 33.7475 29.6494 33.0425 30.6541C32.878 30.8832 32.9074 31.2004 33.1071 31.4002L33.8004 32.1111L32.6078 33.3331L31.9262 32.6399C31.7206 32.4342 31.3975 32.4049 31.1625 32.5752C28.9005 34.1615 24.3707 34.6492 21.9443 32.5752C21.7093 32.4049 21.3861 32.4342 21.1805 32.6399L20.499 33.3331L19.3063 32.1111L19.9996 31.4002C20.1994 31.2004 20.2229 30.8832 20.0642 30.6541C19.3592 29.6494 18.9009 28.5155 18.7012 27.2934H18.6953ZM39.4817 36.1062L30.8628 45.6887C30.2459 46.4172 29.3412 46.8284 28.3953 46.8284H14.8882C13.7837 46.8284 12.7261 47.2397 11.8801 48.0152L10.3995 49.5545L2.72067 41.764L11.2984 34.1968C12.0975 33.4918 13.1198 33.104 14.1832 33.104H14.7237C15.6637 33.104 16.5626 33.4036 17.3205 33.9677C18.3957 34.7667 19.4415 35.1545 20.5284 35.1545H26.0393C26.2978 35.1545 27.5845 35.2485 27.5845 36.4764C27.5845 37.7865 26.3213 37.9217 26.0981 37.9393H20.2522C20.1406 37.9393 19.1301 37.9452 18.3957 38.6678C17.9374 39.1202 17.7083 39.7312 17.7083 40.4774C17.7083 41.2235 17.9433 41.8639 18.4074 42.3222C19.1301 43.039 20.1054 43.0448 20.2229 43.0448H25.8395C27.4787 43.0448 29.0415 42.4221 30.2518 41.2764C30.3164 41.2059 37.02 34.3495 38.7826 33.0923C39.3525 32.6869 40.0516 32.6751 40.41 33.0629C40.8095 33.5035 40.8036 34.5669 39.4817 36.1062Z" fill="#D96122"></path>
</svg>
