<?xml version="1.0" encoding="UTF-8"?>
<svg xmlns="http://www.w3.org/2000/svg" width="70" height="70" viewBox="0 0 70 70" fill="none">
  <path d="M38.6077 40.9337C38.8761 40.8898 39.116 40.741 39.2748 40.5202C39.4335 40.2994 39.4979 40.0245 39.454 39.7561C38.9751 36.8294 37.4654 34.149 35.2034 32.2087C32.9121 30.245 29.994 29.1657 26.9764 29.1658C20.003 29.1658 14.3299 34.8389 14.3299 41.8123C14.3299 48.7856 20.003 54.4587 26.9764 54.4587C32.7558 54.4587 37.7936 50.5534 39.2271 44.9616C39.2605 44.8311 39.2679 44.6954 39.2489 44.5621C39.2299 44.4288 39.1848 44.3005 39.1162 44.1846C39.0477 44.0687 38.9569 43.9675 38.8492 43.8867C38.7415 43.8059 38.6189 43.7471 38.4885 43.7136C38.3581 43.6802 38.2223 43.6727 38.089 43.6917C37.9557 43.7108 37.8275 43.7558 37.7116 43.8244C37.5957 43.893 37.4944 43.9837 37.4136 44.0914C37.3328 44.1992 37.274 44.3217 37.2405 44.4522C36.0396 49.1364 31.8188 52.4078 26.9764 52.4078C21.1338 52.4078 16.3807 47.6545 16.3807 41.8121C16.3807 35.9697 21.1338 31.2164 26.9764 31.2164C29.5042 31.2163 31.9487 32.1203 33.8682 33.7651C35.7641 35.3914 37.029 37.6366 37.4302 40.0873C37.4519 40.2202 37.4995 40.3475 37.5704 40.462C37.6414 40.5765 37.7342 40.6759 37.8435 40.7545C37.9529 40.8331 38.0767 40.8894 38.2078 40.9202C38.3389 40.9509 38.4748 40.9555 38.6077 40.9337Z" fill="#D96122"></path>
  <path d="M26.9764 33.7317C22.5207 33.7317 18.8958 37.3566 18.8958 41.8125C18.8958 46.2681 22.5207 49.8931 26.9764 49.8931C31.4322 49.8931 35.0571 46.2681 35.0571 41.8125C35.0571 37.3566 31.4322 33.7317 26.9764 33.7317ZM26.9764 47.8423C23.6515 47.8423 20.9465 45.1373 20.9465 41.8125C20.9465 38.4875 23.6515 35.7825 26.9764 35.7825C30.3014 35.7825 33.0064 38.4875 33.0064 41.8125C33.0064 45.1373 30.3014 47.8423 26.9764 47.8423Z" fill="#D96122"></path>
  <path d="M26.9764 37.8196C24.7747 37.8196 22.9835 39.6109 22.9835 41.8125C22.9835 44.014 24.7747 45.8053 26.9764 45.8053C29.1781 45.8053 30.9693 44.014 30.9693 41.8125C30.9693 39.6109 29.1781 37.8196 26.9764 37.8196ZM26.9764 43.7545C25.9055 43.7545 25.0343 42.8832 25.0343 41.8125C25.0343 40.7417 25.9055 39.8704 26.9764 39.8704C28.0473 39.8704 28.9185 40.7417 28.9185 41.8125C28.9185 42.8832 28.0473 43.7545 26.9764 43.7545Z" fill="#D96122"></path>
  <path d="M61.1357 43.2663V36.7773C61.1357 36.5054 61.0277 36.2446 60.8354 36.0523C60.6431 35.86 60.3823 35.752 60.1103 35.752C59.8384 35.752 59.5775 35.86 59.3852 36.0523C59.193 36.2446 59.0849 36.5054 59.0849 36.7773V41.983C57.7325 41.2827 56.2796 40.7966 54.778 40.542V24.8965C54.778 24.1049 54.1341 23.4609 53.3425 23.4609H50.9875L56.9242 15.3917L62.7595 23.4609H60.5205C59.7289 23.4609 59.0849 24.1049 59.0849 24.8965V31.9922C59.0849 32.2641 59.193 32.5249 59.3852 32.7172C59.5775 32.9095 59.8384 33.0176 60.1103 33.0176C60.3823 33.0176 60.6431 32.9095 60.8354 32.7172C61.0277 32.5249 61.1357 32.2641 61.1357 31.9922V25.5117H63.9637C64.5055 25.5117 64.9954 25.212 65.2421 24.7294C65.4887 24.2468 65.4445 23.6742 65.1271 23.2348L58.0918 13.5066C57.9591 13.3236 57.7851 13.1744 57.584 13.0712C57.383 12.9679 57.1604 12.9134 56.9343 12.9121H56.9286C56.7036 12.9125 56.4817 12.9656 56.2809 13.0671C56.0801 13.1687 55.9059 13.3158 55.7722 13.4969L48.6146 23.2255C48.4566 23.439 48.3612 23.6923 48.3391 23.957C48.3171 24.2218 48.3692 24.4874 48.4898 24.7241C48.6089 24.9615 48.792 25.161 49.0183 25.3001C49.2446 25.4392 49.5052 25.5125 49.7708 25.5117H52.7271V40.339C52.5809 40.3346 52.4347 40.3322 52.2885 40.332C51.8641 40.332 51.4441 40.3509 51.0286 40.386C50.9955 39.8091 50.9448 39.2331 50.8702 38.6632C50.734 37.6227 49.8369 36.8379 48.7836 36.8379H43.7149C43.692 36.8379 43.6725 36.8214 43.6648 36.7959C43.3284 35.6745 42.8794 34.59 42.3247 33.559C42.3119 33.5352 42.314 33.5094 42.3302 33.4932L45.9128 29.9106C46.6575 29.1659 46.7368 27.9766 46.0973 27.1441C45.7461 26.688 45.3787 26.2446 44.9959 25.8147V12.5997H47.8238C48.3658 12.5997 48.8556 12.2999 49.1023 11.8173C49.2233 11.582 49.2766 11.3177 49.2562 11.0538C49.2359 10.79 49.1428 10.537 48.9871 10.3229L41.9524 0.594453C41.8197 0.41151 41.6458 0.262373 41.4447 0.159103C41.2437 0.0558336 41.0211 0.00132991 40.7951 0L40.7891 0C40.5641 0.000382366 40.3423 0.0534735 40.1414 0.155018C39.9406 0.256563 39.7664 0.403737 39.6327 0.584746L32.4751 10.3134C32.317 10.5269 32.2216 10.7802 32.1996 11.0449C32.1775 11.3096 32.2297 11.5752 32.3503 11.812C32.4694 12.0494 32.6525 12.2488 32.8788 12.388C33.105 12.5271 33.3657 12.6004 33.6313 12.5996H36.5876V25.1661L35.2954 26.4582C35.2793 26.4742 35.2535 26.4764 35.2297 26.4637C34.1986 25.9089 33.1141 25.4599 31.9926 25.1236C31.9672 25.1159 31.9508 25.0964 31.9508 25.0735V20.0048C31.9508 18.9515 31.166 18.0545 30.1254 17.9182C28.0348 17.646 25.9177 17.646 23.8271 17.9182C22.7865 18.0544 22.0017 18.9514 22.0017 20.0048V25.0735C22.0017 25.0964 21.9853 25.1159 21.9598 25.1236C20.8384 25.46 19.7539 25.909 18.7228 26.4637C18.699 26.4764 18.673 26.4744 18.6572 26.4582L15.0746 22.8756C14.3299 22.1308 13.1404 22.0515 12.3081 22.6911C10.6365 23.9754 9.13954 25.4724 7.85517 27.144C7.21574 27.9765 7.29504 29.1658 8.03974 29.9105L11.6223 33.4931C11.6385 33.5092 11.6406 33.5351 11.6278 33.5588C11.0731 34.5899 10.6242 35.6744 10.2878 36.7958C10.2802 36.8212 10.2606 36.8378 10.2378 36.8378H5.16906C4.11578 36.8378 3.21863 37.6225 3.08246 38.6631C2.94604 39.7073 2.87753 40.7592 2.87738 41.8123C2.87738 42.8623 2.94642 43.9219 3.08246 44.9615C3.21863 46.002 4.11578 46.7868 5.16906 46.7868H10.2378C10.2606 46.7868 10.2802 46.8033 10.2878 46.8288C10.6242 47.9502 11.0732 49.0347 11.6279 50.0657C11.6408 50.0895 11.6386 50.1152 11.6225 50.1313L8.03974 53.7141C7.29504 54.4588 7.21574 55.6481 7.85531 56.4806C9.13968 58.1522 10.6366 59.6491 12.3082 60.9335C13.1406 61.5731 14.33 61.4936 15.0747 60.7489L18.6573 57.1663C18.6736 57.1502 18.6993 57.148 18.7231 57.1609C19.7541 57.7156 20.8386 58.1645 21.96 58.5009C21.9856 58.5085 22.002 58.5281 22.002 58.5509V63.6196C22.002 64.6729 22.7866 65.5699 23.8273 65.7062C24.8671 65.8424 25.9267 65.9113 26.9764 65.9113C28.0261 65.9113 29.0857 65.8424 30.1257 65.7062C31.1661 65.5698 31.9509 64.6728 31.9509 63.6196V58.5509C31.9509 58.5281 31.9674 58.5085 31.9927 58.5009C33.1142 58.1645 34.1987 57.7156 35.2297 57.1609C35.2536 57.148 35.2793 57.1501 35.2956 57.1663L38.3377 60.2085C40.406 65.9132 45.8787 70 52.2886 70C60.4681 70 67.1226 63.3455 67.1226 55.166C67.1226 50.2994 64.7667 45.9728 61.1357 43.2663ZM34.848 10.5489L40.7848 2.47967L46.6201 10.5489H44.3811C43.5895 10.5489 42.9455 11.1929 42.9455 11.9845V23.7666C42.5246 23.3932 42.0907 23.0345 41.6448 22.6912C40.8125 22.0516 39.623 22.1309 38.8783 22.8758L38.6386 23.1154V11.9845C38.6386 11.1929 37.9947 10.5489 37.2031 10.5489H34.848ZM37.514 56.4847L36.7456 55.7163C36.0846 55.0553 35.0849 54.9101 34.2576 55.3552C33.3486 55.8442 32.3924 56.24 31.4037 56.5366C30.5043 56.8064 29.9001 57.6159 29.9001 58.551V63.6197C29.9001 63.6461 29.8818 63.6701 29.8595 63.6729C27.9456 63.922 26.0075 63.922 24.0937 63.6729C24.0711 63.6701 24.0529 63.6461 24.0529 63.6197V58.551C24.0529 57.6159 23.4486 56.8064 22.5492 56.5366C21.5605 56.2401 20.6043 55.8443 19.6953 55.3552C19.3861 55.1877 19.0401 55.0998 18.6885 55.0993C18.146 55.0993 17.6128 55.3107 17.2073 55.7163L13.6247 59.2989C13.606 59.3176 13.5758 59.3213 13.5574 59.3074C12.0273 58.1317 10.6571 56.7615 9.48144 55.2314C9.46736 55.213 9.47119 55.183 9.48978 55.1642L13.0724 51.5817C13.7335 50.9205 13.8786 49.9205 13.4334 49.0937C12.9444 48.1846 12.5486 47.2285 12.252 46.2398C11.9823 45.3403 11.1728 44.736 10.2376 44.736H5.16906C5.14267 44.736 5.11888 44.7178 5.11588 44.6953C4.99119 43.7436 4.92802 42.7737 4.92802 41.8124C4.92802 40.8512 4.99119 39.8813 5.11588 38.9296C5.11875 38.907 5.14267 38.8888 5.16906 38.8888H10.2378C11.1729 38.8888 11.9824 38.2845 12.2522 37.3852C12.5487 36.3965 12.9445 35.4403 13.4336 34.5313C13.8787 33.7043 13.7337 32.7045 13.0725 32.0433L9.48992 28.4607C9.47119 28.442 9.4675 28.4119 9.48158 28.3937C10.6572 26.8636 12.0274 25.4933 13.5576 24.3178C13.5759 24.3037 13.606 24.3075 13.6247 24.3261L17.2073 27.9087C17.8685 28.5698 18.8684 28.7148 19.6953 28.2697C20.6043 27.7807 21.5604 27.3849 22.549 27.0884C23.4485 26.8188 24.0529 26.0092 24.0529 25.0739V20.0052C24.0529 19.9788 24.0711 19.9551 24.0937 19.9521C26.0075 19.7028 27.9456 19.7028 29.8595 19.9521C29.8819 19.9549 29.9003 19.9788 29.9003 20.0052V25.0739C29.9003 26.0092 30.5045 26.8188 31.4039 27.0884C32.3926 27.385 33.3487 27.7808 34.2578 28.2697C35.0845 28.715 36.0846 28.57 36.7458 27.9088L40.3285 24.3261C40.3472 24.3075 40.377 24.3038 40.3955 24.3178C41.9256 25.4933 43.2959 26.8636 44.4715 28.3937C44.4855 28.4121 44.4819 28.4421 44.4631 28.4609L40.8805 32.0435C40.2194 32.7046 40.0743 33.7045 40.5195 34.5315C41.0085 35.4405 41.4043 36.3966 41.7009 37.3853C41.9706 38.2847 42.7801 38.889 43.7153 38.889H48.784C48.8104 38.889 48.8342 38.9073 48.8372 38.9297C48.9139 39.5155 48.9642 40.1084 48.9936 40.7017C42.3948 42.2043 37.4549 48.119 37.4549 55.1663C37.4546 55.6104 37.4754 56.05 37.514 56.4847ZM52.2886 67.9492C45.24 67.9492 39.5054 62.2147 39.5054 55.166C39.5054 48.1173 45.24 42.3828 52.2886 42.3828C59.3373 42.3828 65.0718 48.1173 65.0718 55.166C65.0718 62.2147 59.3373 67.9492 52.2886 67.9492Z" fill="#D96122"></path>
  <path d="M61.5248 53.6252C61.5468 53.758 61.5948 53.8853 61.666 53.9996C61.7373 54.1138 61.8303 54.213 61.9398 54.2913C62.0494 54.3696 62.1733 54.4256 62.3045 54.456C62.4357 54.4864 62.5716 54.4906 62.7044 54.4685C62.8372 54.4464 62.9644 54.3984 63.0787 54.3271C63.193 54.2559 63.2921 54.1629 63.3704 54.0533C63.4487 53.9438 63.5047 53.8199 63.5351 53.6887C63.5655 53.5576 63.5698 53.4217 63.5477 53.2889C63.1098 50.6547 61.7444 48.2412 59.7029 46.4929C57.6375 44.724 55.008 43.7512 52.2886 43.75C45.9938 43.75 40.8726 48.8712 40.8726 55.166C40.8726 61.4608 45.9938 66.582 52.2886 66.582C54.7714 66.582 57.1338 65.7954 59.1205 64.3072C61.0399 62.8693 62.4863 60.8234 63.1936 58.5464C63.2692 58.2882 63.2402 58.0106 63.113 57.7735C62.9858 57.5364 62.7705 57.3588 62.5135 57.279C62.2566 57.1992 61.9785 57.2235 61.7394 57.3468C61.5002 57.4702 61.3191 57.6825 61.2351 57.9381C60.655 59.806 59.4673 61.4849 57.891 62.666C56.262 63.8862 54.3247 64.5312 52.2886 64.5312C47.1246 64.5312 42.9234 60.33 42.9234 55.166C42.9234 50.002 47.1246 45.8008 52.2886 45.8008C54.5188 45.8019 56.6752 46.5998 58.3691 48.0505C60.0451 49.4859 61.1658 51.4657 61.5248 53.6252Z" fill="#D96122"></path>
  <path d="M52.2886 46.8263C52.0167 46.8263 51.7559 46.9343 51.5636 47.1266C51.3713 47.3189 51.2632 47.5797 51.2632 47.8517V55.166C51.2632 55.3505 51.313 55.5316 51.4074 55.6902C51.5017 55.8488 51.6371 55.979 51.7992 56.067C51.9614 56.1551 52.1443 56.1978 52.3287 56.1906C52.5131 56.1834 52.6921 56.1265 52.8469 56.0261L57.5079 53.0005C57.7327 52.851 57.8895 52.6188 57.9442 52.3544C57.9989 52.0901 57.9472 51.8147 57.8002 51.5883C57.6532 51.3618 57.4228 51.2024 57.159 51.1447C56.8953 51.0871 56.6194 51.1357 56.3913 51.2802L53.3139 53.2778V47.8517C53.3139 47.717 53.2874 47.5837 53.2359 47.4593C53.1844 47.3349 53.1089 47.2218 53.0136 47.1266C52.9184 47.0314 52.8054 46.9559 52.681 46.9043C52.5566 46.8528 52.4233 46.8263 52.2886 46.8263Z" fill="#D96122"></path>
</svg>
