<?xml version="1.0" encoding="UTF-8"?>
<svg xmlns="http://www.w3.org/2000/svg" width="70" height="70" viewBox="0 0 70 70" fill="none">
  <path d="M63.4375 1.09375H15.3125C12.297 1.09375 9.84375 3.54703 9.84375 6.5625V60.1562H2.1875C1.89742 60.1562 1.61922 60.2715 1.4141 60.4766C1.20898 60.6817 1.09375 60.9599 1.09375 61.25V63.4375C1.09375 66.453 3.54703 68.9062 6.5625 68.9062H51.4062C54.4217 68.9062 56.875 66.453 56.875 63.4375V58.1755C63.852 55.872 68.9062 49.3008 68.9062 41.5625C68.9062 33.8242 63.852 27.253 56.875 24.9495V9.84375H67.8125C68.1026 9.84375 68.3808 9.72852 68.5859 9.5234C68.791 9.31828 68.9062 9.04008 68.9062 8.75V6.5625C68.9062 3.54703 66.453 1.09375 63.4375 1.09375ZM6.5625 66.7188C4.75344 66.7188 3.28125 65.2466 3.28125 63.4375V62.3438H41.5625V63.4375C41.5615 64.6213 41.9463 65.7732 42.6584 66.7188H6.5625ZM66.7188 41.5625C66.7188 50.0062 59.85 56.875 51.4062 56.875C42.9625 56.875 36.0938 50.0062 36.0938 41.5625C36.0938 33.1188 42.9625 26.25 51.4062 26.25C59.85 26.25 66.7188 33.1188 66.7188 41.5625ZM51.4062 24.0625C48.3416 24.0625 45.4606 24.8598 42.9527 26.25H32.8125V28.4375H39.8705C39.1077 29.1047 38.404 29.8366 37.7672 30.625H29.5312V32.8125H36.2742C35.8639 33.5157 35.5032 34.2466 35.1947 35H29.5312V37.1875H34.4827C34.1056 38.6155 33.9119 40.0856 33.9062 41.5625H29.5312V43.75H34.0583C34.1523 44.4959 34.2978 45.2233 34.4827 45.9375H29.5312V48.125H35.1947C35.5031 48.883 35.8673 49.6114 36.2742 50.3125H29.5312V52.5H37.7672C40.9773 56.4955 45.8948 59.0625 51.4062 59.0625C52.5284 59.0625 53.6233 58.9466 54.6875 58.7431V63.4375C54.6875 65.2466 53.2153 66.7188 51.4062 66.7188H47.0312C45.2222 66.7188 43.75 65.2466 43.75 63.4375V61.25C43.75 60.9599 43.6348 60.6817 43.4296 60.4766C43.2245 60.2715 42.9463 60.1562 42.6562 60.1562H12.0312V6.5625C12.0312 4.75344 13.5034 3.28125 15.3125 3.28125H55.8097C55.0858 4.2223 54.6915 5.37527 54.6875 6.5625V24.3819C53.6063 24.1721 52.5076 24.0652 51.4062 24.0625ZM66.7188 7.65625H56.875V6.5625C56.875 4.75344 58.3472 3.28125 60.1562 3.28125H63.4375C65.2466 3.28125 66.7188 4.75344 66.7188 6.5625V7.65625Z" fill="#D96122"></path>
  <path d="M44.5233 39.6955C44.4218 39.5938 44.3013 39.5132 44.1686 39.4581C44.0359 39.4031 43.8936 39.3748 43.75 39.3748C43.6064 39.3748 43.4641 39.4031 43.3314 39.4581C43.1987 39.5132 43.0782 39.5938 42.9767 39.6955L39.6955 42.9767C39.5938 43.0782 39.5132 43.1987 39.4581 43.3314C39.4031 43.4641 39.3748 43.6064 39.3748 43.75C39.3748 43.8936 39.4031 44.0359 39.4581 44.1686C39.5132 44.3013 39.5938 44.4218 39.6955 44.5233L47.3517 52.1795C47.4531 52.2815 47.5735 52.3623 47.7063 52.4175C47.839 52.4727 47.9813 52.5011 48.125 52.5011C48.2687 52.5011 48.411 52.4727 48.5437 52.4175C48.6765 52.3623 48.7969 52.2815 48.8983 52.1795L63.117 37.9608C63.2187 37.8593 63.2993 37.7388 63.3544 37.6061C63.4094 37.4734 63.4377 37.3311 63.4377 37.1875C63.4377 37.0439 63.4094 36.9016 63.3544 36.7689C63.2993 36.6362 63.2187 36.5157 63.117 36.4142L59.8358 33.133C59.7343 33.0313 59.6138 32.9507 59.4811 32.8956C59.3484 32.8406 59.2061 32.8123 59.0625 32.8123C58.9189 32.8123 58.7766 32.8406 58.6439 32.8956C58.5112 32.9507 58.3907 33.0313 58.2892 33.133L48.125 43.2972L44.5233 39.6955ZM59.0625 35.4528L60.7972 37.1875L48.125 49.8597L42.0153 43.75L43.75 42.0153L47.3517 45.617C47.4532 45.7187 47.5737 45.7993 47.7064 45.8544C47.8391 45.9094 47.9814 45.9377 48.125 45.9377C48.2686 45.9377 48.4109 45.9094 48.5436 45.8544C48.6763 45.7993 48.7968 45.7187 48.8983 45.617L59.0625 35.4528ZM26.25 9.84375H15.3125C15.0224 9.84375 14.7442 9.95898 14.5391 10.1641C14.334 10.3692 14.2188 10.6474 14.2188 10.9375V21.875C14.2188 22.1651 14.334 22.4433 14.5391 22.6484C14.7442 22.8535 15.0224 22.9688 15.3125 22.9688H26.25C26.5401 22.9688 26.8183 22.8535 27.0234 22.6484C27.2285 22.4433 27.3438 22.1651 27.3438 21.875V10.9375C27.3438 10.6474 27.2285 10.3692 27.0234 10.1641C26.8183 9.95898 26.5401 9.84375 26.25 9.84375ZM25.1562 20.7812H16.4062V12.0312H25.1562V20.7812ZM32.8125 10.9375H52.5V13.125H32.8125V10.9375ZM29.5312 15.3125H52.5V17.5H29.5312V15.3125ZM29.5312 19.6875H52.5V21.875H29.5312V19.6875ZM26.25 25.1562H15.3125C15.0224 25.1562 14.7442 25.2715 14.5391 25.4766C14.334 25.6817 14.2188 25.9599 14.2188 26.25V37.1875C14.2188 37.4776 14.334 37.7558 14.5391 37.9609C14.7442 38.166 15.0224 38.2812 15.3125 38.2812H26.25C26.5401 38.2812 26.8183 38.166 27.0234 37.9609C27.2285 37.7558 27.3438 37.4776 27.3438 37.1875V26.25C27.3438 25.9599 27.2285 25.6817 27.0234 25.4766C26.8183 25.2715 26.5401 25.1562 26.25 25.1562ZM25.1562 36.0938H16.4062V27.3438H25.1562V36.0938ZM26.25 40.4688H15.3125C15.0224 40.4688 14.7442 40.584 14.5391 40.7891C14.334 40.9942 14.2188 41.2724 14.2188 41.5625V52.5C14.2188 52.7901 14.334 53.0683 14.5391 53.2734C14.7442 53.4785 15.0224 53.5938 15.3125 53.5938H26.25C26.5401 53.5938 26.8183 53.4785 27.0234 53.2734C27.2285 53.0683 27.3438 52.7901 27.3438 52.5V41.5625C27.3438 41.2724 27.2285 40.9942 27.0234 40.7891C26.8183 40.584 26.5401 40.4688 26.25 40.4688ZM25.1562 51.4062H16.4062V42.6562H25.1562V51.4062Z" fill="#D96122"></path>
</svg>
