<?xml version="1.0" encoding="UTF-8"?>
<svg xmlns="http://www.w3.org/2000/svg" width="41" height="41" viewBox="0 0 41 41" fill="none">
  <g clip-path="url(#clip0_243_3775)">
    <path d="M26.7262 0.0571289C19.1281 0.0571289 12.9465 6.23863 12.9465 13.8368C12.9465 16.9632 13.9938 19.8491 15.7549 22.1639L12.9635 24.9553C12.946 24.9729 12.9296 24.9914 12.9143 25.0109C12.6834 24.9627 12.4481 24.9383 12.2122 24.9383C11.3007 24.9383 10.4437 25.2933 9.79897 25.938L1.50534 34.2317C0.860761 34.8761 0.505859 35.733 0.505859 36.6445C0.505859 37.5561 0.860761 38.4131 1.50525 39.0573C2.15 39.7021 3.00702 40.0571 3.91847 40.0571C4.82991 40.0571 5.68693 39.7021 6.33168 39.0573L14.6253 30.7637C15.2699 30.1194 15.6248 29.2624 15.6248 28.3508C15.6248 28.1119 15.5998 27.877 15.5522 27.6485C15.5714 27.6333 15.59 27.6172 15.6077 27.5995L18.399 24.8081C20.7139 26.5693 23.5998 27.6165 26.7262 27.6165C34.3243 27.6165 40.5059 21.435 40.5059 13.8368C40.5059 6.23863 34.3243 0.0571289 26.7262 0.0571289ZM5.41522 38.141C5.01531 38.541 4.48382 38.7612 3.91847 38.7612C3.35311 38.7612 2.82162 38.541 2.42162 38.141C2.02188 37.7414 1.80175 37.21 1.80175 36.6445C1.80175 36.0791 2.02188 35.5477 2.42171 35.148L9.9118 27.658L12.9051 30.6512L5.41522 38.141ZM13.8168 29.7303L10.8339 26.7474C11.2171 26.417 11.7062 26.2353 12.2122 26.2354C12.7542 26.2354 13.2964 26.4418 13.709 26.8545C14.1088 27.2541 14.3289 27.7855 14.3289 28.3509C14.3302 28.8574 14.1483 29.3473 13.8168 29.7303ZM14.9965 26.378C14.8853 26.2213 14.7612 26.0741 14.6254 25.9381C14.4892 25.8023 14.3418 25.6781 14.185 25.5667L16.5902 23.1615C16.8494 23.443 17.1202 23.7138 17.4017 23.9729L14.9965 26.378ZM26.7262 26.3206C19.8426 26.3206 14.2424 20.7204 14.2424 13.8368C14.2424 6.95319 19.8426 1.35302 26.7262 1.35302C33.6098 1.35302 39.21 6.95319 39.21 13.8368C39.21 20.7204 33.6098 26.3206 26.7262 26.3206Z" fill="#D96122"></path>
    <path d="M26.726 2.82172C20.6523 2.82172 15.7109 7.76304 15.7109 13.8368C15.7109 19.9106 20.6523 24.8519 26.726 24.8519C32.7998 24.8519 37.7411 19.9106 37.7411 13.8368C37.7411 7.76304 32.7998 2.82172 26.726 2.82172ZM26.726 23.556C21.3669 23.556 17.0068 19.196 17.0068 13.8368C17.0068 8.4776 21.3669 4.11761 26.726 4.11761C32.0851 4.11761 36.4452 8.4776 36.4452 13.8368C36.4452 19.196 32.0851 23.556 26.726 23.556Z" fill="#D96122"></path>
    <path d="M31.2253 6.92001C31.154 6.87354 31.0743 6.84157 30.9907 6.82592C30.907 6.81027 30.8211 6.81125 30.7379 6.82881C30.6546 6.84636 30.5756 6.88014 30.5054 6.92822C30.4352 6.97631 30.3752 7.03775 30.3287 7.10903C30.2349 7.253 30.2021 7.42833 30.2376 7.59647C30.273 7.76461 30.3738 7.91179 30.5178 8.00562C32.4982 9.29633 33.6806 11.4762 33.6806 13.8368C33.6806 15.4495 33.1161 17.0212 32.0911 18.2624C31.9816 18.3949 31.9293 18.5654 31.9456 18.7365C31.962 18.9076 32.0456 19.0651 32.1781 19.1746C32.3106 19.284 32.4811 19.3363 32.6522 19.32C32.8233 19.3037 32.9809 19.2201 33.0903 19.0876C34.3066 17.6148 34.9765 15.75 34.9765 13.8369C34.9766 11.0365 33.5743 8.45089 31.2253 6.92001ZM28.2254 5.72234C27.7308 5.63176 27.2289 5.58622 26.7261 5.58627C26.3681 5.58627 26.0781 5.87638 26.0781 6.23422C26.0781 6.59206 26.3681 6.88217 26.7261 6.88217C27.1513 6.88217 27.577 6.92078 27.9913 6.9969C28.1603 7.02786 28.3347 6.99047 28.4761 6.89293C28.6176 6.7954 28.7145 6.6457 28.7457 6.47672C28.7767 6.3077 28.7393 6.13327 28.6418 5.9918C28.5442 5.85033 28.3944 5.7534 28.2254 5.72234Z" fill="#D96122"></path>
  </g>
  <defs>
    <clipPath id="clip0_243_3775">
      <rect width="40" height="40" fill="white" transform="translate(0.505859 0.0571289)"></rect>
    </clipPath>
  </defs>
</svg>
