<?xml version="1.0" encoding="UTF-8"?>
<svg version="1.1" xmlns="http://www.w3.org/2000/svg" width="65" height="65">
<path d="M0 0 C0.99 0.66 1.98 1.32 3 2 C3.99 1.67 4.98 1.34 6 1 C6.66 1.33 7.32 1.66 8 2 C8 3.32 8 4.64 8 6 C9.32 6.33 10.64 6.66 12 7 C12 8.32 12 9.64 12 11 C11.34 11 10.68 11 10 11 C10 11.99 10 12.98 10 14 C10.66 14 11.32 14 12 14 C11.67 15.32 11.34 16.64 11 18 C10.01 18 9.02 18 8 18 C8 19.32 8 20.64 8 22 C7.01 22.495 7.01 22.495 6 23 C5.67 29.93 5.34 36.86 5 44 C0.75197923 46.12401038 -2.16761063 46.2376107 -6.75 46.125 C-7.44738281 46.11597656 -8.14476562 46.10695312 -8.86328125 46.09765625 C-10.57566958 46.07419888 -12.28788004 46.03833104 -14 46 C-14 48.31 -14 50.62 -14 53 C-12.68 53.33 -11.36 53.66 -10 54 C-10 54.99 -10 55.98 -10 57 C-14.42033109 57.65486387 -18.78125725 58.11739636 -23.25 58.25 C-24.46429687 58.28867188 -24.46429687 58.28867188 -25.703125 58.328125 C-28.5174599 57.92607716 -29.88295002 56.8451353 -32 55 C-31.67 52.69 -31.34 50.38 -31 48 C-31.91523438 48.01160156 -32.83046875 48.02320313 -33.7734375 48.03515625 C-35.55621094 48.04869141 -35.55621094 48.04869141 -37.375 48.0625 C-38.55835938 48.07410156 -39.74171875 48.08570313 -40.9609375 48.09765625 C-44 48 -44 48 -46 47 C-47.02740134 40.49745985 -47.1536987 34.07200273 -47.125 27.5 C-47.12886719 26.61441406 -47.13273437 25.72882812 -47.13671875 24.81640625 C-47.13041465 20.52331153 -47.02041008 16.24918448 -46.6796875 11.96875 C-46.62280762 11.25138672 -46.56592773 10.53402344 -46.50732422 9.79492188 C-46 8 -46 8 -43 6 C-39.87719727 5.95654297 -39.87719727 5.95654297 -36.06640625 6.2421875 C-35.39206039 6.28940948 -34.71771454 6.33663147 -34.02293396 6.38528442 C-31.86856527 6.53824795 -29.71568095 6.70620793 -27.5625 6.875 C-25.41274967 7.03334946 -23.26279827 7.18865965 -21.11277771 7.34329224 C-19.15888377 7.48545878 -17.20552199 7.63488348 -15.25219727 7.78466797 C-12.83901663 7.94444766 -10.41846446 8 -8 8 C-5.9492907 5.77351562 -4.35358597 3.70717195 -3 1 C-2.01 0.67 -1.02 0.34 0 0 Z " fill="#E3E2E5" transform="translate(50,3)"/>
<path d="M0 0 C26.35535308 1.03644647 26.35535308 1.03644647 38 2 C38 2.99 38 3.98 38 5 C37.34 5 36.68 5 36 5 C36 5.66 36 6.32 36 7 C27.09 7 18.18 7 9 7 C9 13.27 9 19.54 9 26 C19.23 26 29.46 26 40 26 C40.33 21.71 40.66 17.42 41 13 C42.65 12.34 44.3 11.68 46 11 C46 17.6 46 24.2 46 31 C30.64442621 32.14808028 15.40134186 32.07163415 0 32 C0 21.44 0 10.88 0 0 Z " fill="#3F5473" transform="translate(7,12)"/>
<path d="M0 0 C16.94283234 0.05344742 16.94283234 0.05344742 21.1015625 2.1328125 C20.7715625 2.7928125 20.4415625 3.4528125 20.1015625 4.1328125 C19.1115625 3.8028125 18.1215625 3.4728125 17.1015625 3.1328125 C16.98039062 3.71289062 16.85921875 4.29296875 16.734375 4.890625 C15.76420776 9.41309692 14.66758467 13.77032216 13.1015625 18.1328125 C14.0915625 18.1328125 15.0815625 18.1328125 16.1015625 18.1328125 C16.2871875 16.5240625 16.2871875 16.5240625 16.4765625 14.8828125 C16.99800186 11.75417635 17.50244504 9.79800826 19.1015625 7.1328125 C19.7615625 7.1328125 20.4215625 7.1328125 21.1015625 7.1328125 C21.1015625 7.7928125 21.1015625 8.4528125 21.1015625 9.1328125 C22.4215625 9.4628125 23.7415625 9.7928125 25.1015625 10.1328125 C25.1015625 12.1328125 25.1015625 12.1328125 23.6015625 13.7578125 C23.1065625 14.2115625 22.6115625 14.6653125 22.1015625 15.1328125 C24.0815625 14.1428125 26.0615625 13.1528125 28.1015625 12.1328125 C28.1015625 11.4728125 28.1015625 10.8128125 28.1015625 10.1328125 C27.4415625 9.5140625 26.7815625 8.8953125 26.1015625 8.2578125 C24.1015625 6.1328125 24.1015625 6.1328125 24.1015625 2.1328125 C25.7515625 2.1328125 27.4015625 2.1328125 29.1015625 2.1328125 C30.28559365 5.86345034 30.23463039 9.42755416 30.2265625 13.3203125 C30.23042969 15.19783203 30.23042969 15.19783203 30.234375 17.11328125 C30.1015625 20.1328125 30.1015625 20.1328125 29.1015625 21.1328125 C26.82208458 21.2330218 24.53949115 21.26362553 22.2578125 21.265625 C21.57352173 21.26658173 20.88923096 21.26753845 20.1842041 21.26852417 C18.73494373 21.2692058 17.28568032 21.26735273 15.83642578 21.26318359 C13.61093322 21.25783502 11.38564249 21.2631291 9.16015625 21.26953125 C7.75520789 21.26887047 6.35025965 21.2675893 4.9453125 21.265625 C3.65818359 21.26449707 2.37105469 21.26336914 1.04492188 21.26220703 C-1.8984375 21.1328125 -1.8984375 21.1328125 -2.8984375 20.1328125 C-2.99703881 18.72932515 -3.02922687 17.32100773 -3.03125 15.9140625 C-3.03253906 15.06457031 -3.03382812 14.21507812 -3.03515625 13.33984375 C-3.03128906 12.44652344 -3.02742187 11.55320312 -3.0234375 10.6328125 C-3.02730469 9.73949219 -3.03117188 8.84617187 -3.03515625 7.92578125 C-3.03386719 7.07628906 -3.03257813 6.22679687 -3.03125 5.3515625 C-3.03012207 4.56716797 -3.02899414 3.78277344 -3.02783203 2.97460938 C-2.84918308 0.43172694 -2.54050541 0.17773083 0 0 Z " fill="#D8840E" transform="translate(17.8984375,17.8671875)"/>
<path d="M0 0 C0.33 0 0.66 0 1 0 C1 10.89 1 21.78 1 33 C25.75 32.01 25.75 32.01 51 31 C50.67 32.32 50.34 33.64 50 35 C46.38132441 36.2062252 43.07493749 36.10816918 39.3125 36.0625 C38.2596582 36.05573242 38.2596582 36.05573242 37.18554688 36.04882812 C35.45699462 36.03706927 33.72848635 36.01913454 32 36 C32 38.31 32 40.62 32 43 C33.32 43.33 34.64 43.66 36 44 C36 44.99 36 45.98 36 47 C31.57966891 47.65486387 27.21874275 48.11739636 22.75 48.25 C21.53570313 48.28867188 21.53570313 48.28867188 20.296875 48.328125 C17.4825401 47.92607716 16.11704998 46.8451353 14 45 C14.33 42.69 14.66 40.38 15 38 C14.08476562 38.01160156 13.16953125 38.02320313 12.2265625 38.03515625 C10.44378906 38.04869141 10.44378906 38.04869141 8.625 38.0625 C7.44164062 38.07410156 6.25828125 38.08570313 5.0390625 38.09765625 C2 38 2 38 0 37 C-1.03586534 30.45700247 -1.15358706 23.98813935 -1.125 17.375 C-1.12886719 16.47265625 -1.13273438 15.5703125 -1.13671875 14.640625 C-1.12944739 9.65247521 -0.84861637 4.91658692 0 0 Z " fill="#376A93" transform="translate(4,13)"/>
<path d="M0 0 C0.33 0 0.66 0 1 0 C1.33 5.61 1.66 11.22 2 17 C12.23 17 22.46 17 33 17 C33.495 10.565 33.495 10.565 34 4 C35.65 3.34 37.3 2.68 39 2 C39 8.6 39 15.2 39 22 C23.99069362 23.11180047 9.04559182 23.10378473 -6 23 C-6 22.67 -6 22.34 -6 22 C-4.02 21.67 -2.04 21.34 0 21 C-0.51474591 18.93633687 -1.03283251 16.87429198 -1.5703125 14.81640625 C-3.46017699 7.13716814 -3.46017699 7.13716814 -2 3 C-1.34 2.01 -0.68 1.02 0 0 Z " fill="#2A334F" transform="translate(14,21)"/>
<path d="M0 0 C18.46478873 -0.26760563 18.46478873 -0.26760563 23 2 C22.67 2.66 22.34 3.32 22 4 C21.01 3.67 20.02 3.34 19 3 C18.87882812 3.60328125 18.75765625 4.2065625 18.6328125 4.828125 C18.46523438 5.62734375 18.29765625 6.4265625 18.125 7.25 C17.96257813 8.03890625 17.80015625 8.8278125 17.6328125 9.640625 C17.00849925 11.96831144 16.15161458 13.89031952 15 16 C14.07767578 15.67515625 14.07767578 15.67515625 13.13671875 15.34375 C12.32847656 15.0653125 11.52023438 14.786875 10.6875 14.5 C9.88699219 14.2215625 9.08648437 13.943125 8.26171875 13.65625 C5.91230578 12.86066893 5.91230578 12.86066893 3 13 C2.34 14.32 1.68 15.64 1 17 C0.67 17 0.34 17 0 17 C0 11.39 0 5.78 0 0 Z " fill="#E5A30D" transform="translate(16,18)"/>
<path d="M0 0 C-0.3125 1.9375 -0.3125 1.9375 -1 4 C-4.61867559 5.2062252 -7.92506251 5.10816918 -11.6875 5.0625 C-12.38939453 5.05798828 -13.09128906 5.05347656 -13.81445312 5.04882812 C-15.54300538 5.03706927 -17.27151365 5.01913454 -19 5 C-19 7.31 -19 9.62 -19 12 C-17.68 12.33 -16.36 12.66 -15 13 C-15 13.66 -15 14.32 -15 15 C-23.415 15.495 -23.415 15.495 -32 16 C-32 15.34 -32 14.68 -32 14 C-29.36 14 -26.72 14 -24 14 C-24 13.34 -24 12.68 -24 12 C-22.68 12 -21.36 12 -20 12 C-20 9.69 -20 7.38 -20 5 C-21.09957031 5.0721875 -22.19914062 5.144375 -23.33203125 5.21875 C-31.56483868 5.74163067 -39.74572826 6.16045021 -48 6 C-48.33 4.68 -48.66 3.36 -49 2 C-42.6646066 1.71391958 -36.32915179 1.4292301 -29.99365234 1.14550781 C-27.8383645 1.04882322 -25.68309092 0.95182014 -23.52783203 0.85449219 C-20.43004999 0.71465679 -17.33221849 0.57596655 -14.234375 0.4375 C-12.78886261 0.37187866 -12.78886261 0.37187866 -11.31414795 0.30493164 C-10.41351624 0.26489014 -9.51288452 0.22484863 -8.58496094 0.18359375 C-7.79442322 0.14806396 -7.0038855 0.11253418 -6.18939209 0.07592773 C-4.12734579 0.00441633 -2.06328593 0 0 0 Z " fill="#4E9CCF" transform="translate(55,44)"/>
<path d="M0 0 C0.33 0.66 0.66 1.32 1 2 C1.66 2.33 2.32 2.66 3 3 C2.34 3 1.68 3 1 3 C1 13.56 1 24.12 1 35 C3.5059375 34.91621094 6.011875 34.83242188 8.59375 34.74609375 C11.04292527 34.66850698 13.49215795 34.593064 15.94140625 34.51782227 C17.63288423 34.46472148 19.32429474 34.40942086 21.015625 34.35180664 C23.45818534 34.26899578 25.90088554 34.1943141 28.34375 34.12109375 C29.46299866 34.08054115 29.46299866 34.08054115 30.6048584 34.03916931 C35.51533549 33.90213769 40.13799361 34.28655341 45 35 C45 35.33 45 35.66 45 36 C29.6590019 36.61639403 14.35426224 37.1434028 -1 37 C-1.19212959 32.05247317 -1.37087189 27.10471461 -1.53710938 22.15625 C-1.5955834 20.47219817 -1.65774301 18.78827017 -1.72363281 17.10449219 C-1.8175959 14.68707829 -1.89838488 12.26953187 -1.9765625 9.8515625 C-2.00875885 9.0963028 -2.0409552 8.34104309 -2.0741272 7.56289673 C-2.12750104 5.70920144 -2.07285874 3.85303173 -2 2 C-1.34 1.34 -0.68 0.68 0 0 Z " fill="#ADC1D1" transform="translate(6,9)"/>
<path d="M0 0 C0.98484375 0.00902344 1.9696875 0.01804688 2.984375 0.02734375 C4.10585938 0.04474609 4.10585938 0.04474609 5.25 0.0625 C5.25 2.3725 5.25 4.6825 5.25 7.0625 C3.93 7.0625 2.61 7.0625 1.25 7.0625 C1.25 7.7225 1.25 8.3825 1.25 9.0625 C-0.20823212 9.0895043 -1.66660675 9.10889787 -3.125 9.125 C-3.93710937 9.13660156 -4.74921875 9.14820313 -5.5859375 9.16015625 C-7.75 9.0625 -7.75 9.0625 -9.75 8.0625 C-9.75 5.7525 -9.75 3.4425 -9.75 1.0625 C-6.43929162 0.06140485 -3.44915231 -0.04106134 0 0 Z " fill="#1B58A9" transform="translate(29.75,48.9375)"/>
<path d="M0 0 C0 0.99 0 1.98 0 3 C-0.66 3 -1.32 3 -2 3 C-2 3.66 -2 4.32 -2 5 C-27.66115321 5.26792387 -27.66115321 5.26792387 -30.61767578 2.46801758 C-31.07384277 1.98357178 -31.53000977 1.49912598 -32 1 C-27.79174109 0.83141856 -23.58338219 0.66547305 -19.375 0.5 C-18.18519531 0.45230469 -16.99539062 0.40460937 -15.76953125 0.35546875 C-14.61582031 0.31035156 -13.46210938 0.26523438 -12.2734375 0.21875 C-10.68668213 0.1559082 -10.68668213 0.1559082 -9.06787109 0.09179688 C-6.04315023 0.00129114 -3.02586917 -0.01586301 0 0 Z " fill="#4C5D6F" transform="translate(45,14)"/>
<path d="M0 0 C0.33 0 0.66 0 1 0 C1.33 4.95 1.66 9.9 2 15 C2.66 13.35 3.32 11.7 4 10 C8.455 11.98 8.455 11.98 13 14 C12 18 12 18 10 20 C7.87109375 20.23046875 7.87109375 20.23046875 5.4375 20.1875 C4.63183594 20.18105469 3.82617188 20.17460938 2.99609375 20.16796875 C1 20 1 20 0 19 C-0.08651611 17.58429877 -0.10704904 16.164405 -0.09765625 14.74609375 C-0.09443359 13.89208984 -0.09121094 13.03808594 -0.08789062 12.15820312 C-0.07951172 11.26037109 -0.07113281 10.36253906 -0.0625 9.4375 C-0.05798828 8.53580078 -0.05347656 7.63410156 -0.04882812 6.70507812 C-0.03700225 4.46998686 -0.0205222 2.23502563 0 0 Z " fill="#D37B05" transform="translate(15,19)"/>
<path d="M0 0 C0 6.6 0 13.2 0 20 C-1.98 20 -3.96 20 -6 20 C-6.5625 18.0625 -6.5625 18.0625 -7 16 C-6.67 15.67 -6.34 15.34 -6 15 C-5.79605136 11.66883892 -5.68040296 8.33955495 -5.57421875 5.00390625 C-5 2 -5 2 -3.01953125 0.58984375 C-1 0 -1 0 0 0 Z " fill="#28385C" transform="translate(53,23)"/>
<path d="M0 0 C2.31 0 4.62 0 7 0 C6.01 0.495 6.01 0.495 5 1 C6.26946514 5.82442184 6.26946514 5.82442184 10 9 C9.67 9.99 9.34 10.98 9 12 C5.9375 13.1875 5.9375 13.1875 3 14 C3.33 13.01 3.66 12.02 4 11 C4.66 11 5.32 11 6 11 C6 10.34 6 9.68 6 9 C4.68 8.67 3.36 8.34 2 8 C2 7.34 2 6.68 2 6 C-0.23339896 6.83254913 -0.23339896 6.83254913 -0.8515625 9.28515625 C-1.10679688 10.20167969 -1.36203125 11.11820313 -1.625 12.0625 C-1.88539062 12.98160156 -2.14578125 13.90070312 -2.4140625 14.84765625 C-2.60742188 15.55792969 -2.80078125 16.26820312 -3 17 C-3.99 17 -4.98 17 -6 17 C-5.52229477 15.06213915 -5.04278429 13.12472326 -4.5625 11.1875 C-4.29566406 10.10855469 -4.02882812 9.02960937 -3.75390625 7.91796875 C-3.23922588 5.9259157 -2.65062825 3.95188476 -2 2 C0.0625 1.3125 0.0625 1.3125 2 1 C1.34 0.67 0.68 0.34 0 0 Z " fill="#DE9D1B" transform="translate(37,19)"/>
<path d="M0 0 C3.63 0 7.26 0 11 0 C11 2.31 11 4.62 11 7 C9.68 7 8.36 7 7 7 C7 7.66 7 8.32 7 9 C4.03 9 1.06 9 -2 9 C-2 8.67 -2 8.34 -2 8 C0.64 7.67 3.28 7.34 6 7 C6 5.35 6 3.7 6 2 C3.03 1.505 3.03 1.505 0 1 C0 0.67 0 0.34 0 0 Z " fill="#2466AB" transform="translate(24,49)"/>
<path d="M0 0 C0.66 0 1.32 0 2 0 C2.9584336 2.87530081 3.06656387 4.29049931 2.87890625 7.23046875 C2.83056641 8.03291016 2.78222656 8.83535156 2.73242188 9.66210938 C2.67634766 10.49548828 2.62027344 11.32886719 2.5625 12.1875 C2.51029297 13.03248047 2.45808594 13.87746094 2.40429688 14.74804688 C2.27476311 16.83236299 2.13806823 18.91623182 2 21 C-1.96 21 -5.92 21 -10 21 C-10 20.67 -10 20.34 -10 20 C-6.7 20 -3.4 20 0 20 C0 13.4 0 6.8 0 0 Z " fill="#D0D7E3" transform="translate(53,23)"/>
<path d="M0 0 C0.33 0 0.66 0 1 0 C1 2.97 1 5.94 1 9 C1.66 9 2.32 9 3 9 C3 11.64 3 14.28 3 17 C3.66 17.33 4.32 17.66 5 18 C3.02 18 1.04 18 -1 18 C-1.5625 16.0625 -1.5625 16.0625 -2 14 C-1.67 13.67 -1.34 13.34 -1 13 C-0.76518307 10.81707226 -0.58636677 8.62796826 -0.4375 6.4375 C-0.35371094 5.23996094 -0.26992188 4.04242188 -0.18359375 2.80859375 C-0.12300781 1.88175781 -0.06242187 0.95492188 0 0 Z " fill="#404A61" transform="translate(48,25)"/>
<path d="M0 0 C1.32 0 2.64 0 4 0 C4 0.99 4 1.98 4 3 C3.34 3 2.68 3 2 3 C2 3.66 2 4.32 2 5 C-3.61 5 -9.22 5 -15 5 C-15 4.67 -15 4.34 -15 4 C-13.2508503 3.66223316 -11.50063855 3.32996329 -9.75 3 C-8.77546875 2.814375 -7.8009375 2.62875 -6.796875 2.4375 C-4 2 -4 2 0 2 C0 1.34 0 0.68 0 0 Z " fill="#636C75" transform="translate(41,14)"/>
<path d="M0 0 C0 0.66 0 1.32 0 2 C-8.415 2.495 -8.415 2.495 -17 3 C-17 2.34 -17 1.68 -17 1 C-14.36 1 -11.72 1 -9 1 C-9 0.34 -9 -0.32 -9 -1 C-5.38055101 -2.34053666 -3.42632833 -1.61798838 0 0 Z " fill="#5AA5CE" transform="translate(40,57)"/>
<path d="M0 0 C0.99 0 1.98 0 3 0 C2.79503906 0.74765625 2.59007812 1.4953125 2.37890625 2.265625 C2.10949219 3.25046875 1.84007812 4.2353125 1.5625 5.25 C1.29566406 6.22453125 1.02882813 7.1990625 0.75390625 8.203125 C0.14455416 10.46372653 -0.44238255 12.72622009 -1 15 C-1.99 15 -2.98 15 -4 15 C-3.52229477 13.06213915 -3.04278429 11.12472326 -2.5625 9.1875 C-2.29566406 8.10855469 -2.02882812 7.02960937 -1.75390625 5.91796875 C-1.23922588 3.9259157 -0.65062825 1.95188476 0 0 Z " fill="#E6DDD5" transform="translate(35,21)"/>
<path d="M0 0 C1.22589844 0.07863281 2.45179687 0.15726563 3.71484375 0.23828125 C6.76698522 0.64784516 8.42293147 1.25489982 11.0625 2.6875 C7.93757749 2.74541844 4.81279234 2.78106746 1.6875 2.8125 C0.79804688 2.82925781 -0.09140625 2.84601562 -1.0078125 2.86328125 C-1.85859375 2.86972656 -2.709375 2.87617188 -3.5859375 2.8828125 C-4.76422119 2.89852295 -4.76422119 2.89852295 -5.96630859 2.91455078 C-7.9375 2.6875 -7.9375 2.6875 -9.9375 0.6875 C-6.34969898 -0.50843367 -3.76729421 -0.26485699 0 0 Z " fill="#EAF1F4" transform="translate(16.9375,9.3125)"/>
<path d="M0 0 C0 0.66 0 1.32 0 2 C-1.98 2.99 -1.98 2.99 -4 4 C-2.68 4.66 -1.36 5.32 0 6 C0 6.66 0 7.32 0 8 C-2.31 7.34 -4.62 6.68 -7 6 C-7.33 4.68 -7.66 3.36 -8 2 C-5.09399739 0.74335022 -3.20395416 0 0 0 Z " fill="#E4D8CB" transform="translate(29,25)"/>
<path d="M0 0 C-1.67392069 2.07168402 -2.47893026 2.94044082 -5.17651367 3.2487793 C-5.99869385 3.19117432 -6.82087402 3.13356934 -7.66796875 3.07421875 C-8.56064453 3.01943359 -9.45332031 2.96464844 -10.37304688 2.90820312 C-11.76620117 2.79895508 -11.76620117 2.79895508 -13.1875 2.6875 C-14.12787109 2.62626953 -15.06824219 2.56503906 -16.03710938 2.50195312 C-18.35940957 2.34870489 -20.67971458 2.1808714 -23 2 C-23 1.67 -23 1.34 -23 1 C-15.31516461 0.32546899 -7.71589817 -0.1567564 0 0 Z " fill="#C8CBCF" transform="translate(38,11)"/>
<path d="M0 0 C0.99 0.33 1.98 0.66 3 1 C3 1.66 3 2.32 3 3 C4.1446875 2.7525 4.1446875 2.7525 5.3125 2.5 C10.22145849 1.83437851 15.05435114 1.92079922 20 2 C20 2.33 20 2.66 20 3 C15.55816211 3.65805006 11.17807219 4.11811829 6.6875 4.25 C5.45580078 4.28867187 5.45580078 4.28867187 4.19921875 4.328125 C1.52407859 3.92899219 0.67700787 3.06233978 -1 1 C-0.67 0.67 -0.34 0.34 0 0 Z " fill="#3279C4" transform="translate(20,57)"/>
<path d="M0 0 C0.66 0.33 1.32 0.66 2 1 C2 2.32 2 3.64 2 5 C2.66 5 3.32 5 4 5 C4 5.66 4 6.32 4 7 C1.36 7 -1.28 7 -4 7 C-2.68 4.69 -1.36 2.38 0 0 Z " fill="#D88206" transform="translate(29,32)"/>
<path d="M0 0 C3.465 1.485 3.465 1.485 7 3 C6.67 3.99 6.34 4.98 6 6 C2.9375 7.1875 2.9375 7.1875 0 8 C0.33 7.01 0.66 6.02 1 5 C1.66 5 2.32 5 3 5 C3 4.34 3 3.68 3 3 C2.01 2.67 1.02 2.34 0 2 C0 1.34 0 0.68 0 0 Z " fill="#E1D3CC" transform="translate(40,25)"/>
<path d="M0 0 C2.97 0.495 2.97 0.495 6 1 C6 2.32 6 3.64 6 5 C4.35 4.67 2.7 4.34 1 4 C0.67 2.68 0.34 1.36 0 0 Z " fill="#CC6D0B" transform="translate(21,31)"/>
<path d="M0 0 C0.66 0.33 1.32 0.66 2 1 C1.67 2.65 1.34 4.3 1 6 C-2.3 6 -5.6 6 -9 6 C-7 4 -7 4 -4.5 3.5625 C-1.65063471 3.2234444 -1.65063471 3.2234444 0 0 Z " fill="#EEF0F1" transform="translate(44,8)"/>
<path d="M0 0 C2.875 -0.125 2.875 -0.125 6 0 C6.66 0.66 7.32 1.32 8 2 C3.545 2.495 3.545 2.495 -1 3 C-0.67 2.01 -0.34 1.02 0 0 Z " fill="#174D90" transform="translate(22,54)"/>
<path d="M0 0 C2.475 0.495 2.475 0.495 5 1 C5 2.65 5 4.3 5 6 C3.0625 5.25 3.0625 5.25 1 4 C0.25 1.875 0.25 1.875 0 0 Z " fill="#D77514" transform="translate(43,20)"/>
<path d="M0 0 C0.99 0 1.98 0 3 0 C3 2.31 3 4.62 3 7 C2.34 7 1.68 7 1 7 C0.67 4.69 0.34 2.38 0 0 Z " fill="#2A74BD" transform="translate(32,49)"/>
<path d="M0 0 C0 0.99 0 1.98 0 3 C-1.65 3.33 -3.3 3.66 -5 4 C-5.33 3.01 -5.66 2.02 -6 1 C-3 0 -3 0 0 0 Z " fill="#CB6D04" transform="translate(45,32)"/>
</svg>
