<?xml version="1.0" encoding="UTF-8"?>
<svg xmlns="http://www.w3.org/2000/svg" width="44" height="40" viewBox="0 0 44 40" fill="none">
  <path d="M43.2032 30.5217C42.7383 28.7849 40.9327 27.7296 39.0928 28.1155L26.2692 30.838C26.5215 30.1443 26.522 29.3841 26.2707 28.6901C26.0194 27.9961 25.5322 27.4125 24.8942 27.0413L17.4606 22.7487C17.1623 22.5624 16.8821 22.3486 16.6236 22.1102C15.9705 21.5456 15.1575 20.8434 13.6424 20.6819C12.203 20.5289 10.3295 20.8666 7.79867 21.7424C7.71419 21.2057 7.44104 20.7167 7.02833 20.3634C6.61562 20.0101 6.09041 19.8155 5.54711 19.8148H2.97242C2.36819 19.8155 1.78889 20.0558 1.36163 20.483C0.934376 20.9103 0.694042 21.4896 0.693359 22.0938V34.7619C0.694042 35.3661 0.934376 35.9454 1.36163 36.3727C1.78889 36.7999 2.36819 37.0403 2.97242 37.0409H5.53937C6.13727 37.0401 6.71095 36.8047 7.13701 36.3852C7.56306 35.9657 7.80745 35.3958 7.81758 34.798C9.86805 34.5101 12.4728 35.9968 14.9977 37.4388C17.1736 38.6815 19.2481 39.8666 20.9815 39.8666C21.3076 39.8692 21.6322 39.822 21.944 39.7265L40.809 34.6716C41.6766 34.4385 42.4161 33.8704 42.865 33.0922C43.3139 32.3141 43.4356 31.3895 43.2032 30.5217ZM5.53937 35.6659H2.97242C2.73272 35.6657 2.5029 35.5704 2.3334 35.4009C2.16391 35.2314 2.06859 35.0016 2.06836 34.7619V22.0938C2.06859 21.8541 2.16391 21.6243 2.3334 21.4548C2.5029 21.2853 2.73272 21.19 2.97242 21.1898H5.53937C5.77908 21.19 6.0089 21.2853 6.17839 21.4548C6.34789 21.6243 6.44321 21.8541 6.44344 22.0938V34.7619C6.44321 35.0016 6.34789 35.2314 6.17839 35.4009C6.0089 35.5704 5.77908 35.6657 5.53937 35.6659ZM40.4532 33.3456L21.5762 38.4022L21.5444 38.4116C20.2184 38.8353 17.9118 37.5188 15.6817 36.2452C13.0237 34.7258 10.284 33.1634 7.82102 33.4092V23.1904C13.437 21.176 14.5989 22.1789 15.7273 23.15C16.0504 23.4466 16.4015 23.7111 16.7757 23.9398L24.2093 28.2315C24.41 28.348 24.5858 28.5028 24.7267 28.6872C24.8675 28.8716 24.9707 29.082 25.0303 29.3063C25.0898 29.5305 25.1047 29.7644 25.0739 29.9944C25.0431 30.2244 24.9673 30.4461 24.8508 30.6468C24.7344 30.8475 24.5795 31.0233 24.3951 31.1642C24.2107 31.305 24.0003 31.4082 23.776 31.4677C23.5518 31.5273 23.318 31.5421 23.0879 31.5113C22.8579 31.4805 22.6363 31.4048 22.4355 31.2883L16.2291 27.7056C16.0717 27.62 15.887 27.5994 15.7145 27.648C15.5421 27.6966 15.3954 27.8107 15.3057 27.9659C15.2161 28.121 15.1906 28.3051 15.2347 28.4788C15.2787 28.6525 15.3889 28.8021 15.5416 28.8958L21.748 32.4794C22.2236 32.7547 22.7634 32.8996 23.313 32.8996C23.8061 32.8989 24.2923 32.7829 24.7327 32.561C24.765 32.5588 24.7971 32.5545 24.8289 32.5481L39.3747 29.4681C40.5185 29.2258 41.5919 29.8334 41.8729 30.8809C42.0101 31.3957 41.9377 31.9438 41.6716 32.4052C41.4055 32.8667 40.9674 33.2039 40.4532 33.3431V33.3456ZM5.40188 23.6725C5.40256 23.8994 5.33588 24.1214 5.21028 24.3104C5.08469 24.4994 4.90584 24.6469 4.69637 24.7342C4.4869 24.8215 4.25624 24.8446 4.03361 24.8007C3.81098 24.7568 3.60639 24.6478 3.44576 24.4875C3.28512 24.3272 3.17566 24.1229 3.13124 23.9003C3.08683 23.6778 3.10945 23.4471 3.19625 23.2374C3.28305 23.0278 3.43012 22.8486 3.61883 22.7226C3.80754 22.5965 4.02941 22.5294 4.25633 22.5295C4.55949 22.5302 4.85008 22.6508 5.06469 22.8649C5.2793 23.079 5.40051 23.3693 5.40188 23.6725ZM18.9748 16.1195H20.1384C20.369 16.9483 20.6997 17.7459 21.1233 18.4948L20.3009 19.3181C20.0851 19.531 19.9543 19.8153 19.9329 20.1177C19.9116 20.4202 20.0011 20.72 20.1848 20.9612C20.9122 21.9263 21.771 22.7848 22.7363 23.5118C22.9773 23.696 23.2771 23.7859 23.5797 23.7647C23.8822 23.7435 24.1666 23.6126 24.3795 23.3966L25.2027 22.5742C25.9514 22.9979 26.7487 23.3291 27.5772 23.5608V24.7244C27.5754 25.0276 27.6841 25.321 27.8831 25.5498C28.0822 25.7786 28.3577 25.9269 28.6583 25.967C29.8555 26.1356 31.0704 26.1356 32.2677 25.967C32.5686 25.9271 32.8447 25.7785 33.0439 25.5494C33.2431 25.3203 33.3518 25.0263 33.3496 24.7227V23.5608C34.1783 23.3299 34.976 22.9992 35.7249 22.5759L36.5473 23.3984C36.7602 23.6144 37.0446 23.7452 37.3471 23.7664C37.6497 23.7876 37.9495 23.6977 38.1905 23.5135C39.1555 22.7861 40.0138 21.927 40.7402 20.9612C40.9241 20.7201 41.0138 20.4203 40.9926 20.1179C40.9714 19.8155 40.8407 19.5311 40.6251 19.3181L39.8018 18.4948C40.2254 17.7463 40.5561 16.9489 40.7866 16.1203H41.9511C42.2543 16.1223 42.5479 16.0136 42.7767 15.8146C43.0055 15.6155 43.1538 15.3398 43.1937 15.0392C43.3624 13.842 43.3624 12.6271 43.1937 11.4299C43.1536 11.1294 43.0052 10.8539 42.7764 10.655C42.5477 10.4562 42.2542 10.3476 41.9511 10.3496H40.7858C40.5547 9.5208 40.2238 8.72317 39.8001 7.9743L40.6234 7.15188C40.8379 6.93931 40.968 6.6561 40.9895 6.35485C41.011 6.0536 40.9224 5.75479 40.7402 5.51391C40.0134 4.54816 39.1545 3.68927 38.1888 2.96243C37.9478 2.77825 37.648 2.68832 37.3454 2.70952C37.0429 2.73072 36.7585 2.8616 36.5456 3.07759L35.7232 3.90087C34.975 3.47628 34.1779 3.14414 33.3496 2.91173V1.74813C33.3517 1.44492 33.2431 1.15135 33.0443 0.922434C32.8454 0.69352 32.5699 0.54497 32.2694 0.504617C31.072 0.337816 29.8573 0.337816 28.66 0.504617C28.3595 0.545146 28.0842 0.693746 27.8853 0.922621C27.6865 1.1515 27.5779 1.44497 27.5798 1.74813V2.91173C26.7504 3.14272 25.9522 3.47372 25.2027 3.89743L24.3795 3.07415C24.1664 2.85849 23.882 2.72785 23.5796 2.70665C23.2772 2.68546 22.9774 2.77516 22.7363 2.95899C21.7703 3.68689 20.9114 4.54694 20.1848 5.51391C20.0009 5.75502 19.9113 6.0549 19.9326 6.35738C19.954 6.65986 20.0849 6.94417 20.3009 7.15704L21.1233 7.97946C20.6996 8.7282 20.3688 9.52587 20.1384 10.3548H18.9748C18.6716 10.3527 18.3781 10.4613 18.1491 10.6601C17.9202 10.859 17.7717 11.1345 17.7313 11.435C17.5627 12.6322 17.5627 13.8472 17.7313 15.0444C17.7727 15.344 17.9216 15.6184 18.1505 15.8163C18.3793 16.0141 18.6724 16.1219 18.9748 16.1195ZM19.0788 11.7263H20.6738C20.8302 11.7264 20.9819 11.6731 21.1039 11.5753C21.226 11.4775 21.311 11.341 21.345 11.1884C21.5793 10.1413 21.9933 9.14284 22.5687 8.23727C22.6524 8.10533 22.6886 7.94884 22.6714 7.79357C22.6542 7.6383 22.5847 7.49352 22.4742 7.38305L21.3467 6.2547C21.9615 5.45254 22.6793 4.73481 23.4814 4.12001L24.6089 5.24837C24.7194 5.35904 24.8644 5.42872 25.0198 5.4459C25.1753 5.46309 25.332 5.42676 25.464 5.3429C26.3696 4.76747 27.368 4.35342 28.4151 4.11915C28.567 4.0851 28.7028 4.0005 28.8004 3.8792C28.898 3.7579 28.9515 3.60708 28.9522 3.45141V1.85212C29.9543 1.72149 30.9691 1.72149 31.9712 1.85212V3.45141C31.9711 3.60779 32.0244 3.75951 32.1222 3.88152C32.22 4.00354 32.3565 4.08857 32.5091 4.12259C33.5556 4.35549 34.5538 4.76809 35.4594 5.34204C35.5914 5.4259 35.7481 5.46223 35.9035 5.44504C36.059 5.42786 36.2039 5.35818 36.3145 5.24751L37.4428 4.11915C38.2445 4.73421 38.9619 5.45191 39.5766 6.25384L38.4491 7.38219C38.3387 7.49266 38.2691 7.63744 38.2519 7.79271C38.2348 7.94798 38.271 8.10447 38.3546 8.23641C38.9301 9.14133 39.3442 10.1393 39.5784 11.1858C39.6125 11.3383 39.6976 11.4745 39.8196 11.5722C39.9417 11.6698 40.0933 11.723 40.2495 11.7229H41.8445C41.9763 12.7249 41.9763 13.7399 41.8445 14.7419H40.2487C40.0926 14.742 39.9411 14.7953 39.8193 14.8929C39.6975 14.9905 39.6125 15.1267 39.5784 15.279C39.3444 16.3269 38.9303 17.3263 38.3546 18.2327C38.271 18.3646 38.2348 18.5211 38.2519 18.6764C38.2691 18.8316 38.3387 18.9764 38.4491 19.0869L39.5775 20.2152C38.9622 21.017 38.2446 21.7347 37.4428 22.3499L36.3145 21.2224C36.2039 21.1121 36.059 21.0427 35.9038 21.0257C35.7485 21.0087 35.5921 21.045 35.4602 21.1288C34.5545 21.7044 33.5557 22.1184 32.5083 22.3525C32.3559 22.3867 32.2198 22.4716 32.1222 22.5935C32.0245 22.7153 31.9713 22.8667 31.9712 23.0228V24.6187C30.9691 24.7493 29.9543 24.7493 28.9522 24.6187V23.0228C28.9523 22.8666 28.8991 22.7149 28.8015 22.5929C28.7038 22.4709 28.5676 22.3858 28.4151 22.3516C27.3677 22.1183 26.3691 21.7042 25.464 21.1279C25.332 21.044 25.1753 21.0077 25.0198 21.0249C24.8644 21.0421 24.7194 21.1118 24.6089 21.2224L23.4814 22.3508C22.6793 21.736 21.9615 21.0183 21.3467 20.2161L22.4742 19.092C22.5847 18.9816 22.6542 18.8368 22.6714 18.6815C22.6886 18.5263 22.6524 18.3698 22.5687 18.2378C21.9931 17.3323 21.5791 16.3338 21.345 15.2867C21.311 15.1341 21.226 14.9976 21.1039 14.8998C20.9819 14.802 20.8302 14.7487 20.6738 14.7488H19.0788C18.9471 13.747 18.9471 12.7324 19.0788 11.7306V11.7263ZM30.4621 20.1233C31.8237 20.1233 33.1548 19.7195 34.2869 18.963C35.419 18.2066 36.3014 17.1314 36.8225 15.8734C37.3436 14.6154 37.4799 13.2312 37.2143 11.8957C36.9486 10.5603 36.293 9.3336 35.3302 8.37079C34.3673 7.40798 33.1407 6.7523 31.8052 6.48667C30.4697 6.22103 29.0855 6.35736 27.8275 6.87843C26.5696 7.3995 25.4944 8.2819 24.7379 9.41404C23.9814 10.5462 23.5777 11.8772 23.5777 13.2388C23.5797 15.0641 24.3057 16.814 25.5963 18.1046C26.887 19.3953 28.6369 20.1212 30.4621 20.1233ZM30.4621 7.72938C31.5518 7.72938 32.617 8.05251 33.523 8.65789C34.429 9.26328 35.1352 10.1237 35.5522 11.1305C35.9692 12.1372 36.0783 13.2449 35.8657 14.3137C35.6531 15.3824 35.1284 16.3641 34.3579 17.1346C33.5874 17.9051 32.6057 18.4298 31.5369 18.6424C30.4682 18.855 29.3605 18.7459 28.3537 18.3289C27.347 17.9119 26.4866 17.2057 25.8812 16.2997C25.2758 15.3937 24.9527 14.3285 24.9527 13.2388C24.9533 11.7775 25.5339 10.3762 26.5669 9.3426C27.5999 8.30898 29.0008 7.72754 30.4621 7.72594V7.72938ZM27.603 13.8894C27.5392 13.8255 27.4885 13.7497 27.454 13.6663C27.4195 13.5828 27.4018 13.4934 27.4018 13.4031C27.4018 13.3128 27.4197 13.2234 27.4543 13.14C27.4888 13.0566 27.5395 12.9808 27.6034 12.917C27.6673 12.8532 27.7431 12.8026 27.8265 12.7681C27.91 12.7335 27.9994 12.7158 28.0897 12.7158C28.18 12.7159 28.2694 12.7337 28.3528 12.7683C28.4362 12.8029 28.512 12.8536 28.5758 12.9174L29.6801 14.0217L32.3184 10.9941C32.442 10.8721 32.6073 10.8014 32.781 10.7962C32.9547 10.7911 33.1239 10.8519 33.2545 10.9665C33.3852 11.081 33.4676 11.2408 33.4853 11.4136C33.5029 11.5865 33.4544 11.7596 33.3496 11.8982L30.2301 15.4766C30.1681 15.5477 30.0922 15.6053 30.0071 15.6459C29.9219 15.6864 29.8293 15.7089 29.7351 15.7121H29.7119C29.6216 15.7122 29.5321 15.6945 29.4487 15.66C29.3652 15.6255 29.2894 15.5748 29.2255 15.511L27.603 13.8894Z" fill="#D96122"></path>
</svg>
