<?xml version="1.0" encoding="UTF-8"?>
<svg xmlns="http://www.w3.org/2000/svg" width="51" height="51" viewBox="0 0 51 51" fill="none">
  <path d="M2.27585 46.8208C0.563066 46.9534 5.74897 48.0872 7.81673 48.1273C9.88448 48.1675 11.9302 47.92 13.9849 47.7853C24.1383 47.12 35.2226 49.2785 45.0153 47.1243C46.9688 46.6947 46.3947 45.8474 44.386 45.6916C41.8614 45.4961 39.307 45.7668 36.7671 45.8863C27.7617 46.3105 18.2929 44.8002 9.44501 45.8615C8.52237 45.9721 7.66156 46.2387 6.72415 46.2935C5.14073 46.3859 3.88682 46.6961 2.27585 46.8208Z" fill="#D0DCEE"></path>
  <path d="M44.9477 10.7211V15.2665C44.9477 15.5271 44.6771 15.7426 44.35 15.7426H42.6699V10.2451H44.35C44.6771 10.2451 44.9477 10.4607 44.9477 10.7211Z" fill="#095DA4"></path>
  <path d="M44.9477 14.5479V15.2665C44.9477 15.5271 44.6771 15.7426 44.35 15.7426H42.6699V10.2451H43.572C43.3457 11.7779 43.4418 13.4358 44.8801 14.503C44.9026 14.521 44.9252 14.5299 44.9477 14.5479Z" fill="#19345D"></path>
  <path d="M4.08301 10.7209V15.2663C4.08301 15.5268 4.35359 15.7424 4.68067 15.7424H6.3608V10.2449H4.68067C4.35359 10.2449 4.08301 10.4604 4.08301 10.7209Z" fill="#095DA4"></path>
  <path d="M4.08301 14.5477V15.2663C4.08301 15.5268 4.35359 15.7424 4.68067 15.7424H6.3608V10.2449H5.45872C5.68514 11.7777 5.5889 13.4355 4.15065 14.5027C4.1281 14.5207 4.10556 14.5297 4.08301 14.5477Z" fill="#19345D"></path>
  <path d="M38.0595 34.799H10.79L11.6964 31.2228C12.1066 29.5808 13.4014 28.2398 15.1388 27.4832C16.1424 27.0449 17.2755 26.7957 18.4842 26.7957H30.3652C33.6673 26.7957 36.5054 28.6438 37.1638 31.2228C37.1871 31.316 38.1182 35.0333 38.0595 34.799Z" fill="#F72F43"></path>
  <path d="M38.0595 34.7991H10.79L11.6964 31.2229C12.1066 29.581 13.4014 28.24 15.1388 27.4834C15.905 29.6412 18.1173 31.5065 20.7071 32.4866C24.1603 33.7761 28.1422 33.7933 31.93 33.501C33.8292 33.3549 35.7176 33.14 37.6062 32.9852L38.0595 34.7991Z" fill="#E2212E"></path>
  <path d="M36.2161 33.632H12.8125L13.9348 30.4854C14.4703 28.9843 16.1911 27.9487 18.1501 27.9487H30.9253C32.8853 27.9487 34.6043 28.9907 35.127 30.4955L36.2161 33.632Z" fill="#19345D"></path>
  <path d="M34.3146 29.2201C33.6455 28.8934 32.8685 28.7128 32.0375 28.7128H23.0594C19.0882 28.7128 15.5702 30.6901 14.232 33.6301H12.8076L13.9299 30.4837C14.4695 28.9879 16.196 27.9478 18.1493 27.9478H30.9261C32.275 27.9478 33.5052 28.4378 34.3146 29.2201Z" fill="black"></path>
  <path d="M40.6702 36.9312V41.1263H8.36133V36.9312C8.36133 35.7535 9.55921 34.7993 11.0374 34.7993H37.994C39.4724 34.7993 40.6702 35.7535 40.6702 36.9312Z" fill="#FF9F1C"></path>
  <path d="M40.6702 38.8568V41.1263H8.36133V36.9312C8.36133 35.7535 9.55921 34.7993 11.0374 34.7993H11.7282C11.6094 35.934 12.408 37.1031 13.5412 37.8338C14.8684 38.6935 16.5842 39.0717 18.2569 39.364C25.638 40.6363 33.3862 40.4472 40.6702 38.8568Z" fill="#F58210"></path>
  <path d="M41.4371 41.5548V43.3814C41.4371 43.614 41.1962 43.8118 40.9041 43.8118H8.12423C7.83226 43.8118 7.58398 43.614 7.58398 43.3814V41.5548C7.58398 41.5082 7.59863 41.4617 7.61316 41.4151C7.68616 41.2407 7.89049 41.1243 8.12423 41.1243H40.9041C41.0939 41.1243 41.2546 41.2058 41.3349 41.322C41.4078 41.3803 41.4371 41.4617 41.4371 41.5548Z" fill="#E2212E"></path>
  <path d="M14.5446 43.8042V46.2714C14.5446 46.5636 14.2426 46.8044 13.8756 46.8044H9.89364C9.52983 46.8044 9.22461 46.5659 9.22461 46.2714V43.8042H14.5446Z" fill="#095DA4"></path>
  <path d="M39.7957 43.813V46.2716C39.7957 46.5638 39.4936 46.8046 39.1266 46.8046H35.1555C34.9396 46.8046 34.7454 46.7185 34.6266 46.5982C34.5404 46.5037 34.4863 46.3919 34.4863 46.2716V43.813H39.7957Z" fill="#095DA4"></path>
  <path d="M41.3382 41.3231C38.4626 42.3297 35.2529 42.5842 32.1014 42.8156C23.836 43.4471 15.2537 44.0269 7.61523 41.4156C7.68776 41.2422 7.89117 41.1265 8.12351 41.1265H40.9025C41.0913 41.1265 41.251 41.2074 41.3382 41.3231Z" fill="#F72F43"></path>
  <path d="M30.8494 43.812H29.6446C29.4962 43.2223 29.4592 42.5613 29.5204 41.9854L29.849 41.7644C29.8359 42.4982 30.1829 43.2483 30.8494 43.812Z" fill="black"></path>
  <path d="M17.1113 43.812H18.3162C18.4626 43.2291 18.5024 42.5693 18.4402 41.9854L18.1116 41.7644C18.1249 42.4967 17.779 43.2473 17.1113 43.812Z" fill="black"></path>
  <path d="M39.8067 43.8127V44.8873C39.5103 44.9527 36.8414 45.1077 34.6269 46.5979C34.3745 46.3215 34.5361 46.2784 34.4866 43.8127H39.8067Z" fill="#19345D"></path>
  <path d="M39.8013 43.812V43.9052C37.9538 44.1028 36.1429 44.5625 34.4854 45.2489V43.9052C34.573 43.8703 34.6606 43.8411 34.7483 43.812H39.8013Z" fill="black"></path>
  <path d="M14.5444 43.8127V44.8873C14.2962 44.9216 14.048 44.9561 13.8107 44.9904C12.1919 45.2312 10.6272 45.7555 9.36461 46.5979C9.10995 46.3192 9.27244 46.2115 9.22432 43.8127H14.5444Z" fill="#19345D"></path>
  <path d="M13.8942 42.1242V42.8128C13.8942 42.885 13.8209 42.9436 13.7302 42.9436H9.80486C9.7142 42.9436 9.64062 42.885 9.64062 42.8128V42.1242C9.64062 42.052 9.7142 41.9934 9.80486 41.9934H13.7302C13.8209 41.9934 13.8942 42.052 13.8942 42.1242Z" fill="#095DA4"></path>
  <path d="M39.3143 42.1242V42.8128C39.3143 42.885 39.2408 42.9436 39.1502 42.9436H35.2247C35.1341 42.9436 35.0605 42.885 35.0605 42.8128V42.1242C35.0605 42.052 35.1341 41.9934 35.2247 41.9934H39.1502C39.2408 41.9934 39.3143 42.052 39.3143 42.1242Z" fill="#095DA4"></path>
  <path d="M13.8901 42.1217V42.1911H10.0268C9.93976 42.1911 9.86711 42.2488 9.86711 42.3183V42.9431H9.80911C9.70741 42.9431 9.63477 42.8852 9.63477 42.8158V42.1217C9.63477 42.0523 9.70741 41.9944 9.80911 41.9944H13.7304C13.8175 41.9944 13.8901 42.0523 13.8901 42.1217Z" fill="#19345D"></path>
  <path d="M39.3198 42.1217V42.1911H35.4566C35.3548 42.1911 35.2824 42.2488 35.2824 42.3183V42.9431H35.2243C35.1371 42.9431 35.0645 42.8852 35.0645 42.8158V42.1217C35.0645 42.0523 35.1371 41.9944 35.2243 41.9944H39.1455C39.2472 41.9944 39.3198 42.0523 39.3198 42.1217Z" fill="#19345D"></path>
  <path d="M29.9082 41.1498V43.7877C29.9082 44.0422 29.6468 44.2389 29.3275 44.2389H18.7108C18.3914 44.2389 18.1299 44.0422 18.1299 43.7877V41.1498C18.1299 40.8953 18.3914 40.687 18.7108 40.687H29.3275C29.6468 40.687 29.9082 40.8953 29.9082 41.1498Z" fill="#D0DCEE"></path>
  <path d="M41.6964 34.6255C41.1219 34.9117 40.6956 34.7535 37.8477 34.7991V33.4686C37.8477 32.7513 38.5739 32.1612 39.4744 32.1497H39.5034H40.883C42.5784 32.1497 43.1764 33.9516 41.6964 34.6255Z" fill="#F72F43"></path>
  <path d="M41.6964 34.6255C41.1219 34.9117 40.6956 34.7535 37.8477 34.7991V33.4686C37.8477 32.7513 38.5739 32.1612 39.4744 32.1497C39.2198 33.366 39.9666 34.5 41.6964 34.6255Z" fill="#E2212E"></path>
  <path d="M11.1978 33.4686V34.7991H8.16255C7.18005 34.7991 6.49219 34.1416 6.49219 33.4686C6.49219 32.7397 7.23293 32.1497 8.16255 32.1497H9.54222C9.65833 32.1497 9.77457 32.1612 9.8908 32.1727C10.6314 32.3116 11.1978 32.8323 11.1978 33.4686Z" fill="#F72F43"></path>
  <path d="M11.1986 33.4685V34.799H8.16337C7.52433 34.799 6.98699 34.5212 6.71094 34.1047C6.76905 34.0932 6.84158 34.0701 6.89981 34.0586C8.39199 33.7256 9.55478 33.3655 9.89161 32.1726C10.6322 32.3115 11.1986 32.8321 11.1986 33.4685Z" fill="#E2212E"></path>
  <path d="M29.9082 42.7118V43.7877C29.9082 44.0422 29.6468 44.2389 29.3275 44.2389H18.7108C18.3914 44.2389 18.1299 44.0422 18.1299 43.7877V41.1498C18.1299 40.8953 18.3914 40.687 18.7108 40.687H19.4225C19.3644 40.9532 19.4514 41.2076 19.6113 41.4507C20.2574 42.4802 21.6455 42.8229 23.0532 43.001C25.3336 43.2902 27.6863 43.186 29.9082 42.7118Z" fill="#A5C0DD"></path>
  <path d="M24.0495 42.1868C24.1452 42.129 24.1942 42.0287 24.1827 41.9333C24.1336 41.5256 23.2926 41.5211 23.3098 41.8572C23.3227 42.1055 23.7767 42.351 24.0495 42.1868Z" fill="#A5C0DD"></path>
  <path d="M25.4187 42.4619C25.4783 42.4261 25.5089 42.3634 25.5017 42.3041C25.4713 42.0505 24.9475 42.0471 24.9582 42.2567C24.9662 42.4113 25.2489 42.5641 25.4187 42.4619Z" fill="#A5C0DD"></path>
  <path d="M28.5837 27.002C28.562 27.1997 28.357 27.3545 28.0872 27.3545H20.76C20.4363 27.3545 20.1988 27.1224 20.2528 26.8731L20.7168 24.9818C20.76 24.7928 20.9758 24.6553 21.2132 24.6553H27.6232C27.8606 24.6553 28.0764 24.7928 28.1197 24.9818C28.5923 26.95 28.6121 26.8881 28.5837 27.002Z" fill="#FFCA28"></path>
  <path d="M35.6604 33.7881C12.2072 33.8048 13.2914 33.7478 12.6314 33.836C12.4427 33.858 12.4041 33.639 12.585 33.6145C13.2848 33.5201 12.2603 33.5809 35.6604 33.5638C36.0242 33.5638 36.4004 33.5955 36.7784 33.6583C36.8546 33.671 36.9034 33.7302 36.8874 33.7912C36.8384 33.9819 36.5865 33.7881 35.6604 33.7881Z" fill="black"></path>
  <path d="M14.5436 43.812V44.039C12.5557 44.1362 10.5641 44.4687 9.22754 44.8242V43.812H14.5436Z" fill="black"></path>
  <path d="M32.9655 34.7993V37.8338C32.9655 38.3753 32.415 38.8139 31.746 38.8139H17.2859C16.606 38.8139 16.0557 38.3753 16.0557 37.8338V34.7993H32.9655Z" fill="#FFD880"></path>
  <path d="M32.9655 37.3868V37.8338C32.9655 38.3753 32.415 38.8139 31.746 38.8139H17.2859C16.606 38.8139 16.0557 38.3753 16.0557 37.8338V34.7993H16.4225C16.6383 35.358 16.4442 35.9427 16.7786 36.5014C17.5382 37.7986 19.3671 38.1475 21.1167 38.3151C25.0879 38.685 29.1561 38.3582 32.9655 37.3868Z" fill="#FFCA28"></path>
  <path d="M39.2884 37.5415V39.0716C39.2884 39.0974 39.2884 39.1318 39.2777 39.1576C39.2345 39.364 39.0079 39.5187 38.7382 39.5187H35.2417C34.9288 39.5187 34.6807 39.321 34.6807 39.0716V37.5415C34.6807 37.3007 34.9288 37.103 35.2417 37.103H38.7382C39.0404 37.103 39.2884 37.3007 39.2884 37.5415Z" fill="#095DA4"></path>
  <path d="M14.3392 37.5415V39.0716C14.3392 39.2264 14.2422 39.3553 14.1019 39.4413C14.0155 39.4843 13.9076 39.5187 13.7889 39.5187H10.2926C9.9796 39.5187 9.73145 39.321 9.73145 39.0716V37.5415C9.73145 37.3007 9.9796 37.103 10.2926 37.103H13.7889C14.0911 37.103 14.3392 37.3007 14.3392 37.5415Z" fill="#095DA4"></path>
  <path d="M18.4249 35.6253V37.9344C18.4249 37.9956 18.3626 38.0453 18.2857 38.0453H17.5943C17.5174 38.0453 17.4551 37.9956 17.4551 37.9344V35.6253C17.4551 35.564 17.5174 35.5144 17.5943 35.5144H18.2857C18.3626 35.5144 18.4249 35.564 18.4249 35.6253Z" fill="#19345D"></path>
  <path d="M18.4291 35.6242V35.779H17.8248C17.7386 35.779 17.6847 35.8306 17.6847 35.8908V38.0485H17.5983C17.5119 38.0485 17.458 37.9969 17.458 37.9367V35.6242C17.458 35.564 17.5119 35.5125 17.5983 35.5125H18.289C18.3644 35.5125 18.4291 35.564 18.4291 35.6242Z" fill="black"></path>
  <path d="M20.6142 35.6251V37.9342C20.6142 37.9954 20.5519 38.0451 20.4751 38.0451H19.7838C19.7069 38.0451 19.6445 37.9954 19.6445 37.9342V35.6251C19.6445 35.5638 19.7069 35.5142 19.7838 35.5142H20.4751C20.5519 35.5142 20.6142 35.5638 20.6142 35.6251Z" fill="#19345D"></path>
  <path d="M20.6196 35.6242V35.779H20.0153C19.929 35.779 19.875 35.8306 19.875 35.8908V38.0485H19.7887C19.7024 38.0485 19.6484 37.9969 19.6484 37.9367V35.6242C19.6484 35.564 19.7024 35.5125 19.7887 35.5125H20.4794C20.5548 35.5125 20.6196 35.564 20.6196 35.6242Z" fill="black"></path>
  <path d="M22.8048 35.6251V37.9342C22.8048 37.9954 22.7424 38.0451 22.6656 38.0451H21.9742C21.8973 38.0451 21.835 37.9954 21.835 37.9342V35.6251C21.835 35.5638 21.8973 35.5142 21.9742 35.5142H22.6656C22.7424 35.5142 22.8048 35.5638 22.8048 35.6251Z" fill="#19345D"></path>
  <path d="M22.8101 35.6242V35.779H22.2058C22.1196 35.779 22.0656 35.8306 22.0656 35.8908V38.0485H21.9793C21.8929 38.0485 21.8389 37.9969 21.8389 37.9367V35.6242C21.8389 35.564 21.8929 35.5125 21.9793 35.5125H22.6699C22.7455 35.5125 22.8101 35.564 22.8101 35.6242Z" fill="black"></path>
  <path d="M24.9952 35.6251V37.9342C24.9952 37.9954 24.9329 38.0451 24.856 38.0451H24.1646C24.0877 38.0451 24.0254 37.9954 24.0254 37.9342V35.6251C24.0254 35.5638 24.0877 35.5142 24.1646 35.5142H24.856C24.9329 35.5142 24.9952 35.5638 24.9952 35.6251Z" fill="#19345D"></path>
  <path d="M25.0005 35.6242V35.779H24.3962C24.3099 35.779 24.2559 35.8306 24.2559 35.8908V38.0485H24.1696C24.0833 38.0485 24.0293 37.9969 24.0293 37.9367V35.6242C24.0293 35.564 24.0833 35.5125 24.1696 35.5125H24.8602C24.9358 35.5125 25.0005 35.564 25.0005 35.6242Z" fill="black"></path>
  <path d="M27.1857 35.6251V37.9342C27.1857 37.9954 27.1234 38.0451 27.0464 38.0451H26.3551C26.2782 38.0451 26.2158 37.9954 26.2158 37.9342V35.6251C26.2158 35.5638 26.2782 35.5142 26.3551 35.5142H27.0464C27.1234 35.5142 27.1857 35.5638 27.1857 35.6251Z" fill="#19345D"></path>
  <path d="M27.1899 35.6242V35.779H26.5856C26.4993 35.779 26.4454 35.8306 26.4454 35.8908V38.0485H26.359C26.2727 38.0485 26.2188 37.9969 26.2188 37.9367V35.6242C26.2188 35.564 26.2727 35.5125 26.359 35.5125H27.0497C27.1251 35.5125 27.1899 35.564 27.1899 35.6242Z" fill="black"></path>
  <path d="M29.3751 35.6251V37.9342C29.3751 37.9954 29.3128 38.0451 29.236 38.0451H28.5446C28.4677 38.0451 28.4053 37.9954 28.4053 37.9342V35.6251C28.4053 35.5638 28.4677 35.5142 28.5446 35.5142H29.236C29.3128 35.5142 29.3751 35.5638 29.3751 35.6251Z" fill="#19345D"></path>
  <path d="M29.3803 35.6242V35.779H28.776C28.6898 35.779 28.6358 35.8306 28.6358 35.8908V38.0485H28.5495C28.4631 38.0485 28.4092 37.9969 28.4092 37.9367V35.6242C28.4092 35.564 28.4631 35.5125 28.5495 35.5125H29.2402C29.3157 35.5125 29.3803 35.564 29.3803 35.6242Z" fill="black"></path>
  <path d="M31.5654 35.6251V37.9342C31.5654 37.9954 31.5031 38.0451 31.4262 38.0451H30.7349C30.658 38.0451 30.5957 37.9954 30.5957 37.9342V35.6251C30.5957 35.5638 30.658 35.5142 30.7349 35.5142H31.4262C31.5031 35.5142 31.5654 35.5638 31.5654 35.6251Z" fill="#19345D"></path>
  <path d="M31.5707 35.6242V35.779H30.9664C30.8802 35.779 30.8261 35.8306 30.8261 35.8908V38.0485H30.7399C30.6534 38.0485 30.5996 37.9969 30.5996 37.9367V35.6242C30.5996 35.564 30.6534 35.5125 30.7399 35.5125H31.4304C31.506 35.5125 31.5707 35.564 31.5707 35.6242Z" fill="black"></path>
  <path d="M14.1019 39.4413C14.0155 39.4843 13.9076 39.5187 13.7889 39.5187H10.2926C9.9796 39.5187 9.73145 39.321 9.73145 39.0716V37.5415C9.73145 37.3007 9.9796 37.103 10.2926 37.103H10.476C10.8022 38.1422 12.035 39.1825 14.1019 39.4413Z" fill="#19345D"></path>
  <path d="M39.2777 39.1576C39.2345 39.364 39.0079 39.5187 38.7382 39.5187H35.2417C34.9288 39.5187 34.6807 39.321 34.6807 39.0716V37.5415C34.6807 37.3007 34.9288 37.103 35.2417 37.103H35.3281C35.3389 37.1375 35.3497 37.1632 35.3605 37.189C35.7845 38.5625 37.5125 39.0941 39.2777 39.1576Z" fill="#19345D"></path>
  <path d="M28.5837 27.002C28.562 27.1997 28.357 27.3545 28.0872 27.3545H20.76C20.4363 27.3545 20.1988 27.1224 20.2528 26.8731L20.7168 24.9818C20.76 24.7928 20.9758 24.6553 21.2132 24.6553H21.9363C22.0766 24.9733 22.3355 25.2742 22.6484 25.5063C23.8963 26.4369 26.8583 26.9181 28.5837 27.002Z" fill="#FF9F1C"></path>
  <path d="M42.6699 4.65744V22.1651C42.6699 22.7041 42.1286 23.1353 41.4633 23.1353H7.57823C6.90164 23.1353 6.36035 22.7041 6.36035 22.1651V4.65744C6.36035 4.11846 6.90164 3.68726 7.57823 3.68726H41.4633C42.1286 3.68726 42.6699 4.11846 42.6699 4.65744Z" fill="#095DA4"></path>
  <path d="M42.6697 15.8109C42.6231 15.8109 42.5851 15.7806 42.5851 15.7435V4.65771C42.5851 4.15993 42.0817 3.75484 41.4631 3.75484H9.16176C9.11516 3.75484 9.07715 3.72456 9.07715 3.68743C9.07715 3.65039 9.11516 3.62012 9.16176 3.62012H41.4631C42.1748 3.62012 42.7542 4.08577 42.7542 4.65771V15.7435C42.7542 15.7806 42.7162 15.8109 42.6697 15.8109Z" fill="black"></path>
  <path d="M42.6699 20.7909V22.1653C42.6699 22.7042 42.1286 23.1354 41.4633 23.1354H7.57823C6.90164 23.1354 6.36035 22.7042 6.36035 22.1653V15.0149C6.68847 17.3676 8.19437 19.3635 10.2282 20.6202C13.4982 22.6414 17.9411 22.8929 22.0908 22.839C29.0143 22.7581 35.9267 22.0665 42.6699 20.7909Z" fill="#19345D"></path>
  <path d="M41.1248 19.5556V6.20896C41.1248 5.8546 40.7642 5.56738 40.3194 5.56738H9.34064C8.89582 5.56738 8.53516 5.8546 8.53516 6.20896V19.5556C8.53516 19.91 8.89582 20.1974 9.34064 20.1974H40.3194C40.7642 20.1974 41.1248 19.91 41.1248 19.5556Z" fill="black"></path>
  <path d="M40.8104 19.2256V5.87897C40.8104 5.52462 40.4498 5.2373 40.0049 5.2373H9.02619C8.58125 5.2373 8.2207 5.52462 8.2207 5.87897V19.2256C8.2207 19.58 8.58125 19.8674 9.02619 19.8674H40.0049C40.4498 19.8674 40.8104 19.58 40.8104 19.2256Z" fill="#F2F8FD"></path>
  <path d="M21.8466 19.8656H20.4316L18.228 15.4943C16.0569 16.0106 11.3042 17.3271 8.21484 18.1963V17.1206C11.7039 16.1483 17.202 14.5822 18.4548 14.2811C18.7897 14.2036 19.1354 14.3414 19.2542 14.5909L21.8466 19.8656Z" fill="#D0DCEE"></path>
  <path d="M40.8144 6.76045L31.082 11.1145L36.1481 19.8656H34.7113L29.9478 11.6307L23.24 14.6597L26.016 19.8656H24.6117L19.2325 9.72916L8.21484 15.9762V14.5565L12.3951 12.2417V5.2373H13.9074V11.3984L19.1785 8.48138L24.8494 5.2373H27.107L20.3235 9.10953L22.7324 13.6874L32.2919 9.39351V5.2373H33.5017V8.85147L40.7279 5.59879C40.8721 5.82842 40.7897 5.94156 40.8144 6.76045Z" fill="#D0DCEE"></path>
  <path d="M8.13574 16.9608V5.87906C8.13574 5.48804 8.53476 5.17017 9.02573 5.17017H34.9219C34.9684 5.17017 35.0064 5.20044 35.0064 5.23757C35.0064 5.27461 34.9684 5.30489 34.9219 5.30489H9.02573C8.62845 5.30489 8.30486 5.56257 8.30486 5.87906V16.9608C8.30486 17.0499 8.13574 17.0499 8.13574 16.9608Z" fill="black"></path>
  <path d="M34.3137 10.675C30.8901 10.675 29.3476 14.119 32.0173 15.8354C33.6396 16.8896 33.9214 17.4217 34.1584 17.6447C34.238 17.725 34.3934 17.725 34.4606 17.6447C34.6665 17.4496 34.988 16.8696 36.5848 15.8488C39.2529 14.1565 37.7726 10.675 34.3137 10.675ZM34.2632 14.608C33.4909 14.608 32.8568 14.1031 32.8568 13.4842C32.8568 12.8656 33.4909 12.3639 34.2632 12.3639C35.4733 12.3639 36.1661 13.5214 35.2876 14.2569C35.0315 14.4742 34.6662 14.608 34.2632 14.608Z" fill="#F72F43"></path>
  <path d="M37.2222 15.3078C37.0412 15.5006 36.8464 15.6695 36.5667 15.8466C34.9489 16.8851 34.6547 17.4398 34.4385 17.6439C34.3725 17.726 34.2159 17.726 34.1415 17.6439C33.9093 17.4253 33.5965 16.8667 31.9969 15.8368C29.856 14.3778 30.3972 11.9057 32.6239 10.9941C30.4521 13.9951 33.3709 16.8419 37.2222 15.3078Z" fill="#E2212E"></path>
  <path d="M36.341 12.3319C36.5552 12.1549 36.0325 11.6227 35.8782 11.9648C35.8043 12.1285 36.1192 12.5149 36.341 12.3319Z" fill="#E2212E"></path>
  <path d="M35.7237 11.6947C35.7576 11.6668 35.7559 11.6221 35.7443 11.5844C35.6976 11.4315 35.5035 11.4045 35.4651 11.4896C35.4239 11.581 35.5999 11.797 35.7237 11.6947Z" fill="#E2212E"></path>
  <path d="M37.0846 15.436V15.4657C36.5574 15.9555 35.6165 16.3335 34.6968 17.3745L34.4576 17.6439C34.3914 17.726 34.2349 17.726 34.1606 17.6439C33.931 17.4279 33.6157 16.8668 32.0161 15.8369C31.9872 15.8171 31.9624 15.8008 31.9336 15.7809L32.1605 15.8434C32.5687 16.1818 33.01 16.4906 33.4841 16.7634C33.7317 16.9046 34.008 17.0458 34.3091 17.0361C34.736 17.0229 34.9064 16.8598 37.0846 15.436Z" fill="black"></path>
  <path d="M34.2486 11.8918C33.1601 11.8918 32.2842 12.5896 32.2842 13.4527C32.2842 14.3155 33.1601 15.0176 34.2486 15.0176C35.3268 15.0176 36.2078 14.3155 36.2078 13.4527C36.2078 12.5896 35.3268 11.8918 34.2486 11.8918ZM34.2438 14.6086C33.4701 14.6086 32.8391 14.1021 32.8391 13.4856C32.8391 12.8655 33.4701 12.3629 34.2438 12.3629C35.0271 12.3629 35.658 12.8655 35.658 13.4856C35.658 14.1021 35.0271 14.6086 34.2438 14.6086Z" fill="#E2212E"></path>
  <path d="M21.5385 6.80005C18.8186 6.80005 17.5991 9.53523 19.7158 10.8959C21.0037 11.7327 21.2289 12.1567 21.4152 12.332C21.4785 12.3957 21.6017 12.3957 21.6551 12.332C21.8187 12.1772 22.0735 11.7167 23.3412 10.9066C25.4668 9.55625 24.2788 6.80005 21.5385 6.80005ZM20.3822 9.02977C20.3822 8.53875 20.8853 8.1406 21.4986 8.1406C22.4588 8.1406 23.008 9.05986 22.3116 9.64301C21.6241 10.2264 20.3822 9.83292 20.3822 9.02977Z" fill="#FF9F1C"></path>
  <path d="M23.8467 10.4774C23.7024 10.6308 23.5481 10.7646 23.3263 10.905C22.0421 11.7294 21.8089 12.1695 21.6372 12.3314C21.5849 12.3967 21.4605 12.3967 21.4015 12.3314C21.2171 12.158 20.9692 11.7148 19.6994 10.8972C19.6765 10.8815 19.6567 10.8686 19.6338 10.8529C18.0772 9.78328 18.3689 7.80189 20.197 7.05347C18.4729 9.43532 20.7912 11.6944 23.8467 10.4774Z" fill="#F58210"></path>
  <path d="M23.1476 8.11529C23.3177 7.97501 22.9028 7.55242 22.7802 7.82399C22.7217 7.9539 22.9716 8.26066 23.1476 8.11529Z" fill="#F58210"></path>
  <path d="M22.6564 7.6095C22.6833 7.58737 22.682 7.55191 22.6728 7.522C22.6356 7.40071 22.4816 7.37932 22.4512 7.44673C22.4184 7.51932 22.5581 7.69071 22.6564 7.6095Z" fill="#F58210"></path>
  <path d="M23.737 10.5791V10.6025C23.6191 10.712 23.485 10.8138 23.3409 10.905C22.0568 11.7294 21.8235 12.1695 21.6518 12.3314C21.5994 12.3967 21.4751 12.3967 21.4162 12.3314C21.2315 12.1576 20.9814 11.7131 19.714 10.8972C19.6911 10.8815 19.6715 10.8685 19.6484 10.8529L19.8286 10.9024C20.1581 11.1755 21.0574 11.8645 21.5341 11.8491C21.8729 11.8385 22.0012 11.7134 23.737 10.5791Z" fill="black"></path>
  <path d="M21.487 7.76611C20.6229 7.76611 19.9277 8.32 19.9277 9.005C19.9277 9.68982 20.6229 10.247 21.487 10.247C22.3427 10.247 23.042 9.68982 23.042 9.005C23.042 8.32 22.3427 7.76611 21.487 7.76611ZM21.4833 9.92241C20.869 9.92241 20.3683 9.52047 20.3683 9.03111C20.3683 8.53898 20.869 8.13991 21.4833 8.13991C22.1049 8.13991 22.6057 8.53898 22.6057 9.03111C22.6057 9.52047 22.1049 9.92241 21.4833 9.92241Z" fill="#F58210"></path>
  <path d="M30.9176 14.7567C30.7127 14.3833 30.6094 13.9868 30.6094 13.5781C30.6094 11.4918 33.2326 10.0971 35.6248 10.821C35.6931 10.8421 35.6571 10.9251 35.585 10.9051C32.6292 10.0095 29.7508 12.4013 31.0208 14.7206C31.0512 14.7765 30.9464 14.8098 30.9176 14.7567Z" fill="black"></path>
  <path d="M18.8831 10.0701C18.8616 10.0701 18.8406 10.0602 18.8315 10.0434C17.791 8.14306 20.1494 6.17352 22.5829 6.90667C22.6513 6.9276 22.6153 7.01065 22.5432 6.99075C20.7043 6.43602 18.6986 7.50982 18.6986 9.10389C18.6986 9.81482 19.0419 10.0188 18.9059 10.0665C18.8984 10.0692 18.8905 10.0701 18.8831 10.0701Z" fill="black"></path>
  <path d="M21.6256 12.9379C21.6035 12.9379 21.5825 12.9276 21.5734 12.9104L21.5195 12.8068C21.4911 12.7521 21.5952 12.7168 21.6239 12.7725L21.6778 12.8761C21.6898 12.8991 21.6762 12.9253 21.6472 12.9348C21.6404 12.9371 21.6331 12.9379 21.6256 12.9379Z" fill="black"></path>
  <path d="M22.1984 14.1164L22.0939 13.9157C22.0655 13.8605 22.1686 13.8274 22.1984 13.8813L22.3028 14.0821C22.3318 14.1379 22.2269 14.1704 22.1984 14.1164ZM22.0418 13.7421C22.0197 13.7421 21.9986 13.7317 21.9896 13.7145L21.8857 13.5133C21.8571 13.458 21.9618 13.424 21.9901 13.4789L22.0939 13.6801C22.1059 13.7032 22.0923 13.7294 22.0634 13.7389C22.0559 13.7412 22.0492 13.7421 22.0418 13.7421ZM21.7813 13.3125L21.6768 13.1113C21.6482 13.056 21.7526 13.0226 21.7813 13.077L21.8857 13.2782C21.9146 13.3341 21.8098 13.3665 21.7813 13.3125Z" fill="black"></path>
  <path d="M22.4088 14.4495C22.4027 14.4495 22.3964 14.4486 22.3901 14.4472C22.3748 14.4427 22.3629 14.4337 22.3567 14.422L22.3027 14.318C22.2744 14.2631 22.3776 14.2288 22.4072 14.2836L22.4367 14.341L22.5053 14.3112C22.5706 14.282 22.6254 14.3616 22.5598 14.3898L22.4362 14.4441C22.4277 14.4477 22.4185 14.4495 22.4088 14.4495Z" fill="black"></path>
  <path d="M22.7789 14.287C22.7194 14.287 22.702 14.2243 22.7517 14.2029L22.998 14.0948C23.062 14.0655 23.1184 14.145 23.0524 14.1734L22.8061 14.2815C22.7976 14.2851 22.788 14.287 22.7789 14.287ZM23.2715 14.0709C23.2516 14.0709 23.2323 14.0627 23.2221 14.0478C23.2075 14.026 23.2171 13.9985 23.2443 13.9868L23.4906 13.8787C23.5539 13.8491 23.6115 13.9287 23.5451 13.9573L23.2988 14.0654C23.2902 14.069 23.2806 14.0709 23.2715 14.0709ZM23.7642 13.8547C23.7443 13.8547 23.725 13.8466 23.7148 13.8317C23.7 13.8099 23.7097 13.7828 23.7369 13.7707L23.9832 13.6621C24.0494 13.6335 24.1023 13.7119 24.0377 13.7408L23.7914 13.8493C23.7829 13.8529 23.7733 13.8547 23.7642 13.8547ZM24.2568 13.6382C24.1973 13.6382 24.1798 13.5755 24.2295 13.5541L24.4759 13.446C24.542 13.4169 24.5955 13.4966 24.5303 13.5246L24.284 13.6327C24.2755 13.6363 24.2659 13.6382 24.2568 13.6382ZM24.7494 13.4221C24.6899 13.4221 24.6724 13.3594 24.7222 13.338L24.9691 13.2299C25.0358 13.2011 25.0882 13.2807 25.0236 13.3085L24.7766 13.4166C24.7681 13.4202 24.7584 13.4221 24.7494 13.4221ZM25.2426 13.2059C25.2227 13.2059 25.2034 13.1978 25.1932 13.1829C25.1785 13.1612 25.1882 13.1336 25.2154 13.1219L25.4617 13.0138C25.5278 12.9846 25.5814 13.0644 25.5162 13.0924L25.2699 13.2005C25.2613 13.2041 25.2516 13.2059 25.2426 13.2059ZM25.7353 12.9898C25.6757 12.9898 25.6583 12.9271 25.7079 12.9058L25.9542 12.7977C26.0196 12.7683 26.0742 12.8481 26.0088 12.8763L25.7625 12.9844C25.754 12.988 25.7443 12.9898 25.7353 12.9898ZM26.2278 12.7733C26.1683 12.7733 26.1509 12.7106 26.2005 12.6892L26.4469 12.5811C26.5109 12.5517 26.5674 12.6313 26.5013 12.6598L26.255 12.7679C26.2466 12.7715 26.2369 12.7733 26.2278 12.7733ZM26.7204 12.5571C26.6609 12.5571 26.6435 12.4946 26.6932 12.4731L26.9395 12.365C27.0053 12.336 27.059 12.4156 26.994 12.4437L26.7476 12.5518C26.7392 12.5554 26.7295 12.5571 26.7204 12.5571ZM27.213 12.341C27.1535 12.341 27.1362 12.2784 27.1858 12.257L27.4321 12.1489C27.4964 12.1199 27.5523 12.1992 27.4866 12.2276L27.2403 12.3357C27.2319 12.3393 27.2222 12.341 27.213 12.341ZM27.7057 12.1249C27.6462 12.1249 27.6288 12.0623 27.6784 12.0409L27.9247 11.9328C27.9886 11.9034 28.0452 11.983 27.9792 12.0115L27.7329 12.1196C27.7244 12.1232 27.7148 12.1249 27.7057 12.1249ZM28.1983 11.9083C28.1388 11.9083 28.1214 11.8458 28.1711 11.8243L28.4174 11.7162C28.4802 11.6864 28.5388 11.766 28.4718 11.7949L28.2255 11.903C28.217 11.9066 28.2074 11.9083 28.1983 11.9083ZM28.6909 11.6922C28.6314 11.6922 28.614 11.6296 28.6637 11.6082L28.9106 11.5001C28.972 11.4696 29.033 11.5495 28.9651 11.5788L28.7182 11.6869C28.7096 11.6905 28.7 11.6922 28.6909 11.6922ZM29.1841 11.4761C29.1246 11.4761 29.1073 11.4135 29.1569 11.3921L29.4032 11.284C29.4661 11.2542 29.5245 11.3338 29.4577 11.3627L29.2114 11.4708C29.2029 11.4744 29.1933 11.4761 29.1841 11.4761ZM29.6768 11.26C29.6173 11.26 29.5998 11.1974 29.6495 11.1759L29.8958 11.0679C29.9568 11.0373 30.0185 11.1171 29.9503 11.1466L29.704 11.2546C29.6955 11.2583 29.6859 11.26 29.6768 11.26Z" fill="black"></path>
  <path d="M30.3576 11.0898C30.3372 11.0898 30.3173 11.0812 30.3077 11.0659L30.2696 11.0066L30.197 11.0387C30.1267 11.0656 30.0801 10.988 30.1426 10.96L30.2657 10.9058C30.3006 10.894 30.3293 10.9034 30.3429 10.9243L30.4076 11.0243C30.4218 11.0464 30.411 11.0735 30.3838 11.0848C30.3753 11.0884 30.3661 11.0898 30.3576 11.0898Z" fill="black"></path>
  <path d="M30.6324 11.5171C30.612 11.5171 30.5921 11.5085 30.5825 11.4927L30.4451 11.2789C30.4122 11.2275 30.5105 11.1833 30.545 11.2382L30.6823 11.4521C30.6965 11.4742 30.6857 11.5008 30.6579 11.5121C30.65 11.5158 30.641 11.5171 30.6324 11.5171Z" fill="black"></path>
  <path d="M30.7847 11.8063L30.7205 11.7064C30.6876 11.655 30.7859 11.6107 30.8203 11.6657L30.8845 11.7656C30.9193 11.8198 30.8164 11.8582 30.7847 11.8063Z" fill="black"></path>
  <path d="M26.4027 21.2051V22.0502C26.4027 22.1165 26.3354 22.1701 26.2523 22.1701H22.2317C22.1485 22.1701 22.0811 22.1165 22.0811 22.0502V21.2051C22.0811 21.1389 22.1485 21.0852 22.2317 21.0852H26.2523C26.3354 21.0852 26.4027 21.1389 26.4027 21.2051Z" fill="#19345D"></path>
</svg>
