<?xml version="1.0" encoding="UTF-8"?>
<svg xmlns="http://www.w3.org/2000/svg" width="70" height="70" viewBox="0 0 70 70" fill="none">
  <path d="M28.7602 61.2346L28.5544 62.2391L28.7526 61.2335C28.6205 61.2075 28.4846 61.2078 28.3526 61.2343C28.2206 61.2608 28.0951 61.313 27.9833 61.3881C27.8715 61.4631 27.7756 61.5594 27.701 61.6715C27.6264 61.7835 27.5746 61.9092 27.5486 62.0413C27.5226 62.1734 27.5229 62.3093 27.5494 62.4413C27.5759 62.5733 27.6282 62.6988 27.7032 62.8106C27.7782 62.9224 27.8745 63.0184 27.9866 63.0929C28.0986 63.1675 28.2243 63.2193 28.3564 63.2453C28.3579 63.2459 28.3734 63.2485 28.375 63.249C28.4402 63.2613 28.5049 63.2678 28.5689 63.2678C29.0511 63.2678 29.4811 62.926 29.5745 62.4346C29.6814 61.8781 29.3166 61.3408 28.76 61.2346H28.7602ZM36.6 61.5641L36.702 62.584L36.5967 61.5646C36.4628 61.5784 36.3329 61.6184 36.2144 61.6823C36.096 61.7463 35.9913 61.833 35.9063 61.9374C35.8214 62.0419 35.7579 62.162 35.7194 62.291C35.6809 62.4201 35.6682 62.5554 35.6821 62.6893C35.6958 62.8233 35.7357 62.9532 35.7997 63.0717C35.8636 63.1903 35.9503 63.295 36.0547 63.38C36.1592 63.4651 36.2793 63.5287 36.4084 63.5672C36.5374 63.6058 36.6728 63.6185 36.8067 63.6048L36.835 63.6015C37.3957 63.5359 37.7937 63.03 37.7312 62.4693C37.6682 61.909 37.1608 61.5054 36.6 61.5641ZM32.6747 61.6933L32.6596 61.6928C32.0947 61.6672 31.6226 62.1062 31.5969 62.6717C31.5719 63.2373 32.0162 63.7163 32.5817 63.742C32.7162 63.7482 32.8507 63.7278 32.9773 63.682C33.1039 63.6362 33.2203 63.5659 33.3198 63.475C33.4192 63.3842 33.4998 63.2747 33.5569 63.1527C33.614 63.0308 33.6465 62.8988 33.6525 62.7642C33.6586 62.6297 33.6382 62.4953 33.5924 62.3686C33.5466 62.242 33.4762 62.1257 33.3854 62.0262C33.2946 61.9268 33.1851 61.8462 33.0632 61.789C32.9412 61.7319 32.8092 61.6994 32.6747 61.6933ZM24.9725 60.1927L24.9596 60.1878C24.4267 59.9966 23.8457 60.2754 23.6545 60.8085C23.4627 61.3414 23.7459 61.9309 24.2788 62.1227C24.5348 62.2146 24.8167 62.201 25.0627 62.085C25.3086 61.969 25.4985 61.7601 25.5905 61.5042C25.6361 61.3775 25.6563 61.2431 25.6499 61.1086C25.6435 60.9741 25.6107 60.8422 25.5533 60.7204C25.4959 60.5986 25.4151 60.4893 25.3154 60.3987C25.2158 60.3082 25.0992 60.2382 24.9725 60.1927ZM40.4698 60.8463L40.7224 61.8403L40.4667 60.8474C40.2248 60.9094 40.0138 61.0576 39.8734 61.2641C39.733 61.4706 39.6728 61.7213 39.704 61.969C39.7353 62.2168 39.8559 62.4446 40.0432 62.6098C40.2305 62.775 40.4717 62.8661 40.7214 62.8661C40.8062 62.8661 40.8923 62.8554 40.9783 62.833C40.9824 62.8319 41.0007 62.8271 41.0055 62.8262C41.5496 62.6775 41.8679 62.1185 41.7227 61.5731C41.5774 61.0284 41.0162 60.7043 40.4698 60.8463ZM44.1767 59.5534L44.5832 60.4944L44.1736 59.5545C43.9243 59.6631 43.7284 59.8663 43.6289 60.1193C43.5293 60.3723 43.5343 60.6545 43.6427 60.9039C43.7224 61.0871 43.854 61.2431 44.0212 61.3526C44.1883 61.4621 44.3839 61.5204 44.5837 61.5204C44.7199 61.5204 44.8592 61.4925 44.9922 61.4349C44.9965 61.4327 45.013 61.4257 45.0174 61.4237C45.5316 61.1913 45.7585 60.5889 45.529 60.0736C45.2993 59.5576 44.6936 59.3264 44.1768 59.5534H44.1767ZM21.0558 12.8106C21.2203 12.8106 21.3875 12.771 21.5417 12.6888C21.6605 12.6254 21.7657 12.5392 21.8512 12.4352C21.9367 12.3311 22.0009 12.2113 22.0401 12.0824C22.0792 11.9536 22.0926 11.8182 22.0795 11.6842C22.0664 11.5502 22.027 11.42 21.9636 11.3012C21.9003 11.1824 21.8142 11.0773 21.7102 10.9918C21.6062 10.9063 21.4864 10.8421 21.3576 10.8029C21.2288 10.7637 21.0935 10.7503 20.9595 10.7634C20.8256 10.7765 20.6955 10.8159 20.5767 10.8793L20.5644 10.8857C20.0651 11.1523 19.8819 11.7702 20.1484 12.27C20.3321 12.6151 20.6888 12.8106 21.0558 12.8106ZM9.19488 24.2634C9.31415 24.3261 9.44461 24.3646 9.5788 24.3768C9.71298 24.3891 9.84826 24.3747 9.97689 24.3346C10.1055 24.2944 10.225 24.2293 10.3284 24.143C10.4318 24.0566 10.5172 23.9507 10.5797 23.8314L10.5979 23.7955C10.6574 23.6747 10.6925 23.5433 10.7012 23.4089C10.7098 23.2745 10.6919 23.1397 10.6485 23.0122C10.605 22.8848 10.5369 22.7671 10.4479 22.666C10.359 22.5648 10.2509 22.4822 10.13 22.4229C9.88776 22.3035 9.60813 22.2846 9.35199 22.3703C9.09585 22.456 8.88392 22.6394 8.7623 22.8806C8.63654 23.1214 8.61146 23.4022 8.69256 23.6615C8.77367 23.9207 8.95433 24.1372 9.19488 24.2634ZM7.75127 28.1209C7.86023 28.1578 7.97084 28.1753 8.08035 28.1753C8.2947 28.1751 8.5036 28.1078 8.67772 27.9828C8.85184 27.8578 8.98245 27.6814 9.05119 27.4783L9.06459 27.4377C9.1042 27.309 9.11805 27.1738 9.10537 27.0398C9.09268 26.9057 9.05371 26.7755 8.99067 26.6565C8.92762 26.5376 8.84175 26.4322 8.73797 26.3464C8.63418 26.2606 8.5145 26.1962 8.38578 26.1567C8.12793 26.0773 7.84916 26.1027 7.60993 26.2274C7.37069 26.3522 7.19025 26.5662 7.10773 26.823C7.02125 27.0805 7.04044 27.3617 7.16109 27.6051C7.28174 27.8484 7.49399 28.0339 7.75127 28.1209ZM11.2178 20.676C11.3266 20.7554 11.45 20.8125 11.581 20.8441C11.7119 20.8757 11.8478 20.8811 11.9808 20.8601C12.1139 20.8392 12.2415 20.7922 12.3563 20.7218C12.4712 20.6515 12.571 20.5592 12.6502 20.4502L12.6636 20.432C12.9925 19.9717 12.8852 19.3329 12.426 19.004C11.966 18.6745 11.3252 18.7802 10.9952 19.2395L11.8214 19.8472L10.9919 19.2438C10.832 19.4637 10.7659 19.7381 10.8083 20.0067C10.8507 20.2753 10.9979 20.5161 11.2178 20.676ZM17.5748 15.0252C17.79 15.0252 18.0068 14.9574 18.1922 14.8164C18.6493 14.4821 18.7481 13.8406 18.4137 13.3836C18.2531 13.1642 18.0119 13.0176 17.7432 12.9761C17.4745 12.9345 17.2003 13.0014 16.9809 13.162L16.9553 13.1806C16.5046 13.5229 16.4147 14.1675 16.7571 14.6188C16.8527 14.7452 16.9762 14.8476 17.1181 14.9181C17.26 14.9886 17.4164 15.0253 17.5748 15.0252ZM6.83594 43.6716C6.90028 43.8809 7.03001 44.064 7.2061 44.1942C7.38218 44.3243 7.59534 44.3946 7.8143 44.3947C7.9141 44.3947 8.01623 44.3796 8.11658 44.3487C8.65498 44.1837 8.95877 43.6133 8.79744 43.074C8.72317 42.8148 8.54974 42.5952 8.31474 42.463C8.07974 42.3307 7.80209 42.2964 7.54195 42.3674C7.27961 42.439 7.05645 42.6119 6.92154 42.8481C6.78663 43.0842 6.75102 43.3642 6.82254 43.6266L6.83594 43.6716ZM14.4771 17.7276C14.7437 17.7276 15.0104 17.6245 15.2116 17.4194C15.6115 17.0188 15.6115 16.3694 15.2116 15.9695C15.1164 15.8742 15.0033 15.7987 14.8788 15.7471C14.7544 15.6956 14.621 15.669 14.4863 15.669C14.3516 15.669 14.2182 15.6956 14.0938 15.7471C13.9693 15.7987 13.8563 15.8742 13.761 15.9695L13.7439 15.9866C13.3477 16.3909 13.3556 17.0392 13.7601 17.4354C13.9514 17.6233 14.209 17.7283 14.4771 17.7276ZM7.96934 39.201C7.89715 38.6439 7.38828 38.2488 6.83047 38.3151C6.56055 38.3475 6.31452 38.4857 6.14641 38.6994C5.97831 38.913 5.90186 39.1847 5.93387 39.4546L5.93975 39.4956C6.01453 40.0052 6.45189 40.3706 6.95242 40.3706C7.0015 40.3706 7.05168 40.3668 7.1024 40.3593C7.66049 40.2781 8.04781 39.7591 7.96934 39.201ZM6.68104 36.2642C6.6917 36.2642 6.70195 36.2647 6.71207 36.2647C6.97872 36.2645 7.23482 36.1605 7.42605 35.9747C7.61727 35.7888 7.72858 35.5358 7.73637 35.2693L7.73746 35.2255C7.73746 34.9536 7.62943 34.6927 7.43713 34.5004C7.24483 34.3081 6.98402 34.2001 6.71207 34.2001C6.44239 34.2 6.18353 34.3061 5.99159 34.4956C5.79965 34.685 5.6901 34.9425 5.68668 35.2121C5.67943 35.4834 5.78003 35.7464 5.96642 35.9436C6.15282 36.1409 6.4098 36.2561 6.68104 36.2642ZM6.90594 32.1519C7.1737 32.1997 7.44947 32.1392 7.67267 31.9838C7.89587 31.8284 8.04826 31.5907 8.09635 31.323C8.09908 31.3081 8.10113 31.2932 8.10318 31.2782C8.12286 31.1449 8.11609 31.0091 8.08325 30.8785C8.05041 30.7479 7.99215 30.6251 7.9118 30.517C7.83145 30.409 7.73058 30.3178 7.61497 30.2487C7.49936 30.1797 7.37127 30.1341 7.23803 30.1145C6.68432 30.0322 6.16574 30.413 6.07646 30.9652C5.97939 31.5217 6.3499 32.0521 6.90594 32.1519ZM55.2754 20.9998C55.3695 21.1366 55.4955 21.2485 55.6426 21.3256C55.7896 21.4028 55.9533 21.4429 56.1194 21.4425C56.3195 21.4425 56.5225 21.3837 56.6999 21.2615C57.1661 20.941 57.2841 20.3022 56.9637 19.8355L56.1113 20.4059L56.9605 19.8307C56.8849 19.7192 56.7881 19.6237 56.6756 19.5496C56.5631 19.4756 56.4372 19.4244 56.3049 19.399C56.1727 19.3736 56.0367 19.3745 55.9048 19.4017C55.7729 19.4288 55.6476 19.4817 55.5361 19.5573C55.4246 19.6328 55.3291 19.7296 55.2551 19.8421C55.181 19.9546 55.1298 20.0805 55.1044 20.2128C55.079 20.3451 55.0799 20.481 55.1071 20.6129C55.1342 20.7449 55.1871 20.8701 55.2627 20.9816L55.2754 20.9998ZM60.512 31.3182C60.3781 31.3332 60.2486 31.3745 60.1307 31.4396C60.0128 31.5047 59.9089 31.5924 59.8249 31.6977C59.7409 31.803 59.6785 31.9238 59.6412 32.0533C59.604 32.1827 59.5926 32.3182 59.6077 32.452L59.6132 32.4965C59.6519 32.7656 59.7958 33.0085 60.0134 33.1716C60.231 33.3347 60.5044 33.4048 60.7737 33.3664C61.0405 33.3281 61.2816 33.1863 61.4447 32.9716C61.6078 32.757 61.6799 32.4867 61.6453 32.2193C61.5806 31.658 61.071 31.2552 60.5119 31.3184L60.512 31.3182ZM58.7815 28.4247L58.7859 28.4381C58.8483 28.6506 58.9778 28.8371 59.155 28.9699C59.3322 29.1026 59.5476 29.1745 59.7691 29.1746C59.8648 29.1746 59.9618 29.1612 60.0585 29.1324C60.1877 29.0944 60.3082 29.0314 60.4131 28.9468C60.5179 28.8623 60.6051 28.758 60.6696 28.6397C60.7342 28.5215 60.7748 28.3917 60.7891 28.2578C60.8035 28.1239 60.7913 27.9885 60.7533 27.8592L60.7491 27.8458C60.7112 27.7166 60.6481 27.5961 60.5636 27.4912C60.479 27.3863 60.3747 27.2992 60.2564 27.2347C60.1381 27.1702 60.0083 27.1297 59.8744 27.1154C59.7404 27.1011 59.605 27.1134 59.4758 27.1516C59.2149 27.2283 58.9952 27.4056 58.865 27.6444C58.7348 27.8831 58.7048 28.1638 58.7815 28.4247ZM57.3333 24.5907C57.4183 24.7635 57.55 24.909 57.7135 25.0107C57.8769 25.1125 58.0656 25.1664 58.2582 25.1664C58.4094 25.1664 58.5631 25.1328 58.708 25.0612C59.2158 24.8114 59.4267 24.2004 59.1763 23.6919L58.247 24.125L59.1753 23.6897C59.1181 23.5678 59.0375 23.4584 58.9381 23.3676C58.8386 23.2769 58.7223 23.2066 58.5956 23.1609C58.469 23.1151 58.3346 23.0947 58.2001 23.1009C58.0656 23.1071 57.9337 23.1397 57.8118 23.1969C57.5655 23.3122 57.3752 23.5207 57.2826 23.7764C57.1901 24.0321 57.2029 24.3141 57.3182 24.5604L57.3333 24.5907ZM52.6928 17.7976C52.7881 17.8952 52.902 17.9727 53.0278 18.0255C53.1535 18.0783 53.2886 18.1054 53.425 18.1052C53.684 18.1052 53.9431 18.008 54.1428 17.8119C54.3354 17.6232 54.4459 17.3662 54.4503 17.0965C54.4547 16.8269 54.3526 16.5664 54.1662 16.3716C54.0747 16.2728 53.9646 16.193 53.8423 16.1368C53.72 16.0805 53.5878 16.0489 53.4532 16.0438C53.3187 16.0386 53.1845 16.06 53.0582 16.1068C52.9319 16.1535 52.8161 16.2246 52.7173 16.3161C52.6185 16.4076 52.5388 16.5177 52.4825 16.64C52.4263 16.7623 52.3947 16.8946 52.3895 17.0291C52.3844 17.1636 52.4058 17.2979 52.4525 17.4241C52.4992 17.5504 52.5704 17.6662 52.6619 17.765L52.6928 17.7976ZM60.8453 35.5998C60.2818 35.5853 59.8102 36.0271 59.7904 36.5905C59.7841 36.7291 59.8059 36.8675 59.8546 36.9973C59.9033 37.1272 59.9778 37.2458 60.0737 37.3461C60.1695 37.4463 60.2847 37.5261 60.4123 37.5806C60.5398 37.635 60.6771 37.663 60.8158 37.6629C61.3558 37.6629 61.8081 37.2405 61.8384 36.6941L61.8401 36.6519C61.8562 36.0863 61.4108 35.6164 60.8452 35.5998H60.8453ZM46.1357 12.7625L46.1602 12.7757C46.3073 12.8542 46.4715 12.8953 46.6382 12.8954C46.8235 12.8952 47.0054 12.8449 47.1644 12.7496C47.3234 12.6543 47.4536 12.5177 47.5412 12.3544C47.8084 11.8573 47.6204 11.2356 47.1248 10.9664L46.6285 11.8636L47.1215 10.9642C47.0034 10.8995 46.8737 10.8587 46.7398 10.8441C46.6059 10.8295 46.4705 10.8414 46.3412 10.8791C46.2119 10.9169 46.0913 10.9797 45.9863 11.064C45.8814 11.1484 45.794 11.2526 45.7293 11.3707C45.4573 11.8668 45.639 12.4905 46.1356 12.7625H46.1357ZM49.6038 15.0114L49.6199 15.0237C49.7978 15.159 50.0153 15.2321 50.2388 15.2319C50.4536 15.232 50.663 15.1646 50.8374 15.0393C51.0119 14.914 51.1426 14.7371 51.2112 14.5336C51.2797 14.3301 51.2827 14.1101 51.2195 13.9048C51.1564 13.6995 51.0304 13.5192 50.8594 13.3893L50.8523 13.3845C50.7455 13.3025 50.6236 13.2423 50.4936 13.2074C50.3635 13.1725 50.2279 13.1636 50.0944 13.1811C49.9609 13.1986 49.8321 13.2423 49.7155 13.3095C49.5989 13.3768 49.4967 13.4664 49.4147 13.5732C49.2491 13.789 49.176 14.0617 49.2114 14.3314C49.2468 14.6011 49.3879 14.8457 49.6036 15.0114H49.6038Z" fill="#D96122"></path>
  <path d="M69.367 51.1231L64.5535 46.3011C64.3528 46.0988 64.1139 45.9385 63.8507 45.8293C63.5875 45.7201 63.3052 45.6643 63.0202 45.6651C62.7354 45.6643 62.4532 45.7202 62.1901 45.8293C61.927 45.9385 61.6883 46.0989 61.4876 46.3011L61.3759 46.4128L61.0597 46.0966C60.6752 45.7122 60.3701 45.2558 60.162 44.7534C60.1442 44.6878 60.1197 44.6241 60.0889 44.5634C59.9302 44.1162 59.8494 43.645 59.8502 43.1705V41.8065C59.998 41.8845 60.1626 41.9252 60.3298 41.925C60.5694 41.9247 60.8014 41.8404 60.9854 41.6869C61.1694 41.5333 61.2938 41.3202 61.337 41.0845C61.3746 40.8937 61.3572 40.6961 61.2868 40.5149C61.2164 40.3336 61.0959 40.1761 60.9393 40.0607C60.7828 39.9453 60.5967 39.8768 60.4027 39.8632C60.2087 39.8496 60.0148 39.8915 59.8437 39.9839C59.7807 38.5269 59.1852 37.1661 58.1491 36.1279L53.4793 31.45C52.4315 30.4006 51.0382 29.8228 49.5562 29.8228C48.4091 29.8228 47.3164 30.1705 46.3946 30.814L45.899 30.3157V18.5878C45.8992 17.175 45.3858 15.8102 44.4543 14.748C43.7915 13.9926 43.4263 13.0218 43.4268 12.0169V11.1575H43.4973C44.6926 11.1575 45.6651 10.185 45.6651 8.98924V2.16836C45.6651 0.972479 44.6926 0 43.4973 0H24.3434C23.1482 0 22.1756 0.972479 22.1756 2.16836V8.98924C22.1756 10.185 23.1482 11.1576 24.3434 11.1576H24.5015V11.6071C24.5015 12.7126 24.0715 13.752 23.2912 14.5333L21.224 16.6043C20.127 17.7035 19.523 19.1641 19.523 20.7182V27.3336C19.5224 28.2019 19.7264 29.0581 20.1184 29.8329C18.7587 29.9114 17.4915 30.4781 16.5205 31.45L11.8508 36.1279C10.7537 37.2271 10.1497 38.6882 10.1497 40.2417V43.1705C10.1497 44.276 9.72041 45.3152 8.94016 46.0966L8.62762 46.4096C8.62612 46.4106 8.62489 46.4117 8.62393 46.4128L8.51291 46.3011C8.31217 46.0988 8.07326 45.9385 7.81005 45.8293C7.54684 45.7201 7.26457 45.6643 6.97962 45.6651C6.69474 45.6643 6.41256 45.7201 6.14944 45.8293C5.88632 45.9385 5.6475 46.0989 5.44686 46.3011L0.63287 51.1231C-0.210957 51.9685 -0.210957 53.3443 0.63287 54.1897L2.28156 55.8405C2.37664 55.9358 2.48958 56.0115 2.61392 56.0631C2.73825 56.1148 2.87155 56.1415 3.0062 56.1416C3.14084 56.1418 3.27419 56.1154 3.39864 56.064C3.52308 56.0125 3.63617 55.9371 3.73146 55.842C3.82678 55.7468 3.90243 55.6338 3.95407 55.5094C4.00572 55.385 4.03235 55.2516 4.03245 55.1169C4.03255 54.9822 4.00612 54.8488 3.95466 54.7243C3.90321 54.5998 3.82773 54.4867 3.73255 54.3914L2.08441 52.7403C2.06212 52.7179 2.0496 52.6877 2.0496 52.6562C2.0496 52.6246 2.06212 52.5944 2.08441 52.5721L6.8984 47.75C6.90908 47.7393 6.92176 47.7308 6.93573 47.725C6.94971 47.7192 6.96469 47.7162 6.97982 47.7162C6.99495 47.7162 7.00993 47.7192 7.02391 47.725C7.03788 47.7308 7.05056 47.7393 7.06124 47.75L7.89823 48.5885H7.89864L19.3258 60.0354L20.6061 61.3182C20.6526 61.3647 20.6526 61.4399 20.6061 61.4864L15.7926 66.3085C15.7819 66.3193 15.7692 66.3278 15.7552 66.3337C15.7411 66.3395 15.7261 66.3425 15.7109 66.3425C15.6957 66.3425 15.6806 66.3395 15.6666 66.3337C15.6525 66.3278 15.6398 66.3193 15.6291 66.3085L6.63577 57.2994C6.54068 57.2041 6.42773 57.1284 6.30339 57.0767C6.17904 57.025 6.04572 56.9983 5.91106 56.9982C5.7764 56.9981 5.64303 57.0245 5.51858 57.0759C5.39412 57.1273 5.28102 57.2027 5.18573 57.2979C5.09037 57.393 5.01468 57.506 4.96299 57.6304C4.9113 57.7548 4.88462 57.8882 4.88446 58.0229C4.88431 58.1576 4.91069 58.291 4.9621 58.4155C5.01351 58.54 5.08895 58.6531 5.18409 58.7485L14.1781 67.7574C14.5872 68.1676 15.132 68.3934 15.7114 68.3934C15.9963 68.3941 16.2784 68.3383 16.5415 68.2291C16.8046 68.1199 17.0434 67.9596 17.244 67.7574L22.0576 62.9354C22.9014 62.0904 22.9014 60.7148 22.0576 59.8693L22.0053 59.8171L22.6126 59.2087C23.3209 58.4982 24.264 58.0706 25.2652 58.006C26.6742 57.9148 28.0016 57.3129 28.9987 56.3131L33.4207 51.8815C34.696 51.5466 35.6889 50.5079 35.9586 49.2069C36.4266 49.4299 36.9386 49.5454 37.457 49.545C39.3856 49.545 40.9547 47.9742 40.9547 46.0431V43.6084C41.4088 43.8159 41.9022 43.9232 42.4015 43.9229C44.3299 43.9229 45.8984 42.3522 45.8984 40.4211V33.2231L49.0525 36.3927C49.1477 36.4886 49.261 36.5646 49.3858 36.6164C49.5105 36.6683 49.6444 36.6948 49.7795 36.6946C49.9138 36.6948 50.0468 36.6685 50.171 36.6173C50.2952 36.566 50.408 36.4908 50.5031 36.396C50.6958 36.2041 50.8044 35.9435 50.805 35.6716C50.8056 35.3997 50.6981 35.1386 50.5063 34.9459L47.8766 32.3034C48.3911 32.0203 48.969 31.8724 49.5562 31.8736C50.4897 31.8736 51.3677 32.2378 52.0278 32.8995L56.6976 37.5767C57.4078 38.2887 57.7994 39.2351 57.7994 40.2417V43.1705C57.7994 44.8234 58.4418 46.377 59.6082 47.5455L59.9264 47.8643L58.4391 49.3543L49.4436 58.3654L48.9421 57.863C48.9366 57.858 48.9318 57.8527 48.9265 57.8479L48.8384 57.7593C47.7778 56.6965 46.3661 56.0567 44.8677 55.9596C43.955 55.9 43.0952 55.5098 42.4494 54.862L39.0802 51.5109C38.9847 51.4159 38.8714 51.3406 38.7468 51.2894C38.6223 51.2381 38.4888 51.2119 38.3541 51.2123C38.2194 51.2126 38.0861 51.2395 37.9618 51.2914C37.8375 51.3432 37.7246 51.4191 37.6296 51.5146C37.2306 51.9161 37.2323 52.5655 37.6339 52.9645L41.0012 56.3131C41.9984 57.313 43.326 57.9149 44.7352 58.006C45.7361 58.0707 46.679 58.4981 47.3873 59.2081L47.4371 59.2579C47.4637 59.2882 47.492 59.3167 47.5218 59.3433L47.9946 59.8164L47.9422 59.8693C47.0984 60.7148 47.0984 62.09 47.9422 62.9354L52.7557 67.7574C53.1653 68.1676 53.7096 68.3934 54.289 68.3934C54.5739 68.3941 54.8562 68.3383 55.1194 68.2291C55.3826 68.1199 55.6215 67.9596 55.8223 67.7574L69.367 54.1891C70.2108 53.3437 70.2108 51.9685 69.367 51.1231ZM60.5374 40.927L60.5183 40.9237L60.3313 40.8858L60.5374 40.927ZM27.5473 54.8642C26.9025 55.5109 26.0441 55.9004 25.1328 55.9596C23.6342 56.0565 22.2223 56.6964 21.1614 57.7593L20.5563 58.3654L20.0116 57.8196C20.0048 57.8128 19.9978 57.8053 19.9908 57.7988L10.0733 47.8643L10.3917 47.5455C11.558 46.377 12.2005 44.8234 12.2005 43.1705V40.2417C12.2005 39.2351 12.5915 38.2887 13.3023 37.5768L17.9721 32.8995C18.6321 32.2378 19.5101 31.8736 20.4437 31.8736C21.0425 31.8736 21.6181 32.0241 22.1286 32.3067L19.4947 34.945C19.3026 35.1374 19.1948 35.3983 19.195 35.6702C19.1952 35.942 19.3034 36.2027 19.4958 36.3949C19.5909 36.49 19.7039 36.5655 19.8282 36.6169C19.9526 36.6683 20.0858 36.6947 20.2204 36.6946C20.3552 36.6947 20.4888 36.6682 20.6133 36.6166C20.7379 36.565 20.851 36.4893 20.9462 36.3938L24.0924 33.2419V46.0431C24.0924 47.9742 25.6614 49.545 27.5899 49.545C28.1335 49.545 28.6484 49.42 29.1076 49.1977C29.316 50.2141 29.9654 51.0708 30.8455 51.5589L27.5473 54.8642ZM43.8482 40.4216C43.8482 41.2217 43.1988 41.8728 42.4015 41.8728C41.6036 41.8728 40.9547 41.2217 40.9547 40.4216V28.9838C40.9547 28.7118 40.8467 28.451 40.6544 28.2587C40.4621 28.0664 40.2013 27.9584 39.9293 27.9584C39.6574 27.9584 39.3966 28.0664 39.2043 28.2587C39.012 28.451 38.9039 28.7118 38.9039 28.9838V46.0436C38.9039 46.8437 38.2551 47.4942 37.4572 47.4942C36.7409 47.4942 36.1466 46.9698 36.0317 46.2835V28.9722C36.0319 28.7931 35.9851 28.6172 35.8961 28.4619C35.8072 28.3066 35.6791 28.1773 35.5246 28.0868C35.3701 27.9964 35.1946 27.948 35.0156 27.9465C34.8366 27.9449 34.6603 27.9903 34.5043 28.078C34.3398 28.1653 34.2022 28.2957 34.1062 28.4553C34.0103 28.6149 33.9596 28.7976 33.9596 28.9838V46.0431C33.9596 46.1735 33.967 46.3011 33.981 46.4277V48.4939C33.981 49.294 33.3321 49.9449 32.5342 49.9449C31.7369 49.9449 31.088 49.294 31.088 48.4939V28.9597C31.088 28.6877 30.9799 28.4268 30.7876 28.2345C30.5952 28.0421 30.3344 27.934 30.0623 27.934C29.7903 27.934 29.5294 28.0421 29.3371 28.2345C29.1447 28.4268 29.0367 28.6877 29.0367 28.9597V46.0431C29.0367 46.8432 28.3878 47.4942 27.5905 47.4942C26.7926 47.4942 26.1437 46.8432 26.1437 46.0431V26.9694C26.1437 26.6974 26.0357 26.4366 25.8434 26.2443C25.6511 26.052 25.3903 25.944 25.1183 25.944C24.8464 25.944 24.5856 26.052 24.3933 26.2443C24.201 26.4366 24.0929 26.6974 24.0929 26.9694V30.4972C24.0057 30.5252 23.9227 30.565 23.8462 30.6154C22.52 30.117 21.5738 28.8342 21.5738 27.3336V20.7182C21.5738 19.7115 21.9652 18.7652 22.6754 18.0533L24.7429 15.9821C25.9098 14.8137 26.5522 13.2601 26.5522 11.6071V11.1576H28.6137C28.8856 11.1576 29.1464 11.0496 29.3387 10.8573C29.531 10.665 29.6391 10.4042 29.6391 10.1322C29.6391 9.56565 29.1804 9.10682 28.6137 9.10682H24.3434C24.3123 9.10671 24.2826 9.09429 24.2606 9.07228C24.2387 9.05026 24.2264 9.02045 24.2264 8.98938V2.16836C24.2264 2.10369 24.2787 2.05078 24.3434 2.05078H43.4967C43.5279 2.05078 43.5578 2.06317 43.5799 2.08522C43.6019 2.10727 43.6143 2.13717 43.6143 2.16836V8.98924C43.6143 9.05446 43.5619 9.10682 43.4967 9.10682H33.4277C33.1557 9.10682 32.8949 9.21485 32.7026 9.40715C32.5103 9.59945 32.4023 9.86026 32.4023 10.1322C32.4023 10.4042 32.5103 10.665 32.7026 10.8573C32.8949 11.0496 33.1557 11.1576 33.4277 11.1576H41.3761V12.0169C41.3761 13.5208 41.9213 14.9707 42.912 16.1007C43.5156 16.7886 43.8484 17.6726 43.8482 18.5878V40.4216ZM67.9155 52.7403L54.3708 66.3085C54.3603 66.3195 54.3476 66.3283 54.3335 66.3342C54.3194 66.3401 54.3043 66.343 54.289 66.3427C54.2738 66.3428 54.2586 66.3399 54.2446 66.334C54.2305 66.3282 54.2178 66.3195 54.2072 66.3085L49.3938 61.4864C49.3715 61.4641 49.359 61.4339 49.359 61.4023C49.359 61.3708 49.3715 61.3406 49.3938 61.3182L50.1687 60.5417L50.1693 60.5411L58.0322 52.6649L62.9386 47.7499C62.9493 47.7391 62.9619 47.7306 62.9759 47.7247C62.9899 47.7189 63.0049 47.7159 63.02 47.7159C63.0352 47.7159 63.0502 47.7189 63.0642 47.7247C63.0781 47.7306 63.0908 47.7391 63.1015 47.7499L67.9153 52.572C67.9618 52.6184 67.9618 52.6938 67.9153 52.7401L67.9155 52.7403Z" fill="#D96122"></path>
  <path d="M27.5898 4.48511C26.988 4.48511 26.4983 4.97593 26.4983 5.57886C26.4983 6.18233 26.988 6.67261 27.59 6.67261C28.1924 6.67261 28.6821 6.18233 28.6821 5.57886C28.6821 4.97593 28.1922 4.48511 27.5898 4.48511ZM63.3557 51.2269C62.7534 51.2269 62.2636 51.7177 62.2636 52.3207C62.2636 52.9236 62.7534 53.4144 63.3557 53.4144C63.9577 53.4144 64.4474 52.9236 64.4474 52.3207C64.4474 51.7177 63.9577 51.2269 63.3557 51.2269ZM17.0877 61.688C17.0877 61.085 16.5979 60.5942 15.9961 60.5942C15.3937 60.5942 14.904 61.085 14.904 61.688C14.904 62.2909 15.3937 62.7817 15.9961 62.7817C16.5979 62.7817 17.0877 62.2909 17.0877 61.688Z" fill="#D96122"></path>
</svg>
