<svg width="24" height="25" viewBox="0 0 24 25" fill="none" xmlns="http://www.w3.org/2000/svg">
<path d="M10.4901 3.22731L5.50015 5.09731C4.35015 5.52731 3.41016 6.88731 3.41016 8.11731V15.5473C3.41016 16.7273 4.19017 18.2773 5.14017 18.9873L9.44016 22.1973C10.8502 23.2573 13.1701 23.2573 14.5801 22.1973L18.8802 18.9873C19.8302 18.2773 20.6101 16.7273 20.6101 15.5473V8.11731C20.6101 6.88731 19.6701 5.52731 18.5201 5.09731L13.5302 3.22731C12.6802 2.91731 11.3201 2.91731 10.4901 3.22731Z" stroke="#D96122" stroke-width="1.5" stroke-linecap="round" stroke-linejoin="round"/>
<path d="M12 16.4973C14.2091 16.4973 16 14.7065 16 12.4973C16 10.2882 14.2091 8.49731 12 8.49731C9.79086 8.49731 8 10.2882 8 12.4973C8 14.7065 9.79086 16.4973 12 16.4973Z" stroke="#D96122" stroke-width="1.5" stroke-miterlimit="10" stroke-linecap="round" stroke-linejoin="round"/>
<path d="M12.25 11.2473V12.1773C12.25 12.5273 12.07 12.8573 11.76 13.0373L11 13.4973" stroke="#D96122" stroke-width="1.5" stroke-miterlimit="10" stroke-linecap="round" stroke-linejoin="round"/>
</svg>
