<?xml version="1.0" encoding="UTF-8"?>
<svg xmlns="http://www.w3.org/2000/svg" width="51" height="51" viewBox="0 0 51 51" fill="none">
  <g clip-path="url(#clip0_243_4394)">
    <path d="M37.5747 0.875977H13.4368C12.0085 0.875977 10.8506 2.03386 10.8506 3.46218V48.2898C10.8506 49.7181 12.0085 50.876 13.4368 50.876H37.5747C39.003 50.876 40.1609 49.7181 40.1609 48.2898V3.46218C40.1609 2.03386 39.003 0.875977 37.5747 0.875977Z" fill="#62B8CD"></path>
    <path d="M40.1609 3.46218V48.2898C40.1609 49.7181 39.003 50.876 37.5747 50.876H13.4368C12.0085 50.876 10.8506 49.7181 10.8506 48.2898V41.9794C20.9627 38.3674 35.9196 28.3415 32.2385 0.875977H37.5747C39.003 0.875977 40.1609 2.03386 40.1609 3.46218Z" fill="#1EA7CE"></path>
    <path d="M34.1261 0.875977L31.6598 3.50701C31.1707 4.02855 30.4876 4.32438 29.7727 4.32425H21.2382C20.5233 4.32438 19.8402 4.02855 19.3511 3.50701L16.8848 0.875977H34.1261Z" fill="#1D80BD"></path>
    <path d="M50.5059 13.8069V36.2207C50.5059 37.649 49.348 38.8069 47.9197 38.8069H38.3248C37.9198 38.7941 37.5736 38.5115 37.48 38.1173C37.2513 37.2973 36.6366 36.6407 35.8334 36.3586C35.2852 36.1747 34.692 36.1747 34.1438 36.3586C33.3407 36.6407 32.7259 37.2973 32.4972 38.1173C32.4036 38.5115 32.0574 38.7941 31.6524 38.8069H3.09207C1.66374 38.8069 0.505859 37.649 0.505859 36.2207V13.8069C0.505859 12.3786 1.66374 11.2207 3.09207 11.2207H31.6524C32.0574 11.2335 32.4036 11.5161 32.4972 11.9104C32.7259 12.7303 33.3407 13.3869 34.1438 13.669C34.692 13.8529 35.2852 13.8529 35.8334 13.669C36.6366 13.3869 37.2513 12.7303 37.48 11.9104C37.5736 11.5161 37.9198 11.2335 38.3248 11.2207H47.9197C48.6056 11.2207 49.2634 11.4932 49.7484 11.9782C50.2334 12.4632 50.5059 13.121 50.5059 13.8069Z" fill="#F1C200"></path>
    <path d="M35.851 35.3589V36.221C35.8544 36.2676 35.8485 36.3145 35.8338 36.3589C35.2856 36.175 34.6923 36.175 34.1441 36.3589C34.1294 36.3145 34.1235 36.2676 34.1269 36.221V35.3589C34.1269 34.8828 34.5129 34.4968 34.989 34.4968C35.4651 34.4968 35.851 34.8828 35.851 35.3589Z" fill="#F49A00"></path>
    <path d="M34.989 32.7727C34.5129 32.7727 34.127 32.3868 34.127 31.9107V31.0486C34.127 30.5725 34.5129 30.1865 34.989 30.1865C35.4651 30.1865 35.8511 30.5725 35.8511 31.0486V31.9107C35.8511 32.3868 35.4651 32.7727 34.989 32.7727Z" fill="#F49A00"></path>
    <path d="M34.989 28.4622C34.5129 28.4622 34.127 28.0762 34.127 27.6001V26.738C34.127 26.2619 34.5129 25.876 34.989 25.876C35.4651 25.876 35.8511 26.2619 35.8511 26.738V27.6001C35.8511 28.0762 35.4651 28.4622 34.989 28.4622Z" fill="#F49A00"></path>
    <path d="M34.989 24.1519C34.5129 24.1519 34.127 23.7659 34.127 23.2898V22.4277C34.127 21.9516 34.5129 21.5657 34.989 21.5657C35.4651 21.5657 35.8511 21.9516 35.8511 22.4277V23.2898C35.8511 23.7659 35.4651 24.1519 34.989 24.1519Z" fill="#F49A00"></path>
    <path d="M34.989 19.8416C34.5129 19.8416 34.127 19.4556 34.127 18.9795V18.1174C34.127 17.6413 34.5129 17.2554 34.989 17.2554C35.4651 17.2554 35.8511 17.6413 35.8511 18.1174V18.9795C35.8511 19.4556 35.4651 19.8416 34.989 19.8416Z" fill="#F49A00"></path>
    <path d="M35.851 13.8071V14.6692C35.851 15.1453 35.4651 15.5313 34.989 15.5313C34.5129 15.5313 34.1269 15.1453 34.1269 14.6692V13.8071C34.1235 13.7605 34.1294 13.7136 34.1441 13.6692C34.6923 13.8531 35.2856 13.8531 35.8338 13.6692C35.8485 13.7136 35.8544 13.7605 35.851 13.8071Z" fill="#F49A00"></path>
    <path d="M40.1609 35.3587C39.6848 35.3587 39.2988 34.9727 39.2988 34.4966V31.0483C39.2988 30.5722 39.6848 30.1863 40.1609 30.1863C40.637 30.1863 41.023 30.5722 41.023 31.0483V34.4966C41.023 34.9727 40.637 35.3587 40.1609 35.3587Z" fill="#3D5C6D"></path>
    <path d="M43.6091 35.3587C43.133 35.3587 42.7471 34.9727 42.7471 34.4966V31.0483C42.7471 30.5722 43.133 30.1863 43.6091 30.1863C44.0852 30.1863 44.4712 30.5722 44.4712 31.0483V34.4966C44.4712 34.9727 44.0852 35.3587 43.6091 35.3587Z" fill="#3D5C6D"></path>
    <path d="M47.0574 35.3587C46.5813 35.3587 46.1953 34.9727 46.1953 34.4966V31.0483C46.1953 30.5722 46.5813 30.1863 47.0574 30.1863C47.5335 30.1863 47.9195 30.5722 47.9195 31.0483V34.4966C47.9195 34.9727 47.5335 35.3587 47.0574 35.3587Z" fill="#3D5C6D"></path>
    <path d="M50.5057 25.876V27.6001H40.1609C39.6848 27.6001 39.2988 27.2142 39.2988 26.738C39.2988 26.2619 39.6848 25.876 40.1609 25.876H50.5057Z" fill="#E77D00"></path>
    <path d="M50.5057 22.4277V24.1519H40.1609C39.6848 24.1519 39.2988 23.7659 39.2988 23.2898C39.2988 22.8137 39.6848 22.4277 40.1609 22.4277H50.5057Z" fill="#E77D00"></path>
    <path d="M44.4715 14.6692H41.0232C40.5471 14.6692 40.1611 15.0552 40.1611 15.5313V18.9795C40.1611 19.4556 40.5471 19.8416 41.0232 19.8416H44.4715C44.9476 19.8416 45.3335 19.4556 45.3335 18.9795V15.5313C45.3335 15.0552 44.9476 14.6692 44.4715 14.6692Z" fill="#34495F"></path>
    <path d="M22.0574 23.2899L20.4721 15.3588C20.3901 14.9571 20.0364 14.6687 19.6264 14.6692H18.6091C18.133 14.6692 17.7471 15.0552 17.7471 15.5313V23.2899H22.0574Z" fill="#34495F"></path>
    <path d="M10.8504 23.2898L9.34263 19.5217C9.21187 19.1944 8.89506 18.9797 8.54263 18.9795H7.40211C6.926 18.9795 6.54004 19.3655 6.54004 19.8416V23.2898H10.8504Z" fill="#34495F"></path>
    <path d="M10.8504 26.738L9.34263 30.5061C9.21187 30.8334 8.89506 31.0482 8.54263 31.0484H7.40211C6.926 31.0484 6.54004 30.6624 6.54004 30.1863V26.738H10.8504Z" fill="#34495F"></path>
    <path d="M22.0574 26.738L20.4721 34.6691C20.3901 35.0708 20.0364 35.3592 19.6264 35.3587H18.6091C18.133 35.3587 17.7471 34.9728 17.7471 34.4967V26.738H22.0574Z" fill="#34495F"></path>
    <path d="M5.67824 26.7381H27.8334C29.0165 26.7382 30.1731 26.3881 31.1575 25.732C31.3973 25.5721 31.5414 25.303 31.5414 25.0148C31.5414 24.7266 31.3973 24.4574 31.1575 24.2976C30.1733 23.6409 29.0166 23.2902 27.8334 23.2898H5.67824C4.72602 23.2898 3.9541 24.0617 3.9541 25.0139C3.9541 25.9661 4.72602 26.7381 5.67824 26.7381Z" fill="#3D5C6D"></path>
    <path d="M40.1609 43.9795V48.2898C40.1609 49.7182 39.003 50.876 37.5747 50.876H13.4368C12.0085 50.876 10.8506 49.7182 10.8506 48.2898V43.9795C10.8506 45.4078 12.0085 46.5657 13.4368 46.5657H37.5747C39.003 46.5657 40.1609 45.4078 40.1609 43.9795Z" fill="#1D80BD"></path>
  </g>
  <defs>
    <clipPath id="clip0_243_4394">
      <rect width="50" height="50" fill="white" transform="translate(0.505859 0.875977)"></rect>
    </clipPath>
  </defs>
</svg>
