<?xml version="1.0" encoding="UTF-8"?>
<svg xmlns="http://www.w3.org/2000/svg" width="46" height="46" viewBox="0 0 46 46" fill="none">
  <path d="M41.4324 45.4722H4.08905C1.8721 45.4722 0 43.6494 0 41.3832V4.08905C0 1.8721 1.82283 0 4.08905 0H41.4324C43.6494 0 45.5215 1.82283 45.5215 4.08905V41.4324C45.4722 43.6494 43.6494 45.4722 41.4324 45.4722ZM2.01989 8.37517V41.4324C2.01989 42.5655 2.95594 43.5509 4.13832 43.5509H41.4817C42.6148 43.5509 43.6001 42.6148 43.6001 41.4324V8.37517H2.01989ZM2.01989 6.40454H43.5509V4.13832C43.5509 3.00521 42.6148 2.01989 41.4324 2.01989H4.08905C2.95594 2.01989 1.97063 2.95594 1.97063 4.13832V6.40454H2.01989ZM32.9587 37.639C32.4168 37.639 31.9734 37.1956 31.9734 36.6537V13.0061C31.9734 12.4642 32.4168 12.0208 32.9587 12.0208C33.5007 12.0208 33.944 12.4642 33.944 13.0061V36.6537C33.944 37.1956 33.5007 37.639 32.9587 37.639ZM19.5092 37.639C15.1246 37.639 11.5282 34.0426 11.5282 29.6579V13.0061C11.5282 12.4642 11.9716 12.0208 12.5135 12.0208C13.0554 12.0208 13.4988 12.4642 13.4988 13.0061V29.6579C13.4988 32.9587 16.2084 35.6684 19.5092 35.6684C22.81 35.6684 25.5196 32.9587 25.5196 29.6579V13.0061C25.5196 12.4642 25.963 12.0208 26.5049 12.0208C27.0469 12.0208 27.4902 12.4642 27.4902 13.0061V29.6579C27.4902 34.0426 23.9431 37.639 19.5092 37.639ZM39.9052 5.1729H26.9976C26.4557 5.1729 26.0123 4.72951 26.0123 4.18758C26.0123 3.64566 26.4557 3.20227 26.9976 3.20227H39.8559C40.3979 3.20227 40.8412 3.64566 40.8412 4.18758C40.8412 4.72951 40.4471 5.1729 39.9052 5.1729ZM15.6172 5.1729H11.7745C11.2326 5.1729 10.7892 4.72951 10.7892 4.18758C10.7892 3.64566 11.2326 3.20227 11.7745 3.20227H15.6172C16.1591 3.20227 16.6025 3.64566 16.6025 4.18758C16.6025 4.72951 16.1591 5.1729 15.6172 5.1729ZM8.96635 5.1729H4.18758C3.64566 5.1729 3.20227 4.72951 3.20227 4.18758C3.20227 3.64566 3.64566 3.20227 4.18758 3.20227H8.96635C9.50828 3.20227 9.95167 3.64566 9.95167 4.18758C9.95167 4.72951 9.50828 5.1729 8.96635 5.1729Z" fill="#D96122"></path>
</svg>
