<?xml version="1.0" encoding="UTF-8"?>
<svg xmlns="http://www.w3.org/2000/svg" width="41" height="45" viewBox="0 0 41 45" fill="none">
  <path d="M36.9351 5.77661H36.413C37.4082 4.15646 37.0407 1.98134 35.4436 0.796373C33.7227 -0.480289 31.2773 -0.0693445 30.0763 1.72534L27.3654 5.7767H4.07702C2.1628 5.7767 0.605469 7.33403 0.605469 9.24825V31.4432C0.605469 33.3575 2.1628 34.9148 4.07702 34.9148H17.5616L16.5427 39.1941H14.3437C12.9105 39.1941 11.7446 40.36 11.7446 41.7932V42.3359H9.03371C8.55909 42.3359 8.17435 42.7207 8.17435 43.1952C8.17435 43.6698 8.55909 44.0546 9.03371 44.0546H31.9785C32.4531 44.0546 32.8379 43.6698 32.8379 43.1952C32.8379 42.7207 32.4531 42.3359 31.9785 42.3359H29.2676V41.7932C29.2676 40.36 28.1017 39.1941 26.6685 39.1941H24.4695L23.4506 34.9148H36.9352C38.8494 34.9148 40.4067 33.3575 40.4067 31.4432V26.5595V9.24816C40.4067 7.33394 38.8494 5.77661 36.9351 5.77661ZM24.622 20.884C23.2784 21.8246 20.7613 20.5461 18.3575 21.8288C17.771 18.782 18.1408 15.9164 21.1936 15.2839C21.5882 15.2017 22.0129 15.1645 22.3746 15.1717C23.4079 15.9383 24.453 16.7137 25.4834 17.4783C25.9345 18.7904 25.7652 20.0839 24.622 20.884ZM25.4881 11.6728L27.9207 13.4776L26.05 15.7584C25.2798 15.187 24.6177 14.6958 23.8476 14.1243C24.0075 13.8853 25.3419 11.8911 25.4881 11.6728ZM31.5048 2.6812C32.1557 1.70832 33.4831 1.48197 34.4195 2.17676C35.3562 2.87164 35.5239 4.20759 34.7817 5.11258C33.4648 6.71812 30.3338 10.5355 29.0118 12.1472L26.4449 10.2427L31.5048 2.6812ZM27.5488 41.7932V42.3359H13.4633V41.7932C13.4633 41.3078 13.8582 40.9128 14.3437 40.9128H26.6684C27.1539 40.9128 27.5488 41.3078 27.5488 41.7932ZM22.7027 39.1941H18.3095L19.3283 34.9148H21.6838L22.7027 39.1941ZM38.688 31.4432C38.688 32.4098 37.9017 33.1961 36.9352 33.1961C35.571 33.1961 5.61089 33.1961 4.0771 33.1961C3.11058 33.1961 2.32427 32.4098 2.32427 31.4432V27.4189H4.77997C5.2546 27.4189 5.63933 27.034 5.63933 26.5595C5.63933 26.085 5.2546 25.7001 4.77997 25.7001H2.3241V9.24816C2.3241 8.28164 3.11041 7.49533 4.07693 7.49533H26.2153C25.392 8.72567 22.9902 12.315 22.2294 13.4519C20.5453 13.4671 18.864 14.0538 17.7633 15.3387C16.2656 17.0871 16.0024 19.8342 16.9812 23.5039C17.1485 24.1314 17.9315 24.3562 18.4053 23.9037C20.6273 21.7804 23.3948 24.0964 25.8731 22.0905C27.3859 20.8659 27.7439 18.9191 27.1735 17.0987C27.9446 16.1585 34.2773 8.4377 35.0502 7.49533H36.935C37.9015 7.49533 38.6878 8.28164 38.6878 9.24816V25.7001H11.6547C11.18 25.7001 10.7953 26.0849 10.7953 26.5594C10.7953 27.0339 11.18 27.4188 11.6547 27.4188H38.688V31.4432Z" fill="#D96122"></path>
</svg>
