<?xml version="1.0" encoding="UTF-8"?>
<svg version="1.1" xmlns="http://www.w3.org/2000/svg" width="65" height="65">
<path d="M0 0 C2.39614575 0.14165893 4.79182897 0.28818841 7.1875 0.4375 C8.19780273 0.49647461 8.19780273 0.49647461 9.22851562 0.55664062 C12.89699102 0.78927565 16.41694206 1.17207011 20 2 C21.06795656 7.57710648 20.82622671 12.39436958 20 18 C18.35 18 16.7 18 15 18 C15.05220703 19.78857422 15.05220703 19.78857422 15.10546875 21.61328125 C15.13360753 23.17967342 15.1609076 24.74608081 15.1875 26.3125 C15.21263672 27.09818359 15.23777344 27.88386719 15.26367188 28.69335938 C15.27333984 29.45068359 15.28300781 30.20800781 15.29296875 30.98828125 C15.3086792 31.68477783 15.32438965 32.38127441 15.34057617 33.09887695 C14.86968869 35.72740798 14.18461321 36.45509251 12 38 C8.92480469 38.89135742 8.92480469 38.89135742 5.171875 39.60546875 C4.50464417 39.73440018 3.83741333 39.8633316 3.14996338 39.99617004 C1.73888587 40.26626795 0.32671022 40.53068246 -1.08642578 40.78979492 C-3.23104596 41.1840159 -5.37130636 41.59727513 -7.51171875 42.01367188 C-24.225909 45.18272733 -24.225909 45.18272733 -29 42 C-29.33763588 39.02705026 -29.48913038 36.25257498 -29.51171875 33.2734375 C-29.52966995 32.41062164 -29.54762115 31.54780579 -29.56611633 30.65884399 C-29.6203852 27.89761269 -29.65416757 25.13655582 -29.6875 22.375 C-29.7206585 20.50518397 -29.75514678 18.635391 -29.79101562 16.765625 C-29.87612096 12.17720891 -29.94285254 7.58884604 -30 3 C-27.122721 1.3522173 -25.22209316 0.76754239 -21.91796875 0.98828125 C-21.15033203 1.03533203 -20.38269531 1.08238281 -19.59179688 1.13085938 C-18.79837891 1.19080078 -18.00496094 1.25074219 -17.1875 1.3125 C-16.01477539 1.38500977 -16.01477539 1.38500977 -14.81835938 1.45898438 C-10.17029605 1.76574879 -5.6018783 2.28114852 -1 3 C-0.67 2.01 -0.34 1.02 0 0 Z " fill="#E6D3F1" transform="translate(40,11)"/>
<path d="M0 0 C1.75648895 -0.01356217 3.51300827 -0.02322608 5.26953125 -0.03125 C6.24768799 -0.03705078 7.22584473 -0.04285156 8.23364258 -0.04882812 C11.23651877 0.00417472 14.06488926 0.36538146 17 1 C16.01 2.485 16.01 2.485 15 4 C11.375 4.1875 11.375 4.1875 8 4 C8 6.31 8 8.62 8 11 C10.31 11 12.62 11 15 11 C15.33 10.01 15.66 9.02 16 8 C16.33 8.99 16.66 9.98 17 11 C19.97 11 22.94 11 26 11 C26 11.66 26 12.32 26 13 C23.03 13 20.06 13 17 13 C17 13.66 17 14.32 17 15 C19.64 15 22.28 15 25 15 C22 17 22 17 19.4375 17.5 C16.83145436 17.80148247 16.83145436 17.80148247 15 20 C15 17.69 15 15.38 15 13 C14.01 13.495 14.01 13.495 13 14 C11.00039988 14.039992 8.99952758 14.04346799 7 14 C7.165 15.134375 7.33 16.26875 7.5 17.4375 C8.07576084 21.97060294 8.09505266 26.43747238 8 31 C12.34184202 30.81535634 12.34184202 30.81535634 16 29 C17.85287502 28.92773498 19.70833878 28.9161878 21.5625 28.9375 C22.57441406 28.94652344 23.58632813 28.95554687 24.62890625 28.96484375 C25.80259766 28.98224609 25.80259766 28.98224609 27 29 C27 28.34 27 27.68 27 27 C28.216875 26.87625 29.43375 26.7525 30.6875 26.625 C34.10133495 26.27783034 37.00931262 25.73865385 40 24 C40.96772342 21.17314531 40.96772342 21.17314531 41.1875 17.9375 C41.40239622 15.95148112 41.66078618 13.96859985 42 12 C42.66 11.67 43.32 11.34 44 11 C44.0809313 13.60478883 44.14045434 16.20706653 44.1875 18.8125 C44.21263672 19.55048828 44.23777344 20.28847656 44.26367188 21.04882812 C44.33758566 26.49381027 44.33758566 26.49381027 42.90844727 28.63671875 C40.14192538 30.61295749 37.50225479 30.97176065 34.171875 31.60546875 C33.50464417 31.73440018 32.83741333 31.8633316 32.14996338 31.99617004 C30.73888587 32.26626795 29.32671022 32.53068246 27.91357422 32.78979492 C25.76895404 33.1840159 23.62869364 33.59727513 21.48828125 34.01367188 C4.774091 37.18272733 4.774091 37.18272733 0 34 C-0.26697888 31.37537756 -0.34832984 28.98934067 -0.29296875 26.3671875 C-0.28872391 25.61535187 -0.28447906 24.86351624 -0.28010559 24.08889771 C-0.2632917 21.68390315 -0.22563624 19.27974191 -0.1875 16.875 C-0.17245659 15.24610584 -0.15876758 13.61719856 -0.14648438 11.98828125 C-0.11337954 7.99186566 -0.06158009 3.99607418 0 0 Z " fill="#EFE7F6" transform="translate(11,19)"/>
<path d="M0 0 C2.43301627 0.06527605 4.8253784 0.19235431 7.25 0.375 C7.91902344 0.41882812 8.58804688 0.46265625 9.27734375 0.5078125 C12.92231215 0.76560987 16.4371569 1.18524131 20 2 C21.07931689 7.63643263 20.78769545 12.3110884 20 18 C17.03 18.66 14.06 19.32 11 20 C11 20.66 11 21.32 11 22 C9.865625 22.12375 8.73125 22.2475 7.5625 22.375 C5.7990625 22.684375 5.7990625 22.684375 4 23 C3.67 23.66 3.34 24.32 3 25 C2.01 25 1.02 25 0 25 C-0.19585353 21.02119772 -0.3802867 17.04194844 -0.5625 13.0625 C-0.61857422 11.92619141 -0.67464844 10.78988281 -0.73242188 9.61914062 C-0.78076172 8.53955078 -0.82910156 7.45996094 -0.87890625 6.34765625 C-0.9260376 5.34742432 -0.97316895 4.34719238 -1.02172852 3.31665039 C-1 1 -1 1 0 0 Z " fill="#F2CCF5" transform="translate(40,11)"/>
<path d="M0 0 C1.60407328 -0.02708567 3.2082785 -0.04643483 4.8125 -0.0625 C5.70582031 -0.07410156 6.59914063 -0.08570313 7.51953125 -0.09765625 C10 0 10 0 13 1 C13 3.31 13 5.62 13 8 C9.37 8 5.74 8 2 8 C2 8.66 2 9.32 2 10 C3.98 10 5.96 10 8 10 C8 10.66 8 11.32 8 12 C8.66 12 9.32 12 10 12 C10 12.99 10 13.98 10 15 C7.36 15 4.72 15 2 15 C1.67 14.34 1.34 13.68 1 13 C0.67 13.66 0.34 14.32 0 15 C-2.31 15 -4.62 15 -7 15 C-7 12.69 -7 10.38 -7 8 C-5.865625 7.855625 -4.73125 7.71125 -3.5625 7.5625 C-0.19222799 7.38828522 -0.19222799 7.38828522 1 6 C-0.65 5.67 -2.3 5.34 -4 5 C-2.68 4.67 -1.36 4.34 0 4 C0 2.68 0 1.36 0 0 Z " fill="#EAD2F6" transform="translate(26,15)"/>
<path d="M0 0 C1.17272461 0.07250977 1.17272461 0.07250977 2.36914062 0.14648438 C15.51402477 1.01402477 15.51402477 1.01402477 17.1875 2.6875 C17.27435603 4.24922745 17.29452219 5.81479344 17.28515625 7.37890625 C17.28193359 8.32314453 17.27871094 9.26738281 17.27539062 10.24023438 C17.26701172 11.23345703 17.25863281 12.22667969 17.25 13.25 C17.24548828 14.24708984 17.24097656 15.24417969 17.23632812 16.27148438 C17.22450007 18.74354849 17.20801849 21.21549518 17.1875 23.6875 C16.8575 23.0275 16.5275 22.3675 16.1875 21.6875 C15.5275 21.6875 14.8675 21.6875 14.1875 21.6875 C13.8575 19.3775 13.5275 17.0675 13.1875 14.6875 C12.5275 14.6875 11.8675 14.6875 11.1875 14.6875 C11.1875 14.0275 11.1875 13.3675 11.1875 12.6875 C9.2075 12.6875 7.2275 12.6875 5.1875 12.6875 C5.1875 12.0275 5.1875 11.3675 5.1875 10.6875 C8.8175 10.6875 12.4475 10.6875 16.1875 10.6875 C16.1875 9.6975 16.1875 8.7075 16.1875 7.6875 C15.5275 7.3575 14.8675 7.0275 14.1875 6.6875 C14.8475 6.6875 15.5075 6.6875 16.1875 6.6875 C16.1875 5.6975 16.1875 4.7075 16.1875 3.6875 C11.8975 3.3575 7.6075 3.0275 3.1875 2.6875 C3.1875 4.0075 3.1875 5.3275 3.1875 6.6875 C-2.0925 6.6875 -7.3725 6.6875 -12.8125 6.6875 C-12.8125 5.0375 -12.8125 3.3875 -12.8125 1.6875 C-8.80000362 -1.13530743 -4.6420812 -0.3507015 0 0 Z " fill="#CFAEE3" transform="translate(22.8125,12.3125)"/>
<path d="M0 0 C4.16138263 -0.08159574 7.9472484 0.01751476 12 1 C13.07931689 6.63643263 12.78769545 11.3110884 12 17 C9.03 17.33 6.06 17.66 3 18 C-0.24201565 11.92122066 -0.33278764 6.81598387 0 0 Z " fill="#E9D0EA" transform="translate(48,12)"/>
<path d="M0 0 C5.12583611 -0.10251672 9.94997778 -0.03590199 15 1 C14.01 2.485 14.01 2.485 13 4 C9.375 4.1875 9.375 4.1875 6 4 C6 6.31 6 8.62 6 11 C8.31 11 10.62 11 13 11 C13.33 10.01 13.66 9.02 14 8 C14.33 8.99 14.66 9.98 15 11 C17.97 11 20.94 11 24 11 C24 11.66 24 12.32 24 13 C21.03 13 18.06 13 15 13 C15 13.66 15 14.32 15 15 C17.64 15 20.28 15 23 15 C20 17 20 17 17.4375 17.5 C14.83145436 17.80148247 14.83145436 17.80148247 13 20 C13 17.69 13 15.38 13 13 C12.01 13.495 12.01 13.495 11 14 C9.00039988 14.039992 6.99952758 14.04346799 5 14 C5.09539063 14.68707031 5.19078125 15.37414063 5.2890625 16.08203125 C5.39992188 16.98308594 5.51078125 17.88414063 5.625 18.8125 C5.74101562 19.70582031 5.85703125 20.59914063 5.9765625 21.51953125 C6 24 6 24 4 27 C3.92652344 25.39318359 3.92652344 25.39318359 3.8515625 23.75390625 C3.77654706 22.35674361 3.7009987 20.9596095 3.625 19.5625 C3.5940625 18.85544922 3.563125 18.14839844 3.53125 17.41992188 C3.42719371 15.60760812 3.22080108 13.80182012 3 12 C2.34 11.67 1.68 11.34 1 11 C0.5859375 8.49609375 0.5859375 8.49609375 0.375 5.4375 C0.30023438 4.42558594 0.22546875 3.41367187 0.1484375 2.37109375 C0.09945313 1.58863281 0.05046875 0.80617188 0 0 Z " fill="#F6E7FC" transform="translate(13,19)"/>
<path d="M0 0 C6.75 -0.125 6.75 -0.125 9 1 C9 1.66 9 2.32 9 3 C8.34 3 7.68 3 7 3 C7 6.3 7 9.6 7 13 C5.68 13.33 4.36 13.66 3 14 C1.26171875 12.91796875 1.26171875 12.91796875 0 11 C-0.29296875 8.30078125 -0.29296875 8.30078125 -0.1875 5.3125 C-0.16042969 4.31863281 -0.13335937 3.32476562 -0.10546875 2.30078125 C-0.07066406 1.54152344 -0.03585938 0.78226563 0 0 Z " fill="#F4D2F2" transform="translate(48,12)"/>
<path d="M0 0 C7.875 0.875 7.875 0.875 9 2 C9.08685603 3.56172745 9.10702219 5.12729344 9.09765625 6.69140625 C9.09443359 7.63564453 9.09121094 8.57988281 9.08789062 9.55273438 C9.07951172 10.54595703 9.07113281 11.53917969 9.0625 12.5625 C9.05798828 13.55958984 9.05347656 14.55667969 9.04882812 15.58398438 C9.03700007 18.05604849 9.02051849 20.52799518 9 23 C8.67 22.34 8.34 21.68 8 21 C7.34 21 6.68 21 6 21 C5.67 18.69 5.34 16.38 5 14 C4.34 14 3.68 14 3 14 C3 13.34 3 12.68 3 12 C1.02 12 -0.96 12 -3 12 C-3 11.34 -3 10.68 -3 10 C0.63 10 4.26 10 8 10 C8 9.01 8 8.02 8 7 C7.34 6.67 6.68 6.34 6 6 C6.66 6 7.32 6 8 6 C8 5.01 8 4.02 8 3 C5.36 2.67 2.72 2.34 0 2 C0 1.34 0 0.68 0 0 Z " fill="#B184C9" transform="translate(31,13)"/>
<path d="M0 0 C0.99 0.33 1.98 0.66 3 1 C3.02684679 3.64590014 3.04676357 6.29153096 3.0625 8.9375 C3.07087891 9.69224609 3.07925781 10.44699219 3.08789062 11.22460938 C3.09652441 13.14994313 3.05224333 15.07535581 3 17 C2.67 17.33 2.34 17.66 2 18 C2.09096556 20.86688248 2.23767988 23.70300515 2.4375 26.5625 C2.48970703 27.36880859 2.54191406 28.17511719 2.59570312 29.00585938 C2.72577376 31.00421738 2.86229056 33.00215386 3 35 C2.01 34.67 1.02 34.34 0 34 C0 22.78 0 11.56 0 0 Z " fill="#EBE2F6" transform="translate(11,19)"/>
<path d="M0 0 C2.31 0 4.62 0 7 0 C7 2.31 7 4.62 7 7 C4.69 7.33 2.38 7.66 0 8 C0 5.36 0 2.72 0 0 Z " fill="#C0A1D6" transform="translate(19,42)"/>
<path d="M0 0 C0 2.64 0 5.28 0 8 C-2.31 8 -4.62 8 -7 8 C-7 5.69 -7 3.38 -7 1 C-2.25 0 -2.25 0 0 0 Z " fill="#C3A3D8" transform="translate(26,32)"/>
<path d="M0 0 C0.33 0 0.66 0 1 0 C1.33 6.93 1.66 13.86 2 21 C2.33 20.67 2.66 20.34 3 20 C5.67058851 19.85884839 8.32432238 19.95752893 11 20 C11 20.66 11 21.32 11 22 C9.865625 22.12375 8.73125 22.2475 7.5625 22.375 C5.7990625 22.684375 5.7990625 22.684375 4 23 C3.67 23.66 3.34 24.32 3 25 C2.01 25 1.02 25 0 25 C-0.19585353 21.02119772 -0.3802867 17.04194844 -0.5625 13.0625 C-0.61857422 11.92619141 -0.67464844 10.78988281 -0.73242188 9.61914062 C-0.78076172 8.53955078 -0.82910156 7.45996094 -0.87890625 6.34765625 C-0.9260376 5.34742432 -0.97316895 4.34719238 -1.02172852 3.31665039 C-1 1 -1 1 0 0 Z " fill="#DEACEB" transform="translate(40,11)"/>
<path d="M0 0 C2.97 0 5.94 0 9 0 C9 0.66 9 1.32 9 2 C9.66 2 10.32 2 11 2 C11 3.32 11 4.64 11 6 C7.37 6.33 3.74 6.66 0 7 C0.33 5.68 0.66 4.36 1 3 C1 3.66 1 4.32 1 5 C2.32 4.34 3.64 3.68 5 3 C3.35 2.67 1.7 2.34 0 2 C0 1.34 0 0.68 0 0 Z " fill="#D6C0E5" transform="translate(28,32)"/>
<path d="M0 0 C2.31 0 4.62 0 7 0 C7 2.31 7 4.62 7 7 C4.69 7 2.38 7 0 7 C0 4.69 0 2.38 0 0 Z " fill="#CBACE0" transform="translate(19,23)"/>
<path d="M0 0 C-0.33 0.99 -0.66 1.98 -1 3 C-1.66 3 -2.32 3 -3 3 C-3 3.66 -3 4.32 -3 5 C-4.98 5.33 -6.96 5.66 -9 6 C-9 5.01 -9 4.02 -9 3 C-9.66 3 -10.32 3 -11 3 C-11.33 4.32 -11.66 5.64 -12 7 C-12 5.35 -12 3.7 -12 2 C-8.09971775 -0.60018816 -4.52565431 -0.15085514 0 0 Z " fill="#BA91D0" transform="translate(22,12)"/>
<path d="M0 0 C2.31 0 4.62 0 7 0 C7.33 0.66 7.66 1.32 8 2 C7.01 2 6.02 2 5 2 C5 2.66 5 3.32 5 4 C3.35 4 1.7 4 0 4 C0 2.68 0 1.36 0 0 Z M-7 3 C-5.02 3 -3.04 3 -1 3 C-2 4.5 -2 4.5 -4 6 C-6.71846235 6.27345479 -9.25677199 6.13491285 -12 6 C-12 5.67 -12 5.34 -12 5 C-10.35 4.67 -8.7 4.34 -7 4 C-7 3.67 -7 3.34 -7 3 Z " fill="#ECD7F5" transform="translate(44,33)"/>
<path d="M0 0 C0.33 0 0.66 0 1 0 C1.66 8.91 2.32 17.82 3 27 C2.01 26.67 1.02 26.34 0 26 C0 17.42 0 8.84 0 0 Z " fill="#DCD3EC" transform="translate(11,27)"/>
<path d="M0 0 C0.66 0.33 1.32 0.66 2 1 C3.03568517 5.34987771 3.08910759 9.54462072 3 14 C2.34 13.67 1.68 13.34 1 13 C0.40644386 10.35139573 0.25790731 7.70802678 0 5 C-0.66 5 -1.32 5 -2 5 C-1.34 3.35 -0.68 1.7 0 0 Z " fill="#DBBEDD" transform="translate(46,11)"/>
<path d="M0 0 C0.33 0 0.66 0 1 0 C1 1.98 1 3.96 1 6 C2.32 5.67 3.64 5.34 5 5 C4.67 6.32 4.34 7.64 4 9 C2.68 8.67 1.36 8.34 0 8 C-0.38063221 5.6739143 -0.71269945 3.33944736 -1 1 C-0.67 0.67 -0.34 0.34 0 0 Z " fill="#FCE5FE" transform="translate(49,17)"/>
<path d="M0 0 C2.64 0 5.28 0 8 0 C8 0.66 8 1.32 8 2 C6.865625 2.12375 5.73125 2.2475 4.5625 2.375 C2.7990625 2.684375 2.7990625 2.684375 1 3 C0.67 3.66 0.34 4.32 0 5 C-0.66 5 -1.32 5 -2 5 C-1.34 3.35 -0.68 1.7 0 0 Z " fill="#DABBE3" transform="translate(43,31)"/>
<path d="M0 0 C2.64 0.33 5.28 0.66 8 1 C8 1.99 8 2.98 8 4 C5.36 4 2.72 4 0 4 C0 2.68 0 1.36 0 0 Z " fill="#E9D7F5" transform="translate(28,26)"/>
<path d="M0 0 C1.65 0 3.3 0 5 0 C5 1.32 5 2.64 5 4 C3.35 4 1.7 4 0 4 C0 2.68 0 1.36 0 0 Z " fill="#B98BD6" transform="translate(20,44)"/>
<path d="M0 0 C0 0.66 0 1.32 0 2 C-0.66 2 -1.32 2 -2 2 C-2.33 2.66 -2.66 3.32 -3 4 C-3 3.01 -3 2.02 -3 1 C-3.66 1 -4.32 1 -5 1 C-5.33 2.32 -5.66 3.64 -6 5 C-6 3.35 -6 1.7 -6 0 C-3.50907189 -1.24546405 -2.58919267 -0.7767578 0 0 Z " fill="#A278B3" transform="translate(16,14)"/>
</svg>
