<?xml version="1.0" encoding="UTF-8"?>
<svg xmlns="http://www.w3.org/2000/svg" width="55" height="54" viewBox="0 0 55 54" fill="none">
  <path d="M27.689 15.273L28.2902 15.4233L27.9707 15.9552C27.8677 16.1273 27.8251 16.3289 27.8497 16.528C27.8743 16.7271 27.9648 16.9123 28.1066 17.0541L30.6518 19.6002C30.7937 19.7423 30.979 19.8329 31.1783 19.8575C31.3776 19.8821 31.5794 19.8394 31.7516 19.7361L32.2835 19.4166L32.4338 20.0178C32.4824 20.2126 32.5947 20.3855 32.7529 20.5092C32.9111 20.6328 33.1061 20.6999 33.3068 20.7H36.9068C37.1076 20.6999 37.3026 20.6328 37.4608 20.5092C37.6189 20.3855 37.7313 20.2126 37.7798 20.0178L37.9301 19.4166L38.462 19.7361C38.6342 19.8394 38.836 19.8821 39.0353 19.8575C39.2346 19.8329 39.42 19.7423 39.5618 19.6002L42.107 17.0541C42.2489 16.9123 42.3394 16.7271 42.364 16.528C42.3886 16.3289 42.346 16.1273 42.2429 15.9552L41.9234 15.4233L42.5246 15.273C42.7194 15.2244 42.8924 15.1121 43.016 14.9539C43.1396 14.7957 43.2068 14.6008 43.2068 14.4V10.8C43.2068 10.5992 43.1396 10.4043 43.016 10.2461C42.8924 10.0879 42.7194 9.97558 42.5246 9.927L41.9234 9.7767L42.2429 9.2448C42.346 9.07269 42.3886 8.87107 42.364 8.67198C42.3394 8.47288 42.2489 8.28772 42.107 8.1459L39.5618 5.5998C39.42 5.4577 39.2346 5.36714 39.0353 5.34251C38.836 5.31788 38.6342 5.36061 38.462 5.4639L37.9301 5.7834L37.7798 5.1822C37.7313 4.98741 37.6189 4.81446 37.4608 4.69084C37.3026 4.56723 37.1076 4.50006 36.9068 4.5H33.3068C33.1061 4.50006 32.9111 4.56723 32.7529 4.69084C32.5947 4.81446 32.4824 4.98741 32.4338 5.1822L32.2835 5.7834L31.7516 5.4639C31.5794 5.36061 31.3776 5.31788 31.1783 5.34251C30.979 5.36714 30.7937 5.4577 30.6518 5.5998L28.1066 8.1459C27.9648 8.28772 27.8743 8.47288 27.8497 8.67198C27.8251 8.87107 27.8677 9.07269 27.9707 9.2448L28.2902 9.7767L27.689 9.927C27.4942 9.97558 27.3213 10.0879 27.1977 10.2461C27.0741 10.4043 27.0069 10.5992 27.0068 10.8V14.4C27.0069 14.6008 27.0741 14.7957 27.1977 14.9539C27.3213 15.1121 27.4942 15.2244 27.689 15.273ZM28.8068 11.5029L29.9048 11.2329C30.0413 11.1988 30.1679 11.1332 30.2744 11.0414C30.3809 10.9496 30.4645 10.834 30.5183 10.7041C30.5721 10.5741 30.5947 10.4334 30.5843 10.2931C30.5739 10.1529 30.5307 10.017 30.4583 9.8964L29.876 8.9262L31.4285 7.3737L32.3987 7.956C32.5193 8.02841 32.6552 8.07154 32.7955 8.08195C32.9357 8.09236 33.0765 8.06975 33.2064 8.01593C33.3364 7.96212 33.4519 7.87859 33.5437 7.77206C33.6356 7.66553 33.7012 7.53896 33.7352 7.4025L34.0052 6.3045H36.1994L36.4694 7.4025C36.5035 7.53896 36.5691 7.66553 36.6609 7.77206C36.7528 7.87859 36.8683 7.96212 36.9983 8.01593C37.1282 8.06975 37.2689 8.09236 37.4092 8.08195C37.5495 8.07154 37.6854 8.02841 37.8059 7.956L38.7761 7.3737L40.3286 8.9262L39.7463 9.8964C39.6739 10.017 39.6308 10.1529 39.6204 10.2931C39.61 10.4334 39.6326 10.5741 39.6864 10.7041C39.7402 10.834 39.8237 10.9496 39.9303 11.0414C40.0368 11.1332 40.1634 11.1988 40.2998 11.2329L41.3978 11.5029V13.6971L40.2998 13.9671C40.1634 14.0012 40.0368 14.0668 39.9303 14.1586C39.8237 14.2504 39.7402 14.366 39.6864 14.4959C39.6326 14.6259 39.61 14.7666 39.6204 14.9069C39.6308 15.0471 39.6739 15.183 39.7463 15.3036L40.3286 16.2738L38.7761 17.8272L37.8059 17.244C37.6854 17.1716 37.5495 17.1285 37.4092 17.118C37.2689 17.1076 37.1282 17.1302 36.9983 17.1841C36.8683 17.2379 36.7528 17.3214 36.6609 17.4279C36.5691 17.5345 36.5035 17.661 36.4694 17.7975L36.1994 18.8955H34.0097L33.7397 17.7975C33.7057 17.661 33.6401 17.5345 33.5482 17.4279C33.4564 17.3214 33.3409 17.2379 33.2109 17.1841C33.081 17.1302 32.9402 17.1076 32.8 17.118C32.6597 17.1285 32.5238 17.1716 32.4032 17.244L31.433 17.8272L29.8805 16.2738L30.4628 15.3036C30.5352 15.183 30.5784 15.0471 30.5888 14.9069C30.5992 14.7666 30.5766 14.6259 30.5228 14.4959C30.469 14.366 30.3854 14.2504 30.2789 14.1586C30.1724 14.0668 30.0458 14.0012 29.9093 13.9671L28.8113 13.6971L28.8068 11.5029Z" fill="#D96122"></path>
  <path d="M51.3076 38.7C50.7508 38.7029 50.2085 38.8772 49.7544 39.1993C49.3003 39.5213 48.9564 39.9755 48.7696 40.5H45.9076C45.6689 40.5 45.44 40.4052 45.2712 40.2364C45.1024 40.0676 45.0076 39.8387 45.0076 39.6V33.3H46.8076C48.7171 33.3 50.5485 32.5414 51.8987 31.1912C53.249 29.8409 54.0076 28.0096 54.0076 26.1C54.0076 24.1904 53.249 22.3591 51.8987 21.0088C50.5485 19.6586 48.7171 18.9 46.8076 18.9H46.0156C47.123 16.9851 47.7066 14.8123 47.7076 12.6003C47.7086 10.3882 47.127 8.21488 46.0212 6.299C44.9155 4.38312 43.3247 2.79226 41.4088 1.68649C39.493 0.580717 37.3196 -0.000953879 35.1076 1.17419e-06C32.3924 0.0111827 29.753 0.895818 27.5795 2.5231C25.406 4.15037 23.8139 6.4339 23.0386 9.036C21.4661 7.53585 19.4437 6.59483 17.2833 6.3581C15.123 6.12137 12.9447 6.60209 11.0847 7.7261C9.22467 8.85011 7.78617 10.5549 6.99114 12.5776C6.19612 14.6002 6.08874 16.8283 6.68558 18.918C5.01219 19.0395 3.43378 19.7417 2.22298 20.9031C1.01218 22.0646 0.245023 23.6125 0.0540025 25.2793C-0.137018 26.9462 0.260097 28.6275 1.17676 30.0328C2.09342 31.438 3.47207 32.479 5.07458 32.976C5.21845 33.3962 5.39291 33.8053 5.59658 34.2H5.40758C3.97541 34.2 2.6019 34.7689 1.58921 35.7816C0.576511 36.7943 0.00758443 38.1678 0.00758443 39.6C0.00758443 41.0322 0.576511 42.4057 1.58921 43.4184C2.6019 44.4311 3.97541 45 5.40758 45H12.6076V49.5C12.6076 49.7387 12.5128 49.9676 12.344 50.1364C12.1752 50.3052 11.9463 50.4 11.7076 50.4H5.24558C5.03328 49.7995 4.61552 49.2934 4.06615 48.9711C3.51678 48.6489 2.87117 48.5312 2.24342 48.6389C1.61568 48.7466 1.04622 49.0727 0.63569 49.5597C0.225162 50.0467 0 50.6631 0 51.3C0 51.9369 0.225162 52.5533 0.63569 53.0403C1.04622 53.5272 1.61568 53.8534 2.24342 53.9611C2.87117 54.0688 3.51678 53.9511 4.06615 53.6289C4.61552 53.3066 5.03328 52.8005 5.24558 52.2H11.7076C12.423 52.1979 13.1085 51.9127 13.6144 51.4068C14.1203 50.9009 14.4054 50.2154 14.4076 49.5V45H26.1076V47.7C26.1097 48.4154 26.3949 49.1009 26.9008 49.6068C27.4066 50.1127 28.0922 50.3979 28.8076 50.4H45.1696C45.3819 51.0005 45.7996 51.5066 46.349 51.8289C46.8984 52.1511 47.544 52.2688 48.1717 52.1611C48.7995 52.0534 49.3689 51.7272 49.7795 51.2403C50.19 50.7533 50.4152 50.1369 50.4152 49.5C50.4152 48.8631 50.19 48.2467 49.7795 47.7597C49.3689 47.2727 48.7995 46.9466 48.1717 46.8389C47.544 46.7312 46.8984 46.8489 46.349 47.1711C45.7996 47.4934 45.3819 47.9995 45.1696 48.6H28.8076C28.5689 48.6 28.34 48.5052 28.1712 48.3364C28.0024 48.1676 27.9076 47.9387 27.9076 47.7V45H36.0076C37.3931 45.0002 38.7256 44.4678 39.7296 43.513C40.7336 42.5582 41.3321 41.2541 41.4015 39.8703C41.4708 38.4866 41.0057 37.1291 40.1022 36.0787C39.1988 35.0283 37.9261 34.3654 36.5476 34.227C36.6913 33.9325 36.7971 33.6211 36.8626 33.3H43.2076V39.6C43.2097 40.3154 43.4949 41.0009 44.0007 41.5068C44.5066 42.0127 45.1922 42.2979 45.9076 42.3H48.7696C48.9347 42.767 49.2251 43.1796 49.609 43.4926C49.9928 43.8056 50.4554 44.0069 50.9461 44.0746C51.4368 44.1423 51.9366 44.0738 52.3909 43.8764C52.8452 43.6791 53.2365 43.3606 53.5219 42.9557C53.8073 42.5509 53.9758 42.0754 54.0091 41.5812C54.0423 41.087 53.939 40.5931 53.7103 40.1537C53.4817 39.7143 53.1366 39.3463 52.7128 39.0899C52.289 38.8335 51.8029 38.6986 51.3076 38.7ZM2.70758 52.2C2.52958 52.2 2.35558 52.1472 2.20757 52.0483C2.05957 51.9494 1.94421 51.8089 1.87609 51.6444C1.80797 51.48 1.79015 51.299 1.82488 51.1244C1.8596 50.9498 1.94532 50.7895 2.07119 50.6636C2.19706 50.5377 2.35742 50.452 2.532 50.4173C2.70659 50.3826 2.88755 50.4004 3.052 50.4685C3.21645 50.5366 3.35701 50.652 3.45591 50.8C3.5548 50.948 3.60758 51.122 3.60758 51.3C3.60758 51.5387 3.51276 51.7676 3.34398 51.9364C3.1752 52.1052 2.94628 52.2 2.70758 52.2ZM47.7076 48.6C47.8856 48.6 48.0596 48.6528 48.2076 48.7517C48.3556 48.8506 48.4709 48.9911 48.5391 49.1556C48.6072 49.32 48.625 49.501 48.5903 49.6756C48.5556 49.8502 48.4698 50.0105 48.344 50.1364C48.2181 50.2623 48.0577 50.348 47.8832 50.3827C47.7086 50.4174 47.5276 50.3996 47.3632 50.3315C47.1987 50.2634 47.0581 50.148 46.9593 50C46.8604 49.852 46.8076 49.678 46.8076 49.5C46.8076 49.2613 46.9024 49.0324 47.0712 48.8636C47.24 48.6948 47.4689 48.6 47.7076 48.6ZM39.6076 39.6C39.6076 40.5548 39.2283 41.4704 38.5532 42.1456C37.878 42.8207 36.9624 43.2 36.0076 43.2H5.40758C4.4528 43.2 3.53713 42.8207 2.862 42.1456C2.18687 41.4704 1.80758 40.5548 1.80758 39.6C1.80758 38.6452 2.18687 37.7295 2.862 37.0544C3.53713 36.3793 4.4528 36 5.40758 36H7.21658C7.38372 36 7.54756 35.9534 7.68974 35.8656C7.83192 35.7777 7.94682 35.652 8.02157 35.5025C8.09632 35.353 8.12796 35.1856 8.11295 35.0192C8.09794 34.8527 8.03687 34.6937 7.93658 34.56C6.93152 33.2304 6.36196 31.6226 6.30588 29.9568C6.2498 28.291 6.70994 26.6486 7.62331 25.2544C8.53668 23.8602 9.85864 22.7824 11.4082 22.1685C12.9578 21.5546 14.6592 21.4346 16.2796 21.825C16.1943 21.9626 16.1484 22.1209 16.1468 22.2827C16.1453 22.4446 16.1881 22.6038 16.2706 22.743L16.5946 23.274L15.9916 23.427C15.7965 23.4752 15.6231 23.5874 15.4991 23.7456C15.3752 23.9038 15.3077 24.099 15.3076 24.3V27.9C15.3077 28.101 15.3752 28.2962 15.4991 28.4544C15.6231 28.6126 15.7965 28.7248 15.9916 28.773L16.5946 28.926L16.2706 29.457C16.1676 29.6289 16.125 29.8303 16.1495 30.0292C16.1739 30.2281 16.264 30.4131 16.4056 30.555L18.9526 33.102C19.0944 33.2435 19.2795 33.3337 19.4784 33.3581C19.6773 33.3826 19.8787 33.3399 20.0506 33.237L20.5816 32.913L20.7346 33.516C20.7828 33.7111 20.895 33.8845 21.0532 34.0084C21.2114 34.1324 21.4066 34.1998 21.6076 34.2H25.2076C25.4086 34.1998 25.6037 34.1324 25.762 34.0084C25.9202 33.8845 26.0323 33.7111 26.0806 33.516L26.2336 32.913L26.7646 33.237C26.9365 33.3399 27.1379 33.3826 27.3368 33.3581C27.5357 33.3337 27.7207 33.2435 27.8626 33.102L30.4096 30.555C30.5511 30.4131 30.6412 30.2281 30.6657 30.0292C30.6902 29.8303 30.6475 29.6289 30.5446 29.457L30.2206 28.926L30.8236 28.773C31.0187 28.7248 31.1921 28.6126 31.316 28.4544C31.44 28.2962 31.5074 28.101 31.5076 27.9V27.459C32.5701 27.9057 33.4779 28.6548 34.1179 29.6134C34.758 30.5719 35.1022 31.6974 35.1076 32.85C35.041 33.2265 34.897 33.5851 34.6846 33.903C34.5202 34.1883 34.3788 34.4863 34.2616 34.794C34.2139 34.9309 34.1989 35.077 34.2176 35.2208C34.2364 35.3645 34.2884 35.5019 34.3696 35.622C34.454 35.7388 34.5649 35.8339 34.6932 35.8996C34.8214 35.9654 34.9635 35.9997 35.1076 36H36.0076C36.9624 36 37.878 36.3793 38.5532 37.0544C39.2283 37.7295 39.6076 38.6452 39.6076 39.6ZM18.7636 23.391L18.1786 22.419L19.7266 20.871L20.6986 21.447C20.8189 21.521 20.9551 21.5654 21.096 21.5763C21.2368 21.5873 21.3783 21.5645 21.5086 21.51C21.6385 21.4562 21.7541 21.3729 21.8463 21.2666C21.9384 21.1604 22.0046 21.0342 22.0396 20.898L22.3096 19.8H24.5056L24.7756 20.898C24.8105 21.0342 24.8767 21.1604 24.9689 21.2666C25.061 21.3729 25.1767 21.4562 25.3066 21.51C25.4369 21.5645 25.5783 21.5873 25.7192 21.5763C25.86 21.5654 25.9963 21.521 26.1166 21.447L27.0886 20.871L28.6366 22.419L28.0516 23.391C27.981 23.5128 27.9394 23.6492 27.9301 23.7897C27.9207 23.9302 27.9438 24.0709 27.9976 24.201C28.0514 24.3309 28.1347 24.4465 28.2409 24.5387C28.3472 24.6309 28.4734 24.697 28.6096 24.732L29.7076 25.002V27.198L28.6096 27.468C28.4734 27.503 28.3472 27.5691 28.2409 27.6613C28.1347 27.7535 28.0514 27.8691 27.9976 27.999C27.9438 28.1291 27.9207 28.2698 27.9301 28.4103C27.9394 28.5508 27.981 28.6872 28.0516 28.809L28.6366 29.781L27.0886 31.329L26.1166 30.753C25.9963 30.679 25.86 30.6346 25.7192 30.6237C25.5783 30.6127 25.4369 30.6355 25.3066 30.69C25.1767 30.7438 25.061 30.8271 24.9689 30.9334C24.8767 31.0396 24.8105 31.1658 24.7756 31.302L24.5056 32.4H22.3096L22.0396 31.302C22.0046 31.1658 21.9384 31.0396 21.8463 30.9334C21.7541 30.8271 21.6385 30.7438 21.5086 30.69C21.3783 30.6355 21.2368 30.6127 21.096 30.6237C20.9551 30.6346 20.8189 30.679 20.6986 30.753L19.7266 31.329L18.1786 29.781L18.7636 28.809C18.8341 28.6872 18.8757 28.5508 18.8851 28.4103C18.8944 28.2698 18.8714 28.1291 18.8176 27.999C18.7638 27.8691 18.6804 27.7535 18.5742 27.6613C18.468 27.5691 18.3418 27.503 18.2056 27.468L17.1076 27.198V25.002L18.2056 24.732C18.3418 24.697 18.468 24.6309 18.5742 24.5387C18.6804 24.4465 18.7638 24.3309 18.8176 24.201C18.8714 24.0709 18.8944 23.9302 18.8851 23.7897C18.8757 23.6492 18.8341 23.5128 18.7636 23.391ZM36.7816 31.5C36.5299 30.1202 35.9054 28.8355 34.9757 27.7853C34.046 26.7351 32.8467 25.9593 31.5076 25.542V24.3C31.5074 24.099 31.44 23.9038 31.316 23.7456C31.1921 23.5874 31.0187 23.4752 30.8236 23.427L30.2206 23.274L30.5446 22.743C30.6475 22.5711 30.6902 22.3697 30.6657 22.1708C30.6412 21.9719 30.5511 21.7869 30.4096 21.645L27.8626 19.098C27.7197 18.9581 27.5349 18.8691 27.3364 18.8447C27.138 18.8203 26.937 18.8619 26.7646 18.963L26.2336 19.287L26.0806 18.684C26.0323 18.4889 25.9202 18.3155 25.762 18.1916C25.6037 18.0676 25.4086 18.0002 25.2076 18H21.6076C21.4066 18.0002 21.2114 18.0676 21.0532 18.1916C20.895 18.3155 20.7828 18.4889 20.7346 18.684L20.5816 19.287L20.0506 18.963C19.8781 18.8619 19.6772 18.8203 19.4787 18.8447C19.2803 18.8691 19.0954 18.9581 18.9526 19.098L17.6836 20.367C16.1918 19.8385 14.5948 19.6762 13.0272 19.8937C11.4596 20.1113 9.96717 20.7024 8.67569 21.6172C7.38421 22.532 6.33145 23.7437 5.60608 25.1504C4.88071 26.557 4.50397 28.1173 4.50758 29.7C4.50758 30.069 4.53458 30.438 4.57058 30.807C3.53053 30.2222 2.71343 29.3094 2.24693 28.2112C1.78043 27.113 1.69079 25.8913 1.99202 24.7367C2.29325 23.5822 2.96837 22.5599 3.91195 21.8296C4.85552 21.0993 6.01441 20.7021 7.20758 20.7H7.96358C8.11315 20.6997 8.26034 20.6626 8.39218 20.5919C8.52402 20.5213 8.63646 20.4193 8.71958 20.295C8.79931 20.1687 8.84747 20.0251 8.86 19.8763C8.87253 19.7275 8.84907 19.5778 8.79158 19.44C8.33645 18.4207 8.10329 17.3163 8.10758 16.2C8.108 14.4832 8.6539 12.8109 9.66649 11.4245C10.6791 10.0381 12.106 9.00929 13.7413 8.48655C15.3766 7.96382 17.1357 7.97419 18.7647 8.51619C20.3937 9.05818 21.8084 10.1037 22.8046 11.502C22.9083 11.649 23.0541 11.7612 23.2227 11.8238C23.3914 11.8865 23.575 11.8966 23.7496 11.853C23.9237 11.8099 24.081 11.7158 24.2013 11.5827C24.3216 11.4496 24.3993 11.2836 24.4246 11.106C24.8007 8.39756 26.1909 5.93285 28.3142 4.20988C30.4375 2.4869 33.1357 1.63411 35.8635 1.82382C38.5914 2.01352 41.1455 3.23157 43.0099 5.23187C44.8743 7.23216 45.91 9.86557 45.9076 12.6C45.9146 15.0111 45.1022 17.3531 43.6036 19.242C43.4985 19.375 43.4331 19.5349 43.4149 19.7034C43.3967 19.8719 43.4265 20.0422 43.5008 20.1945C43.5751 20.3468 43.6909 20.4751 43.8348 20.5645C43.9788 20.654 44.1451 20.7009 44.3146 20.7H46.8076C48.2397 20.7 49.6133 21.2689 50.626 22.2816C51.6386 23.2943 52.2076 24.6678 52.2076 26.1C52.2076 27.5322 51.6386 28.9057 50.626 29.9184C49.6133 30.9311 48.2397 31.5 46.8076 31.5H36.7816ZM51.3076 42.3C51.1296 42.3 50.9556 42.2472 50.8076 42.1483C50.6596 42.0494 50.5442 41.9089 50.4761 41.7444C50.408 41.58 50.3901 41.399 50.4249 41.2244C50.4596 41.0498 50.5453 40.8895 50.6712 40.7636C50.797 40.6377 50.9574 40.552 51.132 40.5173C51.3066 40.4826 51.4875 40.5004 51.652 40.5685C51.8164 40.6366 51.957 40.752 52.0559 40.9C52.1548 41.048 52.2076 41.222 52.2076 41.4C52.2076 41.6387 52.1128 41.8676 51.944 42.0364C51.7752 42.2052 51.5463 42.3 51.3076 42.3Z" fill="#D96122"></path>
</svg>
